<svg width="32" height="32" viewBox="0 0 32 32" fill="none" xmlns="http://www.w3.org/2000/svg">
<path d="M21.5943 11.0975C20.9995 9.08578 19.0906 8.74537 16.8105 8.98771L16.2604 6.14338L14.523 6.48318L15.0586 9.25254C14.6024 9.34162 14.1373 9.44182 13.6753 9.54166L13.1366 6.7539L11.4004 7.09309L11.9496 9.93674C11.575 10.0179 11.207 10.097 10.8469 10.1676L10.845 10.1588L8.44899 10.6262L8.80699 12.4752C8.80699 12.4752 10.085 12.2002 10.0683 12.2279C10.7719 12.0906 11.0801 12.4528 11.2142 12.7913L11.8409 16.0316C11.8895 16.0223 11.9532 16.012 12.0268 16.0078L11.8438 16.0436L12.7207 20.5833C12.7324 20.81 12.6703 21.1873 12.1789 21.2842C12.2049 21.2995 10.9161 21.5306 10.9161 21.5306L10.971 23.6662L13.232 23.2242C13.6527 23.1425 14.068 23.0687 14.4744 22.9921L15.0316 25.8691L16.7669 25.5303L16.2169 22.6838C16.6948 22.6008 17.1566 22.5144 17.6067 22.4261L18.1537 25.2594L19.8908 24.9198L19.336 22.0481C22.2241 21.3105 24.1268 20.1776 23.8514 17.3955C23.6307 15.1545 22.4025 14.3752 20.6678 14.3019C21.5757 13.5931 22.0312 12.5694 21.5938 11.0977L21.5943 11.0975ZM20.3529 17.7237C20.7691 19.8735 17.0293 20.3509 15.8516 20.5818L15.115 16.7702C16.2927 16.5404 19.9186 15.4818 20.3534 17.7235L20.3529 17.7237ZM18.5048 12.5043C18.8824 14.4603 15.7582 14.8339 14.7772 15.0258L14.1089 11.5689C15.0899 11.377 18.1106 10.4641 18.5048 12.5043Z" fill="#84D12E"/>
</svg>
