<svg width="57" height="57" viewBox="0 0 57 57" fill="none" xmlns="http://www.w3.org/2000/svg">
<g filter="url(#filter0_d)">
<path d="M51.2973 32.1851C48.1583 44.7744 35.4051 52.4354 22.8129 49.2967C10.2265 46.158 2.56386 33.4063 5.70367 20.8178C8.84127 8.22696 21.5937 0.564528 34.1823 3.70323C46.7738 6.84193 54.4357 19.595 51.2966 32.1851H51.2973Z" fill="white"/>
</g>
<path d="M36.716 19.3001C35.8425 16.3454 33.0388 15.8454 29.6899 16.2014L28.882 12.0238L26.3301 12.5229L27.1167 16.5904C26.4467 16.7212 25.7636 16.8684 25.0851 17.015L24.2938 12.9205L21.7438 13.4187L22.5504 17.5953C22.0002 17.7145 21.4598 17.8307 20.9309 17.9344L20.9281 17.9215L17.4089 18.6079L17.9347 21.3236C17.9347 21.3236 19.8119 20.9197 19.7872 20.9604C20.8207 20.7588 21.2733 21.2907 21.4703 21.7879L22.3908 26.5471C22.4621 26.5335 22.5557 26.5183 22.6639 26.5121L22.3951 26.5648L23.6829 33.2324C23.7003 33.5654 23.609 34.1196 22.8872 34.2619C22.9255 34.2844 21.0325 34.6238 21.0325 34.6238L21.1131 37.7604L24.4339 37.1112C25.0519 36.9912 25.6619 36.8828 26.2588 36.7703L27.0772 40.9959L29.6258 40.4984L28.818 36.3176C29.52 36.1955 30.1982 36.0688 30.8592 35.939L31.6628 40.1005L34.214 39.6017L33.3993 35.3838C37.6412 34.3004 40.4357 32.6365 40.0312 28.5503C39.7071 25.2588 37.9031 24.1142 35.3553 24.0065C36.6888 22.9655 37.3578 21.462 36.7154 19.3004L36.716 19.3001ZM34.8928 29.0324C35.5041 32.1899 30.0112 32.891 28.2815 33.2302L27.1997 27.6319C28.9294 27.2944 34.2549 25.7396 34.8935 29.0321L34.8928 29.0324ZM32.1784 21.3663C32.7331 24.2392 28.1444 24.7879 26.7035 25.0698L25.7219 19.9925C27.1628 19.7106 31.5994 18.3698 32.1784 21.3663Z" fill="#84D12E"/>
<defs>
<filter id="filter0_d" x="0" y="0" width="57" height="57" filterUnits="userSpaceOnUse" color-interpolation-filters="sRGB">
<feFlood flood-opacity="0" result="BackgroundImageFix"/>
<feColorMatrix in="SourceAlpha" type="matrix" values="0 0 0 0 0 0 0 0 0 0 0 0 0 0 0 0 0 0 127 0"/>
<feOffset dy="2"/>
<feGaussianBlur stdDeviation="2.5"/>
<feColorMatrix type="matrix" values="0 0 0 0 0 0 0 0 0 0 0 0 0 0 0 0 0 0 0.1 0"/>
<feBlend mode="normal" in2="BackgroundImageFix" result="effect1_dropShadow"/>
<feBlend mode="normal" in="SourceGraphic" in2="effect1_dropShadow" result="shape"/>
</filter>
</defs>
</svg>
