<svg width="32" height="32" viewBox="0 0 32 32" fill="none" xmlns="http://www.w3.org/2000/svg">
<path d="M23.1099 14.065C23.421 11.9904 21.8348 10.8752 19.6659 10.1312L20.3695 7.32089L18.6512 6.89457L17.9662 9.63081C17.5151 9.51875 17.0513 9.41303 16.5904 9.30827L17.2803 6.55401L15.5634 6.12769L14.8594 8.93701C14.4856 8.85223 14.1186 8.76843 13.7625 8.68024L13.7644 8.67147L11.3954 8.08242L10.9384 9.90951C10.9384 9.90951 12.213 10.2004 12.186 10.2184C12.8818 10.3914 13.008 10.8498 12.9865 11.2133L12.1851 14.4148C12.233 14.427 12.2952 14.4446 12.3637 14.4719L12.1826 14.427L11.0588 18.9119C10.9737 19.1224 10.7579 19.4381 10.2716 19.3183C10.2887 19.3431 9.02295 19.0079 9.02295 19.0079L8.17017 20.9665L10.4061 21.5215C10.822 21.6253 11.2295 21.7339 11.6302 21.8362L10.9193 24.6792L12.6352 25.1055L13.3397 22.2932C13.808 22.4199 14.263 22.5368 14.7082 22.647L14.0066 25.446L15.7244 25.8724L16.4353 23.0353C19.3645 23.5873 21.5677 23.3646 22.4939 20.7268C23.241 18.6025 22.4572 17.3772 20.916 16.5776C22.0384 16.3189 22.8838 15.5837 23.1094 14.065H23.1099ZM19.1845 19.5458C18.6531 21.6701 15.0619 20.5222 13.897 20.2337L14.8403 16.468C16.0048 16.7574 19.7383 17.3304 19.185 19.5458H19.1845ZM19.7153 14.0343C19.231 15.9667 16.2416 14.9849 15.2714 14.7442L16.1266 11.3288C17.0968 11.5695 20.2203 12.0187 19.7153 14.0343Z" fill="#F7931A"/>
</svg>
