<svg width="57" height="57" viewBox="0 0 57 57" fill="none" xmlns="http://www.w3.org/2000/svg">
<g filter="url(#filter0_d)">
<path d="M51.2973 32.1851C48.1583 44.7744 35.4051 52.4354 22.8129 49.2967C10.2265 46.158 2.56386 33.4063 5.70367 20.8178C8.84127 8.22696 21.5937 0.564528 34.1823 3.70323C46.7738 6.84193 54.4357 19.595 51.2966 32.1851H51.2973Z" fill="white"/>
</g>
<g clip-path="url(#clip0)">
<path d="M27.52 8H29.4477C31.4586 8.1332 33.4585 8.53465 35.327 9.28945C39.952 11.108 43.7685 14.8801 45.6315 19.4903C48.1956 25.6286 47.0948 33.1156 42.8139 38.2234C39.9168 41.7791 35.6563 44.2008 31.109 44.8168C26.841 45.4255 22.3622 44.5061 18.7103 42.1991C15.8946 40.4453 13.5636 37.9219 12.054 34.9656C10.117 31.2526 9.52875 26.8645 10.3797 22.7685C11.2899 18.2287 14.0002 14.0865 17.7797 11.4169C20.6102 9.369 24.042 8.21645 27.52 8ZM26.373 8.83805C20.7453 9.4837 15.5727 13.0283 12.8902 18.0122C11.0753 21.3256 10.3501 25.2328 10.8977 28.9753C11.5175 33.4819 13.9687 37.698 17.5577 40.4879C20.2902 42.6431 23.6701 43.9659 27.1407 44.2248C31.072 44.5375 35.0976 43.4885 38.361 41.2741C42.3625 38.6249 45.2023 34.2922 46.0181 29.5618C46.488 26.7738 46.3289 23.8693 45.4668 21.1739C44.2366 17.2537 41.6003 13.7887 38.1408 11.5687C34.7017 9.31165 30.4559 8.333 26.373 8.83805Z" fill="#16498F"/>
<path d="M26.8186 16.1235C30.0357 15.5851 33.486 16.6396 35.8003 18.9485C37.8538 20.8873 39.0526 23.7048 38.9934 26.5298C39.0341 29.34 37.8298 32.1354 35.7855 34.0575C33.56 36.2701 30.2873 37.3265 27.1849 36.9176C24.2619 36.5661 21.5257 34.9048 19.8644 32.4721C18.0255 29.8672 17.5186 26.4003 18.4732 23.3644C19.5906 19.6274 22.965 16.7062 26.8186 16.1235ZM27.4605 16.7636C27.4624 17.6831 27.4642 18.6025 27.4624 19.522C27.9212 19.522 28.38 19.522 28.8388 19.5238C28.8406 18.5803 28.8425 17.6368 28.8388 16.6951C28.38 16.7099 27.9193 16.7321 27.4605 16.7636ZM30.7702 19.5664C31.9782 19.7292 33.2769 19.9142 34.2408 20.73C35.7115 22.0509 35.521 24.8241 33.7209 25.7824C34.7995 26.034 35.8669 26.7537 36.1333 27.8859C36.4793 29.3714 36.2036 31.1549 35.0104 32.202C33.8282 33.1751 32.228 33.3027 30.7665 33.4415C30.7739 34.3017 30.7702 35.162 30.7683 36.0241C33.8449 35.2711 36.4996 32.9808 37.6281 30.0171C38.6993 27.2828 38.4458 24.0656 36.9344 21.5477C35.5987 19.2759 33.3269 17.6072 30.7757 16.9671C30.7683 17.8329 30.7683 18.6987 30.7702 19.5664ZM21.5886 19.5294C22.9206 19.5941 24.2545 19.5793 25.5883 19.5775C25.5883 18.7653 25.5902 17.955 25.5846 17.1429C24.0917 17.6276 22.7615 18.4971 21.5886 19.5294ZM21.4295 19.6367C21.0762 20.0714 20.4213 20.8928 20.0328 21.6199C18.4658 24.2895 18.2882 27.7157 19.5962 30.524C20.7247 33.0419 22.9632 35.001 25.5846 35.8446C25.5883 35.0343 25.5865 34.224 25.5865 33.4156C24.2489 33.4026 22.9077 33.4507 21.572 33.3786C21.5868 32.633 21.7625 31.9041 22.016 31.2011C22.6709 31.1882 23.3535 31.3029 23.9862 31.0883C24.3562 30.7775 24.2508 30.2631 24.2711 29.8376C24.2508 27.4049 24.2804 24.9721 24.2582 22.5412C24.2822 22.149 24.0362 21.7253 23.6292 21.6476C22.9576 21.5126 22.2657 21.5662 21.5868 21.5607C21.5072 21.0131 21.498 20.4599 21.4906 19.9068C21.4906 19.9068 21.4998 19.7329 21.4406 19.62L21.4295 19.6367ZM27.5179 21.7272V25.3125C28.7148 25.2903 30.0431 25.4235 31.0902 24.7279C31.9597 24.1581 31.9042 22.7169 31.007 22.2045C29.958 21.5847 28.6797 21.7605 27.5179 21.7272ZM27.5179 27.2421V31.2196C28.996 31.1012 30.6536 31.3491 31.9394 30.4574C32.8588 29.8469 32.7478 28.3354 31.8006 27.8063C30.513 27.0367 28.9479 27.2809 27.5179 27.2421ZM27.4642 33.4692C27.4642 34.3887 27.4624 35.31 27.4605 36.2294C27.9397 36.2609 28.417 36.2794 28.8961 36.2942C28.8998 35.3525 28.898 34.4109 28.898 33.4692H27.4642Z" fill="#16498F"/>
<path d="M26.4813 9.7988C29.7225 9.451 33.0784 9.94495 35.9903 11.4397C39.7365 13.2768 42.7317 16.579 44.208 20.4807C45.7139 24.3879 45.6806 28.8575 44.121 32.7462C41.7493 38.8752 35.4871 43.2819 28.8937 43.2912C25.0216 43.4318 21.1255 42.1294 18.0934 39.7207C14.8596 37.2065 12.6229 33.4492 11.9329 29.4107C11.228 25.411 12.018 21.1615 14.1566 17.7038C16.7706 13.3674 21.453 10.3704 26.4813 9.7988ZM25.917 15.2267C23.2826 15.8205 20.8739 17.3764 19.2589 19.5428C17.4755 21.8885 16.6578 24.9392 17.0222 27.8603C17.3645 30.9868 19.072 33.9357 21.6121 35.7876C23.9893 37.5747 27.0788 38.3591 30.0203 37.9558C33.6556 37.5118 36.9985 35.1974 38.695 31.9507C39.9659 29.6345 40.3137 26.8817 39.8475 24.2972C39.2537 21.1634 37.2964 18.3162 34.5732 16.6549C32.0239 15.0676 28.8419 14.5588 25.917 15.2267Z" fill="#F2C94C"/>
</g>
<defs>
<filter id="filter0_d" x="0" y="0" width="57" height="57" filterUnits="userSpaceOnUse" color-interpolation-filters="sRGB">
<feFlood flood-opacity="0" result="BackgroundImageFix"/>
<feColorMatrix in="SourceAlpha" type="matrix" values="0 0 0 0 0 0 0 0 0 0 0 0 0 0 0 0 0 0 127 0"/>
<feOffset dy="2"/>
<feGaussianBlur stdDeviation="2.5"/>
<feColorMatrix type="matrix" values="0 0 0 0 0 0 0 0 0 0 0 0 0 0 0 0 0 0 0.1 0"/>
<feBlend mode="normal" in2="BackgroundImageFix" result="effect1_dropShadow"/>
<feBlend mode="normal" in="SourceGraphic" in2="effect1_dropShadow" result="shape"/>
</filter>
<clipPath id="clip0">
<rect width="37" height="37" fill="white" transform="translate(10 8)"/>
</clipPath>
</defs>
</svg>
