<svg width="57" height="57" viewBox="0 0 57 57" fill="none" xmlns="http://www.w3.org/2000/svg">
<g filter="url(#filter0_d)">
<path d="M52 26.4999C52 39.4786 41.4788 50 28.5001 50C15.5213 50 5 39.4786 5 26.4999C5 13.5212 15.5213 3 28.5001 3C41.4787 3 52 13.5212 52 26.4999Z" fill="white"/>
</g>
<path d="M41.6057 26.3252C41.0042 25.8645 40.102 25.4851 38.8991 25.187L37.9558 24.9837V21.0407C37.9832 21.0678 38.0105 21.0813 38.0379 21.0813C38.0652 21.0813 38.0789 21.0948 38.0789 21.122C38.8717 21.5013 39.2955 22.1517 39.3502 23.0732H42.5079C42.4532 21.4472 41.8381 20.2005 40.6625 19.3333C39.8969 18.7642 38.9947 18.3848 37.9558 18.1951V16H35.0442V18.1138C33.6772 18.2764 32.5973 18.71 31.8044 19.4146C30.7655 20.3361 30.2461 21.5014 30.2461 22.9106C30.2461 24.4282 30.7792 25.5528 31.8454 26.2846C32.4196 26.6911 33.4858 27.0704 35.0442 27.4228V31.6504C34.47 31.4878 34.0326 31.2304 33.7319 30.878C33.4038 30.4987 33.1987 29.9837 33.1167 29.3333H30C30 30.9322 30.5878 32.1924 31.7634 33.1138C32.6109 33.7642 33.7045 34.1843 35.0442 34.374V36H37.9558V34.4146C39.3775 34.2249 40.5121 33.7778 41.3596 33.0732C42.4532 32.1247 43 30.9322 43 29.4959C43 28.1138 42.5352 27.0569 41.6057 26.3252ZM35.0442 24.2927C34.5794 24.1572 34.2513 24.0352 34.0599 23.9268C33.5405 23.6558 33.2808 23.2358 33.2808 22.6667C33.2808 22.0434 33.5405 21.5691 34.0599 21.2439C34.3333 21.0813 34.6614 20.9458 35.0442 20.8374V24.2927ZM38.4479 31.5691C38.3113 31.6233 38.1472 31.6639 37.9558 31.6911V28.0732C38.4753 28.2358 38.8717 28.3984 39.1451 28.561C39.6099 28.8591 39.8423 29.2656 39.8423 29.7805C39.8423 30.6477 39.3775 31.2439 38.4479 31.5691Z" fill="#56CCF2"/>
<path d="M21.617 36C19.8794 36 18.3546 35.5926 17.0426 34.7778C15.7482 33.963 14.7465 32.8056 14.0372 31.3056C13.3457 29.787 13 28.0185 13 26C13 23.9815 13.3457 22.2222 14.0372 20.7222C14.7465 19.2037 15.7482 18.037 17.0426 17.2222C18.3546 16.4074 19.8883 16 21.6436 16C23.133 16 24.4273 16.2963 25.5266 16.8889C26.6436 17.4815 27.4681 18.3241 28 19.4167L25.8191 21.4167C24.8794 19.9352 23.5053 19.1944 21.6968 19.1944C20.1188 19.1944 18.9131 19.7778 18.0798 20.9444C17.2465 22.0926 16.8298 23.7778 16.8298 26C16.8298 28.2037 17.2376 29.8889 18.0532 31.0556C18.8688 32.2222 20.0479 32.8056 21.5904 32.8056C23.5053 32.8056 24.9149 32.0648 25.8191 30.5833L28 32.5833C27.4681 33.6759 26.6436 34.5185 25.5266 35.1111C24.4273 35.7037 23.1241 36 21.617 36Z" fill="#56CCF2"/>
<defs>
<filter id="filter0_d" x="0" y="0" width="57" height="57" filterUnits="userSpaceOnUse" color-interpolation-filters="sRGB">
<feFlood flood-opacity="0" result="BackgroundImageFix"/>
<feColorMatrix in="SourceAlpha" type="matrix" values="0 0 0 0 0 0 0 0 0 0 0 0 0 0 0 0 0 0 127 0"/>
<feOffset dy="2"/>
<feGaussianBlur stdDeviation="2.5"/>
<feColorMatrix type="matrix" values="0 0 0 0 0 0 0 0 0 0 0 0 0 0 0 0 0 0 0.1 0"/>
<feBlend mode="normal" in2="BackgroundImageFix" result="effect1_dropShadow"/>
<feBlend mode="normal" in="SourceGraphic" in2="effect1_dropShadow" result="shape"/>
</filter>
</defs>
</svg>
