<svg width="32" height="32" viewBox="0 0 32 32" fill="none" xmlns="http://www.w3.org/2000/svg">
<path d="M24.923 15.881C24.5135 15.5673 23.8992 15.309 23.0802 15.106L22.438 14.9677V12.283C22.4567 12.3015 22.4753 12.3107 22.4939 12.3107C22.5125 12.3107 22.5218 12.3199 22.5218 12.3383C23.0616 12.5967 23.3502 13.0395 23.3874 13.6668H25.5373C25.5001 12.5598 25.0813 11.711 24.2808 11.1206C23.7596 10.7331 23.1454 10.4748 22.438 10.3456V8.85106H20.4556V10.2903C19.5249 10.401 18.7896 10.6962 18.2498 11.1759C17.5425 11.8033 17.1888 12.5967 17.1888 13.5561C17.1888 14.5894 17.5518 15.3551 18.2778 15.8533C18.6687 16.1301 19.3946 16.3884 20.4556 16.6283V19.5067C20.0647 19.396 19.7669 19.2207 19.5621 18.9808C19.3388 18.7225 19.1992 18.3719 19.1433 17.9291H17.0213C17.0213 19.0177 17.4215 19.8757 18.2219 20.503C18.799 20.9459 19.5435 21.2318 20.4556 21.361V22.4681H22.438V21.3887C23.406 21.2595 24.1785 20.9551 24.7555 20.4753C25.5001 19.8296 25.8724 19.0177 25.8724 18.0398C25.8724 17.0988 25.5559 16.3792 24.923 15.881ZM20.4556 14.4971C20.1392 14.4049 19.9158 14.3219 19.7855 14.2481C19.4318 14.0635 19.255 13.7775 19.255 13.3901C19.255 12.9657 19.4318 12.6428 19.7855 12.4214C19.9717 12.3107 20.195 12.2184 20.4556 12.1446V14.4971ZM22.7731 19.4513C22.68 19.4882 22.5683 19.5159 22.438 19.5343V17.0711C22.7917 17.1818 23.0616 17.2925 23.2478 17.4032C23.5642 17.6062 23.7224 17.8829 23.7224 18.2335C23.7224 18.824 23.406 19.2299 22.7731 19.4513Z" fill="#56CCF2"/>
<path d="M11.3137 22.4681C10.1307 22.4681 9.09253 22.1907 8.19921 21.6359C7.31797 21.0812 6.63591 20.2931 6.15304 19.2719C5.68224 18.238 5.44684 17.0339 5.44684 15.6596C5.44684 14.2853 5.68224 13.0875 6.15304 12.0662C6.63591 11.0323 7.31797 10.238 8.19921 9.68321C9.09253 9.12845 10.1367 8.85106 11.3319 8.85106C12.3459 8.85106 13.2271 9.0528 13.9756 9.45626C14.7361 9.85973 15.2974 10.4334 15.6596 11.1773L14.1748 12.539C13.535 11.5303 12.5994 11.026 11.3681 11.026C10.2937 11.026 9.47279 11.4232 8.90542 12.2175C8.33804 12.9992 8.05435 14.1466 8.05435 15.6596C8.05435 17.16 8.332 18.3073 8.88731 19.1017C9.44261 19.896 10.2454 20.2931 11.2956 20.2931C12.5994 20.2931 13.5591 19.7888 14.1748 18.7801L15.6596 20.1418C15.2974 20.8857 14.7361 21.4594 13.9756 21.8629C13.2271 22.2664 12.3399 22.4681 11.3137 22.4681Z" fill="#56CCF2"/>
</svg>
