<svg width="57" height="57" viewBox="0 0 57 57" fill="none" xmlns="http://www.w3.org/2000/svg">
<g filter="url(#filter0_bd)">
<path d="M52 26.4999C52 39.4786 41.4788 50 28.5001 50C15.5213 50 5 39.4786 5 26.4999C5 13.5212 15.5213 3 28.5001 3C41.4787 3 52 13.5212 52 26.4999Z" fill="white"/>
</g>
<path d="M42.25 33.159C42.25 34.6582 41.056 35.875 39.5833 35.875H16.6667C15.194 35.875 14 34.6582 14 33.159L14 17.966C14 16.4654 15.194 15.25 16.6667 15.25H39.5833C41.056 15.25 42.25 16.4654 42.25 17.966V33.159Z" fill="#3DBA6F"/>
<rect opacity="0.4" x="14" y="29" width="28" height="3" fill="url(#paint0_linear)"/>
<path d="M25.9274 26.2602C25.4648 25.8916 24.7708 25.5881 23.8454 25.3496L23.1199 25.187V22.0325C23.1409 22.0542 23.1619 22.065 23.183 22.065C23.204 22.065 23.2145 22.0759 23.2145 22.0976C23.8244 22.4011 24.1504 22.9214 24.1924 23.6585H26.6215C26.5794 22.3577 26.1062 21.3604 25.2019 20.6667C24.613 20.2114 23.919 19.9079 23.1199 19.7561V18H20.8801V19.6911C19.8286 19.8211 18.9979 20.168 18.388 20.7317C17.5889 21.4688 17.1893 22.4011 17.1893 23.5285C17.1893 24.7425 17.5994 25.6423 18.4196 26.2276C18.8612 26.5528 19.6814 26.8564 20.8801 27.1382V30.5203C20.4385 30.3902 20.102 30.1843 19.8707 29.9024C19.6183 29.5989 19.4606 29.187 19.3975 28.6667H17C17 29.9458 17.4521 30.9539 18.3565 31.6911C19.0084 32.2114 19.8496 32.5474 20.8801 32.6992V34H23.1199V32.7317C24.2135 32.5799 25.0862 32.2222 25.7382 31.6585C26.5794 30.8997 27 29.9458 27 28.7967C27 27.6911 26.6425 26.8455 25.9274 26.2602ZM20.8801 24.6341C20.5226 24.5258 20.2703 24.4282 20.123 24.3415C19.7234 24.1247 19.5237 23.7886 19.5237 23.3333C19.5237 22.8347 19.7234 22.4553 20.123 22.1951C20.3333 22.065 20.5857 21.9567 20.8801 21.8699V24.6341ZM23.4984 30.4553C23.3933 30.4986 23.2671 30.5312 23.1199 30.5528V27.6585C23.5195 27.7886 23.8244 27.9187 24.0347 28.0488C24.3922 28.2873 24.571 28.6125 24.571 29.0244C24.571 29.7181 24.2135 30.1951 23.4984 30.4553Z" fill="white"/>
<rect x="31" y="18" width="8" height="8" fill="white" fill-opacity="0.15"/>
<defs>
<filter id="filter0_bd" x="-11" y="-13" width="79" height="79" filterUnits="userSpaceOnUse" color-interpolation-filters="sRGB">
<feFlood flood-opacity="0" result="BackgroundImageFix"/>
<feGaussianBlur in="BackgroundImage" stdDeviation="8"/>
<feComposite in2="SourceAlpha" operator="in" result="effect1_backgroundBlur"/>
<feColorMatrix in="SourceAlpha" type="matrix" values="0 0 0 0 0 0 0 0 0 0 0 0 0 0 0 0 0 0 127 0"/>
<feOffset dy="2"/>
<feGaussianBlur stdDeviation="2.5"/>
<feColorMatrix type="matrix" values="0 0 0 0 0 0 0 0 0 0 0 0 0 0 0 0 0 0 0.1 0"/>
<feBlend mode="normal" in2="effect1_backgroundBlur" result="effect2_dropShadow"/>
<feBlend mode="normal" in="SourceGraphic" in2="effect2_dropShadow" result="shape"/>
</filter>
<linearGradient id="paint0_linear" x1="42" y1="30" x2="14" y2="30" gradientUnits="userSpaceOnUse">
<stop stop-color="#282D33"/>
<stop offset="1" stop-color="#282D33" stop-opacity="0"/>
</linearGradient>
</defs>
</svg>
