<svg width="57" height="57" viewBox="0 0 57 57" fill="none" xmlns="http://www.w3.org/2000/svg">
<g filter="url(#filter0_bd)">
<path d="M52 26.4999C52 39.4786 41.4788 50 28.5001 50C15.5213 50 5 39.4786 5 26.4999C5 13.5212 15.5213 3 28.5001 3C41.4787 3 52 13.5212 52 26.4999Z" fill="white"/>
</g>
<path d="M42.25 33.159C42.25 34.6582 41.056 35.875 39.5833 35.875H16.6667C15.194 35.875 14 34.6582 14 33.159L14 17.966C14 16.4654 15.194 15.25 16.6667 15.25H39.5833C41.056 15.25 42.25 16.4654 42.25 17.966V33.159Z" fill="#2F80ED"/>
<rect x="31" y="18" width="8" height="8" fill="white" fill-opacity="0.15"/>
<rect opacity="0.4" x="14" y="30" width="28" height="3" fill="url(#paint0_linear)"/>
<path d="M24.0131 30.875C25.5902 30.875 26.741 30.3056 27.4656 29.1667L29 30.5208C28.588 31.3125 27.9486 31.9236 27.082 32.3542C26.2153 32.7847 25.1924 33 24.0131 33C22.3792 33 21.0011 32.5625 19.8787 31.6875C18.7563 30.8125 17.9891 29.5972 17.577 28.0417H16V26.3958H17.3213C17.2929 26.0069 17.2787 25.7083 17.2787 25.5C17.2787 25.1389 17.2858 24.875 17.3 24.7083H16V23.0417H17.5557C17.9536 21.4583 18.7208 20.2222 19.8574 19.3333C20.994 18.4444 22.3934 18 24.0557 18C25.2066 18 26.2153 18.2153 27.082 18.6458C27.9486 19.0764 28.588 19.6806 29 20.4583L27.4656 21.8125C26.7126 20.6875 25.5902 20.125 24.0984 20.125C23.1322 20.125 22.3295 20.375 21.6902 20.875C21.0508 21.375 20.5891 22.0972 20.3049 23.0417H25.5689V24.7083H20.0066C19.9924 24.875 19.9852 25.1389 19.9852 25.5C19.9852 25.7083 19.9995 26.0069 20.0279 26.3958H25.5689V28.0417H20.3262C20.6104 28.9583 21.065 29.6597 21.6902 30.1458C22.3153 30.6319 23.0896 30.875 24.0131 30.875Z" fill="white"/>
<defs>
<filter id="filter0_bd" x="-11" y="-13" width="79" height="79" filterUnits="userSpaceOnUse" color-interpolation-filters="sRGB">
<feFlood flood-opacity="0" result="BackgroundImageFix"/>
<feGaussianBlur in="BackgroundImage" stdDeviation="8"/>
<feComposite in2="SourceAlpha" operator="in" result="effect1_backgroundBlur"/>
<feColorMatrix in="SourceAlpha" type="matrix" values="0 0 0 0 0 0 0 0 0 0 0 0 0 0 0 0 0 0 127 0"/>
<feOffset dy="2"/>
<feGaussianBlur stdDeviation="2.5"/>
<feColorMatrix type="matrix" values="0 0 0 0 0 0 0 0 0 0 0 0 0 0 0 0 0 0 0.1 0"/>
<feBlend mode="normal" in2="effect1_backgroundBlur" result="effect2_dropShadow"/>
<feBlend mode="normal" in="SourceGraphic" in2="effect2_dropShadow" result="shape"/>
</filter>
<linearGradient id="paint0_linear" x1="42" y1="31" x2="14" y2="31" gradientUnits="userSpaceOnUse">
<stop stop-color="#282D33"/>
<stop offset="1" stop-color="#282D33" stop-opacity="0"/>
</linearGradient>
</defs>
</svg>
