<svg width="57" height="57" viewBox="0 0 57 57" fill="none" xmlns="http://www.w3.org/2000/svg">
<g filter="url(#filter0_d)">
<path d="M51.2973 32.1851C48.1583 44.7744 35.4051 52.4354 22.8129 49.2967C10.2265 46.158 2.56386 33.4063 5.70367 20.8178C8.84127 8.22696 21.5937 0.564528 34.1823 3.70323C46.7738 6.84193 54.4357 19.595 51.2966 32.1851H51.2973Z" fill="white"/>
</g>
<path d="M28.7425 9L28.5078 9.79754V32.9403L28.7425 33.1745L39.485 26.8246L28.7425 9Z" fill="#343434"/>
<path d="M28.7426 9L18 26.8245L28.7426 33.1745V21.9417V9Z" fill="#8C8C8C"/>
<path d="M28.7426 35.2081L28.6104 35.3693V43.6132L28.7426 43.9994L39.4916 28.8613L28.7426 35.2081Z" fill="#3C3C3B"/>
<path d="M28.7426 43.9993V35.208L18 28.8613L28.7426 43.9993Z" fill="#8C8C8C"/>
<path d="M28.7422 33.174L39.4846 26.8242L28.7422 21.9414V33.174Z" fill="#141414"/>
<path d="M18 26.8242L28.7424 33.1741V21.9414L18 26.8242Z" fill="#393939"/>
<defs>
<filter id="filter0_d" x="0" y="0" width="57" height="57" filterUnits="userSpaceOnUse" color-interpolation-filters="sRGB">
<feFlood flood-opacity="0" result="BackgroundImageFix"/>
<feColorMatrix in="SourceAlpha" type="matrix" values="0 0 0 0 0 0 0 0 0 0 0 0 0 0 0 0 0 0 127 0"/>
<feOffset dy="2"/>
<feGaussianBlur stdDeviation="2.5"/>
<feColorMatrix type="matrix" values="0 0 0 0 0 0 0 0 0 0 0 0 0 0 0 0 0 0 0.1 0"/>
<feBlend mode="normal" in2="BackgroundImageFix" result="effect1_dropShadow"/>
<feBlend mode="normal" in="SourceGraphic" in2="effect1_dropShadow" result="shape"/>
</filter>
</defs>
</svg>
