<svg width="32" height="32" viewBox="0 0 32 32" fill="none" xmlns="http://www.w3.org/2000/svg">
<path d="M17.5615 22.4908C19.5438 22.4908 20.9903 21.7671 21.9011 20.3196L23.8298 22.0407C23.3119 23.0468 22.5083 23.8235 21.4189 24.3707C20.3296 24.9179 19.0438 25.1915 17.5615 25.1915C15.5078 25.1915 13.7755 24.6355 12.3647 23.5234C10.9539 22.4113 9.98955 20.8668 9.47166 18.8898H7.48938V16.7981H9.15021C9.11449 16.3039 9.09663 15.9243 9.09663 15.6596C9.09663 15.2006 9.10556 14.8652 9.12342 14.6534H7.48938V12.5352H9.44487C9.94491 10.5229 10.9093 8.95193 12.3379 7.82222C13.7666 6.69251 15.5257 6.12766 17.6151 6.12766C19.0616 6.12766 20.3296 6.40126 21.4189 6.94846C22.5083 7.49566 23.3119 8.26351 23.8298 9.25201L21.9011 10.973C20.9546 9.54326 19.5438 8.82836 17.6687 8.82836C16.4543 8.82836 15.4453 9.1461 14.6417 9.78156C13.838 10.417 13.2576 11.3349 12.9005 12.5352H19.517V14.6534H12.5254C12.5076 14.8652 12.4987 15.2006 12.4987 15.6596C12.4987 15.9243 12.5165 16.3039 12.5522 16.7981H19.517V18.8898H12.9273C13.2844 20.0548 13.8559 20.9463 14.6417 21.5641C15.4274 22.1819 16.4007 22.4908 17.5615 22.4908Z" fill="#2F80ED"/>
</svg>
