<svg width="57" height="57" viewBox="0 0 57 57" fill="none" xmlns="http://www.w3.org/2000/svg">
<g filter="url(#filter0_d)">
<path d="M52 26.4999C52 39.4786 41.4788 50 28.5001 50C15.5213 50 5 39.4786 5 26.4999C5 13.5212 15.5213 3 28.5001 3C41.4787 3 52 13.5212 52 26.4999Z" fill="white"/>
</g>
<path d="M29.1538 29.1803C29.1538 30.3371 28.9359 31.4676 28.5 32.5718C28.0641 33.6498 27.3718 34.5831 26.4231 35.3718H36.9231V39H20V36.1211C21.359 35.4376 22.4615 34.4779 23.3077 33.2423C24.1538 31.9803 24.5769 30.7315 24.5769 29.4958C24.5769 28.9174 24.5 28.1418 24.3462 27.169H20.7692V24.1324H23.8846C23.4744 21.4507 23.2692 19.6629 23.2692 18.769C23.2692 16.4291 23.9615 14.5493 25.3462 13.1296C26.7564 11.7099 28.6154 11 30.9231 11C32.0769 11 33.2051 11.2235 34.3077 11.6704C35.4103 12.0911 36.3077 12.6695 37 13.4056L35.4615 16.7183C34.9231 16.1925 34.2821 15.7718 33.5385 15.4563C32.7949 15.1146 32.0897 14.9437 31.4231 14.9437C30.3462 14.9437 29.4872 15.3249 28.8462 16.0873C28.2051 16.8235 27.8846 17.8094 27.8846 19.0451C27.8846 19.9127 28.0897 21.6084 28.5 24.1324H34.6538V27.169H29C29.1026 28.2207 29.1538 28.8911 29.1538 29.1803Z" fill="#F2C94C"/>
<defs>
<filter id="filter0_d" x="0" y="0" width="57" height="57" filterUnits="userSpaceOnUse" color-interpolation-filters="sRGB">
<feFlood flood-opacity="0" result="BackgroundImageFix"/>
<feColorMatrix in="SourceAlpha" type="matrix" values="0 0 0 0 0 0 0 0 0 0 0 0 0 0 0 0 0 0 127 0"/>
<feOffset dy="2"/>
<feGaussianBlur stdDeviation="2.5"/>
<feColorMatrix type="matrix" values="0 0 0 0 0 0 0 0 0 0 0 0 0 0 0 0 0 0 0.1 0"/>
<feBlend mode="normal" in2="BackgroundImageFix" result="effect1_dropShadow"/>
<feBlend mode="normal" in="SourceGraphic" in2="effect1_dropShadow" result="shape"/>
</filter>
</defs>
</svg>
