<svg width="32" height="32" viewBox="0 0 32 32" fill="none" xmlns="http://www.w3.org/2000/svg">
<path d="M16.4452 17.8249C16.4452 18.6125 16.2968 19.3822 16 20.134C15.7032 20.8679 15.2319 21.5034 14.5859 22.0404H21.7349V24.5106H10.2128V22.5506C11.138 22.0851 11.8887 21.4318 12.4648 20.5905C13.0409 19.7313 13.329 18.881 13.329 18.0397C13.329 17.6459 13.2766 17.1178 13.1719 16.4555H10.7365V14.388H12.8576C12.5783 12.5622 12.4386 11.345 12.4386 10.7364C12.4386 9.14322 12.91 7.86335 13.8527 6.89673C14.8129 5.93012 16.0786 5.44681 17.6498 5.44681C18.4354 5.44681 19.2035 5.59896 19.9542 5.90327C20.7049 6.18967 21.3159 6.58348 21.7872 7.08469L20.7398 9.34013C20.3732 8.98212 19.9367 8.69571 19.4304 8.48091C18.9242 8.24821 18.4441 8.13185 17.9902 8.13185C17.257 8.13185 16.6721 8.39141 16.2357 8.91052C15.7992 9.41173 15.581 10.083 15.581 10.9243C15.581 11.515 15.7207 12.6696 16 14.388H20.1899V16.4555H16.3404C16.4103 17.1715 16.4452 17.628 16.4452 17.8249Z" fill="#F2C94C"/>
</svg>
