<svg width="57" height="57" viewBox="0 0 57 57" fill="none" xmlns="http://www.w3.org/2000/svg">
<g filter="url(#filter0_bd)">
<path d="M52 26.4999C52 39.4786 41.4788 50 28.5001 50C15.5213 50 5 39.4786 5 26.4999C5 13.5212 15.5213 3 28.5001 3C41.4787 3 52 13.5212 52 26.4999Z" fill="white"/>
</g>
<g clip-path="url(#clip0)">
<path d="M32.3285 33.9766H23.6748V18.1514H32.3287L32.3285 33.9766Z" fill="#FF5F00"/>
<path d="M24.224 26.0635C24.224 22.8534 25.7011 19.9938 28.0013 18.1509C26.2602 16.7539 24.1067 15.9957 21.8894 15.999C16.4275 15.999 12 20.505 12 26.0635C12 31.622 16.4275 36.128 21.8894 36.128C24.1068 36.1313 26.2603 35.3731 28.0014 33.9761C25.7014 32.1336 24.224 29.2738 24.224 26.0635Z" fill="#EB001B"/>
<path d="M44.0042 26.0645C44.0042 31.623 39.5767 36.1289 34.1148 36.1289C31.8972 36.1323 29.7434 35.3741 28.002 33.9771C30.3028 32.1342 31.7799 29.2748 31.7799 26.0645C31.7799 22.8542 30.3028 19.9947 28.002 18.1519C29.7434 16.7549 31.8971 15.9967 34.1146 16C39.5765 16 44.004 20.506 44.004 26.0645" fill="#F79E1B"/>
</g>
<defs>
<filter id="filter0_bd" x="-11" y="-13" width="79" height="79" filterUnits="userSpaceOnUse" color-interpolation-filters="sRGB">
<feFlood flood-opacity="0" result="BackgroundImageFix"/>
<feGaussianBlur in="BackgroundImage" stdDeviation="8"/>
<feComposite in2="SourceAlpha" operator="in" result="effect1_backgroundBlur"/>
<feColorMatrix in="SourceAlpha" type="matrix" values="0 0 0 0 0 0 0 0 0 0 0 0 0 0 0 0 0 0 127 0"/>
<feOffset dy="2"/>
<feGaussianBlur stdDeviation="2.5"/>
<feColorMatrix type="matrix" values="0 0 0 0 0 0 0 0 0 0 0 0 0 0 0 0 0 0 0.1 0"/>
<feBlend mode="normal" in2="effect1_backgroundBlur" result="effect2_dropShadow"/>
<feBlend mode="normal" in="SourceGraphic" in2="effect2_dropShadow" result="shape"/>
</filter>
<clipPath id="clip0">
<rect width="32" height="20" fill="white" transform="translate(12 16)"/>
</clipPath>
</defs>
</svg>
