<svg width="57" height="57" viewBox="0 0 57 57" fill="none" xmlns="http://www.w3.org/2000/svg">
<g filter="url(#filter0_d)">
<path d="M52 26.4999C52 39.4786 41.4788 50 28.5001 50C15.5213 50 5 39.4786 5 26.4999C5 13.5212 15.5213 3 28.5001 3C41.4787 3 52 13.5212 52 26.4999Z" fill="white"/>
</g>
<path d="M27.24 32.72H32.24V36.2H27.24V40H22.2V36.2H20V32.72H22.2V30.12H20V26.08H22.2V12H31.16C34.3867 12 36.8267 12.7467 38.48 14.24C40.16 15.7067 41 17.88 41 20.76C41 23.8267 40.1333 26.16 38.4 27.76C36.6933 29.3333 34.2133 30.12 30.96 30.12H27.24V32.72ZM27.24 26.04H31.4C32.92 26.04 34.08 25.6133 34.88 24.76C35.68 23.88 36.08 22.6133 36.08 20.96C36.08 19.36 35.6533 18.1467 34.8 17.32C33.9733 16.4933 32.7467 16.08 31.12 16.08H27.24V26.04Z" fill="#EB5757"/>
<defs>
<filter id="filter0_d" x="0" y="0" width="57" height="57" filterUnits="userSpaceOnUse" color-interpolation-filters="sRGB">
<feFlood flood-opacity="0" result="BackgroundImageFix"/>
<feColorMatrix in="SourceAlpha" type="matrix" values="0 0 0 0 0 0 0 0 0 0 0 0 0 0 0 0 0 0 127 0"/>
<feOffset dy="2"/>
<feGaussianBlur stdDeviation="2.5"/>
<feColorMatrix type="matrix" values="0 0 0 0 0 0 0 0 0 0 0 0 0 0 0 0 0 0 0.1 0"/>
<feBlend mode="normal" in2="BackgroundImageFix" result="effect1_dropShadow"/>
<feBlend mode="normal" in="SourceGraphic" in2="effect1_dropShadow" result="shape"/>
</filter>
</defs>
</svg>
