<svg width="57" height="57" viewBox="0 0 57 57" fill="none" xmlns="http://www.w3.org/2000/svg">
<g filter="url(#filter0_d)">
<path d="M52 26.4999C52 39.4786 41.4788 50 28.5001 50C15.5213 50 5 39.4786 5 26.4999C5 13.5212 15.5213 3 28.5001 3C41.4787 3 52 13.5212 52 26.4999Z" fill="white"/>
</g>
<path d="M36.4065 26.5203C35.4526 25.7832 34.0217 25.1761 32.1138 24.6992L30.6179 24.374V18.065C30.6613 18.1084 30.7046 18.1301 30.748 18.1301C30.7913 18.1301 30.813 18.1517 30.813 18.1951C32.0705 18.8021 32.7426 19.8428 32.8293 21.3171H37.8374C37.7507 18.7154 36.7751 16.7208 34.9106 15.3333C33.6965 14.4228 32.2656 13.8157 30.6179 13.5122V10H26V13.3821C23.832 13.6423 22.1192 14.3361 20.8618 15.4634C19.2141 16.9377 18.3902 18.8022 18.3902 21.0569C18.3902 23.4851 19.2358 25.2846 20.9268 26.4553C21.8374 27.1057 23.5285 27.7127 26 28.2764V35.0406C25.0894 34.7805 24.3956 34.3686 23.9187 33.8049C23.3984 33.1979 23.0732 32.374 22.9431 31.3333H18C18 33.8916 18.9322 35.9078 20.7967 37.3821C22.1409 38.4228 23.8753 39.0948 26 39.3984V42H30.6179V39.4634C32.8727 39.1599 34.6721 38.4444 36.0163 37.3171C37.7507 35.7995 38.6179 33.8916 38.6179 31.5935C38.6179 29.3821 37.8808 27.6911 36.4065 26.5203ZM26 23.2683C25.2629 23.0515 24.7426 22.8564 24.439 22.6829C23.6152 22.2493 23.2033 21.5772 23.2033 20.6667C23.2033 19.6694 23.6152 18.9106 24.439 18.3902C24.8727 18.1301 25.393 17.9133 26 17.7398V23.2683ZM31.3984 34.9106C31.1816 34.9973 30.9214 35.0623 30.6179 35.1057V29.3171C31.4418 29.5772 32.0704 29.8374 32.5041 30.0976C33.2412 30.5745 33.6098 31.2249 33.6098 32.0488C33.6098 33.4363 32.8727 34.3902 31.3984 34.9106Z" fill="#3DBA6F"/>
<defs>
<filter id="filter0_d" x="0" y="0" width="57" height="57" filterUnits="userSpaceOnUse" color-interpolation-filters="sRGB">
<feFlood flood-opacity="0" result="BackgroundImageFix"/>
<feColorMatrix in="SourceAlpha" type="matrix" values="0 0 0 0 0 0 0 0 0 0 0 0 0 0 0 0 0 0 127 0"/>
<feOffset dy="2"/>
<feGaussianBlur stdDeviation="2.5"/>
<feColorMatrix type="matrix" values="0 0 0 0 0 0 0 0 0 0 0 0 0 0 0 0 0 0 0.1 0"/>
<feBlend mode="normal" in2="BackgroundImageFix" result="effect1_dropShadow"/>
<feBlend mode="normal" in="SourceGraphic" in2="effect1_dropShadow" result="shape"/>
</filter>
</defs>
</svg>
