<svg width="32" height="32" viewBox="0 0 32 32" fill="none" xmlns="http://www.w3.org/2000/svg">
<path d="M21.0806 15.9917C20.4821 15.5212 19.5843 15.1337 18.3873 14.8293L17.4487 14.6217V10.5947C17.4759 10.6224 17.5031 10.6362 17.5303 10.6362C17.5575 10.6362 17.5711 10.65 17.5711 10.6777C18.3601 11.0652 18.7818 11.7294 18.8362 12.6705H21.9784C21.924 11.0099 21.3119 9.73671 20.142 8.85106C19.3803 8.26985 18.4825 7.88239 17.4487 7.68863V5.44681H14.5513V7.6056C13.1911 7.77167 12.1164 8.21451 11.3275 8.93409C10.2937 9.87512 9.77677 11.0652 9.77677 12.5044C9.77677 14.0543 10.3073 15.2029 11.3683 15.9502C11.9396 16.3653 13.0006 16.7528 14.5513 17.1126V21.4302C13.98 21.2641 13.5447 21.0012 13.2455 20.6414C12.919 20.254 12.715 19.7281 12.6333 19.0638H9.53192C9.53192 20.6968 10.1168 21.9837 11.2867 22.9248C12.1301 23.589 13.2182 24.018 14.5513 24.2117V25.8723H17.4487V24.2532C18.8634 24.0595 19.9924 23.6028 20.8358 22.8832C21.924 21.9146 22.4681 20.6968 22.4681 19.2299C22.4681 17.8184 22.0056 16.739 21.0806 15.9917ZM14.5513 13.9159C14.0888 13.7776 13.7624 13.653 13.5719 13.5423C13.055 13.2655 12.7966 12.8365 12.7966 12.2553C12.7966 11.6188 13.055 11.1344 13.5719 10.8023C13.844 10.6362 14.1705 10.4979 14.5513 10.3871V13.9159ZM17.9384 21.3472C17.8024 21.4025 17.6391 21.444 17.4487 21.4717V17.7769C17.9656 17.9429 18.3601 18.109 18.6321 18.275C19.0946 18.5795 19.3259 18.9946 19.3259 19.5205C19.3259 20.4061 18.8634 21.015 17.9384 21.3472Z" fill="#3DBA6F"/>
</svg>
