<svg width="32" height="32" viewBox="0 0 32 32" fill="none" xmlns="http://www.w3.org/2000/svg">
<path d="M17.368 6.03297C16.0139 6.87395 15.212 8.39264 15.212 9.99411C15.212 10.8351 15.5315 11.6826 15.9314 12.4387C16.2509 13.1142 16.4075 14.293 15.2925 14.8834C14.4969 15.3867 13.456 15.0511 12.9799 14.208C12.5037 13.5326 11.9452 12.8572 11.2258 12.3538C9.8717 11.5128 8.27425 11.5128 6.92 12.3538C5.56574 13.1948 4.76599 14.7173 4.76599 16.3192C4.76599 17.9211 5.56162 19.4392 6.91969 20.2825C8.27384 21.1235 9.87128 21.1235 11.2255 20.2825C11.9449 19.8598 12.5033 19.1888 12.8992 18.4283C13.2187 17.8379 14.0968 17.0775 15.2118 17.7529C16.0075 18.2562 16.2465 19.3565 15.8507 20.1975C15.4509 20.9579 15.2118 21.8012 15.2118 22.6422C15.2118 24.2458 16.0075 25.7622 17.3678 26.6033C18.722 27.4443 20.3194 27.4443 21.6737 26.6033C23.0279 25.7623 23.8298 24.2436 23.8298 22.6422C23.8298 21.0407 23.0321 19.5221 21.6739 18.6788C20.9545 18.2562 20.1568 18.0884 19.2808 18.0884C18.5614 18.0884 17.6071 17.5851 17.6071 16.3192C17.6071 15.3061 18.3265 14.5499 19.2808 14.5499C20.0764 14.5499 20.9545 14.3822 21.6739 13.9595C23.028 13.1185 23.8298 11.5998 23.8298 9.99847C23.8298 8.3971 23.0321 6.87842 21.6739 6.03732C21.035 5.61465 20.2392 5.44689 19.5202 5.44689C18.8049 5.44253 18.0031 5.61465 17.3683 6.03297" fill="url(#xrp-gradient) #016197"/>
<defs>
<linearGradient id="xrp-gradient" x1="4.76599" y1="5.44678" x2="23.8298" y2="5.44678" gradientUnits="userSpaceOnUse">
<stop stop-color="#11AAE2"/>
<stop offset="0.59" stop-color="#0880B7"/>
<stop offset="1" stop-color="#016197"/>
</linearGradient>
</defs>
</svg>
