<svg width="32" height="32" viewBox="0 0 32 32" fill="none" xmlns="http://www.w3.org/2000/svg">
<path d="M15.1421 20.2349H18.5464V22.6043H15.1421V25.1915H11.7106V22.6043H10.2128V20.2349H11.7106V18.4647H10.2128V15.714H11.7106V6.12766H17.8111C20.0079 6.12766 21.6692 6.63602 22.7949 7.65276C23.9387 8.65134 24.5106 10.1311 24.5106 12.0919C24.5106 14.1799 23.9206 15.7685 22.7404 16.8579C21.5784 17.9291 19.8899 18.4647 17.6749 18.4647H15.1421V20.2349ZM15.1421 15.6868H17.9745C19.0094 15.6868 19.7992 15.3963 20.3438 14.8153C20.8885 14.2162 21.1609 13.3538 21.1609 12.2281C21.1609 11.1387 20.8704 10.3126 20.2894 9.74978C19.7265 9.18695 18.8914 8.90553 17.7838 8.90553H15.1421V15.6868Z" fill="#EB5757"/>
</svg>
