<svg width="57" height="57" viewBox="0 0 57 57" fill="none" xmlns="http://www.w3.org/2000/svg">
<g filter="url(#filter0_bd)">
<path d="M52 26.4999C52 39.4786 41.4788 50 28.5001 50C15.5213 50 5 39.4786 5 26.4999C5 13.5212 15.5213 3 28.5001 3C41.4787 3 52 13.5212 52 26.4999Z" fill="white"/>
</g>
<g clip-path="url(#clip0)">
<mask id="mask0" mask-type="alpha" maskUnits="userSpaceOnUse" x="16" y="7" width="24" height="34">
<path d="M16.0078 7.10449H39.9468V40.0003H16.0078V7.10449Z" fill="white"/>
</mask>
<g mask="url(#mask0)">
<path fill-rule="evenodd" clip-rule="evenodd" d="M15.9994 23.4222C15.9994 21.5751 16.1476 20.4029 19.8089 17.5473C22.8402 15.1832 32.5561 7.10449 32.5561 7.10449V20.5905H39.9448V40.0003H18.3072C17.0379 40.0003 15.999 38.9148 15.999 37.5886L15.9994 23.4222Z" fill="#FACA22"/>
</g>
<path fill-rule="evenodd" clip-rule="evenodd" d="M32.5588 20.5908V28.405L18.9814 38.069L36.1476 32.2334V20.5908H32.5588Z" fill="#C9A521"/>
<path fill-rule="evenodd" clip-rule="evenodd" d="M26.3538 20.1868C27.1478 19.1984 28.3073 18.8493 28.944 19.4076C29.5807 19.9659 29.4535 21.2199 28.6594 22.2084C27.8659 23.1967 26.706 23.5453 26.0693 22.987C25.4326 22.4288 25.5601 21.1752 26.3538 20.1868Z" fill="#6F8F9D"/>
</g>
<defs>
<filter id="filter0_bd" x="-11" y="-13" width="79" height="79" filterUnits="userSpaceOnUse" color-interpolation-filters="sRGB">
<feFlood flood-opacity="0" result="BackgroundImageFix"/>
<feGaussianBlur in="BackgroundImage" stdDeviation="8"/>
<feComposite in2="SourceAlpha" operator="in" result="effect1_backgroundBlur"/>
<feColorMatrix in="SourceAlpha" type="matrix" values="0 0 0 0 0 0 0 0 0 0 0 0 0 0 0 0 0 0 127 0"/>
<feOffset dy="2"/>
<feGaussianBlur stdDeviation="2.5"/>
<feColorMatrix type="matrix" values="0 0 0 0 0 0 0 0 0 0 0 0 0 0 0 0 0 0 0.1 0"/>
<feBlend mode="normal" in2="effect1_backgroundBlur" result="effect2_dropShadow"/>
<feBlend mode="normal" in="SourceGraphic" in2="effect2_dropShadow" result="shape"/>
</filter>
<clipPath id="clip0">
<rect width="24" height="33" fill="white" transform="translate(16 7)"/>
</clipPath>
</defs>
</svg>
