<svg width="57" height="57" viewBox="0 0 57 57" fill="none" xmlns="http://www.w3.org/2000/svg">
<g filter="url(#filter0_d)">
<path d="M51.2973 32.1851C48.1583 44.7744 35.4051 52.4354 22.8129 49.2967C10.2265 46.158 2.56386 33.4063 5.70367 20.8178C8.84127 8.22696 21.5937 0.564528 34.1823 3.70323C46.7738 6.84193 54.4357 19.595 51.2966 32.1851H51.2973Z" fill="white"/>
</g>
<path d="M28.6831 41.167C20.7087 41.167 14.1992 34.6509 14.1992 26.6831C14.1992 18.7087 20.7153 12.1992 28.6831 12.1992C36.6575 12.1992 43.167 18.7153 43.167 26.6831C43.167 34.6575 36.6575 41.167 28.6831 41.167Z" fill="url(#paint0_linear)"/>
<path d="M28.5 44C18.875 44 11 36.125 11 26.5C11 16.875 18.875 9 28.5 9C38.125 9 46 16.875 46 26.5C46 36.125 38.125 44 28.5 44ZM28.5 12.8911C21.0161 12.8911 14.8911 19.0161 14.8911 26.5C14.8911 33.9839 21.0161 40.1089 28.5 40.1089C35.9839 40.1089 42.1089 33.9839 42.1089 26.5C42.1089 19.0161 35.9839 12.8911 28.5 12.8911Z" fill="black"/>
<path d="M28.094 31.2403H35.6773V35.0319H31.2029V38.2403H27.3118V35.1314H22.6452C22.6452 33.8653 22.4529 32.6058 22.7446 31.4391C22.844 30.8558 23.5202 30.2725 24.0107 29.6891C25.469 27.9391 26.9273 26.1891 28.4851 24.4391C29.0684 23.7564 29.6518 23.173 30.3345 22.3975H23.0429V18.6058H27.3184V15.3975H31.1101V18.5064H35.7767C35.7767 19.7725 35.969 21.0319 35.6773 22.1986C35.5779 22.7819 34.9017 23.3653 34.4112 23.9486C32.9529 25.6986 31.4946 27.4486 29.9368 29.1986C29.3535 29.8814 28.7701 30.5575 28.094 31.2403Z" fill="black"/>
<defs>
<filter id="filter0_d" x="0" y="0" width="57" height="57" filterUnits="userSpaceOnUse" color-interpolation-filters="sRGB">
<feFlood flood-opacity="0" result="BackgroundImageFix"/>
<feColorMatrix in="SourceAlpha" type="matrix" values="0 0 0 0 0 0 0 0 0 0 0 0 0 0 0 0 0 0 127 0"/>
<feOffset dy="2"/>
<feGaussianBlur stdDeviation="2.5"/>
<feColorMatrix type="matrix" values="0 0 0 0 0 0 0 0 0 0 0 0 0 0 0 0 0 0 0.1 0"/>
<feBlend mode="normal" in2="BackgroundImageFix" result="effect1_dropShadow"/>
<feBlend mode="normal" in="SourceGraphic" in2="effect1_dropShadow" result="shape"/>
</filter>
<linearGradient id="paint0_linear" x1="18.7707" y1="36.5954" x2="38.7657" y2="16.6004" gradientUnits="userSpaceOnUse">
<stop stop-color="#CF8724"/>
<stop offset="1" stop-color="#FDCE58"/>
</linearGradient>
</defs>
</svg>
