<svg width="1920" height="60" viewBox="0 0 1920 60" fill="none" xmlns="http://www.w3.org/2000/svg">
<g clip-path="url(#clip0)">
<rect width="960" height="60" fill="#1C2455"/>
<path d="M612.689 -80.3107C731.24 -198.862 1042 -80.3107 1042 -80.3107V349H612.689C612.689 349 494.138 38.2402 612.689 -80.3107Z" fill="#F8F8F9"/>
<path d="M881.282 -57.336C938.168 -114.221 1030.4 -114.221 1087.28 -57.336C1144.17 -0.450668 1087.28 148.664 1087.28 148.664H881.282C881.282 148.664 824.397 -0.450668 881.282 -57.336Z" fill="#1C2455"/>
<path d="M836.282 50.2824C893.168 -6.60296 1042.28 50.2824 1042.28 50.2824V256.282H836.282C836.282 256.282 779.397 107.168 836.282 50.2824Z" fill="#141A42"/>
<path d="M867.049 14.5465C867.585 15.8121 869.275 16.5937 870.742 16.2513C872.208 15.9088 873.25 14.4869 873.019 13.1469C875.178 13.3703 877.404 12.0154 877.955 10.1319C878.513 8.25593 877.33 6.08959 875.335 5.33026C877.359 3.51381 878.357 0.662577 877.285 -1.71221C876.213 -4.08699 872.789 -5.53122 870.243 -4.34755C870.384 -7.64545 867.228 -10.7721 863.55 -10.988C859.866 -11.2039 856.277 -8.47923 855.935 -5.19622C855.243 -6.81167 852.518 -7.13922 851.074 -5.98533C849.63 -4.83888 849.466 -2.76188 850.292 -1.19854C846.786 0.156353 845.617 4.81659 848.141 7.37749C846.354 8.32293 846.198 10.7498 847.337 12.2983C848.476 13.8467 852.712 14.8889 856.464 13.9509C860.044 13.0576 861.369 11.5241 863.498 8.79193" fill="#FF5E69"/>
<path d="M842.699 26.8671C845.379 25.9068 848.327 27.2914 849.28 29.9491C849.317 30.0608 849.347 30.1724 849.384 30.2915H849.407C849.667 31.0211 849.667 31.8474 849.459 32.7333C849.399 33.0013 849.325 33.2619 849.228 33.515C846.742 40.4607 832.821 50.5703 826.709 52.3644C826.702 52.3644 826.292 52.5728 826.077 52.6473C823.836 53.4513 821.372 52.2974 820.575 50.0715C819.831 47.9796 820.821 45.6942 822.801 44.7562C832.836 38.2199 840.168 28.7729 840.168 28.7729L840.191 28.7803C840.786 27.9317 841.642 27.2393 842.699 26.8671Z" fill="#FFAF8F"/>
<path d="M811.002 36.1354C811.01 36.1354 811.01 36.1428 811.017 36.1503L811.024 36.1428C818.141 40.7659 826.114 44.4509 826.173 44.4732C828.362 45.6048 829.218 48.2848 828.087 50.4734C826.955 52.6621 824.275 53.5182 822.087 52.3867C822.057 52.3718 822.034 52.3569 822.005 52.342C816.481 49.7215 805.97 42.2547 805.97 42.2547L805.985 42.2399C804.295 40.8552 804.057 38.3613 805.441 36.6714C806.818 34.9889 809.044 35.0038 811.002 36.1354Z" fill="#FFAF8F"/>
<path d="M823.903 50.7042C824.171 50.9052 824.454 50.9647 824.774 50.8754C824.968 50.8233 825.05 51.1211 824.856 51.1732C824.462 51.2848 824.075 51.2179 823.74 50.9722C823.583 50.8531 823.74 50.5851 823.903 50.7042Z" fill="#5C3146"/>
<path d="M868.724 0.476496H868.732V0.491191C868.732 0.483843 868.724 0.483843 868.724 0.476496Z" fill="#FFBA9A"/>
<path d="M854.297 3.28308C854.32 3.13419 854.35 2.99275 854.387 2.8513C854.938 3.16397 855.675 3.35752 856.449 3.54363C859.508 4.27319 862.784 2.88852 866.253 4.22108C866.238 5.82909 866.216 7.44454 866.201 9.05254C866.201 9.29821 866.283 9.64065 866.536 9.61832C866.67 9.60343 866.766 9.48432 866.833 9.36521C866.99 9.12699 867.139 8.88876 867.295 8.65054C866.938 9.49176 866.506 11.1072 867.131 11.3454C867.682 11.5539 868.68 9.88632 868.925 8.78454C869.082 8.73987 869.238 8.69521 869.409 8.68776C870.846 8.56865 872.104 9.63321 872.223 11.0625C872.342 12.4919 871.278 13.75 869.841 13.8691C869.446 13.8989 869.074 13.8393 868.732 13.7128V21.4699C868.769 21.7305 868.791 21.991 868.791 22.259C868.791 25.5495 866.119 28.222 862.829 28.222C859.538 28.222 856.866 25.5495 856.866 22.259C856.866 22.0059 856.888 21.7602 856.918 21.522V18.2092C853.784 17.167 853.3 13.9436 853.709 11.0774C854.126 8.21132 854.297 3.28308 854.297 3.28308Z" fill="#FFAF8F"/>
<path d="M868.337 12.0154C868.166 10.7647 869.342 9.77461 870.54 10.2585C870.734 10.3329 870.645 10.6531 870.451 10.5712C869.513 10.1915 868.508 10.8913 868.65 11.9261C868.679 12.1271 868.367 12.2164 868.337 12.0154Z" fill="#5C3146"/>
<path d="M869.193 10.5786C869.633 10.7648 869.975 11.0402 870.243 11.4348C870.362 11.606 870.079 11.7698 869.96 11.5985C869.744 11.2784 869.461 11.0402 869.104 10.8913C868.918 10.8169 869 10.4968 869.193 10.5786Z" fill="#5C3146"/>
<path opacity="0.35" d="M856.918 18.2092C856.918 18.2092 858.414 18.7378 860.431 18.574L856.918 21.6709V18.2092Z" fill="#FC5151"/>
<path d="M859.322 7.3254C859.456 7.83163 859.434 8.31552 859.203 8.79196C859.084 9.03019 858.928 9.23863 858.749 9.43219C858.667 9.52152 858.421 9.64808 858.384 9.75974C858.176 10.3032 858.63 10.668 859.143 10.5637C859.344 10.5265 859.434 10.8392 859.233 10.8764C858.682 10.9881 857.952 10.6977 857.923 10.0501C857.908 9.70019 858.153 9.5513 858.384 9.33541C858.942 8.82174 859.218 8.16663 859.017 7.41474C858.957 7.20629 859.27 7.11696 859.322 7.3254Z" fill="#5C3146"/>
<path opacity="0.35" d="M857.119 10.5191C856.977 11.003 856.292 11.2188 855.578 11.0178C854.871 10.8094 854.402 10.2585 854.543 9.77462C854.684 9.29073 855.369 9.07484 856.084 9.27584C856.791 9.48428 857.253 10.0352 857.119 10.5191Z" fill="#FC5151"/>
<path opacity="0.35" d="M865.508 9.87142C865.612 10.3628 865.114 10.8839 864.392 11.0402C863.669 11.1965 863 10.9285 862.888 10.4446C862.784 9.95331 863.282 9.4322 864.004 9.27586C864.727 9.11208 865.404 9.38008 865.508 9.87142Z" fill="#FC5151"/>
<path d="M857.439 8.16665C857.439 8.59099 857.268 8.94088 857.052 8.94088C856.836 8.94088 856.665 8.59843 856.665 8.16665C856.665 7.73487 856.836 7.39243 857.052 7.39243C857.268 7.39243 857.439 7.73487 857.439 8.16665Z" fill="#5C3146"/>
<path d="M861.936 8.16665C861.936 8.59099 862.107 8.94088 862.323 8.94088C862.538 8.94088 862.71 8.59843 862.71 8.16665C862.71 7.73487 862.538 7.39243 862.323 7.39243C862.107 7.39243 861.936 7.73487 861.936 8.16665Z" fill="#5C3146"/>
<path d="M863.662 6.17897C863.327 6.22364 863.015 5.94075 862.724 5.82164C862.404 5.68764 862.092 5.65786 861.816 5.42708C861.906 5.47919 862.002 5.53131 862.092 5.59086C861.757 5.4643 861.37 5.27075 861.504 4.83897C861.623 4.44441 862.196 4.27319 862.561 4.31041C863.246 4.37741 864.362 4.98042 864.146 5.8142C864.094 6.03753 863.886 6.1492 863.662 6.17897Z" fill="#FF5E69"/>
<path d="M855.466 6.35019C855.064 5.76953 855.831 5.06975 856.292 4.82408C856.553 4.68264 856.843 4.58586 857.134 4.60819C857.431 4.63052 857.804 4.7273 857.938 5.01764C858.25 5.67275 857.349 5.89608 856.94 6.10453C856.501 6.31297 855.89 6.95319 855.466 6.35019Z" fill="#FF5E69"/>
<path d="M859.397 11.9484C860 11.8963 860.477 11.6134 860.961 11.2338C861.392 10.8913 861.891 10.4 862.442 10.7499C863.454 11.3901 862.74 12.9385 862.115 13.4969C861.266 14.2636 859.956 14.4349 859.01 13.8393C857.871 13.1246 858.02 11.8144 859.397 11.9484Z" fill="#5C3146"/>
<path d="M860.052 13.7425C860.305 13.0278 860.781 12.4174 861.377 12.0526C861.853 11.7548 862.404 11.6283 862.948 11.6655C862.97 12.3429 862.523 13.1321 862.121 13.4968C861.533 14.0254 860.737 14.2562 859.985 14.1668C859.985 14.1594 859.977 14.1445 859.977 14.1371C859.97 13.9956 860.007 13.8691 860.052 13.7425Z" fill="#FF5E69"/>
<path d="M872.915 32.6291C872.037 29.5992 873.764 26.4427 876.764 25.5717C876.891 25.5345 877.017 25.5122 877.144 25.4824L877.151 25.4601C877.977 25.2219 878.886 25.274 879.846 25.5643C880.136 25.6462 880.419 25.7504 880.695 25.877C888.198 29.093 898.427 45.1432 899.997 52.0145C899.997 52.0219 900.198 52.4909 900.273 52.7366C901.002 55.2677 899.566 57.9105 897.057 58.6326C894.697 59.3175 892.233 58.0668 891.34 55.8112C884.804 44.2871 874.866 35.5473 874.866 35.5473L874.873 35.5175C873.958 34.8103 873.258 33.8202 872.915 32.6291Z" fill="#FFAF8F"/>
<path d="M883.947 45.8058C878.714 39.3812 873.995 35.2347 873.995 35.2347L874.002 35.2049C873.034 34.4381 872.275 33.3735 871.903 32.0857C870.957 28.825 872.811 25.4229 876.049 24.4923C876.183 24.4551 876.325 24.4253 876.459 24.3955L876.466 24.3732C877.352 24.1126 878.335 24.1722 879.369 24.4849C879.682 24.5742 879.987 24.6859 880.277 24.8199C883.97 26.4055 888.28 30.8722 892.024 35.9717C892.032 35.9717 889.769 40.9967 883.947 45.8058Z" fill="#A6C0FF"/>
<path d="M890.395 33.8723C888.184 37.4233 885.31 40.6914 882.295 43.5799C882.146 43.7213 881.916 43.498 882.064 43.3491C885.057 40.4756 887.916 37.2298 890.112 33.7085C890.223 33.5299 890.506 33.6936 890.395 33.8723Z" fill="white"/>
<path d="M839.506 32.0335C839.499 29.8821 840.593 27.9837 842.253 26.8596C845.886 23.8223 852.116 22.4674 856.814 21.8793C856.814 21.8793 858.63 25.1623 862.806 25.1548H862.814V25.1474C862.844 25.1474 862.866 25.1474 862.896 25.1548C862.925 25.1548 862.948 25.1548 862.978 25.1474V25.1548H862.985C867.161 25.1474 868.963 21.8569 868.963 21.8569C873.667 22.4227 879.898 23.7553 883.546 26.7777C885.206 27.8944 886.308 29.7853 886.308 31.9368C886.308 32.778 886.144 33.582 885.839 34.3115L879.891 39.5748L880.203 71.0723C880.203 71.0723 875.231 72.9707 863.074 73.0228C863.045 73.0228 863.015 73.0228 862.985 73.0228C862.955 73.0228 862.925 73.0228 862.896 73.0228C850.739 73.0153 845.759 71.1468 845.759 71.1468L845.968 39.6492L839.982 34.4083C839.677 33.6788 839.506 32.8748 839.506 32.0335Z" fill="#A6C0FF"/>
<path d="M871.24 22.7131C869.811 26.5619 865.367 28.4974 861.474 27.8274C861.258 27.7902 861.347 27.4627 861.563 27.4999C865.263 28.1401 869.55 26.279 870.913 22.6237C870.987 22.4153 871.315 22.5046 871.24 22.7131Z" fill="white"/>
<path d="M858.541 26.8596C856.635 26.0631 855.183 24.5816 854.432 22.6535C854.35 22.4451 854.685 22.3557 854.759 22.5642C855.466 24.3657 856.851 25.7802 858.63 26.5321C858.831 26.614 858.742 26.9415 858.541 26.8596Z" fill="white"/>
<path d="M852.548 39.344V60.0769C852.548 61.0074 853.3 61.7593 854.231 61.7593H869.156C870.087 61.7593 870.839 61.0074 870.839 60.0769V39.344C870.839 38.4135 870.087 37.6616 869.156 37.6616H854.231C853.3 37.6616 852.548 38.4135 852.548 39.344Z" fill="#F2F6FC"/>
<path d="M870.838 41.594V57.823H852.547V41.594H870.838Z" fill="#D6E5FC"/>
<path d="M860.387 45.5006C860.387 44.6966 861.035 44.049 861.839 44.049C862.643 44.049 863.291 44.6966 863.291 45.5006C863.291 46.3046 862.643 46.9523 861.839 46.9523C861.035 46.9523 860.387 46.3046 860.387 45.5006Z" fill="white"/>
<path d="M877.657 48.3593C877.664 48.3593 877.672 48.3667 877.679 48.3667V48.3593C886.53 49.6174 895.649 49.5206 895.649 49.5206V49.61C895.709 49.61 895.769 49.6025 895.836 49.61C898.426 49.7216 900.436 51.9029 900.324 54.4935C900.213 57.0842 898.032 59.0942 895.441 58.9825C895.404 58.9825 895.374 58.9751 895.344 58.9751C888.905 58.9155 875.558 56.4514 875.558 56.4514L875.565 56.4291C873.339 55.8484 871.999 53.5779 872.58 51.352C873.153 49.1186 875.327 48.0317 877.657 48.3593Z" fill="#FFAF8F"/>
<path d="M870.831 47.451C871.821 47.4585 874.382 47.7786 876.429 48.1285C878.714 48.2029 880.501 50.1162 880.419 52.4016C880.344 54.6573 878.476 56.4216 876.228 56.3918V56.3993C876.228 56.3993 872.163 56.578 868.851 56.176C864.637 55.6697 864.98 54.3818 864.98 54.3818C864.98 54.3818 863.342 53.9054 863.729 52.8557C863.729 52.8557 862.359 52.2899 863.067 51.4264C863.067 51.4264 861.518 49.6248 864.295 50.1013C866.774 50.5256 870.205 50.0789 870.853 49.662C871.091 49.5057 871.248 49.193 870.868 49.0814L870.831 47.451Z" fill="#FFAF8F"/>
<path d="M863.179 51.2849C864.615 51.9475 866.387 51.9698 867.943 51.8954C868.151 51.8879 868.151 52.2081 867.943 52.2229C866.327 52.2974 864.511 52.2527 863.015 51.5678C862.829 51.4785 862.992 51.203 863.179 51.2849Z" fill="#5C3146"/>
<path d="M863.781 52.7812C865.188 53.2502 866.67 53.3098 868.136 53.213C868.345 53.1981 868.345 53.5257 868.136 53.5406C866.64 53.6374 865.129 53.5778 863.692 53.0939C863.498 53.0269 863.588 52.7142 863.781 52.7812Z" fill="#5C3146"/>
<path d="M864.935 54.2031C866.037 54.5903 867.101 54.5903 868.255 54.5382C868.463 54.5307 868.463 54.8508 868.255 54.8657C867.064 54.9178 865.985 54.9178 864.853 54.5233C864.652 54.4488 864.741 54.1361 864.935 54.2031Z" fill="#5C3146"/>
<path d="M840.853 45.2698C846.481 39.1951 851.461 35.3538 851.461 35.3538L851.454 35.324C852.474 34.6168 853.293 33.6043 853.747 32.3462C854.893 29.1525 853.263 25.6387 850.099 24.4997C849.965 24.4551 849.831 24.4178 849.697 24.3732L849.69 24.3508C848.819 24.0382 847.844 24.0307 846.786 24.2838C846.466 24.3508 846.161 24.4402 845.856 24.5593C842.067 25.8993 837.489 30.0905 833.424 34.9443C833.417 34.9369 835.352 40.0959 840.853 45.2698Z" fill="#A6C0FF"/>
<path d="M835.471 32.7929C837.436 36.4556 840.079 39.8726 842.885 42.9323C843.027 43.0886 842.796 43.3194 842.655 43.1631C839.833 40.0885 837.168 36.6417 835.188 32.9567C835.091 32.7706 835.367 32.6068 835.471 32.7929Z" fill="white"/>
<path d="M898.598 54.1734C898.635 54.6201 898.494 55.0146 898.196 55.3496C898.054 55.5059 897.831 55.2752 897.965 55.1188C898.211 54.8434 898.3 54.5307 898.27 54.1734C898.255 53.9649 898.583 53.9649 898.598 54.1734Z" fill="#5C3146"/>
<path d="M846.02 37.6764C846.02 38.942 846.02 40.215 846.02 41.4806C846.02 41.689 845.692 41.689 845.692 41.4806C845.692 40.215 845.692 38.942 845.692 37.6764C845.699 37.468 846.02 37.468 846.02 37.6764Z" fill="white"/>
<path d="M880.248 37.535C880.248 38.8006 880.248 40.0736 880.248 41.3391C880.248 41.5476 879.92 41.5476 879.92 41.3391C879.92 40.0736 879.92 38.8006 879.92 37.535C879.92 37.3265 880.248 37.3265 880.248 37.535Z" fill="white"/>
<path d="M810.295 36.0536C810.295 36.0536 813.853 26.2567 808.136 34.0212C808.136 34.0212 800.692 29.5025 803.238 33.5746C803.238 33.5746 800.632 32.8748 802.158 34.9071C802.158 34.9071 799.999 34.5275 801.265 36.6864C801.265 36.6864 796.322 36.731 805.977 42.2399C805.977 42.2474 813.6 43.4311 810.295 36.0536Z" fill="#FFAF8F"/>
<path d="M803.394 33.4406C804.064 34.0213 805.002 34.7732 805.91 34.9146C806.044 34.9369 806.23 34.9518 806.342 34.7955C806.826 34.1031 804.503 32.8153 804.183 32.6143C804.019 32.5175 804.168 32.2569 804.332 32.3611C804.838 32.6738 807.295 34.0064 806.58 34.9667C806.468 35.1156 806.29 35.2049 806.111 35.2273C805.672 35.2719 805.181 34.9742 804.816 34.7806C804.228 34.4679 803.692 34.0808 803.193 33.649C803.037 33.5225 803.245 33.314 803.394 33.4406Z" fill="#5C3146"/>
<path d="M802.225 34.7806C803.007 35.257 803.811 35.7409 804.66 36.0834C804.92 36.1876 805.531 36.4779 805.813 36.2918C806.148 36.0685 805.836 35.4134 805.746 35.123C805.687 34.9444 805.97 34.8625 806.029 35.0411C806.163 35.458 806.476 36.2025 806 36.5226C805.702 36.7236 805.255 36.597 804.95 36.5003C803.93 36.1801 802.977 35.5846 802.069 35.0337C801.913 34.9369 802.062 34.6838 802.225 34.7806Z" fill="#5C3146"/>
<path d="M801.488 36.5449C802.173 36.8278 802.866 37.1033 803.588 37.2968C803.9 37.3787 804.451 37.5723 804.771 37.4308C805.24 37.2224 804.541 36.597 804.332 36.4109C804.191 36.2844 804.399 36.0759 804.541 36.2025C804.846 36.4779 805.568 37.1851 805.077 37.6095C804.838 37.8179 804.421 37.7584 804.139 37.7211C803.193 37.5871 802.278 37.2 801.407 36.8352C801.243 36.7608 801.317 36.4705 801.488 36.5449Z" fill="#5C3146"/>
<path d="M801.079 37.9891C801.756 38.3167 802.568 38.6591 803.342 38.6145C803.528 38.607 803.826 38.5772 803.863 38.3465C803.908 38.0785 803.483 37.7583 803.312 37.6169C803.171 37.4903 803.379 37.2819 803.521 37.4085C803.893 37.736 804.548 38.473 803.818 38.8155C802.955 39.2175 801.682 38.6145 800.923 38.2422C800.759 38.1603 800.908 37.9072 801.079 37.9891Z" fill="#5C3146"/>
<path opacity="0.03" d="M470.5 -5L448.416 7.75V33.25L470.5 46L492.584 33.25V7.75L470.5 -5Z" fill="white"/>
<path opacity="0.3" d="M478.5 26L472.005 29.75V37.25L478.5 41L484.995 37.25V29.75L478.5 26Z" fill="white"/>
<path opacity="0.8" d="M519.5 8L514.737 10.75V16.25L519.5 19L524.263 16.25V10.75L519.5 8Z" fill="white"/>
<path d="M529.5 39L525.603 41.25V45.75L529.5 48L533.397 45.75V41.25L529.5 39Z" fill="white"/>
<path opacity="0.2" d="M389 18L399.392 24V36L389 42L378.608 36V24L389 18Z" fill="white"/>
<path opacity="0.03" d="M410.5 2L432.584 14.75V40.25L410.5 53L388.416 40.25V14.75L410.5 2Z" fill="white"/>
<path opacity="0.8" d="M342 17L348.062 20.5V27.5L342 31L335.938 27.5V20.5L342 17Z" fill="white"/>
<path opacity="0.1" d="M324.5 39L328.397 41.25V45.75L324.5 48L320.603 45.75V41.25L324.5 39Z" fill="white"/>
</g>
<g clip-path="url(#clip1)">
<rect width="960" height="60" transform="translate(960)" fill="#1F2B77"/>
<path d="M1252.31 -87.3107C1133.76 -205.862 823 -87.3107 823 -87.3107V342H1252.31C1252.31 342 1370.86 31.2402 1252.31 -87.3107Z" fill="#F8F8F9"/>
<path d="M1040.28 -57.336C983.397 -114.221 891.167 -114.221 834.282 -57.336C777.397 -0.450668 834.282 148.664 834.282 148.664H1040.28C1040.28 148.664 1097.17 -0.450668 1040.28 -57.336Z" fill="#1F2B77"/>
<path d="M1043.93 68.0697C947.024 -28.8371 693 68.0697 693 68.0697V419H1043.93C1043.93 419 1140.84 164.976 1043.93 68.0697Z" fill="#1D2454"/>
<g clip-path="url(#clip2)">
<path d="M1043.29 5.56298C1045.61 4.41457 1047.49 2.32911 1048.49 -0.157935C1049.27 -2.11658 1049.48 -4.43453 1048.58 -6.32976C1047.69 -8.23204 1045.49 -9.49318 1043.59 -8.80272C1041.37 -7.99249 1039.77 -4.85726 1037.51 -5.53363C1036.49 -5.84363 1035.82 -6.87931 1034.9 -7.4359C1033.96 -7.99954 1032.73 -8.01363 1031.82 -7.39363C1030.9 -6.78067 1030.39 -5.54067 1030.63 -4.42749C1029.04 -4.92067 1027.23 -5.19544 1025.81 -4.28658C1024.39 -3.37771 1023.93 -0.848392 1025.34 0.0745649C1023.79 1.57525 1022.47 3.52684 1022.29 5.74617C1022.11 7.96549 1023.38 10.4032 1025.44 10.8612C1026.18 11.0232 1027.02 10.9528 1027.61 11.46C1028.91 12.5732 1027.64 14.9898 1028.52 16.4835C1029.38 17.9419 1031.62 17.4205 1032.7 16.1312C1033.77 14.8419 1034.23 13.0805 1035.27 11.77C1036.3 10.4948 1037.77 9.75504 1039.2 9.05754C1040.37 8.48685 1041.54 7.91617 1042.71 7.34549" fill="#5C3146"/>
<path d="M1055.75 27.7914C1053.09 26.8121 1050.15 28.1507 1049.19 30.7857C1049.15 30.8985 1049.12 31.0112 1049.08 31.1239H1049.06C1048.8 31.8496 1048.79 32.6669 1048.99 33.5405C1049.04 33.8082 1049.11 34.0619 1049.21 34.3155C1051.61 41.2342 1065.32 51.4149 1071.37 53.2608C1071.37 53.2608 1071.78 53.4721 1071.99 53.5496C1074.21 54.3669 1076.66 53.2467 1077.48 51.0485C1078.24 48.9842 1077.28 46.6944 1075.32 45.7503C1065.42 39.1698 1058.24 29.7148 1058.24 29.7148L1058.21 29.7219C1057.63 28.8694 1056.8 28.1789 1055.75 27.7914Z" fill="#FFAF8F"/>
<path d="M1075.74 31.4057C1075.74 31.4128 1075.74 31.4198 1075.74 31.4269H1075.73C1073.24 39.4728 1069.5 47.3496 1069.47 47.406C1068.52 49.6535 1069.58 52.2533 1071.82 53.1974C1074.07 54.1485 1076.67 53.0917 1077.61 50.8442C1077.63 50.816 1077.63 50.7878 1077.65 50.7526C1080.19 45.243 1083.47 32.8712 1083.47 32.8712L1083.44 32.8642C1083.85 30.7364 1082.45 28.6792 1080.32 28.2705C1078.2 27.876 1076.51 29.2992 1075.74 31.4057Z" fill="#FFAF8F"/>
<path d="M1084.69 29.6584C1084.27 30.5885 1083.39 32.9135 1083.35 33.1953C1083.03 35.2455 1081.11 36.6546 1079.06 36.3376C1077.27 36.0628 1075.98 34.5762 1075.88 32.836L1075.85 32.8219C1075.85 32.8219 1074.35 21.535 1076.99 26.8825C1077.13 27.1784 1077.55 27.1925 1077.73 26.9178C1079.31 24.5364 1084.82 16.4693 1080.42 26.2203C1080.42 26.2203 1081.63 24.4941 1082.71 23.1414C1084.37 21.0771 1085.73 20.8023 1082.04 27.1009C1082.04 27.1009 1088.67 17.7093 1083.7 28.1578C1083.7 28.1648 1088.58 21.1405 1084.69 29.6584Z" fill="#FFAF8F"/>
<path d="M1075.15 50.7244C1075.08 51.0485 1074.89 51.274 1074.58 51.4078C1074.4 51.4924 1074.56 51.753 1074.74 51.6755C1075.11 51.5065 1075.36 51.2035 1075.45 50.809C1075.5 50.6117 1075.2 50.5342 1075.15 50.7244Z" fill="#5C3146"/>
<path d="M1030.36 0.976389H1030.35V0.99068C1030.36 0.99068 1030.36 0.983535 1030.36 0.976389Z" fill="#FFBA9A"/>
<path d="M1044.16 3.66774C1044.14 3.52683 1044.11 3.39296 1044.08 3.2591C1043.55 3.56205 1042.85 3.73819 1042.1 3.92137C1039.18 4.61887 1036.04 3.29433 1032.72 4.56956C1032.73 6.11251 1032.75 7.65547 1032.77 9.19138C1032.77 9.43093 1032.68 9.75502 1032.45 9.73388C1032.32 9.71979 1032.23 9.60002 1032.16 9.49434C1032.01 9.26888 1031.87 9.04343 1031.73 8.81093C1032.07 9.62116 1032.48 11.1641 1031.88 11.3896C1031.35 11.5868 1030.39 9.98752 1030.16 8.93775C1030.01 8.89547 1029.86 8.8532 1029.7 8.83911C1028.32 8.72638 1027.12 9.74797 1027.01 11.1148C1026.89 12.4816 1027.92 13.6864 1029.28 13.7991C1029.66 13.8273 1030.01 13.7709 1030.35 13.6512V21.07C1030.31 21.3166 1030.29 21.5703 1030.29 21.8239C1030.29 24.9732 1032.85 27.5307 1035.99 27.5307C1039.14 27.5307 1041.7 24.9732 1041.7 21.8239C1041.7 21.5844 1041.68 21.3519 1041.65 21.1194V17.9489C1044.65 16.9484 1045.11 13.8625 1044.71 11.1218C1044.32 8.38115 1044.16 3.66774 1044.16 3.66774Z" fill="#FFAF8F"/>
<path d="M1030.73 12.0237C1030.9 10.826 1029.77 9.87482 1028.62 10.3398C1028.44 10.4173 1028.51 10.7203 1028.7 10.6428C1029.6 10.2835 1030.56 10.9457 1030.42 11.9391C1030.39 12.1364 1030.7 12.221 1030.73 12.0237Z" fill="#5C3146"/>
<path d="M1029.92 10.6498C1029.49 10.826 1029.16 11.0937 1028.91 11.4742C1028.8 11.6432 1029.07 11.8053 1029.18 11.6362C1029.39 11.3332 1029.66 11.1007 1030 10.9598C1030.18 10.8753 1030.1 10.5653 1029.92 10.6498Z" fill="#5C3146"/>
<path opacity="0.35" d="M1041.66 17.9489C1041.66 17.9489 1040.23 18.4562 1038.3 18.2942L1041.66 21.2532V17.9489Z" fill="#FC5151"/>
<path d="M1039.35 7.52869C1039.23 8.01483 1039.25 8.47983 1039.47 8.93074C1039.58 9.15619 1039.73 9.36051 1039.91 9.54369C1039.99 9.62824 1040.22 9.75506 1040.26 9.8537C1040.46 10.368 1040.03 10.7132 1039.54 10.6217C1039.35 10.5794 1039.26 10.8894 1039.46 10.9246C1039.99 11.0303 1040.68 10.7555 1040.71 10.1355C1040.73 9.79733 1040.49 9.65642 1040.27 9.44506C1039.73 8.95188 1039.47 8.32483 1039.66 7.60619C1039.71 7.41596 1039.41 7.33142 1039.35 7.52869Z" fill="#5C3146"/>
<path opacity="0.35" d="M1041.46 10.5934C1041.6 11.0514 1042.25 11.2698 1042.94 11.0725C1043.62 10.8753 1044.06 10.3469 1043.93 9.88186C1043.8 9.4239 1043.14 9.20549 1042.46 9.40277C1041.77 9.60004 1041.33 10.1284 1041.46 10.5934Z" fill="#FC5151"/>
<path opacity="0.35" d="M1033.44 9.96639C1033.33 10.4314 1033.81 10.9387 1034.5 11.0866C1035.19 11.2416 1035.84 10.9809 1035.94 10.5159C1036.04 10.0509 1035.56 9.54366 1034.87 9.3957C1034.18 9.24775 1033.54 9.50139 1033.44 9.96639Z" fill="#FC5151"/>
<path d="M1041.16 8.33892C1041.16 8.74756 1041.32 9.07869 1041.52 9.07869C1041.73 9.07869 1041.89 8.74756 1041.89 8.33892C1041.89 7.93028 1041.72 7.59914 1041.52 7.59914C1041.32 7.59914 1041.16 7.93028 1041.16 8.33892Z" fill="#5C3146"/>
<path d="M1036.85 8.33892C1036.85 8.74756 1036.69 9.07869 1036.49 9.07869C1036.28 9.07869 1036.12 8.74756 1036.12 8.33892C1036.12 7.93028 1036.28 7.59914 1036.49 7.59914C1036.69 7.59914 1036.85 7.93028 1036.85 8.33892Z" fill="#5C3146"/>
<path d="M1035.2 6.42958C1035.51 6.47186 1035.82 6.20413 1036.1 6.08436C1036.41 5.95754 1036.7 5.92936 1036.96 5.7039C1036.87 5.75322 1036.79 5.80958 1036.7 5.8589C1037.02 5.73913 1037.39 5.55595 1037.26 5.14026C1037.14 4.75981 1036.6 4.59776 1036.25 4.63299C1035.59 4.6964 1034.52 5.27413 1034.73 6.07026C1034.79 6.30277 1034.99 6.40845 1035.2 6.42958Z" fill="#5C3146"/>
<path d="M1043.04 6.59869C1043.42 6.0421 1042.69 5.37278 1042.25 5.14028C1042.01 5.00641 1041.73 4.91482 1041.44 4.93596C1041.16 4.9571 1040.8 5.04869 1040.68 5.32346C1040.37 5.9505 1041.23 6.16187 1041.63 6.35914C1042.05 6.56346 1042.64 7.17641 1043.04 6.59869Z" fill="#5C3146"/>
<path d="M1026.35 31.751C1027.19 28.8553 1025.54 25.8257 1022.67 24.9944C1022.55 24.9591 1022.42 24.938 1022.3 24.9098L1022.3 24.8887C1021.51 24.6632 1020.64 24.7125 1019.72 24.9873C1019.44 25.0648 1019.17 25.1635 1018.91 25.2832C1011.73 28.3621 1001.94 43.7283 1000.44 50.3017C1000.44 50.3087 1000.25 50.7596 1000.18 50.9921C999.479 53.4158 1000.86 55.9451 1003.26 56.6356C1005.51 57.2908 1007.87 56.0931 1008.73 53.9371C1014.99 42.911 1024.49 34.548 1024.49 34.548L1024.49 34.5198C1025.35 33.8364 1026.02 32.8923 1026.35 31.751Z" fill="#FFAF8F"/>
<path d="M1015.8 44.3623C1021.62 38.5146 1026.44 36.0064 1026.44 36.0064L1025.31 34.2169C1026.24 33.4841 1026.96 32.4626 1027.32 31.2296C1028.22 28.1085 1026.44 24.8534 1023.35 23.9587C1023.22 23.9234 1023.09 23.8953 1022.96 23.8671L1022.95 23.8459C1022.1 23.5994 1021.17 23.6557 1020.18 23.9587C1019.88 24.0432 1019.58 24.1489 1019.3 24.2757C1015.77 25.7905 1011.65 30.0741 1008.06 34.9496C1008.06 34.9496 1010.23 39.7617 1015.8 44.3623Z" fill="#FF5E69"/>
<path d="M1009.63 32.9417C1011.8 36.4362 1014.69 39.6419 1017.65 42.4812C1017.8 42.6221 1018.01 42.3967 1017.87 42.2628C1014.92 39.4376 1012.05 36.253 1009.89 32.7867C1009.8 32.6176 1009.52 32.7726 1009.63 32.9417Z" fill="white"/>
<path d="M1058.31 31.1873C1058.32 29.1301 1057.27 27.3123 1055.68 26.2344C1052.2 23.3317 1046.25 22.0282 1041.75 21.4646C1041.75 21.4646 1040.01 24.6069 1036.02 24.5998H1036.01V24.5928C1035.99 24.5928 1035.97 24.5928 1035.94 24.5998C1035.91 24.5998 1035.89 24.5998 1035.86 24.5928V24.5998H1035.85C1031.85 24.5928 1030.13 21.4435 1030.13 21.4435C1025.63 21.986 1019.67 23.2612 1016.18 26.1569C1014.59 27.2207 1013.54 29.0385 1013.54 31.0958C1013.54 31.8989 1013.7 32.6669 1013.99 33.3714L1019.68 38.5217L1019.37 65.0831C1019.37 65.0831 1024.13 66.8938 1035.76 66.9501C1035.79 66.9501 1035.82 66.9501 1035.85 66.9501C1035.87 66.9501 1035.9 66.9501 1035.93 66.9501C1047.56 66.9431 1052.32 65.1535 1052.32 65.1535L1052.27 40.0646L1057.86 33.463C1058.15 32.7585 1058.31 31.9905 1058.31 31.1873Z" fill="#FF5E69"/>
<path d="M1027.95 22.2607C1029.32 25.9385 1033.57 27.7985 1037.3 27.1573C1037.5 27.1221 1037.42 26.8051 1037.21 26.8403C1033.68 27.4532 1029.56 25.6778 1028.27 22.1762C1028.2 21.9789 1027.88 22.0635 1027.95 22.2607Z" fill="white"/>
<path d="M1040.11 26.2273C1041.93 25.4594 1043.32 24.0432 1044.04 22.2044C1044.12 22.0071 1043.8 21.9226 1043.73 22.1198C1043.05 23.8389 1041.73 25.1987 1040.02 25.9173C1039.82 25.9878 1039.91 26.3119 1040.11 26.2273Z" fill="white"/>
<path d="M1021.06 44.9189C1021.06 44.9189 1021.05 44.926 1021.04 44.926V44.9189C1012.76 47.0396 1004.07 47.8992 1004.07 47.8992L1004.08 47.9837C1004.02 47.9908 1003.96 47.9908 1003.9 48.0049C1001.45 48.3783 999.768 50.668 1000.14 53.1199C1000.51 55.5717 1002.8 57.2556 1005.25 56.8821C1005.29 56.8751 1005.32 56.8681 1005.35 56.861C1011.46 56.1353 1023.89 52.4012 1023.89 52.4012L1023.89 52.3801C1025.94 51.598 1026.98 49.2942 1026.2 47.2369C1025.42 45.1726 1023.25 44.3623 1021.06 44.9189Z" fill="#FFAF8F"/>
<path d="M1055.97 44.3624C1050.15 40.0576 1045.32 35.6189 1045.32 35.6189L1046.45 34.2099C1045.52 33.4771 1044.8 32.4555 1044.44 31.2226C1043.54 28.1014 1045.32 24.8464 1048.41 23.9517C1048.54 23.9164 1048.67 23.8882 1048.8 23.8601L1048.81 23.8389C1049.66 23.5923 1050.59 23.6487 1051.58 23.9517C1051.88 24.0362 1052.18 24.1419 1052.46 24.2687C1055.99 25.7835 1060.11 30.0671 1063.7 34.9426C1063.7 34.9496 1061.54 39.7617 1055.97 44.3624Z" fill="#FF5E69"/>
<path d="M1061.87 32.7867C1059.68 36.2953 1056.87 39.5996 1053.89 42.4601C1053.74 42.601 1053.96 42.8194 1054.11 42.6785C1057.1 39.8039 1059.94 36.4785 1062.13 32.9417C1062.24 32.7726 1061.97 32.6176 1061.87 32.7867Z" fill="white"/>
<path d="M1034.7 52.3097L1029.18 52.9156C1028.28 53.0142 1027.47 52.366 1027.37 51.4713L1026 38.9021C1025.9 38.0074 1026.55 37.1971 1027.44 37.0985L1032.97 36.4926C1033.87 36.394 1034.68 37.0421 1034.77 37.9369L1036.15 50.506C1036.25 51.4078 1035.6 52.211 1034.7 52.3097Z" fill="#E0E8ED"/>
<path opacity="0.15" d="M1034.83 38.4502L1026.06 39.4116L1027.32 50.954L1036.09 49.9927L1034.83 38.4502Z" fill="#C2B0CF"/>
<path d="M1031.73 41.819C1031.68 41.2906 1031.2 40.9031 1030.67 40.9594C1030.14 41.0158 1029.75 41.4949 1029.81 42.0233C1029.87 42.5517 1030.35 42.9392 1030.87 42.8828C1031.41 42.8265 1031.79 42.3474 1031.73 41.819Z" fill="#C2B0CF"/>
<path d="M1027.93 38.2328C1027.9 37.9651 1027.66 37.7749 1027.39 37.8031C1027.13 37.8312 1026.94 38.0708 1026.96 38.3385C1026.99 38.6062 1027.23 38.7965 1027.5 38.7683C1027.77 38.7401 1027.96 38.5006 1027.93 38.2328Z" fill="#6575CF"/>
<path d="M1028.68 38.1553C1028.68 38.0637 1028.59 38.0003 1028.51 38.0144C1028.42 38.0215 1028.35 38.106 1028.37 38.1906C1028.37 38.2821 1028.46 38.3456 1028.54 38.3315C1028.63 38.3174 1028.69 38.2399 1028.68 38.1553Z" fill="#6575CF"/>
<path d="M1027.37 51.1683L1036.13 50.2101" stroke="#C2B0CF" stroke-width="0.3481" stroke-miterlimit="10"/>
<path d="M1026.09 39.5151L1034.85 38.5569" stroke="#C2B0CF" stroke-width="0.3481" stroke-miterlimit="10"/>
<path d="M1026.55 43.6648C1025.61 43.7705 1023.21 44.3483 1021.3 44.8978C1019.13 45.2078 1017.63 47.2158 1017.94 49.3787C1018.25 51.5135 1020.21 53.0071 1022.35 52.7394V52.7465C1022.35 52.7465 1026.23 52.4928 1029.34 51.7671C1033.29 50.8442 1032.83 49.6605 1032.83 49.6605C1032.83 49.6605 1034.34 49.0335 1033.87 48.0753C1033.87 48.0753 1035.11 47.3919 1034.35 46.6451C1034.35 46.6451 1035.63 44.771 1033.04 45.5178C1030.73 46.1801 1027.84 46.0251 1027.24 45.8771C1026.98 45.8067 1026.71 45.4967 1026.68 45.243L1026.55 43.6648Z" fill="#FFAF8F"/>
<path d="M1034.39 46.3773C1033.09 47.1594 1031.42 47.3708 1029.92 47.4694C1029.73 47.4835 1029.73 47.7724 1029.92 47.7583C1031.47 47.6596 1033.19 47.4412 1034.54 46.631C1034.7 46.5323 1034.56 46.2787 1034.39 46.3773Z" fill="#5C3146"/>
<path d="M1033.94 47.878C1032.67 48.4699 1031.27 48.6742 1029.88 48.7305C1029.69 48.7376 1029.69 49.0335 1029.88 49.0194C1031.32 48.956 1032.77 48.7376 1034.09 48.1246C1034.26 48.0542 1034.11 47.8005 1033.94 47.878Z" fill="#5C3146"/>
<path d="M1032.99 49.3576C1031.99 49.8367 1031 49.9424 1029.91 50.0128C1029.73 50.0269 1029.72 50.3158 1029.91 50.3017C1031.06 50.2242 1032.09 50.1115 1033.14 49.6112C1033.31 49.5267 1033.16 49.273 1032.99 49.3576Z" fill="#5C3146"/>
<path d="M1051.96 35.7669C1052.04 38.0848 1052.13 40.3958 1052.21 42.7137C1052.22 42.911 1052.53 42.911 1052.52 42.7137C1052.44 40.3958 1052.35 38.0848 1052.27 35.7669C1052.26 35.5696 1051.95 35.5696 1051.96 35.7669Z" fill="white"/>
<path d="M1019.14 35.626C1019.23 37.9439 1019.31 40.2549 1019.39 42.5728C1019.4 42.7701 1019.71 42.7701 1019.7 42.5728C1019.62 40.2549 1019.54 37.9439 1019.45 35.626C1019.44 35.4217 1019.13 35.4217 1019.14 35.626Z" fill="white"/>
<path d="M1040 11.8405C1039.27 11.918 1038.89 11.6925 1038.37 11.3614C1037.81 10.995 1037.3 10.8119 1036.86 11.0937C1035.87 11.7348 1036.35 13.0171 1037.23 13.5948C1038.18 14.2148 1039.75 14.1866 1040.6 13.4891C1041.45 12.7916 1040.87 11.756 1040 11.8405Z" fill="#F7F7F7"/>
<path d="M1036.42 11.6785C1037.04 12.3196 1037.75 12.6719 1038.65 12.7564C1038.73 12.7635 1038.75 12.6226 1038.67 12.6014C1037.91 12.4182 1037.14 12.0589 1036.54 11.5657C1036.46 11.5094 1036.35 11.608 1036.42 11.6785Z" fill="#5C3146"/>
</g>
<path opacity="0.03" d="M1376.5 63L1398.58 50.25V24.75L1376.5 12L1354.42 24.75V50.25L1376.5 63Z" fill="white"/>
<path opacity="0.3" d="M1368.5 32L1375 28.25V20.75L1368.5 17L1362 20.75V28.25L1368.5 32Z" fill="white"/>
<path opacity="0.8" d="M1327.5 50L1332.26 47.25V41.75L1327.5 39L1322.74 41.75V47.25L1327.5 50Z" fill="white"/>
<path d="M1317.5 19L1321.4 16.75V12.25L1317.5 10L1313.6 12.25V16.75L1317.5 19Z" fill="white"/>
<path opacity="0.2" d="M1458 40L1447.61 34V22L1458 16L1468.39 22V34L1458 40Z" fill="white"/>
<path opacity="0.03" d="M1436.5 56L1414.42 43.25V17.75L1436.5 5L1458.58 17.75V43.25L1436.5 56Z" fill="white"/>
<path opacity="0.8" d="M1505 41L1498.94 37.5V30.5L1505 27L1511.06 30.5V37.5L1505 41Z" fill="white"/>
<path opacity="0.1" d="M1522.5 19L1518.6 16.75V12.25L1522.5 10L1526.4 12.25V16.75L1522.5 19Z" fill="white"/>
</g>
<defs>
<clipPath id="clip0">
<rect width="960" height="60" fill="white"/>
</clipPath>
<clipPath id="clip1">
<rect width="960" height="60" fill="white" transform="translate(960)"/>
</clipPath>
<clipPath id="clip2">
<rect width="116" height="139" fill="white" transform="translate(1000 -9)"/>
</clipPath>
</defs>
</svg>
