<svg width="960" height="60" viewBox="0 0 960 60" fill="none" xmlns="http://www.w3.org/2000/svg">
<g clip-path="url(#clip0)">
<path d="M612.689 -80.3107C731.24 -198.862 1042 -80.3107 1042 -80.3107V349H612.689C612.689 349 494.138 38.2402 612.689 -80.3107Z" fill="#F8F8F9"/>
<path d="M881.282 -57.336C938.168 -114.221 1030.4 -114.221 1087.28 -57.336C1144.17 -0.450668 1087.28 148.664 1087.28 148.664H881.282C881.282 148.664 824.397 -0.450668 881.282 -57.336Z" fill="#1C2455"/>
<path d="M836.282 50.2824C893.168 -6.60296 1042.28 50.2824 1042.28 50.2824V256.282H836.282C836.282 256.282 779.397 107.168 836.282 50.2824Z" fill="#141A42"/>
<path d="M636.539 15.975H632.615V27H630.194V15.975H626.27V13.986H636.539V15.975ZM639.815 17.622C640.499 17.622 641.12 17.733 641.678 17.955C642.242 18.177 642.722 18.492 643.118 18.9C643.52 19.308 643.829 19.806 644.045 20.394C644.261 20.982 644.369 21.639 644.369 22.365C644.369 23.097 644.261 23.757 644.045 24.345C643.829 24.933 643.52 25.434 643.118 25.848C642.722 26.262 642.242 26.58 641.678 26.802C641.12 27.024 640.499 27.135 639.815 27.135C639.125 27.135 638.498 27.024 637.934 26.802C637.37 26.58 636.887 26.262 636.485 25.848C636.089 25.434 635.78 24.933 635.558 24.345C635.342 23.757 635.234 23.097 635.234 22.365C635.234 21.639 635.342 20.982 635.558 20.394C635.78 19.806 636.089 19.308 636.485 18.9C636.887 18.492 637.37 18.177 637.934 17.955C638.498 17.733 639.125 17.622 639.815 17.622ZM639.815 25.425C640.583 25.425 641.15 25.167 641.516 24.651C641.888 24.135 642.074 23.379 642.074 22.383C642.074 21.387 641.888 20.628 641.516 20.106C641.15 19.584 640.583 19.323 639.815 19.323C639.035 19.323 638.456 19.587 638.078 20.115C637.706 20.637 637.52 21.393 637.52 22.383C637.52 23.373 637.706 24.129 638.078 24.651C638.456 25.167 639.035 25.425 639.815 25.425ZM648.288 13.626V21.285H648.702C648.852 21.285 648.969 21.267 649.053 21.231C649.143 21.189 649.233 21.108 649.323 20.988L651.618 18.153C651.714 18.027 651.819 17.931 651.933 17.865C652.053 17.799 652.206 17.766 652.392 17.766H654.426L651.555 21.195C651.351 21.465 651.129 21.672 650.889 21.816C651.015 21.906 651.126 22.011 651.222 22.131C651.324 22.251 651.42 22.38 651.51 22.518L654.588 27H652.581C652.407 27 652.257 26.973 652.131 26.919C652.005 26.859 651.9 26.754 651.816 26.604L649.458 23.103C649.374 22.965 649.287 22.875 649.197 22.833C649.107 22.791 648.972 22.77 648.792 22.77H648.288V27H646.065V13.626H648.288ZM661.154 21.321C661.154 21.033 661.112 20.763 661.028 20.511C660.95 20.253 660.83 20.028 660.668 19.836C660.506 19.644 660.299 19.494 660.047 19.386C659.801 19.272 659.513 19.215 659.183 19.215C658.541 19.215 658.034 19.398 657.662 19.764C657.296 20.13 657.062 20.649 656.96 21.321H661.154ZM656.915 22.662C656.951 23.136 657.035 23.547 657.167 23.895C657.299 24.237 657.473 24.522 657.689 24.75C657.905 24.972 658.16 25.14 658.454 25.254C658.754 25.362 659.084 25.416 659.444 25.416C659.804 25.416 660.113 25.374 660.371 25.29C660.635 25.206 660.863 25.113 661.055 25.011C661.253 24.909 661.424 24.816 661.568 24.732C661.718 24.648 661.862 24.606 662 24.606C662.186 24.606 662.324 24.675 662.414 24.813L663.053 25.623C662.807 25.911 662.531 26.154 662.225 26.352C661.919 26.544 661.598 26.7 661.262 26.82C660.932 26.934 660.593 27.015 660.245 27.063C659.903 27.111 659.57 27.135 659.246 27.135C658.604 27.135 658.007 27.03 657.455 26.82C656.903 26.604 656.423 26.289 656.015 25.875C655.607 25.455 655.286 24.939 655.052 24.327C654.818 23.709 654.701 22.995 654.701 22.185C654.701 21.555 654.803 20.964 655.007 20.412C655.211 19.854 655.502 19.371 655.88 18.963C656.264 18.549 656.729 18.222 657.275 17.982C657.827 17.742 658.448 17.622 659.138 17.622C659.72 17.622 660.257 17.715 660.749 17.901C661.241 18.087 661.664 18.36 662.018 18.72C662.372 19.074 662.648 19.512 662.846 20.034C663.05 20.55 663.152 21.141 663.152 21.807C663.152 22.143 663.116 22.371 663.044 22.491C662.972 22.605 662.834 22.662 662.63 22.662H656.915ZM666.9 18.9C667.086 18.714 667.281 18.543 667.485 18.387C667.695 18.225 667.914 18.09 668.142 17.982C668.376 17.868 668.625 17.781 668.889 17.721C669.153 17.655 669.441 17.622 669.753 17.622C670.257 17.622 670.704 17.709 671.094 17.883C671.484 18.051 671.808 18.291 672.066 18.603C672.33 18.909 672.528 19.278 672.66 19.71C672.798 20.136 672.867 20.607 672.867 21.123V27H670.644V21.123C670.644 20.559 670.515 20.124 670.257 19.818C669.999 19.506 669.606 19.35 669.078 19.35C668.694 19.35 668.334 19.437 667.998 19.611C667.662 19.785 667.344 20.022 667.044 20.322V27H664.821V17.766H666.18C666.468 17.766 666.657 17.901 666.747 18.171L666.9 18.9ZM684.992 19.566C684.932 19.662 684.869 19.731 684.803 19.773C684.737 19.809 684.653 19.827 684.551 19.827C684.443 19.827 684.326 19.797 684.2 19.737C684.08 19.677 683.939 19.611 683.777 19.539C683.615 19.461 683.429 19.392 683.219 19.332C683.015 19.272 682.772 19.242 682.49 19.242C682.052 19.242 681.707 19.335 681.455 19.521C681.209 19.707 681.086 19.95 681.086 20.25C681.086 20.448 681.149 20.616 681.275 20.754C681.407 20.886 681.578 21.003 681.788 21.105C682.004 21.207 682.247 21.3 682.517 21.384C682.787 21.462 683.06 21.549 683.336 21.645C683.618 21.741 683.894 21.852 684.164 21.978C684.434 22.098 684.674 22.254 684.884 22.446C685.1 22.632 685.271 22.857 685.397 23.121C685.529 23.385 685.595 23.703 685.595 24.075C685.595 24.519 685.514 24.93 685.352 25.308C685.196 25.68 684.962 26.004 684.65 26.28C684.338 26.55 683.951 26.763 683.489 26.919C683.033 27.069 682.505 27.144 681.905 27.144C681.587 27.144 681.275 27.114 680.969 27.054C680.669 27 680.378 26.922 680.096 26.82C679.82 26.718 679.562 26.598 679.322 26.46C679.088 26.322 678.881 26.172 678.701 26.01L679.214 25.164C679.28 25.062 679.358 24.984 679.448 24.93C679.538 24.876 679.652 24.849 679.79 24.849C679.928 24.849 680.057 24.888 680.177 24.966C680.303 25.044 680.447 25.128 680.609 25.218C680.771 25.308 680.96 25.392 681.176 25.47C681.398 25.548 681.677 25.587 682.013 25.587C682.277 25.587 682.502 25.557 682.688 25.497C682.88 25.431 683.036 25.347 683.156 25.245C683.282 25.143 683.372 25.026 683.426 24.894C683.486 24.756 683.516 24.615 683.516 24.471C683.516 24.255 683.45 24.078 683.318 23.94C683.192 23.802 683.021 23.682 682.805 23.58C682.595 23.478 682.352 23.388 682.076 23.31C681.806 23.226 681.527 23.136 681.239 23.04C680.957 22.944 680.678 22.833 680.402 22.707C680.132 22.575 679.889 22.41 679.673 22.212C679.463 22.014 679.292 21.771 679.16 21.483C679.034 21.195 678.971 20.847 678.971 20.439C678.971 20.061 679.046 19.701 679.196 19.359C679.346 19.017 679.565 18.72 679.853 18.468C680.147 18.21 680.51 18.006 680.942 17.856C681.38 17.7 681.884 17.622 682.454 17.622C683.09 17.622 683.669 17.727 684.191 17.937C684.713 18.147 685.148 18.423 685.496 18.765L684.992 19.566ZM692.146 23.058C691.504 23.088 690.964 23.145 690.526 23.229C690.088 23.307 689.737 23.409 689.473 23.535C689.209 23.661 689.02 23.808 688.906 23.976C688.792 24.144 688.735 24.327 688.735 24.525C688.735 24.915 688.849 25.194 689.077 25.362C689.311 25.53 689.614 25.614 689.986 25.614C690.442 25.614 690.835 25.533 691.165 25.371C691.501 25.203 691.828 24.951 692.146 24.615V23.058ZM687.052 19.053C688.114 18.081 689.392 17.595 690.886 17.595C691.426 17.595 691.909 17.685 692.335 17.865C692.761 18.039 693.121 18.285 693.415 18.603C693.709 18.915 693.931 19.29 694.081 19.728C694.237 20.166 694.315 20.646 694.315 21.168V27H693.307C693.097 27 692.935 26.97 692.821 26.91C692.707 26.844 692.617 26.715 692.551 26.523L692.353 25.857C692.119 26.067 691.891 26.253 691.669 26.415C691.447 26.571 691.216 26.703 690.976 26.811C690.736 26.919 690.478 27 690.202 27.054C689.932 27.114 689.632 27.144 689.302 27.144C688.912 27.144 688.552 27.093 688.222 26.991C687.892 26.883 687.607 26.724 687.367 26.514C687.127 26.304 686.941 26.043 686.809 25.731C686.677 25.419 686.611 25.056 686.611 24.642C686.611 24.408 686.65 24.177 686.728 23.949C686.806 23.715 686.932 23.493 687.106 23.283C687.286 23.073 687.517 22.875 687.799 22.689C688.081 22.503 688.426 22.341 688.834 22.203C689.248 22.065 689.728 21.954 690.274 21.87C690.82 21.78 691.444 21.726 692.146 21.708V21.168C692.146 20.55 692.014 20.094 691.75 19.8C691.486 19.5 691.105 19.35 690.607 19.35C690.247 19.35 689.947 19.392 689.707 19.476C689.473 19.56 689.266 19.656 689.086 19.764C688.906 19.866 688.741 19.959 688.591 20.043C688.447 20.127 688.285 20.169 688.105 20.169C687.949 20.169 687.817 20.13 687.709 20.052C687.601 19.968 687.514 19.872 687.448 19.764L687.052 19.053ZM698.659 13.626V27H696.436V13.626H698.659ZM706.822 21.321C706.822 21.033 706.78 20.763 706.696 20.511C706.618 20.253 706.498 20.028 706.336 19.836C706.174 19.644 705.967 19.494 705.715 19.386C705.469 19.272 705.181 19.215 704.851 19.215C704.209 19.215 703.702 19.398 703.33 19.764C702.964 20.13 702.73 20.649 702.628 21.321H706.822ZM702.583 22.662C702.619 23.136 702.703 23.547 702.835 23.895C702.967 24.237 703.141 24.522 703.357 24.75C703.573 24.972 703.828 25.14 704.122 25.254C704.422 25.362 704.752 25.416 705.112 25.416C705.472 25.416 705.781 25.374 706.039 25.29C706.303 25.206 706.531 25.113 706.723 25.011C706.921 24.909 707.092 24.816 707.236 24.732C707.386 24.648 707.53 24.606 707.668 24.606C707.854 24.606 707.992 24.675 708.082 24.813L708.721 25.623C708.475 25.911 708.199 26.154 707.893 26.352C707.587 26.544 707.266 26.7 706.93 26.82C706.6 26.934 706.261 27.015 705.913 27.063C705.571 27.111 705.238 27.135 704.914 27.135C704.272 27.135 703.675 27.03 703.123 26.82C702.571 26.604 702.091 26.289 701.683 25.875C701.275 25.455 700.954 24.939 700.72 24.327C700.486 23.709 700.369 22.995 700.369 22.185C700.369 21.555 700.471 20.964 700.675 20.412C700.879 19.854 701.17 19.371 701.548 18.963C701.932 18.549 702.397 18.222 702.943 17.982C703.495 17.742 704.116 17.622 704.806 17.622C705.388 17.622 705.925 17.715 706.417 17.901C706.909 18.087 707.332 18.36 707.686 18.72C708.04 19.074 708.316 19.512 708.514 20.034C708.718 20.55 708.82 21.141 708.82 21.807C708.82 22.143 708.784 22.371 708.712 22.491C708.64 22.605 708.502 22.662 708.298 22.662H702.583ZM718.952 17.622C719.636 17.622 720.257 17.733 720.815 17.955C721.379 18.177 721.859 18.492 722.255 18.9C722.657 19.308 722.966 19.806 723.182 20.394C723.398 20.982 723.506 21.639 723.506 22.365C723.506 23.097 723.398 23.757 723.182 24.345C722.966 24.933 722.657 25.434 722.255 25.848C721.859 26.262 721.379 26.58 720.815 26.802C720.257 27.024 719.636 27.135 718.952 27.135C718.262 27.135 717.635 27.024 717.071 26.802C716.507 26.58 716.024 26.262 715.622 25.848C715.226 25.434 714.917 24.933 714.695 24.345C714.479 23.757 714.371 23.097 714.371 22.365C714.371 21.639 714.479 20.982 714.695 20.394C714.917 19.806 715.226 19.308 715.622 18.9C716.024 18.492 716.507 18.177 717.071 17.955C717.635 17.733 718.262 17.622 718.952 17.622ZM718.952 25.425C719.72 25.425 720.287 25.167 720.653 24.651C721.025 24.135 721.211 23.379 721.211 22.383C721.211 21.387 721.025 20.628 720.653 20.106C720.287 19.584 719.72 19.323 718.952 19.323C718.172 19.323 717.593 19.587 717.215 20.115C716.843 20.637 716.657 21.393 716.657 22.383C716.657 23.373 716.843 24.129 717.215 24.651C717.593 25.167 718.172 25.425 718.952 25.425ZM727.281 18.9C727.467 18.714 727.662 18.543 727.866 18.387C728.076 18.225 728.295 18.09 728.523 17.982C728.757 17.868 729.006 17.781 729.27 17.721C729.534 17.655 729.822 17.622 730.134 17.622C730.638 17.622 731.085 17.709 731.475 17.883C731.865 18.051 732.189 18.291 732.447 18.603C732.711 18.909 732.909 19.278 733.041 19.71C733.179 20.136 733.248 20.607 733.248 21.123V27H731.025V21.123C731.025 20.559 730.896 20.124 730.638 19.818C730.38 19.506 729.987 19.35 729.459 19.35C729.075 19.35 728.715 19.437 728.379 19.611C728.043 19.785 727.725 20.022 727.425 20.322V27H725.202V17.766H726.561C726.849 17.766 727.038 17.901 727.128 18.171L727.281 18.9ZM749.054 14.877C749.054 15.153 748.976 15.405 748.82 15.633L742.142 25.065H748.901V27H739.001V26.046C739.001 25.926 739.022 25.812 739.064 25.704C739.106 25.59 739.16 25.485 739.226 25.389L745.922 15.912H739.424V13.986H749.054V14.877ZM750.512 20.637H755.174V22.491H750.512V20.637ZM759.522 24.606C759.774 24.912 760.047 25.128 760.341 25.254C760.641 25.38 760.965 25.443 761.313 25.443C761.649 25.443 761.952 25.38 762.222 25.254C762.492 25.128 762.72 24.936 762.906 24.678C763.098 24.42 763.245 24.096 763.347 23.706C763.449 23.31 763.5 22.845 763.5 22.311C763.5 21.771 763.455 21.315 763.365 20.943C763.281 20.565 763.158 20.259 762.996 20.025C762.834 19.791 762.636 19.62 762.402 19.512C762.174 19.404 761.913 19.35 761.619 19.35C761.157 19.35 760.764 19.449 760.44 19.647C760.116 19.839 759.81 20.112 759.522 20.466V24.606ZM759.405 19.026C759.783 18.6 760.212 18.255 760.692 17.991C761.172 17.727 761.736 17.595 762.384 17.595C762.888 17.595 763.347 17.7 763.761 17.91C764.181 18.12 764.541 18.426 764.841 18.828C765.147 19.224 765.381 19.716 765.543 20.304C765.711 20.886 765.795 21.555 765.795 22.311C765.795 23.001 765.702 23.64 765.516 24.228C765.33 24.816 765.063 25.326 764.715 25.758C764.373 26.19 763.956 26.529 763.464 26.775C762.978 27.015 762.432 27.135 761.826 27.135C761.31 27.135 760.869 27.057 760.503 26.901C760.137 26.739 759.81 26.517 759.522 26.235V30.015H757.299V17.766H758.658C758.946 17.766 759.135 17.901 759.225 18.171L759.405 19.026ZM772.408 23.058C771.766 23.088 771.226 23.145 770.788 23.229C770.35 23.307 769.999 23.409 769.735 23.535C769.471 23.661 769.282 23.808 769.168 23.976C769.054 24.144 768.997 24.327 768.997 24.525C768.997 24.915 769.111 25.194 769.339 25.362C769.573 25.53 769.876 25.614 770.248 25.614C770.704 25.614 771.097 25.533 771.427 25.371C771.763 25.203 772.09 24.951 772.408 24.615V23.058ZM767.314 19.053C768.376 18.081 769.654 17.595 771.148 17.595C771.688 17.595 772.171 17.685 772.597 17.865C773.023 18.039 773.383 18.285 773.677 18.603C773.971 18.915 774.193 19.29 774.343 19.728C774.499 20.166 774.577 20.646 774.577 21.168V27H773.569C773.359 27 773.197 26.97 773.083 26.91C772.969 26.844 772.879 26.715 772.813 26.523L772.615 25.857C772.381 26.067 772.153 26.253 771.931 26.415C771.709 26.571 771.478 26.703 771.238 26.811C770.998 26.919 770.74 27 770.464 27.054C770.194 27.114 769.894 27.144 769.564 27.144C769.174 27.144 768.814 27.093 768.484 26.991C768.154 26.883 767.869 26.724 767.629 26.514C767.389 26.304 767.203 26.043 767.071 25.731C766.939 25.419 766.873 25.056 766.873 24.642C766.873 24.408 766.912 24.177 766.99 23.949C767.068 23.715 767.194 23.493 767.368 23.283C767.548 23.073 767.779 22.875 768.061 22.689C768.343 22.503 768.688 22.341 769.096 22.203C769.51 22.065 769.99 21.954 770.536 21.87C771.082 21.78 771.706 21.726 772.408 21.708V21.168C772.408 20.55 772.276 20.094 772.012 19.8C771.748 19.5 771.367 19.35 770.869 19.35C770.509 19.35 770.209 19.392 769.969 19.476C769.735 19.56 769.528 19.656 769.348 19.764C769.168 19.866 769.003 19.959 768.853 20.043C768.709 20.127 768.547 20.169 768.367 20.169C768.211 20.169 768.079 20.13 767.971 20.052C767.863 19.968 767.776 19.872 767.71 19.764L767.314 19.053ZM784.795 17.766L779.764 29.538C779.698 29.694 779.611 29.811 779.503 29.889C779.401 29.973 779.242 30.015 779.026 30.015H777.37L779.098 26.307L775.363 17.766H777.316C777.49 17.766 777.625 17.808 777.721 17.892C777.823 17.976 777.898 18.072 777.946 18.18L779.908 22.968C779.974 23.13 780.028 23.292 780.07 23.454C780.118 23.616 780.163 23.781 780.205 23.949C780.259 23.781 780.313 23.616 780.367 23.454C780.421 23.286 780.481 23.121 780.547 22.959L782.401 18.18C782.449 18.06 782.527 17.961 782.635 17.883C782.749 17.805 782.875 17.766 783.013 17.766H784.795Z" fill="#282D33"/>
<path d="M631.954 38.1415C631.915 38.2065 631.872 38.2563 631.824 38.291C631.781 38.3213 631.727 38.3365 631.662 38.3365C631.588 38.3365 631.501 38.2997 631.402 38.226C631.302 38.1523 631.176 38.0722 631.025 37.9855C630.877 37.8945 630.697 37.8122 630.485 37.7385C630.277 37.6648 630.024 37.628 629.725 37.628C629.443 37.628 629.194 37.667 628.977 37.745C628.765 37.8187 628.585 37.9205 628.438 38.0505C628.295 38.1805 628.186 38.3343 628.113 38.512C628.039 38.6853 628.002 38.8738 628.002 39.0775C628.002 39.3375 628.065 39.5542 628.191 39.7275C628.321 39.8965 628.49 40.0417 628.698 40.163C628.91 40.2843 629.148 40.3905 629.413 40.4815C629.681 40.5682 629.954 40.6592 630.232 40.7545C630.513 40.8498 630.786 40.9582 631.051 41.0795C631.319 41.1965 631.558 41.346 631.766 41.528C631.978 41.71 632.147 41.9332 632.273 42.1975C632.403 42.4618 632.468 42.7868 632.468 43.1725C632.468 43.5798 632.398 43.9633 632.26 44.323C632.121 44.6783 631.917 44.9882 631.649 45.2525C631.384 45.5168 631.057 45.7248 630.667 45.8765C630.281 46.0282 629.842 46.104 629.348 46.104C628.741 46.104 628.191 45.9957 627.697 45.779C627.203 45.558 626.78 45.2612 626.429 44.8885L626.793 44.2905C626.828 44.2428 626.869 44.2038 626.917 44.1735C626.969 44.1388 627.025 44.1215 627.086 44.1215C627.142 44.1215 627.205 44.1453 627.274 44.193C627.348 44.2363 627.43 44.2927 627.521 44.362C627.612 44.4313 627.716 44.5072 627.833 44.5895C627.95 44.6718 628.082 44.7477 628.23 44.817C628.381 44.8863 628.552 44.9448 628.743 44.9925C628.934 45.0358 629.148 45.0575 629.387 45.0575C629.686 45.0575 629.952 45.0163 630.186 44.934C630.42 44.8517 630.617 44.7368 630.778 44.5895C630.942 44.4378 631.068 44.258 631.155 44.05C631.241 43.842 631.285 43.6102 631.285 43.3545C631.285 43.0728 631.22 42.8432 631.09 42.6655C630.964 42.4835 630.797 42.3318 630.589 42.2105C630.381 42.0892 630.143 41.9873 629.874 41.905C629.605 41.8183 629.332 41.7317 629.055 41.645C628.778 41.554 628.505 41.45 628.236 41.333C627.967 41.216 627.729 41.0643 627.521 40.878C627.313 40.6917 627.144 40.4598 627.014 40.1825C626.888 39.9008 626.826 39.5542 626.826 39.1425C626.826 38.8132 626.888 38.4947 627.014 38.187C627.144 37.8793 627.33 37.6063 627.573 37.368C627.82 37.1297 628.121 36.939 628.477 36.796C628.836 36.653 629.248 36.5815 629.712 36.5815C630.232 36.5815 630.704 36.6638 631.129 36.8285C631.558 36.9932 631.935 37.2315 632.26 37.5435L631.954 38.1415ZM637.455 43.036C636.922 43.0533 636.467 43.0967 636.09 43.166C635.717 43.231 635.412 43.3177 635.173 43.426C634.939 43.5343 634.768 43.6622 634.66 43.8095C634.556 43.9568 634.504 44.1215 634.504 44.3035C634.504 44.4768 634.532 44.6263 634.588 44.752C634.645 44.8777 634.72 44.9817 634.816 45.064C634.915 45.142 635.03 45.2005 635.16 45.2395C635.295 45.2742 635.438 45.2915 635.589 45.2915C635.793 45.2915 635.979 45.272 636.148 45.233C636.317 45.1897 636.475 45.129 636.623 45.051C636.774 44.973 636.917 44.8798 637.052 44.7715C637.19 44.6632 637.325 44.5397 637.455 44.401V43.036ZM633.717 40.345C634.081 39.994 634.473 39.7318 634.894 39.5585C635.314 39.3852 635.78 39.2985 636.291 39.2985C636.66 39.2985 636.987 39.3592 637.273 39.4805C637.559 39.6018 637.799 39.7708 637.994 39.9875C638.189 40.2042 638.337 40.4663 638.436 40.774C638.536 41.0817 638.586 41.4197 638.586 41.788V46H638.072C637.96 46 637.873 45.9827 637.812 45.948C637.752 45.909 637.704 45.8353 637.669 45.727L637.539 45.103C637.366 45.2633 637.197 45.4063 637.032 45.532C636.868 45.6533 636.694 45.7573 636.512 45.844C636.33 45.9263 636.135 45.9892 635.927 46.0325C635.724 46.0802 635.496 46.104 635.245 46.104C634.989 46.104 634.749 46.0693 634.523 46C634.298 45.9263 634.101 45.818 633.932 45.675C633.767 45.532 633.635 45.3522 633.535 45.1355C633.44 44.9145 633.392 44.6545 633.392 44.3555C633.392 44.0955 633.464 43.8463 633.607 43.608C633.75 43.3653 633.982 43.1508 634.302 42.9645C634.623 42.7782 635.041 42.6265 635.557 42.5095C636.072 42.3882 636.705 42.3188 637.455 42.3015V41.788C637.455 41.2767 637.344 40.891 637.123 40.631C636.902 40.3667 636.579 40.2345 636.155 40.2345C635.869 40.2345 635.628 40.2713 635.433 40.345C635.243 40.4143 635.076 40.4945 634.933 40.5855C634.794 40.6722 634.673 40.7523 634.569 40.826C634.469 40.8953 634.369 40.93 634.27 40.93C634.192 40.93 634.125 40.9105 634.068 40.8715C634.012 40.8282 633.964 40.7762 633.925 40.7155L633.717 40.345ZM641.544 36.4255V46H640.387V36.4255H641.544ZM647.827 41.9895C647.827 41.7208 647.788 41.476 647.71 41.255C647.637 41.0297 647.526 40.8368 647.379 40.6765C647.236 40.5118 647.06 40.3862 646.852 40.2995C646.644 40.2085 646.408 40.163 646.144 40.163C645.589 40.163 645.149 40.3255 644.824 40.6505C644.504 40.9712 644.304 41.4175 644.226 41.9895H647.827ZM648.763 45.077C648.62 45.2503 648.449 45.402 648.25 45.532C648.051 45.6577 647.836 45.7617 647.606 45.844C647.381 45.9263 647.147 45.987 646.904 46.026C646.662 46.0693 646.421 46.091 646.183 46.091C645.728 46.091 645.308 46.0152 644.922 45.8635C644.541 45.7075 644.209 45.4822 643.927 45.1875C643.65 44.8885 643.433 44.5202 643.277 44.0825C643.121 43.6448 643.043 43.1422 643.043 42.5745C643.043 42.1152 643.113 41.6862 643.251 41.2875C643.394 40.8888 643.598 40.5443 643.862 40.254C644.127 39.9593 644.45 39.7297 644.831 39.565C645.212 39.396 645.641 39.3115 646.118 39.3115C646.512 39.3115 646.876 39.3787 647.21 39.513C647.548 39.643 647.838 39.8337 648.081 40.085C648.328 40.332 648.521 40.6397 648.659 41.008C648.798 41.372 648.867 41.788 648.867 42.256C648.867 42.438 648.848 42.5593 648.809 42.62C648.77 42.6807 648.696 42.711 648.588 42.711H644.187C644.2 43.127 644.257 43.4888 644.356 43.7965C644.46 44.1042 644.603 44.362 644.785 44.57C644.967 44.7737 645.184 44.9275 645.435 45.0315C645.687 45.1312 645.968 45.181 646.28 45.181C646.571 45.181 646.82 45.1485 647.028 45.0835C647.24 45.0142 647.422 44.9405 647.574 44.8625C647.726 44.7845 647.851 44.713 647.951 44.648C648.055 44.5787 648.144 44.544 648.217 44.544C648.313 44.544 648.386 44.5808 648.438 44.6545L648.763 45.077ZM658.966 39.4155L655.293 47.9435C655.254 48.0302 655.204 48.0995 655.144 48.1515C655.087 48.2035 654.998 48.2295 654.877 48.2295H654.019L655.222 45.6165L652.505 39.4155H653.506C653.605 39.4155 653.683 39.4415 653.74 39.4935C653.8 39.5412 653.841 39.5953 653.863 39.656L655.625 43.803C655.694 43.985 655.752 44.1757 655.8 44.375C655.861 44.1713 655.926 43.9785 655.995 43.7965L657.705 39.656C657.731 39.5867 657.774 39.5303 657.835 39.487C657.9 39.4393 657.971 39.4155 658.049 39.4155H658.966ZM662.586 39.3115C663.067 39.3115 663.5 39.3917 663.886 39.552C664.271 39.7123 664.601 39.9398 664.874 40.2345C665.147 40.5292 665.355 40.8867 665.498 41.307C665.645 41.723 665.719 42.1888 665.719 42.7045C665.719 43.2245 665.645 43.6925 665.498 44.1085C665.355 44.5245 665.147 44.8798 664.874 45.1745C664.601 45.4692 664.271 45.6967 663.886 45.857C663.5 46.013 663.067 46.091 662.586 46.091C662.1 46.091 661.663 46.013 661.273 45.857C660.887 45.6967 660.558 45.4692 660.285 45.1745C660.012 44.8798 659.801 44.5245 659.654 44.1085C659.511 43.6925 659.44 43.2245 659.44 42.7045C659.44 42.1888 659.511 41.723 659.654 41.307C659.801 40.8867 660.012 40.5292 660.285 40.2345C660.558 39.9398 660.887 39.7123 661.273 39.552C661.663 39.3917 662.1 39.3115 662.586 39.3115ZM662.586 45.1875C663.236 45.1875 663.721 44.9708 664.042 44.5375C664.362 44.0998 664.523 43.491 664.523 42.711C664.523 41.9267 664.362 41.3157 664.042 40.878C663.721 40.4403 663.236 40.2215 662.586 40.2215C662.256 40.2215 661.968 40.2778 661.721 40.3905C661.478 40.5032 661.275 40.6657 661.11 40.878C660.95 41.0903 660.828 41.3525 660.746 41.6645C660.668 41.9722 660.629 42.321 660.629 42.711C660.629 43.491 660.789 44.0998 661.11 44.5375C661.435 44.9708 661.927 45.1875 662.586 45.1875ZM672.601 39.4155V46H671.912C671.747 46 671.643 45.9198 671.6 45.7595L671.509 45.051C671.223 45.3673 670.902 45.623 670.547 45.818C670.191 46.0087 669.784 46.104 669.325 46.104C668.965 46.104 668.646 46.0455 668.369 45.9285C668.096 45.8072 667.866 45.6382 667.68 45.4215C667.494 45.2048 667.353 44.9427 667.258 44.635C667.167 44.3273 667.121 43.9872 667.121 43.6145V39.4155H668.278V43.6145C668.278 44.1128 668.391 44.4985 668.616 44.7715C668.846 45.0445 669.195 45.181 669.663 45.181C670.005 45.181 670.323 45.1008 670.618 44.9405C670.917 44.7758 671.192 44.5505 671.444 44.2645V39.4155H672.601ZM675.534 40.735C675.742 40.2843 675.997 39.9333 676.301 39.682C676.604 39.4263 676.974 39.2985 677.412 39.2985C677.551 39.2985 677.683 39.3137 677.809 39.344C677.939 39.3743 678.053 39.422 678.153 39.487L678.069 40.3515C678.043 40.4598 677.978 40.514 677.874 40.514C677.813 40.514 677.724 40.501 677.607 40.475C677.49 40.449 677.358 40.436 677.211 40.436C677.003 40.436 676.816 40.4663 676.652 40.527C676.491 40.5877 676.346 40.6787 676.216 40.8C676.09 40.917 675.976 41.0643 675.872 41.242C675.772 41.4153 675.681 41.6147 675.599 41.84V46H674.435V39.4155H675.098C675.224 39.4155 675.31 39.4393 675.358 39.487C675.406 39.5347 675.438 39.617 675.456 39.734L675.534 40.735ZM684.239 46.104C683.719 46.104 683.318 45.9588 683.036 45.6685C682.759 45.3782 682.62 44.96 682.62 44.414V40.384H681.827C681.758 40.384 681.699 40.3645 681.652 40.3255C681.604 40.2822 681.58 40.2172 681.58 40.1305V39.669L682.659 39.5325L682.926 37.498C682.939 37.433 682.967 37.381 683.01 37.342C683.058 37.2987 683.119 37.277 683.192 37.277H683.777V39.5455H685.682V40.384H683.777V44.336C683.777 44.6133 683.844 44.8192 683.979 44.9535C684.113 45.0878 684.286 45.155 684.499 45.155C684.62 45.155 684.724 45.1398 684.811 45.1095C684.902 45.0748 684.98 45.038 685.045 44.999C685.11 44.96 685.164 44.9253 685.207 44.895C685.255 44.8603 685.296 44.843 685.331 44.843C685.391 44.843 685.446 44.8798 685.493 44.9535L685.831 45.506C685.632 45.6923 685.391 45.8397 685.11 45.948C684.828 46.052 684.538 46.104 684.239 46.104ZM689.614 39.3115C690.095 39.3115 690.528 39.3917 690.914 39.552C691.3 39.7123 691.629 39.9398 691.902 40.2345C692.175 40.5292 692.383 40.8867 692.526 41.307C692.673 41.723 692.747 42.1888 692.747 42.7045C692.747 43.2245 692.673 43.6925 692.526 44.1085C692.383 44.5245 692.175 44.8798 691.902 45.1745C691.629 45.4692 691.3 45.6967 690.914 45.857C690.528 46.013 690.095 46.091 689.614 46.091C689.129 46.091 688.691 46.013 688.301 45.857C687.915 45.6967 687.586 45.4692 687.313 45.1745C687.04 44.8798 686.83 44.5245 686.682 44.1085C686.539 43.6925 686.468 43.2245 686.468 42.7045C686.468 42.1888 686.539 41.723 686.682 41.307C686.83 40.8867 687.04 40.5292 687.313 40.2345C687.586 39.9398 687.915 39.7123 688.301 39.552C688.691 39.3917 689.129 39.3115 689.614 39.3115ZM689.614 45.1875C690.264 45.1875 690.749 44.9708 691.07 44.5375C691.391 44.0998 691.551 43.491 691.551 42.711C691.551 41.9267 691.391 41.3157 691.07 40.878C690.749 40.4403 690.264 40.2215 689.614 40.2215C689.285 40.2215 688.996 40.2778 688.749 40.3905C688.507 40.5032 688.303 40.6657 688.138 40.878C687.978 41.0903 687.857 41.3525 687.774 41.6645C687.696 41.9722 687.657 42.321 687.657 42.711C687.657 43.491 687.818 44.0998 688.138 44.5375C688.463 44.9708 688.955 45.1875 689.614 45.1875ZM695.378 36.4255V42.061H695.677C695.764 42.061 695.835 42.0502 695.891 42.0285C695.952 42.0025 696.015 41.9527 696.08 41.879L698.16 39.6495C698.221 39.5758 698.283 39.5195 698.348 39.4805C698.418 39.4372 698.509 39.4155 698.621 39.4155H699.668L697.243 41.996C697.126 42.1433 697.001 42.2582 696.866 42.3405C696.944 42.3925 697.014 42.4532 697.074 42.5225C697.139 42.5875 697.2 42.6633 697.256 42.75L699.83 46H698.797C698.697 46 698.611 45.9848 698.537 45.9545C698.468 45.9198 698.407 45.8592 698.355 45.7725L696.19 43.075C696.125 42.984 696.06 42.9255 695.995 42.8995C695.935 42.8692 695.839 42.854 695.709 42.854H695.378V46H694.214V36.4255H695.378ZM704.855 41.9895C704.855 41.7208 704.816 41.476 704.738 41.255C704.664 41.0297 704.554 40.8368 704.406 40.6765C704.263 40.5118 704.088 40.3862 703.88 40.2995C703.672 40.2085 703.436 40.163 703.171 40.163C702.617 40.163 702.177 40.3255 701.852 40.6505C701.531 40.9712 701.332 41.4175 701.254 41.9895H704.855ZM705.791 45.077C705.648 45.2503 705.477 45.402 705.277 45.532C705.078 45.6577 704.863 45.7617 704.634 45.844C704.408 45.9263 704.174 45.987 703.932 46.026C703.689 46.0693 703.449 46.091 703.21 46.091C702.755 46.091 702.335 46.0152 701.949 45.8635C701.568 45.7075 701.236 45.4822 700.955 45.1875C700.677 44.8885 700.461 44.5202 700.305 44.0825C700.149 43.6448 700.071 43.1422 700.071 42.5745C700.071 42.1152 700.14 41.6862 700.279 41.2875C700.422 40.8888 700.625 40.5443 700.89 40.254C701.154 39.9593 701.477 39.7297 701.858 39.565C702.24 39.396 702.669 39.3115 703.145 39.3115C703.54 39.3115 703.904 39.3787 704.237 39.513C704.575 39.643 704.866 39.8337 705.108 40.085C705.355 40.332 705.548 40.6397 705.687 41.008C705.825 41.372 705.895 41.788 705.895 42.256C705.895 42.438 705.875 42.5593 705.836 42.62C705.797 42.6807 705.724 42.711 705.615 42.711H701.215C701.228 43.127 701.284 43.4888 701.384 43.7965C701.488 44.1042 701.631 44.362 701.813 44.57C701.995 44.7737 702.211 44.9275 702.463 45.0315C702.714 45.1312 702.996 45.181 703.308 45.181C703.598 45.181 703.847 45.1485 704.055 45.0835C704.268 45.0142 704.45 44.9405 704.601 44.8625C704.753 44.7845 704.879 44.713 704.978 44.648C705.082 44.5787 705.171 44.544 705.245 44.544C705.34 44.544 705.414 44.5808 705.466 44.6545L705.791 45.077ZM708.408 40.371C708.551 40.2107 708.703 40.0655 708.863 39.9355C709.023 39.8055 709.192 39.695 709.37 39.604C709.552 39.5087 709.743 39.4372 709.942 39.3895C710.146 39.3375 710.364 39.3115 710.598 39.3115C710.958 39.3115 711.274 39.3722 711.547 39.4935C711.825 39.6105 712.054 39.7795 712.236 40.0005C712.423 40.2172 712.564 40.4793 712.659 40.787C712.754 41.0947 712.802 41.4348 712.802 41.8075V46H711.638V41.8075C711.638 41.3092 711.524 40.9235 711.294 40.6505C711.069 40.3732 710.724 40.2345 710.26 40.2345C709.918 40.2345 709.597 40.3168 709.298 40.4815C709.004 40.6462 708.731 40.8693 708.479 41.151V46H707.316V39.4155H708.011C708.176 39.4155 708.278 39.4957 708.317 39.656L708.408 40.371ZM718.4 40.501C718.348 40.5963 718.268 40.644 718.159 40.644C718.094 40.644 718.021 40.6202 717.938 40.5725C717.856 40.5248 717.754 40.4728 717.633 40.4165C717.516 40.3558 717.375 40.3017 717.21 40.254C717.046 40.202 716.851 40.176 716.625 40.176C716.43 40.176 716.255 40.202 716.099 40.254C715.943 40.3017 715.809 40.3688 715.696 40.4555C715.588 40.5422 715.503 40.644 715.442 40.761C715.386 40.8737 715.358 40.9972 715.358 41.1315C715.358 41.3005 715.406 41.4413 715.501 41.554C715.601 41.6667 715.731 41.7642 715.891 41.8465C716.051 41.9288 716.233 42.0025 716.437 42.0675C716.641 42.1282 716.849 42.1953 717.061 42.269C717.278 42.3383 717.488 42.4163 717.691 42.503C717.895 42.5897 718.077 42.698 718.237 42.828C718.398 42.958 718.526 43.1183 718.621 43.309C718.721 43.4953 718.77 43.7207 718.77 43.985C718.77 44.2883 718.716 44.57 718.608 44.83C718.5 45.0857 718.339 45.3088 718.127 45.4995C717.915 45.6858 717.655 45.8332 717.347 45.9415C717.039 46.0498 716.684 46.104 716.281 46.104C715.822 46.104 715.406 46.0303 715.033 45.883C714.66 45.7313 714.344 45.5385 714.084 45.3045L714.357 44.8625C714.392 44.8062 714.433 44.7628 714.48 44.7325C714.528 44.7022 714.589 44.687 714.662 44.687C714.74 44.687 714.823 44.7173 714.909 44.778C714.996 44.8387 715.1 44.9058 715.221 44.9795C715.347 45.0532 715.499 45.1203 715.676 45.181C715.854 45.2417 716.075 45.272 716.339 45.272C716.565 45.272 716.762 45.2438 716.931 45.1875C717.1 45.1268 717.241 45.0467 717.353 44.947C717.466 44.8473 717.548 44.7325 717.6 44.6025C717.657 44.4725 717.685 44.3338 717.685 44.1865C717.685 44.0045 717.635 43.855 717.535 43.738C717.44 43.6167 717.312 43.5148 717.152 43.4325C716.992 43.3458 716.807 43.2722 716.599 43.2115C716.396 43.1465 716.186 43.0793 715.969 43.01C715.757 42.9407 715.546 42.8627 715.338 42.776C715.135 42.685 714.953 42.5723 714.792 42.438C714.632 42.3037 714.502 42.139 714.402 41.944C714.307 41.7447 714.259 41.5042 714.259 41.2225C714.259 40.9712 714.311 40.7307 714.415 40.501C714.519 40.267 714.671 40.0633 714.87 39.89C715.07 39.7123 715.315 39.5715 715.605 39.4675C715.895 39.3635 716.227 39.3115 716.599 39.3115C717.033 39.3115 717.421 39.3808 717.763 39.5195C718.11 39.6538 718.409 39.8402 718.66 40.0785L718.4 40.501ZM724.607 40.371C724.75 40.2107 724.902 40.0655 725.062 39.9355C725.222 39.8055 725.391 39.695 725.569 39.604C725.751 39.5087 725.942 39.4372 726.141 39.3895C726.345 39.3375 726.564 39.3115 726.798 39.3115C727.157 39.3115 727.474 39.3722 727.747 39.4935C728.024 39.6105 728.254 39.7795 728.436 40.0005C728.622 40.2172 728.763 40.4793 728.858 40.787C728.953 41.0947 729.001 41.4348 729.001 41.8075V46H727.838V41.8075C727.838 41.3092 727.723 40.9235 727.493 40.6505C727.268 40.3732 726.923 40.2345 726.46 40.2345C726.117 40.2345 725.797 40.3168 725.498 40.4815C725.203 40.6462 724.93 40.8693 724.679 41.151V46H723.515V39.4155H724.211C724.375 39.4155 724.477 39.4957 724.516 39.656L724.607 40.371ZM733.54 39.3115C734.021 39.3115 734.454 39.3917 734.84 39.552C735.225 39.7123 735.555 39.9398 735.828 40.2345C736.101 40.5292 736.309 40.8867 736.452 41.307C736.599 41.723 736.673 42.1888 736.673 42.7045C736.673 43.2245 736.599 43.6925 736.452 44.1085C736.309 44.5245 736.101 44.8798 735.828 45.1745C735.555 45.4692 735.225 45.6967 734.84 45.857C734.454 46.013 734.021 46.091 733.54 46.091C733.054 46.091 732.617 46.013 732.227 45.857C731.841 45.6967 731.512 45.4692 731.239 45.1745C730.966 44.8798 730.755 44.5245 730.608 44.1085C730.465 43.6925 730.394 43.2245 730.394 42.7045C730.394 42.1888 730.465 41.723 730.608 41.307C730.755 40.8867 730.966 40.5292 731.239 40.2345C731.512 39.9398 731.841 39.7123 732.227 39.552C732.617 39.3917 733.054 39.3115 733.54 39.3115ZM733.54 45.1875C734.19 45.1875 734.675 44.9708 734.996 44.5375C735.316 44.0998 735.477 43.491 735.477 42.711C735.477 41.9267 735.316 41.3157 734.996 40.878C734.675 40.4403 734.19 40.2215 733.54 40.2215C733.21 40.2215 732.922 40.2778 732.675 40.3905C732.432 40.5032 732.229 40.6657 732.064 40.878C731.904 41.0903 731.782 41.3525 731.7 41.6645C731.622 41.9722 731.583 42.321 731.583 42.711C731.583 43.491 731.743 44.0998 732.064 44.5375C732.389 44.9708 732.881 45.1875 733.54 45.1875ZM747.119 39.4155L744.987 46H744.071C743.958 46 743.88 45.9263 743.837 45.779L742.381 41.3135C742.346 41.2138 742.318 41.1142 742.296 41.0145C742.274 40.9105 742.253 40.8087 742.231 40.709C742.209 40.8087 742.188 40.9105 742.166 41.0145C742.144 41.1142 742.116 41.216 742.082 41.32L740.6 45.779C740.561 45.9263 740.474 46 740.34 46H739.469L737.337 39.4155H738.247C738.338 39.4155 738.413 39.4393 738.474 39.487C738.539 39.5347 738.582 39.591 738.604 39.656L739.865 43.894C739.939 44.206 739.997 44.5007 740.041 44.778C740.08 44.635 740.119 44.4898 740.158 44.3425C740.201 44.1952 740.246 44.0457 740.294 43.894L741.685 39.63C741.707 39.565 741.744 39.5108 741.796 39.4675C741.852 39.4242 741.919 39.4025 741.997 39.4025H742.504C742.591 39.4025 742.662 39.4242 742.719 39.4675C742.775 39.5108 742.814 39.565 742.836 39.63L744.194 43.894C744.242 44.0457 744.285 44.1952 744.324 44.3425C744.363 44.4898 744.4 44.635 744.435 44.778C744.456 44.635 744.482 44.492 744.513 44.349C744.547 44.2017 744.584 44.05 744.623 43.894L745.91 39.656C745.932 39.5867 745.973 39.5303 746.034 39.487C746.094 39.4393 746.166 39.4155 746.248 39.4155H747.119ZM749.637 36.6855V40.4035C749.637 40.5985 749.632 40.7892 749.624 40.9755C749.615 41.1618 749.604 41.3503 749.591 41.541C749.578 41.7273 749.561 41.9202 749.539 42.1195C749.522 42.3145 749.5 42.5247 749.474 42.75H748.694C748.668 42.5247 748.644 42.3145 748.623 42.1195C748.605 41.9202 748.59 41.7273 748.577 41.541C748.564 41.3503 748.553 41.1618 748.545 40.9755C748.536 40.7892 748.532 40.5985 748.532 40.4035V36.6855H749.637ZM748.252 45.285C748.252 45.1723 748.272 45.0662 748.311 44.9665C748.354 44.8668 748.412 44.7802 748.486 44.7065C748.56 44.6328 748.644 44.5743 748.74 44.531C748.839 44.4877 748.948 44.466 749.065 44.466C749.177 44.466 749.281 44.4877 749.377 44.531C749.476 44.5743 749.563 44.6328 749.637 44.7065C749.71 44.7802 749.769 44.8668 749.812 44.9665C749.855 45.0662 749.877 45.1723 749.877 45.285C749.877 45.402 749.855 45.5103 749.812 45.61C749.769 45.7053 749.71 45.7898 749.637 45.8635C749.563 45.9372 749.476 45.9935 749.377 46.0325C749.281 46.0758 749.177 46.0975 749.065 46.0975C748.948 46.0975 748.839 46.0758 748.74 46.0325C748.644 45.9935 748.56 45.9372 748.486 45.8635C748.412 45.7898 748.354 45.7053 748.311 45.61C748.272 45.5103 748.252 45.402 748.252 45.285Z" fill="#282D33"/>
<path d="M867.049 14.5465C867.585 15.8121 869.275 16.5938 870.742 16.2513C872.208 15.9089 873.25 14.487 873.019 13.147C875.178 13.3703 877.404 12.0154 877.955 10.132C878.513 8.25595 877.33 6.08961 875.335 5.33028C877.359 3.51383 878.357 0.662598 877.285 -1.71219C876.213 -4.08697 872.789 -5.5312 870.243 -4.34753C870.384 -7.64543 867.228 -10.7721 863.55 -10.988C859.866 -11.2039 856.277 -8.47921 855.935 -5.1962C855.243 -6.81165 852.518 -7.1392 851.074 -5.98531C849.63 -4.83886 849.466 -2.76186 850.292 -1.19852C846.786 0.156374 845.617 4.81661 848.141 7.37751C846.354 8.32295 846.198 10.7498 847.337 12.2983C848.476 13.8467 852.712 14.889 856.464 13.951C860.044 13.0576 861.369 11.5241 863.498 8.79195" fill="#FF5E69"/>
<path d="M842.699 26.8671C845.379 25.9067 848.327 27.2914 849.28 29.9491C849.317 30.0607 849.347 30.1724 849.384 30.2915H849.407C849.667 31.0211 849.667 31.8474 849.459 32.7333C849.399 33.0013 849.325 33.2619 849.228 33.515C846.742 40.4607 832.821 50.5703 826.709 52.3644C826.702 52.3644 826.292 52.5728 826.077 52.6473C823.836 53.4513 821.372 52.2974 820.575 50.0715C819.831 47.9796 820.821 45.6941 822.801 44.7561C832.836 38.2199 840.168 28.7729 840.168 28.7729L840.191 28.7803C840.786 27.9316 841.642 27.2393 842.699 26.8671Z" fill="#FFAF8F"/>
<path d="M811.002 36.1353C811.01 36.1353 811.01 36.1428 811.017 36.1502L811.024 36.1428C818.141 40.7658 826.114 44.4508 826.173 44.4731C828.362 45.6047 829.218 48.2847 828.087 50.4734C826.955 52.6621 824.275 53.5182 822.087 52.3866C822.057 52.3717 822.034 52.3568 822.005 52.3419C816.481 49.7215 805.97 42.2547 805.97 42.2547L805.985 42.2398C804.295 40.8551 804.057 38.3612 805.441 36.6713C806.818 34.9889 809.044 35.0038 811.002 36.1353Z" fill="#FFAF8F"/>
<path d="M823.903 50.7042C824.171 50.9052 824.454 50.9647 824.774 50.8754C824.968 50.8233 825.05 51.121 824.856 51.1731C824.462 51.2848 824.075 51.2178 823.74 50.9722C823.583 50.853 823.74 50.585 823.903 50.7042Z" fill="#5C3146"/>
<path d="M868.724 0.47644H868.732V0.491135C868.732 0.483788 868.724 0.483788 868.724 0.47644Z" fill="#FFBA9A"/>
<path d="M854.297 3.28304C854.32 3.13415 854.35 2.9927 854.387 2.85126C854.938 3.16392 855.675 3.35748 856.449 3.54359C859.508 4.27315 862.784 2.88848 866.253 4.22104C866.238 5.82904 866.216 7.44449 866.201 9.0525C866.201 9.29817 866.283 9.64061 866.536 9.61828C866.67 9.60339 866.766 9.48428 866.833 9.36517C866.99 9.12694 867.139 8.88872 867.295 8.6505C866.938 9.49172 866.506 11.1072 867.131 11.3454C867.682 11.5538 868.68 9.88628 868.925 8.7845C869.082 8.73983 869.238 8.69516 869.409 8.68772C870.846 8.56861 872.104 9.63317 872.223 11.0625C872.342 12.4918 871.278 13.75 869.841 13.8691C869.446 13.8988 869.074 13.8393 868.732 13.7127V21.4699C868.769 21.7304 868.791 21.991 868.791 22.259C868.791 25.5494 866.119 28.222 862.829 28.222C859.538 28.222 856.866 25.5494 856.866 22.259C856.866 22.0059 856.888 21.7602 856.918 21.522V18.2092C853.784 17.167 853.3 13.9435 853.709 11.0774C854.126 8.21127 854.297 3.28304 854.297 3.28304Z" fill="#FFAF8F"/>
<path d="M868.337 12.0154C868.166 10.7647 869.342 9.77461 870.54 10.2585C870.734 10.3329 870.645 10.6531 870.451 10.5712C869.513 10.1915 868.508 10.8913 868.65 11.9261C868.679 12.1271 868.367 12.2164 868.337 12.0154Z" fill="#5C3146"/>
<path d="M869.193 10.5786C869.633 10.7647 869.975 11.0402 870.243 11.4347C870.362 11.6059 870.079 11.7697 869.96 11.5985C869.744 11.2784 869.461 11.0402 869.104 10.8913C868.918 10.8168 869 10.4967 869.193 10.5786Z" fill="#5C3146"/>
<path opacity="0.35" d="M856.918 18.2092C856.918 18.2092 858.414 18.7377 860.431 18.5739L856.918 21.6708V18.2092Z" fill="#FC5151"/>
<path d="M859.322 7.32537C859.456 7.83159 859.434 8.31548 859.203 8.79193C859.084 9.03015 858.928 9.23859 858.749 9.43215C858.667 9.52148 858.421 9.64804 858.384 9.75971C858.176 10.3032 858.63 10.6679 859.143 10.5637C859.344 10.5265 859.434 10.8392 859.233 10.8764C858.682 10.988 857.952 10.6977 857.923 10.05C857.908 9.70015 858.153 9.55126 858.384 9.33537C858.942 8.8217 859.218 8.16659 859.017 7.4147C858.957 7.20625 859.27 7.11692 859.322 7.32537Z" fill="#5C3146"/>
<path opacity="0.35" d="M857.119 10.519C856.977 11.0029 856.292 11.2188 855.578 11.0178C854.871 10.8093 854.402 10.2585 854.543 9.77456C854.684 9.29067 855.369 9.07478 856.084 9.27578C856.791 9.48423 857.253 10.0351 857.119 10.519Z" fill="#FC5151"/>
<path opacity="0.35" d="M865.508 9.8714C865.612 10.3627 865.114 10.8838 864.392 11.0402C863.669 11.1965 863 10.9285 862.888 10.4446C862.784 9.95329 863.282 9.43218 864.004 9.27584C864.727 9.11207 865.404 9.38007 865.508 9.8714Z" fill="#FC5151"/>
<path d="M857.439 8.16662C857.439 8.59096 857.268 8.94084 857.052 8.94084C856.836 8.94084 856.665 8.5984 856.665 8.16662C856.665 7.73484 856.836 7.3924 857.052 7.3924C857.268 7.3924 857.439 7.73484 857.439 8.16662Z" fill="#5C3146"/>
<path d="M861.936 8.16662C861.936 8.59096 862.107 8.94084 862.323 8.94084C862.538 8.94084 862.71 8.5984 862.71 8.16662C862.71 7.73484 862.538 7.3924 862.323 7.3924C862.107 7.3924 861.936 7.73484 861.936 8.16662Z" fill="#5C3146"/>
<path d="M863.662 6.17896C863.327 6.22362 863.015 5.94073 862.724 5.82162C862.404 5.68762 862.092 5.65784 861.816 5.42706C861.906 5.47918 862.002 5.53129 862.092 5.59084C861.757 5.46429 861.37 5.27073 861.504 4.83895C861.623 4.4444 862.196 4.27317 862.561 4.31039C863.246 4.37739 864.362 4.9804 864.146 5.81418C864.094 6.03751 863.886 6.14918 863.662 6.17896Z" fill="#FF5E69"/>
<path d="M855.466 6.35019C855.064 5.76952 855.831 5.06974 856.292 4.82408C856.553 4.68263 856.843 4.58585 857.134 4.60819C857.431 4.63052 857.804 4.7273 857.938 5.01763C858.25 5.67274 857.349 5.89608 856.94 6.10452C856.501 6.31297 855.89 6.95319 855.466 6.35019Z" fill="#FF5E69"/>
<path d="M859.397 11.9484C860 11.8963 860.477 11.6134 860.961 11.2337C861.392 10.8913 861.891 10.3999 862.442 10.7498C863.454 11.3901 862.74 12.9385 862.115 13.4968C861.266 14.2636 859.956 14.4348 859.01 13.8393C857.871 13.1246 858.02 11.8144 859.397 11.9484Z" fill="#5C3146"/>
<path d="M860.052 13.7425C860.305 13.0278 860.781 12.4173 861.377 12.0526C861.853 11.7548 862.404 11.6282 862.948 11.6655C862.97 12.3429 862.523 13.132 862.121 13.4968C861.533 14.0253 860.737 14.2561 859.985 14.1668C859.985 14.1593 859.977 14.1445 859.977 14.137C859.97 13.9956 860.007 13.869 860.052 13.7425Z" fill="#FF5E69"/>
<path d="M872.915 32.6291C872.037 29.5992 873.764 26.4428 876.764 25.5718C876.891 25.5345 877.017 25.5122 877.144 25.4824L877.151 25.4601C877.977 25.2219 878.886 25.274 879.846 25.5643C880.136 25.6462 880.419 25.7504 880.695 25.877C888.198 29.093 898.427 45.1433 899.997 52.0145C899.997 52.022 900.198 52.491 900.273 52.7366C901.002 55.2677 899.566 57.9105 897.057 58.6326C894.697 59.3175 892.233 58.0669 891.34 55.8112C884.804 44.2872 874.866 35.5474 874.866 35.5474L874.873 35.5176C873.958 34.8104 873.258 33.8202 872.915 32.6291Z" fill="#FFAF8F"/>
<path d="M883.947 45.8058C878.714 39.3812 873.995 35.2347 873.995 35.2347L874.002 35.2049C873.034 34.4381 872.275 33.3735 871.903 32.0856C870.957 28.825 872.811 25.4229 876.049 24.4923C876.183 24.4551 876.325 24.4253 876.459 24.3955L876.466 24.3732C877.352 24.1126 878.335 24.1722 879.369 24.4848C879.682 24.5742 879.987 24.6859 880.277 24.8199C883.97 26.4055 888.28 30.8722 892.024 35.9717C892.032 35.9717 889.769 40.9967 883.947 45.8058Z" fill="#A6C0FF"/>
<path d="M890.395 33.8723C888.184 37.4233 885.31 40.6915 882.295 43.5799C882.146 43.7214 881.916 43.498 882.064 43.3491C885.057 40.4756 887.916 37.2298 890.112 33.7086C890.223 33.5299 890.506 33.6937 890.395 33.8723Z" fill="white"/>
<path d="M839.506 32.0335C839.499 29.8821 840.593 27.9837 842.253 26.8596C845.886 23.8223 852.116 22.4674 856.814 21.8793C856.814 21.8793 858.63 25.1623 862.806 25.1548H862.814V25.1474C862.844 25.1474 862.866 25.1474 862.896 25.1548C862.925 25.1548 862.948 25.1548 862.978 25.1474V25.1548H862.985C867.161 25.1474 868.963 21.8569 868.963 21.8569C873.667 22.4227 879.898 23.7553 883.546 26.7777C885.206 27.8944 886.308 29.7853 886.308 31.9367C886.308 32.778 886.144 33.582 885.839 34.3115L879.891 39.5748L880.203 71.0723C880.203 71.0723 875.231 72.9706 863.074 73.0228C863.045 73.0228 863.015 73.0228 862.985 73.0228C862.955 73.0228 862.925 73.0228 862.896 73.0228C850.739 73.0153 845.759 71.1468 845.759 71.1468L845.968 39.6492L839.982 34.4083C839.677 33.6787 839.506 32.8747 839.506 32.0335Z" fill="#A6C0FF"/>
<path d="M871.24 22.7131C869.811 26.5619 865.367 28.4975 861.474 27.8275C861.258 27.7902 861.347 27.4627 861.563 27.4999C865.263 28.1401 869.55 26.279 870.913 22.6238C870.987 22.4153 871.315 22.5047 871.24 22.7131Z" fill="white"/>
<path d="M858.541 26.8597C856.635 26.0631 855.183 24.5816 854.432 22.6535C854.35 22.4451 854.685 22.3558 854.759 22.5642C855.466 24.3658 856.851 25.7802 858.63 26.5321C858.831 26.614 858.742 26.9415 858.541 26.8597Z" fill="white"/>
<path d="M852.548 39.344V60.0769C852.548 61.0074 853.3 61.7593 854.231 61.7593H869.156C870.087 61.7593 870.839 61.0074 870.839 60.0769V39.344C870.839 38.4135 870.087 37.6616 869.156 37.6616H854.231C853.3 37.6616 852.548 38.4135 852.548 39.344Z" fill="#F2F6FC"/>
<path d="M870.838 41.594V57.823H852.547V41.594H870.838Z" fill="#D6E5FC"/>
<path d="M860.387 45.5006C860.387 44.6966 861.035 44.049 861.839 44.049C862.643 44.049 863.291 44.6966 863.291 45.5006C863.291 46.3046 862.643 46.9523 861.839 46.9523C861.035 46.9523 860.387 46.3046 860.387 45.5006Z" fill="white"/>
<path d="M877.657 48.3593C877.664 48.3593 877.672 48.3668 877.679 48.3668V48.3593C886.53 49.6174 895.649 49.5207 895.649 49.5207V49.61C895.709 49.61 895.769 49.6025 895.836 49.61C898.426 49.7217 900.436 51.9029 900.324 54.4936C900.213 57.0842 898.032 59.0942 895.441 58.9826C895.404 58.9826 895.374 58.9751 895.344 58.9751C888.905 58.9156 875.558 56.4515 875.558 56.4515L875.565 56.4291C873.339 55.8484 871.999 53.5779 872.58 51.352C873.153 49.1186 875.327 48.0318 877.657 48.3593Z" fill="#FFAF8F"/>
<path d="M870.831 47.451C871.821 47.4585 874.382 47.7786 876.429 48.1285C878.714 48.2029 880.501 50.1162 880.419 52.4016C880.344 54.6573 878.476 56.4216 876.228 56.3919V56.3993C876.228 56.3993 872.163 56.578 868.851 56.176C864.637 55.6697 864.98 54.3818 864.98 54.3818C864.98 54.3818 863.342 53.9054 863.729 52.8557C863.729 52.8557 862.359 52.29 863.067 51.4264C863.067 51.4264 861.518 49.6248 864.295 50.1013C866.774 50.5256 870.205 50.0789 870.853 49.6621C871.091 49.5057 871.248 49.1931 870.868 49.0814L870.831 47.451Z" fill="#FFAF8F"/>
<path d="M863.179 51.285C864.615 51.9475 866.387 51.9698 867.943 51.8954C868.151 51.888 868.151 52.2081 867.943 52.223C866.327 52.2974 864.511 52.2527 863.015 51.5678C862.829 51.4785 862.992 51.2031 863.179 51.285Z" fill="#5C3146"/>
<path d="M863.781 52.7813C865.188 53.2503 866.67 53.3098 868.136 53.213C868.345 53.1982 868.345 53.5257 868.136 53.5406C866.64 53.6374 865.129 53.5778 863.692 53.0939C863.498 53.0269 863.588 52.7143 863.781 52.7813Z" fill="#5C3146"/>
<path d="M864.935 54.2032C866.037 54.5903 867.101 54.5903 868.255 54.5382C868.463 54.5307 868.463 54.8508 868.255 54.8657C867.064 54.9178 865.985 54.9178 864.853 54.5233C864.652 54.4488 864.741 54.1362 864.935 54.2032Z" fill="#5C3146"/>
<path d="M840.853 45.2698C846.481 39.1951 851.461 35.3538 851.461 35.3538L851.454 35.324C852.474 34.6168 853.293 33.6043 853.747 32.3462C854.893 29.1525 853.263 25.6387 850.099 24.4997C849.965 24.4551 849.831 24.4178 849.697 24.3732L849.69 24.3508C848.819 24.0382 847.844 24.0307 846.786 24.2838C846.466 24.3508 846.161 24.4402 845.856 24.5593C842.067 25.8993 837.489 30.0905 833.424 34.9443C833.417 34.9369 835.352 40.0959 840.853 45.2698Z" fill="#A6C0FF"/>
<path d="M835.471 32.7929C837.436 36.4556 840.079 39.8726 842.885 42.9323C843.027 43.0886 842.796 43.3194 842.655 43.163C839.833 40.0885 837.168 36.6417 835.188 32.9567C835.091 32.7706 835.367 32.6068 835.471 32.7929Z" fill="white"/>
<path d="M898.598 54.1734C898.635 54.6201 898.494 55.0146 898.196 55.3496C898.054 55.506 897.831 55.2752 897.965 55.1188C898.211 54.8434 898.3 54.5307 898.27 54.1734C898.255 53.9649 898.583 53.9649 898.598 54.1734Z" fill="#5C3146"/>
<path d="M846.02 37.6765C846.02 38.942 846.02 40.215 846.02 41.4806C846.02 41.689 845.692 41.689 845.692 41.4806C845.692 40.215 845.692 38.942 845.692 37.6765C845.699 37.468 846.02 37.468 846.02 37.6765Z" fill="white"/>
<path d="M880.248 37.535C880.248 38.8006 880.248 40.0736 880.248 41.3391C880.248 41.5476 879.92 41.5476 879.92 41.3391C879.92 40.0736 879.92 38.8006 879.92 37.535C879.92 37.3266 880.248 37.3266 880.248 37.535Z" fill="white"/>
<path d="M810.295 36.0536C810.295 36.0536 813.853 26.2566 808.136 34.0212C808.136 34.0212 800.692 29.5024 803.238 33.5746C803.238 33.5746 800.632 32.8748 802.158 34.9071C802.158 34.9071 799.999 34.5274 801.265 36.6863C801.265 36.6863 796.322 36.731 805.977 42.2399C805.977 42.2474 813.6 43.431 810.295 36.0536Z" fill="#FFAF8F"/>
<path d="M803.394 33.4406C804.064 34.0213 805.002 34.7732 805.91 34.9146C806.044 34.9369 806.23 34.9518 806.342 34.7955C806.826 34.1032 804.503 32.8153 804.183 32.6143C804.019 32.5175 804.168 32.2569 804.332 32.3612C804.838 32.6738 807.295 34.0064 806.58 34.9667C806.468 35.1156 806.29 35.2049 806.111 35.2273C805.672 35.2719 805.181 34.9742 804.816 34.7806C804.228 34.4679 803.692 34.0808 803.193 33.6491C803.037 33.5225 803.245 33.314 803.394 33.4406Z" fill="#5C3146"/>
<path d="M802.225 34.7806C803.007 35.257 803.811 35.7409 804.66 36.0834C804.92 36.1876 805.531 36.4779 805.813 36.2918C806.148 36.0685 805.836 35.4134 805.746 35.123C805.687 34.9444 805.97 34.8625 806.029 35.0411C806.163 35.458 806.476 36.2025 806 36.5226C805.702 36.7236 805.255 36.597 804.95 36.5003C803.93 36.1801 802.977 35.5846 802.069 35.0337C801.913 34.9369 802.062 34.6838 802.225 34.7806Z" fill="#5C3146"/>
<path d="M801.488 36.5449C802.173 36.8278 802.866 37.1033 803.588 37.2968C803.9 37.3787 804.451 37.5723 804.771 37.4308C805.24 37.2224 804.541 36.597 804.332 36.4109C804.191 36.2844 804.399 36.0759 804.541 36.2025C804.846 36.4779 805.568 37.1851 805.077 37.6095C804.838 37.8179 804.421 37.7584 804.139 37.7211C803.193 37.5871 802.278 37.2 801.407 36.8353C801.243 36.7608 801.317 36.4705 801.488 36.5449Z" fill="#5C3146"/>
<path d="M801.079 37.9891C801.756 38.3167 802.568 38.6591 803.342 38.6145C803.528 38.607 803.826 38.5772 803.863 38.3465C803.908 38.0785 803.483 37.7584 803.312 37.6169C803.171 37.4904 803.379 37.2819 803.521 37.4085C803.893 37.736 804.548 38.473 803.818 38.8155C802.955 39.2175 801.682 38.6145 800.923 38.2422C800.759 38.1604 800.908 37.9072 801.079 37.9891Z" fill="#5C3146"/>
<path opacity="0.03" d="M470.5 -5L448.416 7.75V33.25L470.5 46L492.584 33.25V7.75L470.5 -5Z" fill="white"/>
<path opacity="0.3" d="M478.5 26L472.005 29.75V37.25L478.5 41L484.995 37.25V29.75L478.5 26Z" fill="white"/>
<path opacity="0.8" d="M519.5 8L514.737 10.75V16.25L519.5 19L524.263 16.25V10.75L519.5 8Z" fill="white"/>
<path d="M529.5 39L525.603 41.25V45.75L529.5 48L533.397 45.75V41.25L529.5 39Z" fill="white"/>
<path opacity="0.2" d="M389 18L399.392 24V36L389 42L378.608 36V24L389 18Z" fill="white"/>
<path opacity="0.03" d="M410.5 2L432.584 14.75V40.25L410.5 53L388.416 40.25V14.75L410.5 2Z" fill="white"/>
<path opacity="0.8" d="M342 17L348.062 20.5V27.5L342 31L335.938 27.5V20.5L342 17Z" fill="white"/>
<path opacity="0.1" d="M324.5 39L328.397 41.25V45.75L324.5 48L320.603 45.75V41.25L324.5 39Z" fill="white"/>
</g>
<defs>
<clipPath id="clip0">
<rect width="960" height="60" fill="white"/>
</clipPath>
</defs>
</svg>
