<svg width="2447" height="202" viewBox="0 0 2447 202" fill="none" xmlns="http://www.w3.org/2000/svg">
<g clip-path="url(#clip0)">
<rect width="2227" height="202" fill="#1C2455"/>
<path d="M1466.69 -4.31072C1585.24 -122.862 1896 -4.31072 1896 -4.31072V425H1466.69C1466.69 425 1348.14 114.24 1466.69 -4.31072Z" fill="#F8F8F9"/>
<path d="M1768.53 -236.04C1976.73 -443.987 2314.27 -443.987 2522.47 -236.04C2730.66 -28.0939 2522.47 517 2522.47 517H1768.53C1768.53 517 1560.34 -28.0939 1768.53 -236.04Z" fill="#1C2455"/>
<path d="M1635.48 155.48C1843.56 -52.5994 2412.5 205 2412.5 205L2389 909H1635.48C1635.48 909 1427.4 363.558 1635.48 155.48Z" fill="#141A42"/>
<path d="M1702.24 36.6266C1703.95 40.6704 1709.35 43.168 1714.03 42.0738C1718.72 40.9796 1722.05 36.4363 1721.31 32.1547C1728.21 32.8683 1735.32 28.5392 1737.08 22.5211C1738.87 16.5269 1735.09 9.60496 1728.71 7.17872C1735.18 1.37477 1738.37 -7.73553 1734.94 -15.3235C1731.52 -22.9114 1720.58 -27.5261 1712.44 -23.744C1712.89 -34.2815 1702.81 -44.2719 1691.06 -44.9617C1679.28 -45.6515 1667.82 -36.9456 1666.72 -26.4557C1664.51 -31.6174 1655.81 -32.664 1651.19 -28.977C1646.58 -25.3139 1646.05 -18.6774 1648.69 -13.6822C1637.49 -9.35303 1633.76 5.53744 1641.82 13.7201C1636.11 16.741 1635.61 24.4954 1639.25 29.443C1642.89 34.3907 1656.43 37.7208 1668.41 34.7237C1679.85 31.8693 1684.09 26.9692 1690.89 18.2395" fill="#FF5E69"/>
<path d="M1624.43 75.9936C1633 72.9251 1642.42 77.3495 1645.46 85.8413C1645.58 86.1981 1645.67 86.5549 1645.79 86.9355H1645.87C1646.7 89.2666 1646.7 91.9069 1646.03 94.7375C1645.84 95.5938 1645.6 96.4264 1645.29 97.2351C1637.35 119.428 1592.87 151.73 1573.34 157.463C1573.32 157.463 1572.01 158.129 1571.32 158.367C1564.16 160.936 1556.29 157.249 1553.74 150.137C1551.36 143.453 1554.53 136.15 1560.85 133.153C1592.92 112.268 1616.35 82.083 1616.35 82.083L1616.42 82.1068C1618.32 79.3951 1621.06 77.183 1624.43 75.9936Z" fill="#FFAF8F"/>
<path d="M1523.15 105.608C1523.18 105.608 1523.18 105.632 1523.2 105.655L1523.23 105.632C1545.97 120.403 1571.44 132.178 1571.63 132.249C1578.62 135.865 1581.36 144.428 1577.74 151.421C1574.13 158.414 1565.56 161.15 1558.57 157.534C1558.48 157.487 1558.41 157.439 1558.31 157.391C1540.66 149.019 1507.08 125.161 1507.08 125.161L1507.12 125.113C1501.72 120.689 1500.96 112.72 1505.39 107.321C1509.79 101.945 1516.9 101.992 1523.15 105.608Z" fill="#FFAF8F"/>
<path d="M1564.38 152.158C1565.23 152.801 1566.14 152.991 1567.16 152.705C1567.78 152.539 1568.04 153.49 1567.42 153.657C1566.16 154.014 1564.92 153.8 1563.85 153.015C1563.35 152.634 1563.85 151.778 1564.38 152.158Z" fill="#5C3146"/>
<path d="M1661.49 0.637555C1661.56 0.161821 1661.66 -0.290126 1661.78 -0.742073C1663.54 0.256968 1665.89 0.875418 1668.37 1.47009C1678.14 3.80118 1688.61 -0.623144 1699.69 3.63467C1699.64 8.7726 1699.57 13.9343 1699.53 19.0722C1699.53 19.8572 1699.79 20.9514 1700.6 20.88C1701.02 20.8324 1701.33 20.4519 1701.55 20.0713C1702.05 19.3101 1702.52 18.5489 1703.02 17.7878C1701.88 20.4757 1700.5 25.6374 1702.5 26.3985C1704.26 27.0646 1707.45 21.7363 1708.23 18.2159C1708.73 18.0732 1709.23 17.9305 1709.78 17.9067C1714.37 17.5261 1718.39 20.9276 1718.77 25.4946C1719.15 30.0617 1715.75 34.0816 1711.16 34.4622C1709.9 34.5574 1708.71 34.3671 1707.61 33.9627V58.7484C1707.73 59.581 1707.8 60.4135 1707.8 61.2698C1707.8 71.7835 1699.26 80.323 1688.75 80.323C1678.24 80.323 1669.7 71.7835 1669.7 61.2698C1669.7 60.4611 1669.77 59.6761 1669.86 58.9149V48.3299C1659.85 44.9997 1658.3 34.7001 1659.61 25.5422C1660.95 16.3843 1661.49 0.637555 1661.49 0.637555Z" fill="#FFAF8F"/>
<path d="M1706.35 28.5392C1705.8 24.543 1709.56 21.3794 1713.39 22.9255C1714.01 23.1634 1713.73 24.1862 1713.11 23.9246C1710.11 22.7115 1706.9 24.9474 1707.35 28.2538C1707.45 28.896 1706.45 29.1814 1706.35 28.5392Z" fill="#5C3146"/>
<path d="M1709.09 23.9485C1710.49 24.5432 1711.59 25.4233 1712.44 26.684C1712.82 27.231 1711.92 27.7544 1711.54 27.2073C1710.85 26.1844 1709.94 25.4233 1708.8 24.9475C1708.21 24.7097 1708.47 23.6868 1709.09 23.9485Z" fill="#5C3146"/>
<path opacity="0.35" d="M1669.86 48.3298C1669.86 48.3298 1674.65 50.0187 1681.09 49.4954L1669.86 59.3906V48.3298Z" fill="#FC5151"/>
<path d="M1677.55 13.5536C1677.98 15.1711 1677.9 16.7173 1677.17 18.2396C1676.79 19.0008 1676.29 19.6668 1675.72 20.2853C1675.45 20.5707 1674.67 20.9751 1674.55 21.3319C1673.88 23.0683 1675.33 24.2339 1676.98 23.9008C1677.62 23.7819 1677.9 24.781 1677.26 24.8999C1675.5 25.2567 1673.17 24.329 1673.08 22.2596C1673.03 21.1416 1673.81 20.6659 1674.55 19.976C1676.33 18.3348 1677.21 16.2415 1676.57 13.8391C1676.38 13.1731 1677.38 12.8876 1677.55 13.5536Z" fill="#5C3146"/>
<path opacity="0.35" d="M1670.51 23.7581C1670.05 25.3042 1667.87 25.994 1665.58 25.3518C1663.32 24.6858 1661.82 22.9255 1662.28 21.3794C1662.73 19.8333 1664.92 19.1435 1667.2 19.7857C1669.46 20.4517 1670.93 22.2119 1670.51 23.7581Z" fill="#FC5151"/>
<path opacity="0.35" d="M1697.31 21.6887C1697.65 23.2586 1696.05 24.9237 1693.75 25.4232C1691.44 25.9227 1689.3 25.0664 1688.94 23.5203C1688.61 21.9504 1690.2 20.2853 1692.51 19.7858C1694.82 19.2625 1696.98 20.1188 1697.31 21.6887Z" fill="#FC5151"/>
<path d="M1671.53 16.2416C1671.53 17.5974 1670.98 18.7154 1670.29 18.7154C1669.6 18.7154 1669.06 17.6212 1669.06 16.2416C1669.06 14.862 1669.6 13.7678 1670.29 13.7678C1670.98 13.7678 1671.53 14.862 1671.53 16.2416Z" fill="#5C3146"/>
<path d="M1685.9 16.2416C1685.9 17.5974 1686.44 18.7154 1687.13 18.7154C1687.82 18.7154 1688.37 17.6212 1688.37 16.2416C1688.37 14.862 1687.82 13.7678 1687.13 13.7678C1686.44 13.7678 1685.9 14.862 1685.9 16.2416Z" fill="#5C3146"/>
<path d="M1691.42 9.89053C1690.34 10.0333 1689.35 9.12936 1688.42 8.74877C1687.4 8.32061 1686.4 8.22546 1685.52 7.48807C1685.8 7.65458 1686.11 7.82109 1686.4 8.01138C1685.33 7.60701 1684.09 6.98856 1684.52 5.60893C1684.9 4.34823 1686.73 3.80114 1687.9 3.92007C1690.08 4.13415 1693.65 6.06087 1692.96 8.72498C1692.79 9.43858 1692.13 9.79538 1691.42 9.89053Z" fill="#FF5E69"/>
<path d="M1665.23 10.4376C1663.94 8.58223 1666.39 6.34628 1667.87 5.56132C1668.7 5.10938 1669.63 4.80015 1670.55 4.87151C1671.51 4.94287 1672.69 5.2521 1673.12 6.17978C1674.12 8.273 1671.24 8.9866 1669.94 9.65263C1668.53 10.3187 1666.58 12.3643 1665.23 10.4376Z" fill="#FF5E69"/>
<path d="M1677.79 28.3252C1679.71 28.1587 1681.24 27.2548 1682.78 26.0416C1684.16 24.9475 1685.76 23.3775 1687.52 24.4955C1690.75 26.5412 1688.47 31.4888 1686.47 33.2728C1683.76 35.7228 1679.57 36.2699 1676.55 34.367C1672.91 32.0835 1673.39 27.897 1677.79 28.3252Z" fill="#5C3146"/>
<path d="M1679.88 34.0576C1680.69 31.7741 1682.21 29.8236 1684.11 28.6581C1685.63 27.7066 1687.39 27.3022 1689.13 27.4212C1689.2 29.5857 1687.78 32.1071 1686.49 33.2727C1684.61 34.9615 1682.07 35.6989 1679.66 35.4135C1679.66 35.3897 1679.64 35.3421 1679.64 35.3183C1679.62 34.8664 1679.74 34.462 1679.88 34.0576Z" fill="#FF5E69"/>
<path d="M1720.98 94.4044C1718.17 84.7232 1723.69 74.6377 1733.28 71.8547C1733.68 71.7357 1734.09 71.6644 1734.49 71.5692L1734.51 71.4979C1737.15 70.7367 1740.06 70.9032 1743.13 71.8309C1744.05 72.0925 1744.96 72.4255 1745.84 72.8299C1769.81 83.1058 1802.49 134.39 1807.51 156.345C1807.51 156.369 1808.16 157.867 1808.39 158.652C1810.72 166.74 1806.13 175.184 1798.12 177.491C1790.58 179.68 1782.7 175.684 1779.85 168.476C1758.97 131.654 1727.21 103.729 1727.21 103.729L1727.24 103.634C1724.31 101.374 1722.07 98.2103 1720.98 94.4044Z" fill="#FFAF8F"/>
<path d="M1756.23 136.507C1739.51 115.979 1724.43 102.73 1724.43 102.73L1724.45 102.635C1721.36 100.185 1718.93 96.7831 1717.75 92.668C1714.72 82.2495 1720.65 71.3789 1730.99 68.4056C1731.42 68.2867 1731.87 68.1915 1732.3 68.0964L1732.33 68.025C1735.16 67.1925 1738.3 67.3828 1741.6 68.3818C1742.6 68.6673 1743.58 69.0241 1744.5 69.4522C1756.3 74.5188 1770.07 88.7908 1782.04 105.085C1782.06 105.085 1774.83 121.141 1756.23 136.507Z" fill="#A6C0FF"/>
<path d="M1776.83 98.3768C1769.77 109.723 1760.58 120.165 1750.95 129.395C1750.48 129.847 1749.74 129.133 1750.21 128.657C1759.78 119.476 1768.91 109.105 1775.93 97.8534C1776.28 97.2826 1777.19 97.8059 1776.83 98.3768Z" fill="white"/>
<path d="M1614.23 92.5015C1614.21 85.6272 1617.7 79.5615 1623.01 75.9698C1634.61 66.2648 1654.52 61.9356 1669.53 60.0565C1669.53 60.0565 1675.34 70.5464 1688.68 70.5226H1688.7V70.4988C1688.8 70.4988 1688.87 70.4988 1688.97 70.5226C1689.06 70.5226 1689.13 70.5226 1689.23 70.4988V70.5226H1689.25C1702.59 70.4988 1708.35 59.9851 1708.35 59.9851C1723.38 61.7929 1743.29 66.0507 1754.95 75.7081C1760.25 79.2761 1763.77 85.3179 1763.77 92.1923C1763.77 94.8802 1763.25 97.4491 1762.27 99.7802L1743.27 116.597L1744.27 217.239C1744.27 217.239 1728.38 223.304 1689.54 223.471C1689.44 223.471 1689.35 223.471 1689.25 223.471C1689.16 223.471 1689.06 223.471 1688.97 223.471C1650.12 223.447 1634.21 217.477 1634.21 217.477L1634.88 116.835L1615.75 100.089C1614.78 97.7584 1614.23 95.1894 1614.23 92.5015Z" fill="#A6C0FF"/>
<path d="M1715.63 62.7205C1711.06 75.0183 1696.86 81.2028 1684.42 79.062C1683.73 78.9431 1684.02 77.8965 1684.71 78.0154C1696.53 80.0611 1710.23 74.1144 1714.58 62.4351C1714.82 61.7691 1715.87 62.0545 1715.63 62.7205Z" fill="white"/>
<path d="M1675.05 75.9698C1668.96 73.4247 1664.32 68.6911 1661.92 62.5304C1661.66 61.8643 1662.73 61.5789 1662.97 62.2449C1665.23 68.0013 1669.65 72.5208 1675.34 74.9232C1675.98 75.1849 1675.69 76.2315 1675.05 75.9698Z" fill="white"/>
<path d="M1655.9 115.86V182.106C1655.9 185.079 1658.31 187.482 1661.28 187.482H1708.97C1711.94 187.482 1714.35 185.079 1714.35 182.106V115.86C1714.35 112.887 1711.94 110.484 1708.97 110.484H1661.28C1658.31 110.484 1655.9 112.887 1655.9 115.86Z" fill="#F2F6FC"/>
<path d="M1714.34 123.049V174.904H1655.9V123.049H1714.34Z" fill="#D6E5FC"/>
<path d="M1680.95 135.532C1680.95 132.963 1683.02 130.893 1685.59 130.893C1688.16 130.893 1690.23 132.963 1690.23 135.532C1690.23 138.101 1688.16 140.17 1685.59 140.17C1683.02 140.17 1680.95 138.101 1680.95 135.532Z" fill="white"/>
<path d="M1736.13 144.666C1736.15 144.666 1736.18 144.69 1736.2 144.69V144.666C1764.48 148.686 1793.62 148.377 1793.62 148.377V148.662C1793.81 148.662 1794 148.638 1794.22 148.662C1802.49 149.019 1808.92 155.988 1808.56 164.266C1808.2 172.544 1801.23 178.966 1792.96 178.609C1792.84 178.609 1792.74 178.586 1792.65 178.586C1772.07 178.395 1729.42 170.522 1729.42 170.522L1729.45 170.451C1722.33 168.595 1718.05 161.34 1719.91 154.228C1721.74 147.092 1728.69 143.619 1736.13 144.666Z" fill="#FFAF8F"/>
<path d="M1714.32 141.764C1717.48 141.788 1725.67 142.81 1732.21 143.928C1739.51 144.166 1745.22 150.279 1744.96 157.582C1744.72 164.789 1738.75 170.427 1731.56 170.332V170.355C1731.56 170.355 1718.58 170.926 1707.99 169.642C1694.53 168.024 1695.62 163.909 1695.62 163.909C1695.62 163.909 1690.39 162.387 1691.63 159.033C1691.63 159.033 1687.25 157.225 1689.51 154.466C1689.51 154.466 1684.56 148.709 1693.44 150.232C1701.36 151.588 1712.32 150.16 1714.39 148.828C1715.15 148.329 1715.65 147.33 1714.44 146.973L1714.32 141.764Z" fill="#FFAF8F"/>
<path d="M1689.87 154.014C1694.46 156.131 1700.12 156.202 1705.09 155.964C1705.76 155.941 1705.76 156.963 1705.09 157.011C1699.93 157.249 1694.13 157.106 1689.35 154.918C1688.75 154.632 1689.27 153.752 1689.87 154.014Z" fill="#5C3146"/>
<path d="M1691.8 158.795C1696.29 160.293 1701.02 160.484 1705.71 160.174C1706.38 160.127 1706.38 161.174 1705.71 161.221C1700.93 161.53 1696.1 161.34 1691.51 159.794C1690.89 159.58 1691.18 158.581 1691.8 158.795Z" fill="#5C3146"/>
<path d="M1695.48 163.338C1699 164.575 1702.4 164.575 1706.09 164.409C1706.76 164.385 1706.76 165.408 1706.09 165.455C1702.28 165.622 1698.84 165.622 1695.22 164.361C1694.58 164.123 1694.86 163.124 1695.48 163.338Z" fill="#5C3146"/>
<path d="M1618.54 134.794C1636.52 115.384 1652.43 103.11 1652.43 103.11L1652.41 103.015C1655.67 100.755 1658.28 97.5205 1659.73 93.5005C1663.4 83.296 1658.19 72.0687 1648.08 68.4293C1647.65 68.2866 1647.22 68.1677 1646.79 68.025L1646.77 67.9536C1643.99 66.9546 1640.87 66.9308 1637.49 67.7395C1636.47 67.9536 1635.49 68.239 1634.52 68.6196C1622.41 72.9012 1607.78 86.2931 1594.8 101.802C1594.77 101.778 1600.96 118.262 1618.54 134.794Z" fill="#A6C0FF"/>
<path d="M1601.34 94.9279C1607.62 106.631 1616.06 117.549 1625.03 127.325C1625.48 127.825 1624.74 128.562 1624.29 128.063C1615.28 118.239 1606.76 107.226 1600.43 95.4512C1600.12 94.8565 1601.01 94.3332 1601.34 94.9279Z" fill="white"/>
<path d="M1803.04 163.243C1803.16 164.67 1802.71 165.931 1801.76 167.001C1801.31 167.501 1800.59 166.764 1801.02 166.264C1801.8 165.384 1802.09 164.385 1802 163.243C1801.95 162.577 1802.99 162.577 1803.04 163.243Z" fill="#5C3146"/>
<path d="M1635.04 110.532C1635.04 114.576 1635.04 118.643 1635.04 122.687C1635.04 123.353 1634 123.353 1634 122.687C1634 118.643 1634 114.576 1634 110.532C1634.02 109.866 1635.04 109.866 1635.04 110.532Z" fill="white"/>
<path d="M1744.41 110.08C1744.41 114.124 1744.41 118.191 1744.41 122.235C1744.41 122.901 1743.36 122.901 1743.36 122.235C1743.36 118.191 1743.36 114.124 1743.36 110.08C1743.36 109.414 1744.41 109.414 1744.41 110.08Z" fill="white"/>
<path d="M1520.89 105.346C1520.89 105.346 1532.26 74.0432 1514 98.8527C1514 98.8527 1490.21 84.4142 1498.35 97.4255C1498.35 97.4255 1490.02 95.1895 1494.9 101.683C1494.9 101.683 1488 100.47 1492.04 107.368C1492.04 107.368 1476.25 107.511 1507.1 125.113C1507.1 125.137 1531.46 128.919 1520.89 105.346Z" fill="#FFAF8F"/>
<path d="M1498.85 96.9973C1500.99 98.8527 1503.98 101.255 1506.88 101.707C1507.31 101.778 1507.91 101.826 1508.26 101.327C1509.81 99.1144 1502.39 94.9993 1501.37 94.357C1500.84 94.0478 1501.32 93.2153 1501.84 93.5483C1503.46 94.5473 1511.31 98.8051 1509.03 101.874C1508.67 102.349 1508.1 102.635 1507.53 102.706C1506.12 102.849 1504.55 101.897 1503.39 101.279C1501.51 100.28 1499.8 99.043 1498.2 97.6634C1497.7 97.259 1498.37 96.593 1498.85 96.9973Z" fill="#5C3146"/>
<path d="M1495.11 101.279C1497.61 102.801 1500.18 104.347 1502.89 105.442C1503.72 105.775 1505.67 106.702 1506.57 106.108C1507.65 105.394 1506.65 103.301 1506.36 102.373C1506.17 101.802 1507.07 101.541 1507.26 102.111C1507.69 103.443 1508.69 105.822 1507.17 106.845C1506.22 107.487 1504.79 107.083 1503.82 106.774C1500.56 105.751 1497.51 103.848 1494.61 102.088C1494.11 101.778 1494.59 100.97 1495.11 101.279Z" fill="#5C3146"/>
<path d="M1492.76 106.916C1494.94 107.82 1497.16 108.7 1499.46 109.319C1500.46 109.58 1502.22 110.199 1503.25 109.747C1504.74 109.081 1502.51 107.083 1501.84 106.488C1501.39 106.084 1502.06 105.418 1502.51 105.822C1503.48 106.702 1505.79 108.962 1504.22 110.318C1503.46 110.984 1502.13 110.794 1501.22 110.675C1498.2 110.246 1495.28 109.01 1492.49 107.844C1491.97 107.606 1492.21 106.678 1492.76 106.916Z" fill="#5C3146"/>
<path d="M1491.45 111.531C1493.61 112.577 1496.2 113.672 1498.68 113.529C1499.27 113.505 1500.22 113.41 1500.34 112.673C1500.49 111.816 1499.13 110.793 1498.58 110.342C1498.13 109.937 1498.8 109.271 1499.25 109.676C1500.44 110.722 1502.53 113.077 1500.2 114.171C1497.44 115.456 1493.37 113.529 1490.95 112.34C1490.42 112.078 1490.9 111.269 1491.45 111.531Z" fill="#5C3146"/>
<path opacity="0.03" d="M1279.96 47L1243.43 68.0911V110.273L1279.96 131.364L1316.49 110.273V68.0911L1279.96 47Z" fill="white"/>
<path opacity="0.3" d="M1293.19 98.2804L1282.45 104.484V116.89L1293.19 123.093L1303.94 116.89V104.484L1293.19 98.2804Z" fill="white"/>
<path opacity="0.8" d="M1361.01 68.5047L1353.13 73.0537V82.1519L1361.01 86.7009L1368.89 82.1519V73.0537L1361.01 68.5047Z" fill="white"/>
<path d="M1377.56 119.785L1371.11 123.507V130.951L1377.56 134.673L1384 130.951V123.507L1377.56 119.785Z" fill="white"/>
<path opacity="0.2" d="M1145.14 85.0467L1162.33 94.972V114.822L1145.14 124.748L1127.95 114.822V94.972L1145.14 85.0467Z" fill="white"/>
<path opacity="0.03" d="M1180.71 58.5794L1217.24 79.6706V121.853L1180.71 142.944L1144.17 121.853V79.6706L1180.71 58.5794Z" fill="white"/>
<path opacity="0.8" d="M1234.58 143L1244.61 148.79V160.369L1234.58 166.159L1224.55 160.369V148.79L1234.58 143Z" fill="white"/>
<path opacity="0.1" d="M1125.44 127L1131.89 130.722V138.166L1125.44 141.888L1119 138.166V130.722L1125.44 127Z" fill="white"/>
</g>
<defs>
<clipPath id="clip0">
<rect width="2447" height="202" fill="white"/>
</clipPath>
</defs>
</svg>
