<svg width="320" height="200" viewBox="0 0 320 200" fill="none" xmlns="http://www.w3.org/2000/svg">
<g clip-path="url(#clip0)">
<rect width="320" height="200" fill="#1C2455"/>
<path d="M247.839 -43.1612C330.726 -126.048 548 -43.1612 548 -43.1612V257H247.839C247.839 257 164.952 39.726 247.839 -43.1612Z" fill="#141A42"/>
<path opacity="0.03" d="M212.5 5L190.416 17.75V43.25L212.5 56L234.584 43.25V17.75L212.5 5Z" fill="white"/>
<path opacity="0.3" d="M220.5 36L214.005 39.75V47.25L220.5 51L226.995 47.25V39.75L220.5 36Z" fill="white"/>
<path opacity="0.8" d="M261.5 18L256.737 20.75V26.25L261.5 29L266.263 26.25V20.75L261.5 18Z" fill="white"/>
<path d="M271.5 49L267.603 51.25V55.75L271.5 58L275.397 55.75V51.25L271.5 49Z" fill="white"/>
<path opacity="0.2" d="M131 28L141.392 34V46L131 52L120.608 46V34L131 28Z" fill="white"/>
<path opacity="0.03" d="M152.5 12L174.584 24.75V50.25L152.5 63L130.416 50.25V24.75L152.5 12Z" fill="white"/>
<path opacity="0.8" d="M84 27L90.0622 30.5V37.5L84 41L77.9378 37.5V30.5L84 27Z" fill="white"/>
<path opacity="0.1" d="M66.5 49L70.3971 51.25V55.75L66.5 58L62.6029 55.75V51.25L66.5 49Z" fill="white"/>
<path d="M278.689 29.6893C397.24 -88.8616 708 29.6893 708 29.6893V459H278.689C278.689 459 160.138 148.24 278.689 29.6893Z" fill="#F8F8F9"/>
<path d="M209.026 199.85C209.441 200.327 209.639 200.877 209.576 201.51C209.545 201.801 209.089 201.811 209.12 201.51C209.161 201.002 209.037 200.566 208.705 200.182C208.508 199.954 208.829 199.632 209.026 199.85Z" fill="#7D3030"/>
<path d="M296.437 82.6004C297.184 84.3641 299.539 85.4533 301.582 84.9761C303.626 84.4989 305.078 82.5174 304.757 80.6501C307.765 80.9613 310.867 79.0732 311.635 76.4485C312.413 73.8342 310.763 70.8153 307.983 69.7571C310.805 67.2258 312.195 63.2524 310.701 59.9431C309.207 56.6337 304.435 54.6211 300.887 56.2706C301.084 51.6748 296.686 47.3176 291.561 47.0167C286.426 46.7159 281.426 50.5129 280.949 55.0879C279.984 52.8367 276.187 52.3802 274.174 53.9882C272.162 55.5859 271.934 58.4803 273.085 60.6589C268.199 62.547 266.57 69.0413 270.087 72.61C267.597 73.9276 267.38 77.3096 268.967 79.4674C270.554 81.6252 276.457 83.0776 281.685 81.7705C286.675 80.5256 288.522 78.3885 291.488 74.5811" fill="#FF5E69"/>
<path d="M262.504 99.7698C266.239 98.4315 270.347 100.361 271.675 104.065C271.726 104.22 271.768 104.376 271.82 104.542H271.851C272.214 105.559 272.214 106.71 271.924 107.945C271.841 108.318 271.737 108.681 271.602 109.034C268.137 118.713 248.738 132.801 240.221 135.302C240.211 135.302 239.64 135.592 239.339 135.696C236.217 136.816 232.783 135.208 231.673 132.106C230.636 129.191 232.015 126.006 234.775 124.699C248.759 115.591 258.977 102.426 258.977 102.426L259.008 102.436C259.838 101.253 261.031 100.288 262.504 99.7698Z" fill="#FFAF8F"/>
<path d="M218.332 112.686C218.342 112.686 218.342 112.696 218.353 112.706L218.363 112.696C228.281 119.138 239.391 124.274 239.474 124.305C242.524 125.882 243.717 129.616 242.14 132.666C240.563 135.716 236.829 136.91 233.779 135.333C233.737 135.312 233.706 135.291 233.665 135.27C225.967 131.619 211.319 121.213 211.319 121.213L211.34 121.193C208.985 119.263 208.653 115.788 210.583 113.433C212.502 111.088 215.604 111.109 218.332 112.686Z" fill="#FFAF8F"/>
<path d="M236.311 132.988C236.684 133.268 237.078 133.351 237.525 133.227C237.794 133.154 237.908 133.569 237.639 133.642C237.089 133.797 236.549 133.704 236.083 133.361C235.865 133.196 236.083 132.822 236.311 132.988Z" fill="#5C3146"/>
<path d="M298.771 62.993H298.781V63.0135C298.781 63.0033 298.771 63.0033 298.771 62.993Z" fill="#FFBA9A"/>
<path d="M278.667 66.9042C278.698 66.6967 278.739 66.4996 278.791 66.3024C279.559 66.7382 280.586 67.0079 281.665 67.2672C285.928 68.2839 290.493 66.3543 295.327 68.2113C295.306 70.4521 295.275 72.7034 295.254 74.9442C295.254 75.2866 295.368 75.7638 295.721 75.7326C295.908 75.7119 296.043 75.5459 296.136 75.3799C296.354 75.0479 296.561 74.716 296.779 74.384C296.281 75.5563 295.68 77.8075 296.551 78.1395C297.319 78.43 298.709 76.1061 299.051 74.5707C299.269 74.5085 299.487 74.4462 299.725 74.4359C301.728 74.2699 303.481 75.7534 303.647 77.7452C303.813 79.7371 302.329 81.4904 300.327 81.6563C299.777 81.6978 299.259 81.6148 298.781 81.4385V92.2485C298.833 92.6116 298.864 92.9747 298.864 93.3481C298.864 97.9335 295.14 101.658 290.555 101.658C285.97 101.658 282.245 97.9335 282.245 93.3481C282.245 92.9954 282.277 92.6531 282.318 92.3211V87.7045C277.951 86.2521 277.276 81.7601 277.847 77.766C278.428 73.7719 278.667 66.9042 278.667 66.9042Z" fill="#FFAF8F"/>
<path d="M298.231 79.0732C297.993 77.3303 299.632 75.9505 301.302 76.6248C301.572 76.7286 301.447 77.1747 301.177 77.0605C299.87 76.5315 298.47 77.5066 298.667 78.9487C298.708 79.2288 298.273 79.3533 298.231 79.0732Z" fill="#5C3146"/>
<path d="M299.425 77.0709C300.037 77.3303 300.514 77.7141 300.888 78.2639C301.053 78.5026 300.659 78.7308 300.493 78.4922C300.192 78.0461 299.798 77.7141 299.3 77.5066C299.041 77.4029 299.155 76.9568 299.425 77.0709Z" fill="#5C3146"/>
<path opacity="0.35" d="M282.318 87.7045C282.318 87.7045 284.403 88.4411 287.214 88.2128L282.318 92.5285V87.7045Z" fill="#FC5151"/>
<path d="M285.669 72.5373C285.855 73.2428 285.824 73.9171 285.503 74.5811C285.337 74.9131 285.119 75.2035 284.87 75.4733C284.756 75.5978 284.413 75.7741 284.362 75.9297C284.071 76.687 284.704 77.1954 285.42 77.0501C285.7 76.9983 285.824 77.434 285.544 77.4859C284.776 77.6415 283.76 77.2369 283.718 76.3343C283.698 75.8467 284.04 75.6392 284.362 75.3384C285.14 74.6226 285.523 73.7096 285.243 72.6618C285.16 72.3714 285.596 72.2469 285.669 72.5373Z" fill="#5C3146"/>
<path opacity="0.35" d="M282.598 76.9879C282.401 77.6622 281.447 77.963 280.451 77.6829C279.465 77.3925 278.812 76.6248 279.009 75.9504C279.206 75.2761 280.16 74.9753 281.156 75.2554C282.142 75.5458 282.785 76.3135 282.598 76.9879Z" fill="#FC5151"/>
<path opacity="0.35" d="M294.289 76.0854C294.434 76.7701 293.739 77.4963 292.733 77.7141C291.727 77.932 290.793 77.5585 290.638 76.8842C290.492 76.1995 291.187 75.4733 292.194 75.2554C293.2 75.0272 294.144 75.4007 294.289 76.0854Z" fill="#FC5151"/>
<path d="M283.044 73.7097C283.044 74.301 282.806 74.7886 282.505 74.7886C282.204 74.7886 281.966 74.3114 281.966 73.7097C281.966 73.108 282.204 72.6307 282.505 72.6307C282.806 72.6307 283.044 73.108 283.044 73.7097Z" fill="#5C3146"/>
<path d="M289.311 73.7097C289.311 74.301 289.549 74.7886 289.85 74.7886C290.151 74.7886 290.389 74.3114 290.389 73.7097C290.389 73.108 290.151 72.6307 289.85 72.6307C289.549 72.6307 289.311 73.108 289.311 73.7097Z" fill="#5C3146"/>
<path d="M291.717 70.9398C291.25 71.002 290.815 70.6078 290.41 70.4418C289.964 70.2551 289.528 70.2136 289.144 69.892C289.269 69.9646 289.404 70.0372 289.528 70.1202C289.061 69.9438 288.522 69.6741 288.709 69.0724C288.875 68.5226 289.673 68.284 290.182 68.3358C291.136 68.4292 292.692 69.2695 292.391 70.4314C292.319 70.7427 292.028 70.8983 291.717 70.9398Z" fill="#FF5E69"/>
<path d="M280.295 71.1784C279.735 70.3692 280.803 69.394 281.447 69.0517C281.81 68.8545 282.214 68.7197 282.619 68.7508C283.034 68.7819 283.552 68.9168 283.739 69.3214C284.175 70.2343 282.92 70.5455 282.349 70.836C281.737 71.1265 280.886 72.0187 280.295 71.1784Z" fill="#FF5E69"/>
<path d="M285.774 78.9798C286.614 78.9072 287.278 78.5129 287.952 77.9838C288.554 77.5066 289.249 76.8219 290.016 77.3095C291.427 78.2017 290.431 80.3595 289.56 81.1376C288.377 82.2062 286.552 82.4448 285.234 81.6148C283.647 80.6189 283.854 78.793 285.774 78.9798Z" fill="#5C3146"/>
<path d="M286.686 81.4799C287.038 80.484 287.702 79.6333 288.532 79.1249C289.196 78.71 289.964 78.5336 290.721 78.5855C290.752 79.5295 290.13 80.6292 289.57 81.1375C288.75 81.8741 287.64 82.1957 286.592 82.0712C286.592 82.0608 286.582 82.0401 286.582 82.0297C286.572 81.8326 286.623 81.6562 286.686 81.4799Z" fill="#FF5E69"/>
<path d="M294.705 224.157C294.705 224.157 293.709 174.153 293.699 173.78C293.585 167.991 298.191 163.198 303.979 163.084C309.768 162.97 314.561 167.576 314.675 173.365C314.675 173.593 314.861 222.643 314.861 222.643C314.913 223.016 314.944 223.389 314.955 223.773C315.069 229.365 310.619 233.992 305.027 234.106C299.56 234.22 295.027 229.967 294.726 224.541H294.705L294.695 224.188C294.705 224.168 294.705 224.168 294.705 224.157Z" fill="#3E488A"/>
<path d="M278.749 159.733H290.638H290.856H302.744H314.747V172.597C314.747 176.685 312.143 180.616 308.315 182.048L294.092 187.38H290.856H290.638H287.401L273.179 182.048C269.361 180.606 266.747 176.674 266.747 172.597V159.733H278.749V159.733Z" fill="#3E488A"/>
<path d="M313.948 171.705C309.674 171.051 306.136 167.337 305.213 163.188C305.151 162.907 305.587 162.783 305.649 163.063C306.551 167.078 309.944 170.626 314.072 171.259C314.352 171.311 314.228 171.746 313.948 171.705Z" fill="white"/>
<path d="M309.374 173.925C305.514 171.643 302.454 167.877 301.572 163.426C301.521 163.146 301.956 163.022 302.008 163.302C302.88 167.638 305.846 171.3 309.602 173.52C309.851 173.686 309.623 174.07 309.374 173.925Z" fill="white"/>
<path d="M314.384 175.626C313.377 175.502 312.413 175.263 311.458 174.91C311.189 174.807 311.303 174.371 311.583 174.475C312.496 174.807 313.419 175.056 314.384 175.17C314.664 175.201 314.674 175.657 314.384 175.626Z" fill="white"/>
<path d="M286.789 224.157C286.789 224.157 287.785 174.153 287.796 173.78C287.91 167.991 283.304 163.198 277.515 163.084C271.726 162.97 266.934 167.576 266.82 173.365C266.82 173.593 266.633 222.643 266.633 222.643C266.581 223.016 266.55 223.389 266.539 223.773C266.425 229.365 270.876 233.992 276.467 234.106C281.934 234.22 286.468 229.967 286.769 224.541H286.789L286.8 224.188C286.789 224.168 286.789 224.168 286.789 224.157Z" fill="#3E488A"/>
<path d="M267.421 171.259C271.55 170.626 274.942 167.078 275.845 163.063C275.907 162.783 276.343 162.897 276.281 163.188C275.347 167.337 271.82 171.051 267.546 171.705C267.255 171.746 267.131 171.311 267.421 171.259Z" fill="white"/>
<path d="M271.892 173.531C275.658 171.311 278.625 167.649 279.486 163.312C279.548 163.022 279.984 163.146 279.922 163.437C279.029 167.877 275.969 171.653 272.12 173.935C271.861 174.07 271.633 173.686 271.892 173.531Z" fill="white"/>
<path d="M267.11 175.17C268.075 175.056 268.998 174.807 269.911 174.475C270.181 174.371 270.305 174.807 270.036 174.91C269.081 175.263 268.116 175.502 267.11 175.626C266.82 175.657 266.82 175.201 267.11 175.17Z" fill="white"/>
<path d="M286.011 167.462C286.011 166.59 286.716 165.885 287.588 165.885C288.459 165.885 289.165 166.59 289.165 167.462C289.165 168.333 288.459 169.039 287.588 169.039C286.716 169.039 286.011 168.333 286.011 167.462Z" fill="#FFD7A6"/>
<path d="M291.572 163.852C291.479 170.076 291.499 176.301 291.396 182.525C291.396 182.816 290.939 182.816 290.939 182.525C291.032 176.301 291.012 170.076 291.115 163.852C291.126 163.561 291.582 163.561 291.572 163.852Z" fill="white"/>
<path d="M304.612 107.799C303.388 103.577 305.794 99.1785 309.975 97.9647C310.151 97.9128 310.328 97.8817 310.504 97.8402L310.514 97.8091C311.666 97.4771 312.931 97.5497 314.27 97.9543C314.674 98.0684 315.069 98.2137 315.452 98.39C325.909 102.872 340.163 125.239 342.352 134.814C342.352 134.824 342.632 135.478 342.736 135.82C343.752 139.348 341.75 143.03 338.254 144.037C334.966 144.991 331.532 143.248 330.287 140.105C321.179 124.046 307.33 111.866 307.33 111.866L307.34 111.825C306.064 110.839 305.089 109.459 304.612 107.799Z" fill="#FFAF8F"/>
<path d="M319.985 126.162C312.693 117.209 306.116 111.43 306.116 111.43L306.126 111.389C304.777 110.32 303.719 108.837 303.2 107.042C301.883 102.498 304.466 97.7572 308.979 96.4604C309.165 96.4085 309.363 96.367 309.549 96.3255L309.56 96.2944C310.794 95.9313 312.163 96.0143 313.605 96.45C314.041 96.5745 314.466 96.7301 314.871 96.9168C320.017 99.1266 326.023 105.351 331.241 112.457C331.251 112.457 328.098 119.46 319.985 126.162Z" fill="#A6C0FF"/>
<path d="M328.97 109.532C325.889 114.48 321.884 119.035 317.683 123.06C317.475 123.257 317.154 122.946 317.361 122.738C321.532 118.734 325.515 114.211 328.576 109.304C328.731 109.055 329.125 109.283 328.97 109.532Z" fill="white"/>
<path d="M258.054 106.969C258.043 103.971 259.568 101.326 261.882 99.7594C266.944 95.5267 275.627 93.6386 282.173 92.819C282.173 92.819 284.704 97.394 290.524 97.3837H290.534V97.3733C290.576 97.3733 290.607 97.3733 290.649 97.3837C290.69 97.3837 290.721 97.3837 290.763 97.3733V97.3837H290.773C296.593 97.3733 299.103 92.7879 299.103 92.7879C305.66 93.5763 314.342 95.4333 319.426 99.6453C321.739 101.201 323.274 103.836 323.274 106.835C323.274 108.007 323.046 109.127 322.621 110.144L314.332 117.479L314.768 161.372C314.768 161.372 307.838 164.018 290.898 164.09C290.856 164.09 290.815 164.09 290.773 164.09C290.732 164.09 290.69 164.09 290.649 164.09C273.708 164.08 266.768 161.476 266.768 161.476L267.058 117.582L258.718 110.279C258.292 109.262 258.054 108.142 258.054 106.969Z" fill="#A6C0FF"/>
<path d="M302.277 93.981C300.286 99.3445 294.092 102.042 288.667 101.108C288.366 101.056 288.49 100.6 288.791 100.652C293.947 101.544 299.922 98.9503 301.821 93.8565C301.925 93.566 302.381 93.6905 302.277 93.981Z" fill="white"/>
<path d="M284.58 99.7594C281.924 98.6494 279.901 96.5849 278.853 93.898C278.739 93.6075 279.206 93.483 279.31 93.7735C280.295 96.2841 282.225 98.2552 284.704 99.303C284.984 99.4171 284.86 99.8735 284.58 99.7594Z" fill="white"/>
<path d="M276.229 117.157V146.049C276.229 147.346 277.277 148.394 278.573 148.394H299.373C300.67 148.394 301.718 147.346 301.718 146.049V117.157C301.718 115.86 300.67 114.812 299.373 114.812H278.573C277.277 114.812 276.229 115.86 276.229 117.157Z" fill="#F2F6FC"/>
<path d="M301.716 120.293V142.908H276.228V120.293H301.716Z" fill="#D6E5FC"/>
<path d="M287.153 125.737C287.153 124.616 288.056 123.714 289.176 123.714C290.296 123.714 291.199 124.616 291.199 125.737C291.199 126.857 290.296 127.76 289.176 127.76C288.056 127.76 287.153 126.857 287.153 125.737Z" fill="white"/>
<path d="M311.219 129.72C311.229 129.72 311.24 129.731 311.25 129.731V129.72C323.585 131.474 336.293 131.339 336.293 131.339V131.463C336.376 131.463 336.459 131.453 336.552 131.463C340.162 131.619 342.963 134.658 342.808 138.269C342.652 141.879 339.612 144.68 336.002 144.524C335.95 144.524 335.909 144.514 335.867 144.514C326.894 144.431 308.294 140.997 308.294 140.997L308.304 140.966C305.202 140.157 303.335 136.993 304.144 133.891C304.943 130.778 307.972 129.264 311.219 129.72Z" fill="#FFAF8F"/>
<path d="M301.707 128.455C303.086 128.465 306.655 128.911 309.508 129.399C312.693 129.502 315.182 132.169 315.068 135.353C314.964 138.497 312.361 140.956 309.228 140.914V140.924C309.228 140.924 303.564 141.173 298.947 140.613C293.076 139.908 293.553 138.113 293.553 138.113C293.553 138.113 291.271 137.449 291.81 135.986C291.81 135.986 289.901 135.198 290.887 133.994C290.887 133.994 288.729 131.484 292.598 132.148C296.053 132.739 300.835 132.117 301.738 131.536C302.07 131.318 302.288 130.882 301.759 130.727L301.707 128.455Z" fill="#FFAF8F"/>
<path d="M291.043 133.797C293.045 134.721 295.514 134.752 297.682 134.648C297.973 134.638 297.973 135.084 297.682 135.104C295.431 135.208 292.9 135.146 290.815 134.192C290.555 134.067 290.783 133.683 291.043 133.797Z" fill="#5C3146"/>
<path d="M291.883 135.882C293.843 136.536 295.908 136.619 297.952 136.484C298.242 136.463 298.242 136.92 297.952 136.941C295.866 137.076 293.76 136.993 291.758 136.318C291.489 136.225 291.613 135.789 291.883 135.882Z" fill="#5C3146"/>
<path d="M293.49 137.864C295.026 138.403 296.509 138.403 298.117 138.331C298.408 138.32 298.408 138.767 298.117 138.787C296.457 138.86 294.953 138.86 293.376 138.31C293.096 138.206 293.221 137.771 293.49 137.864Z" fill="#5C3146"/>
<path d="M259.932 125.415C267.774 116.95 274.714 111.596 274.714 111.596L274.704 111.555C276.125 110.569 277.266 109.158 277.899 107.405C279.497 102.955 277.225 98.058 272.816 96.4707C272.629 96.4085 272.442 96.3566 272.256 96.2944L272.245 96.2632C271.032 95.8275 269.673 95.8172 268.2 96.1699C267.753 96.2632 267.328 96.3877 266.903 96.5537C261.623 98.4211 255.243 104.262 249.578 111.026C249.568 111.015 252.265 118.205 259.932 125.415Z" fill="#A6C0FF"/>
<path d="M252.431 108.028C255.17 113.132 258.852 117.894 262.763 122.157C262.96 122.375 262.639 122.697 262.442 122.479C258.51 118.194 254.796 113.391 252.037 108.256C251.902 107.997 252.286 107.768 252.431 108.028Z" fill="white"/>
<path d="M267.131 114.833C267.131 116.597 267.131 118.371 267.131 120.134C267.131 120.425 266.674 120.425 266.674 120.134C266.674 118.371 266.674 116.597 266.674 114.833C266.685 114.543 267.131 114.543 267.131 114.833Z" fill="white"/>
<path d="M314.83 114.636C314.83 116.4 314.83 118.174 314.83 119.937C314.83 120.228 314.374 120.228 314.374 119.937C314.374 118.174 314.374 116.4 314.374 114.636C314.374 114.346 314.83 114.346 314.83 114.636Z" fill="white"/>
<path d="M217.346 112.572C217.346 112.572 222.305 98.9191 214.338 109.739C214.338 109.739 203.964 103.442 207.512 109.117C207.512 109.117 203.881 108.142 206.008 110.974C206.008 110.974 202.999 110.445 204.763 113.453C204.763 113.453 197.875 113.516 211.33 121.193C211.33 121.203 221.952 122.853 217.346 112.572Z" fill="#FFAF8F"/>
<path d="M207.73 108.93C208.664 109.74 209.971 110.787 211.236 110.984C211.423 111.016 211.682 111.036 211.838 110.818C212.512 109.854 209.276 108.059 208.83 107.779C208.601 107.644 208.809 107.281 209.037 107.426C209.742 107.862 213.166 109.719 212.17 111.057C212.014 111.265 211.765 111.389 211.516 111.42C210.904 111.482 210.22 111.067 209.711 110.798C208.892 110.362 208.145 109.823 207.45 109.221C207.232 109.044 207.522 108.754 207.73 108.93Z" fill="#5C3146"/>
<path d="M206.101 110.798C207.191 111.462 208.311 112.136 209.494 112.613C209.857 112.758 210.707 113.163 211.101 112.904C211.568 112.592 211.133 111.679 211.008 111.275C210.925 111.026 211.319 110.912 211.402 111.161C211.589 111.742 212.025 112.779 211.361 113.225C210.946 113.505 210.323 113.329 209.898 113.194C208.477 112.748 207.149 111.918 205.883 111.15C205.666 111.016 205.873 110.663 206.101 110.798Z" fill="#5C3146"/>
<path d="M205.074 113.256C206.029 113.651 206.994 114.034 208 114.304C208.436 114.418 209.203 114.688 209.649 114.491C210.303 114.2 209.328 113.329 209.037 113.07C208.84 112.893 209.131 112.603 209.328 112.779C209.753 113.163 210.759 114.149 210.075 114.74C209.743 115.03 209.162 114.947 208.768 114.895C207.45 114.709 206.174 114.169 204.96 113.661C204.732 113.557 204.836 113.153 205.074 113.256Z" fill="#5C3146"/>
<path d="M204.504 115.269C205.448 115.725 206.578 116.203 207.657 116.14C207.917 116.13 208.332 116.088 208.384 115.767C208.446 115.393 207.854 114.947 207.616 114.75C207.419 114.574 207.709 114.283 207.906 114.46C208.425 114.916 209.338 115.943 208.321 116.42C207.118 116.981 205.344 116.14 204.286 115.622C204.058 115.508 204.265 115.155 204.504 115.269Z" fill="#5C3146"/>
</g>
<defs>
<clipPath id="clip0">
<rect width="320" height="200" fill="white"/>
</clipPath>
</defs>
</svg>
