<svg width="960" height="60" viewBox="0 0 960 60" fill="none" xmlns="http://www.w3.org/2000/svg">
<g clip-path="url(#clip0)">
<path d="M292.311 -87.3107C173.76 -205.862 -137 -87.3107 -137 -87.3107V342H292.311C292.311 342 410.862 31.2402 292.311 -87.3107Z" fill="#F8F8F9"/>
<path d="M158.539 13.975H154.615V25H152.194V13.975H148.27V11.986H158.539V13.975ZM163.678 19.321C163.678 19.033 163.636 18.763 163.552 18.511C163.474 18.253 163.354 18.028 163.192 17.836C163.03 17.644 162.823 17.494 162.571 17.386C162.325 17.272 162.037 17.215 161.707 17.215C161.065 17.215 160.558 17.398 160.186 17.764C159.82 18.13 159.586 18.649 159.484 19.321H163.678ZM159.439 20.662C159.475 21.136 159.559 21.547 159.691 21.895C159.823 22.237 159.997 22.522 160.213 22.75C160.429 22.972 160.684 23.14 160.978 23.254C161.278 23.362 161.608 23.416 161.968 23.416C162.328 23.416 162.637 23.374 162.895 23.29C163.159 23.206 163.387 23.113 163.579 23.011C163.777 22.909 163.948 22.816 164.092 22.732C164.242 22.648 164.386 22.606 164.524 22.606C164.71 22.606 164.848 22.675 164.938 22.813L165.577 23.623C165.331 23.911 165.055 24.154 164.749 24.352C164.443 24.544 164.122 24.7 163.786 24.82C163.456 24.934 163.117 25.015 162.769 25.063C162.427 25.111 162.094 25.135 161.77 25.135C161.128 25.135 160.531 25.03 159.979 24.82C159.427 24.604 158.947 24.289 158.539 23.875C158.131 23.455 157.81 22.939 157.576 22.327C157.342 21.709 157.225 20.995 157.225 20.185C157.225 19.555 157.327 18.964 157.531 18.412C157.735 17.854 158.026 17.371 158.404 16.963C158.788 16.549 159.253 16.222 159.799 15.982C160.351 15.742 160.972 15.622 161.662 15.622C162.244 15.622 162.781 15.715 163.273 15.901C163.765 16.087 164.188 16.36 164.542 16.72C164.896 17.074 165.172 17.512 165.37 18.034C165.574 18.55 165.676 19.141 165.676 19.807C165.676 20.143 165.64 20.371 165.568 20.491C165.496 20.605 165.358 20.662 165.154 20.662H159.439ZM173.959 17.719C173.893 17.803 173.827 17.869 173.761 17.917C173.701 17.965 173.611 17.989 173.491 17.989C173.377 17.989 173.266 17.956 173.158 17.89C173.05 17.818 172.921 17.74 172.771 17.656C172.621 17.566 172.441 17.488 172.231 17.422C172.027 17.35 171.772 17.314 171.466 17.314C171.076 17.314 170.734 17.386 170.44 17.53C170.146 17.668 169.9 17.869 169.702 18.133C169.51 18.397 169.366 18.718 169.27 19.096C169.174 19.468 169.126 19.891 169.126 20.365C169.126 20.857 169.177 21.295 169.279 21.679C169.387 22.063 169.54 22.387 169.738 22.651C169.936 22.909 170.176 23.107 170.458 23.245C170.74 23.377 171.058 23.443 171.412 23.443C171.766 23.443 172.051 23.401 172.267 23.317C172.489 23.227 172.675 23.131 172.825 23.029C172.975 22.921 173.104 22.825 173.212 22.741C173.326 22.651 173.452 22.606 173.59 22.606C173.77 22.606 173.905 22.675 173.995 22.813L174.634 23.623C174.388 23.911 174.121 24.154 173.833 24.352C173.545 24.544 173.245 24.7 172.933 24.82C172.627 24.934 172.309 25.015 171.979 25.063C171.655 25.111 171.331 25.135 171.007 25.135C170.437 25.135 169.9 25.03 169.396 24.82C168.892 24.604 168.451 24.292 168.073 23.884C167.695 23.476 167.395 22.978 167.173 22.39C166.957 21.796 166.849 21.121 166.849 20.365C166.849 19.687 166.945 19.06 167.137 18.484C167.335 17.902 167.623 17.401 168.001 16.981C168.379 16.555 168.847 16.222 169.405 15.982C169.963 15.742 170.605 15.622 171.331 15.622C172.021 15.622 172.624 15.733 173.14 15.955C173.662 16.177 174.13 16.495 174.544 16.909L173.959 17.719ZM178.251 16.756C178.611 16.42 179.007 16.147 179.439 15.937C179.871 15.727 180.378 15.622 180.96 15.622C181.464 15.622 181.911 15.709 182.301 15.883C182.691 16.051 183.015 16.291 183.273 16.603C183.537 16.909 183.735 17.278 183.867 17.71C184.005 18.136 184.074 18.607 184.074 19.123V25H181.851V19.123C181.851 18.559 181.722 18.124 181.464 17.818C181.206 17.506 180.813 17.35 180.285 17.35C179.901 17.35 179.541 17.437 179.205 17.611C178.869 17.785 178.551 18.022 178.251 18.322V25H176.028V11.626H178.251V16.756ZM188.267 16.9C188.453 16.714 188.648 16.543 188.852 16.387C189.062 16.225 189.281 16.09 189.509 15.982C189.743 15.868 189.992 15.781 190.256 15.721C190.52 15.655 190.808 15.622 191.12 15.622C191.624 15.622 192.071 15.709 192.461 15.883C192.851 16.051 193.175 16.291 193.433 16.603C193.697 16.909 193.895 17.278 194.027 17.71C194.165 18.136 194.234 18.607 194.234 19.123V25H192.011V19.123C192.011 18.559 191.882 18.124 191.624 17.818C191.366 17.506 190.973 17.35 190.445 17.35C190.061 17.35 189.701 17.437 189.365 17.611C189.029 17.785 188.711 18.022 188.411 18.322V25H186.188V15.766H187.547C187.835 15.766 188.024 15.901 188.114 16.171L188.267 16.9ZM198.652 15.766V25H196.42V15.766H198.652ZM198.958 13.075C198.958 13.267 198.919 13.447 198.841 13.615C198.763 13.783 198.658 13.93 198.526 14.056C198.4 14.182 198.25 14.284 198.076 14.362C197.902 14.434 197.716 14.47 197.518 14.47C197.326 14.47 197.143 14.434 196.969 14.362C196.801 14.284 196.654 14.182 196.528 14.056C196.402 13.93 196.3 13.783 196.222 13.615C196.15 13.447 196.114 13.267 196.114 13.075C196.114 12.877 196.15 12.691 196.222 12.517C196.3 12.343 196.402 12.193 196.528 12.067C196.654 11.941 196.801 11.842 196.969 11.77C197.143 11.692 197.326 11.653 197.518 11.653C197.716 11.653 197.902 11.692 198.076 11.77C198.25 11.842 198.4 11.941 198.526 12.067C198.658 12.193 198.763 12.343 198.841 12.517C198.919 12.691 198.958 12.877 198.958 13.075ZM207.533 17.719C207.467 17.803 207.401 17.869 207.335 17.917C207.275 17.965 207.185 17.989 207.065 17.989C206.951 17.989 206.84 17.956 206.732 17.89C206.624 17.818 206.495 17.74 206.345 17.656C206.195 17.566 206.015 17.488 205.805 17.422C205.601 17.35 205.346 17.314 205.04 17.314C204.65 17.314 204.308 17.386 204.014 17.53C203.72 17.668 203.474 17.869 203.276 18.133C203.084 18.397 202.94 18.718 202.844 19.096C202.748 19.468 202.7 19.891 202.7 20.365C202.7 20.857 202.751 21.295 202.853 21.679C202.961 22.063 203.114 22.387 203.312 22.651C203.51 22.909 203.75 23.107 204.032 23.245C204.314 23.377 204.632 23.443 204.986 23.443C205.34 23.443 205.625 23.401 205.841 23.317C206.063 23.227 206.249 23.131 206.399 23.029C206.549 22.921 206.678 22.825 206.786 22.741C206.9 22.651 207.026 22.606 207.164 22.606C207.344 22.606 207.479 22.675 207.569 22.813L208.208 23.623C207.962 23.911 207.695 24.154 207.407 24.352C207.119 24.544 206.819 24.7 206.507 24.82C206.201 24.934 205.883 25.015 205.553 25.063C205.229 25.111 204.905 25.135 204.581 25.135C204.011 25.135 203.474 25.03 202.97 24.82C202.466 24.604 202.025 24.292 201.647 23.884C201.269 23.476 200.969 22.978 200.747 22.39C200.531 21.796 200.423 21.121 200.423 20.365C200.423 19.687 200.519 19.06 200.711 18.484C200.909 17.902 201.197 17.401 201.575 16.981C201.953 16.555 202.421 16.222 202.979 15.982C203.537 15.742 204.179 15.622 204.905 15.622C205.595 15.622 206.198 15.733 206.714 15.955C207.236 16.177 207.704 16.495 208.118 16.909L207.533 17.719ZM214.48 21.058C213.838 21.088 213.298 21.145 212.86 21.229C212.422 21.307 212.071 21.409 211.807 21.535C211.543 21.661 211.354 21.808 211.24 21.976C211.126 22.144 211.069 22.327 211.069 22.525C211.069 22.915 211.183 23.194 211.411 23.362C211.645 23.53 211.948 23.614 212.32 23.614C212.776 23.614 213.169 23.533 213.499 23.371C213.835 23.203 214.162 22.951 214.48 22.615V21.058ZM209.386 17.053C210.448 16.081 211.726 15.595 213.22 15.595C213.76 15.595 214.243 15.685 214.669 15.865C215.095 16.039 215.455 16.285 215.749 16.603C216.043 16.915 216.265 17.29 216.415 17.728C216.571 18.166 216.649 18.646 216.649 19.168V25H215.641C215.431 25 215.269 24.97 215.155 24.91C215.041 24.844 214.951 24.715 214.885 24.523L214.687 23.857C214.453 24.067 214.225 24.253 214.003 24.415C213.781 24.571 213.55 24.703 213.31 24.811C213.07 24.919 212.812 25 212.536 25.054C212.266 25.114 211.966 25.144 211.636 25.144C211.246 25.144 210.886 25.093 210.556 24.991C210.226 24.883 209.941 24.724 209.701 24.514C209.461 24.304 209.275 24.043 209.143 23.731C209.011 23.419 208.945 23.056 208.945 22.642C208.945 22.408 208.984 22.177 209.062 21.949C209.14 21.715 209.266 21.493 209.44 21.283C209.62 21.073 209.851 20.875 210.133 20.689C210.415 20.503 210.76 20.341 211.168 20.203C211.582 20.065 212.062 19.954 212.608 19.87C213.154 19.78 213.778 19.726 214.48 19.708V19.168C214.48 18.55 214.348 18.094 214.084 17.8C213.82 17.5 213.439 17.35 212.941 17.35C212.581 17.35 212.281 17.392 212.041 17.476C211.807 17.56 211.6 17.656 211.42 17.764C211.24 17.866 211.075 17.959 210.925 18.043C210.781 18.127 210.619 18.169 210.439 18.169C210.283 18.169 210.151 18.13 210.043 18.052C209.935 17.968 209.848 17.872 209.782 17.764L209.386 17.053ZM220.993 11.626V25H218.77V11.626H220.993ZM233.218 17.566C233.158 17.662 233.095 17.731 233.029 17.773C232.963 17.809 232.879 17.827 232.777 17.827C232.669 17.827 232.552 17.797 232.426 17.737C232.306 17.677 232.165 17.611 232.003 17.539C231.841 17.461 231.655 17.392 231.445 17.332C231.241 17.272 230.998 17.242 230.716 17.242C230.278 17.242 229.933 17.335 229.681 17.521C229.435 17.707 229.312 17.95 229.312 18.25C229.312 18.448 229.375 18.616 229.501 18.754C229.633 18.886 229.804 19.003 230.014 19.105C230.23 19.207 230.473 19.3 230.743 19.384C231.013 19.462 231.286 19.549 231.562 19.645C231.844 19.741 232.12 19.852 232.39 19.978C232.66 20.098 232.9 20.254 233.11 20.446C233.326 20.632 233.497 20.857 233.623 21.121C233.755 21.385 233.821 21.703 233.821 22.075C233.821 22.519 233.74 22.93 233.578 23.308C233.422 23.68 233.188 24.004 232.876 24.28C232.564 24.55 232.177 24.763 231.715 24.919C231.259 25.069 230.731 25.144 230.131 25.144C229.813 25.144 229.501 25.114 229.195 25.054C228.895 25 228.604 24.922 228.322 24.82C228.046 24.718 227.788 24.598 227.548 24.46C227.314 24.322 227.107 24.172 226.927 24.01L227.44 23.164C227.506 23.062 227.584 22.984 227.674 22.93C227.764 22.876 227.878 22.849 228.016 22.849C228.154 22.849 228.283 22.888 228.403 22.966C228.529 23.044 228.673 23.128 228.835 23.218C228.997 23.308 229.186 23.392 229.402 23.47C229.624 23.548 229.903 23.587 230.239 23.587C230.503 23.587 230.728 23.557 230.914 23.497C231.106 23.431 231.262 23.347 231.382 23.245C231.508 23.143 231.598 23.026 231.652 22.894C231.712 22.756 231.742 22.615 231.742 22.471C231.742 22.255 231.676 22.078 231.544 21.94C231.418 21.802 231.247 21.682 231.031 21.58C230.821 21.478 230.578 21.388 230.302 21.31C230.032 21.226 229.753 21.136 229.465 21.04C229.183 20.944 228.904 20.833 228.628 20.707C228.358 20.575 228.115 20.41 227.899 20.212C227.689 20.014 227.518 19.771 227.386 19.483C227.26 19.195 227.197 18.847 227.197 18.439C227.197 18.061 227.272 17.701 227.422 17.359C227.572 17.017 227.791 16.72 228.079 16.468C228.373 16.21 228.736 16.006 229.168 15.856C229.606 15.7 230.11 15.622 230.68 15.622C231.316 15.622 231.895 15.727 232.417 15.937C232.939 16.147 233.374 16.423 233.722 16.765L233.218 17.566ZM243.45 15.766V25H242.091C241.797 25 241.611 24.865 241.533 24.595L241.38 23.857C241.002 24.241 240.585 24.553 240.129 24.793C239.673 25.027 239.136 25.144 238.518 25.144C238.014 25.144 237.567 25.06 237.177 24.892C236.793 24.718 236.469 24.475 236.205 24.163C235.941 23.851 235.74 23.482 235.602 23.056C235.47 22.624 235.404 22.15 235.404 21.634V15.766H237.627V21.634C237.627 22.198 237.756 22.636 238.014 22.948C238.278 23.254 238.671 23.407 239.193 23.407C239.577 23.407 239.937 23.323 240.273 23.155C240.609 22.981 240.927 22.744 241.227 22.444V15.766H243.45ZM247.878 22.606C248.13 22.912 248.403 23.128 248.697 23.254C248.997 23.38 249.321 23.443 249.669 23.443C250.005 23.443 250.308 23.38 250.578 23.254C250.848 23.128 251.076 22.936 251.262 22.678C251.454 22.42 251.601 22.096 251.703 21.706C251.805 21.31 251.856 20.845 251.856 20.311C251.856 19.771 251.811 19.315 251.721 18.943C251.637 18.565 251.514 18.259 251.352 18.025C251.19 17.791 250.992 17.62 250.758 17.512C250.53 17.404 250.269 17.35 249.975 17.35C249.513 17.35 249.12 17.449 248.796 17.647C248.472 17.839 248.166 18.112 247.878 18.466V22.606ZM247.761 17.026C248.139 16.6 248.568 16.255 249.048 15.991C249.528 15.727 250.092 15.595 250.74 15.595C251.244 15.595 251.703 15.7 252.117 15.91C252.537 16.12 252.897 16.426 253.197 16.828C253.503 17.224 253.737 17.716 253.899 18.304C254.067 18.886 254.151 19.555 254.151 20.311C254.151 21.001 254.058 21.64 253.872 22.228C253.686 22.816 253.419 23.326 253.071 23.758C252.729 24.19 252.312 24.529 251.82 24.775C251.334 25.015 250.788 25.135 250.182 25.135C249.666 25.135 249.225 25.057 248.859 24.901C248.493 24.739 248.166 24.517 247.878 24.235V28.015H245.655V15.766H247.014C247.302 15.766 247.491 15.901 247.581 16.171L247.761 17.026ZM258.108 22.606C258.36 22.912 258.633 23.128 258.927 23.254C259.227 23.38 259.551 23.443 259.899 23.443C260.235 23.443 260.538 23.38 260.808 23.254C261.078 23.128 261.306 22.936 261.492 22.678C261.684 22.42 261.831 22.096 261.933 21.706C262.035 21.31 262.086 20.845 262.086 20.311C262.086 19.771 262.041 19.315 261.951 18.943C261.867 18.565 261.744 18.259 261.582 18.025C261.42 17.791 261.222 17.62 260.988 17.512C260.76 17.404 260.499 17.35 260.205 17.35C259.743 17.35 259.35 17.449 259.026 17.647C258.702 17.839 258.396 18.112 258.108 18.466V22.606ZM257.991 17.026C258.369 16.6 258.798 16.255 259.278 15.991C259.758 15.727 260.322 15.595 260.97 15.595C261.474 15.595 261.933 15.7 262.347 15.91C262.767 16.12 263.127 16.426 263.427 16.828C263.733 17.224 263.967 17.716 264.129 18.304C264.297 18.886 264.381 19.555 264.381 20.311C264.381 21.001 264.288 21.64 264.102 22.228C263.916 22.816 263.649 23.326 263.301 23.758C262.959 24.19 262.542 24.529 262.05 24.775C261.564 25.015 261.018 25.135 260.412 25.135C259.896 25.135 259.455 25.057 259.089 24.901C258.723 24.739 258.396 24.517 258.108 24.235V28.015H255.885V15.766H257.244C257.532 15.766 257.721 15.901 257.811 16.171L257.991 17.026ZM270.202 15.622C270.886 15.622 271.507 15.733 272.065 15.955C272.629 16.177 273.109 16.492 273.505 16.9C273.907 17.308 274.216 17.806 274.432 18.394C274.648 18.982 274.756 19.639 274.756 20.365C274.756 21.097 274.648 21.757 274.432 22.345C274.216 22.933 273.907 23.434 273.505 23.848C273.109 24.262 272.629 24.58 272.065 24.802C271.507 25.024 270.886 25.135 270.202 25.135C269.512 25.135 268.885 25.024 268.321 24.802C267.757 24.58 267.274 24.262 266.872 23.848C266.476 23.434 266.167 22.933 265.945 22.345C265.729 21.757 265.621 21.097 265.621 20.365C265.621 19.639 265.729 18.982 265.945 18.394C266.167 17.806 266.476 17.308 266.872 16.9C267.274 16.492 267.757 16.177 268.321 15.955C268.885 15.733 269.512 15.622 270.202 15.622ZM270.202 23.425C270.97 23.425 271.537 23.167 271.903 22.651C272.275 22.135 272.461 21.379 272.461 20.383C272.461 19.387 272.275 18.628 271.903 18.106C271.537 17.584 270.97 17.323 270.202 17.323C269.422 17.323 268.843 17.587 268.465 18.115C268.093 18.637 267.907 19.393 267.907 20.383C267.907 21.373 268.093 22.129 268.465 22.651C268.843 23.167 269.422 23.425 270.202 23.425ZM278.549 17.368C278.837 16.816 279.179 16.384 279.575 16.072C279.971 15.754 280.439 15.595 280.979 15.595C281.405 15.595 281.747 15.688 282.005 15.874L281.861 17.539C281.831 17.647 281.786 17.725 281.726 17.773C281.672 17.815 281.597 17.836 281.501 17.836C281.411 17.836 281.276 17.821 281.096 17.791C280.922 17.761 280.751 17.746 280.583 17.746C280.337 17.746 280.118 17.782 279.926 17.854C279.734 17.926 279.56 18.031 279.404 18.169C279.254 18.301 279.119 18.463 278.999 18.655C278.885 18.847 278.777 19.066 278.675 19.312V25H276.452V15.766H277.757C277.985 15.766 278.144 15.808 278.234 15.892C278.324 15.97 278.384 16.114 278.414 16.324L278.549 17.368ZM286.244 25.144C285.44 25.144 284.822 24.919 284.39 24.469C283.964 24.013 283.751 23.386 283.751 22.588V17.431H282.806C282.686 17.431 282.584 17.392 282.5 17.314C282.416 17.236 282.374 17.119 282.374 16.963V16.081L283.859 15.838L284.327 13.318C284.357 13.198 284.414 13.105 284.498 13.039C284.582 12.973 284.69 12.94 284.822 12.94H285.974V15.847H288.44V17.431H285.974V22.435C285.974 22.723 286.043 22.948 286.181 23.11C286.325 23.272 286.52 23.353 286.766 23.353C286.904 23.353 287.018 23.338 287.108 23.308C287.204 23.272 287.285 23.236 287.351 23.2C287.423 23.164 287.486 23.131 287.54 23.101C287.594 23.065 287.648 23.047 287.702 23.047C287.768 23.047 287.822 23.065 287.864 23.101C287.906 23.131 287.951 23.179 287.999 23.245L288.665 24.325C288.341 24.595 287.969 24.799 287.549 24.937C287.129 25.075 286.694 25.144 286.244 25.144ZM149.746 46V38.44L148.945 38.314C148.771 38.278 148.63 38.218 148.522 38.134C148.42 38.044 148.369 37.918 148.369 37.756V36.847H149.746V36.163C149.746 35.635 149.824 35.161 149.98 34.741C150.142 34.321 150.37 33.964 150.664 33.67C150.964 33.376 151.327 33.151 151.753 32.995C152.179 32.839 152.659 32.761 153.193 32.761C153.619 32.761 154.015 32.818 154.381 32.932L154.336 34.048C154.33 34.132 154.306 34.201 154.264 34.255C154.222 34.303 154.165 34.342 154.093 34.372C154.027 34.396 153.949 34.414 153.859 34.426C153.769 34.432 153.673 34.435 153.571 34.435C153.307 34.435 153.07 34.465 152.86 34.525C152.656 34.579 152.482 34.678 152.338 34.822C152.194 34.96 152.083 35.146 152.005 35.38C151.933 35.608 151.897 35.893 151.897 36.235V36.847H154.3V38.431H151.969V46H149.746ZM159.389 36.622C160.073 36.622 160.694 36.733 161.252 36.955C161.816 37.177 162.296 37.492 162.692 37.9C163.094 38.308 163.403 38.806 163.619 39.394C163.835 39.982 163.943 40.639 163.943 41.365C163.943 42.097 163.835 42.757 163.619 43.345C163.403 43.933 163.094 44.434 162.692 44.848C162.296 45.262 161.816 45.58 161.252 45.802C160.694 46.024 160.073 46.135 159.389 46.135C158.699 46.135 158.072 46.024 157.508 45.802C156.944 45.58 156.461 45.262 156.059 44.848C155.663 44.434 155.354 43.933 155.132 43.345C154.916 42.757 154.808 42.097 154.808 41.365C154.808 40.639 154.916 39.982 155.132 39.394C155.354 38.806 155.663 38.308 156.059 37.9C156.461 37.492 156.944 37.177 157.508 36.955C158.072 36.733 158.699 36.622 159.389 36.622ZM159.389 44.425C160.157 44.425 160.724 44.167 161.09 43.651C161.462 43.135 161.648 42.379 161.648 41.383C161.648 40.387 161.462 39.628 161.09 39.106C160.724 38.584 160.157 38.323 159.389 38.323C158.609 38.323 158.03 38.587 157.652 39.115C157.28 39.637 157.094 40.393 157.094 41.383C157.094 42.373 157.28 43.129 157.652 43.651C158.03 44.167 158.609 44.425 159.389 44.425ZM167.736 38.368C168.024 37.816 168.366 37.384 168.762 37.072C169.158 36.754 169.626 36.595 170.166 36.595C170.592 36.595 170.934 36.688 171.192 36.874L171.048 38.539C171.018 38.647 170.973 38.725 170.913 38.773C170.859 38.815 170.784 38.836 170.688 38.836C170.598 38.836 170.463 38.821 170.283 38.791C170.109 38.761 169.938 38.746 169.77 38.746C169.524 38.746 169.305 38.782 169.113 38.854C168.921 38.926 168.747 39.031 168.591 39.169C168.441 39.301 168.306 39.463 168.186 39.655C168.072 39.847 167.964 40.066 167.862 40.312V46H165.639V36.766H166.944C167.172 36.766 167.331 36.808 167.421 36.892C167.511 36.97 167.571 37.114 167.601 37.324L167.736 38.368ZM180.43 36.622C181.114 36.622 181.735 36.733 182.293 36.955C182.857 37.177 183.337 37.492 183.733 37.9C184.135 38.308 184.444 38.806 184.66 39.394C184.876 39.982 184.984 40.639 184.984 41.365C184.984 42.097 184.876 42.757 184.66 43.345C184.444 43.933 184.135 44.434 183.733 44.848C183.337 45.262 182.857 45.58 182.293 45.802C181.735 46.024 181.114 46.135 180.43 46.135C179.74 46.135 179.113 46.024 178.549 45.802C177.985 45.58 177.502 45.262 177.1 44.848C176.704 44.434 176.395 43.933 176.173 43.345C175.957 42.757 175.849 42.097 175.849 41.365C175.849 40.639 175.957 39.982 176.173 39.394C176.395 38.806 176.704 38.308 177.1 37.9C177.502 37.492 177.985 37.177 178.549 36.955C179.113 36.733 179.74 36.622 180.43 36.622ZM180.43 44.425C181.198 44.425 181.765 44.167 182.131 43.651C182.503 43.135 182.689 42.379 182.689 41.383C182.689 40.387 182.503 39.628 182.131 39.106C181.765 38.584 181.198 38.323 180.43 38.323C179.65 38.323 179.071 38.587 178.693 39.115C178.321 39.637 178.135 40.393 178.135 41.383C178.135 42.373 178.321 43.129 178.693 43.651C179.071 44.167 179.65 44.425 180.43 44.425ZM194.636 36.766V46H193.277C192.983 46 192.797 45.865 192.719 45.595L192.566 44.857C192.188 45.241 191.771 45.553 191.315 45.793C190.859 46.027 190.322 46.144 189.704 46.144C189.2 46.144 188.753 46.06 188.363 45.892C187.979 45.718 187.655 45.475 187.391 45.163C187.127 44.851 186.926 44.482 186.788 44.056C186.656 43.624 186.59 43.15 186.59 42.634V36.766H188.813V42.634C188.813 43.198 188.942 43.636 189.2 43.948C189.464 44.254 189.857 44.407 190.379 44.407C190.763 44.407 191.123 44.323 191.459 44.155C191.795 43.981 192.113 43.744 192.413 43.444V36.766H194.636ZM198.937 38.368C199.225 37.816 199.567 37.384 199.963 37.072C200.359 36.754 200.827 36.595 201.367 36.595C201.793 36.595 202.135 36.688 202.393 36.874L202.249 38.539C202.219 38.647 202.174 38.725 202.114 38.773C202.06 38.815 201.985 38.836 201.889 38.836C201.799 38.836 201.664 38.821 201.484 38.791C201.31 38.761 201.139 38.746 200.971 38.746C200.725 38.746 200.506 38.782 200.314 38.854C200.122 38.926 199.948 39.031 199.792 39.169C199.642 39.301 199.507 39.463 199.387 39.655C199.273 39.847 199.165 40.066 199.063 40.312V46H196.84V36.766H198.145C198.373 36.766 198.532 36.808 198.622 36.892C198.712 36.97 198.772 37.114 198.802 37.324L198.937 38.368ZM210.326 46H207.896V32.986H210.326V46ZM222.177 42.931C222.309 42.931 222.426 42.982 222.528 43.084L223.482 44.119C222.954 44.773 222.303 45.274 221.529 45.622C220.761 45.97 219.837 46.144 218.757 46.144C217.791 46.144 216.921 45.979 216.147 45.649C215.379 45.319 214.722 44.86 214.176 44.272C213.63 43.684 213.21 42.982 212.916 42.166C212.628 41.35 212.484 40.459 212.484 39.493C212.484 38.515 212.64 37.621 212.952 36.811C213.264 35.995 213.702 35.293 214.266 34.705C214.836 34.117 215.514 33.661 216.3 33.337C217.086 33.007 217.956 32.842 218.91 32.842C219.858 32.842 220.698 32.998 221.43 33.31C222.168 33.622 222.795 34.03 223.311 34.534L222.501 35.659C222.453 35.731 222.39 35.794 222.312 35.848C222.24 35.902 222.138 35.929 222.006 35.929C221.916 35.929 221.823 35.905 221.727 35.857C221.631 35.803 221.526 35.74 221.412 35.668C221.298 35.59 221.166 35.506 221.016 35.416C220.866 35.326 220.692 35.245 220.494 35.173C220.296 35.095 220.065 35.032 219.801 34.984C219.543 34.93 219.243 34.903 218.901 34.903C218.319 34.903 217.785 35.008 217.299 35.218C216.819 35.422 216.405 35.722 216.057 36.118C215.709 36.508 215.439 36.988 215.247 37.558C215.055 38.122 214.959 38.767 214.959 39.493C214.959 40.225 215.061 40.876 215.265 41.446C215.475 42.016 215.757 42.496 216.111 42.886C216.465 43.276 216.882 43.576 217.362 43.786C217.842 43.99 218.358 44.092 218.91 44.092C219.24 44.092 219.537 44.074 219.801 44.038C220.071 44.002 220.317 43.945 220.539 43.867C220.767 43.789 220.98 43.69 221.178 43.57C221.382 43.444 221.583 43.291 221.781 43.111C221.841 43.057 221.904 43.015 221.97 42.985C222.036 42.949 222.105 42.931 222.177 42.931ZM237.27 39.493C237.27 40.447 237.111 41.332 236.793 42.148C236.481 42.958 236.037 43.66 235.461 44.254C234.885 44.848 234.192 45.313 233.382 45.649C232.572 45.979 231.672 46.144 230.682 46.144C229.698 46.144 228.801 45.979 227.991 45.649C227.181 45.313 226.485 44.848 225.903 44.254C225.327 43.66 224.88 42.958 224.562 42.148C224.244 41.332 224.085 40.447 224.085 39.493C224.085 38.539 224.244 37.657 224.562 36.847C224.88 36.031 225.327 35.326 225.903 34.732C226.485 34.138 227.181 33.676 227.991 33.346C228.801 33.01 229.698 32.842 230.682 32.842C231.342 32.842 231.963 32.92 232.545 33.076C233.127 33.226 233.661 33.442 234.147 33.724C234.633 34 235.068 34.339 235.452 34.741C235.842 35.137 236.172 35.581 236.442 36.073C236.712 36.565 236.916 37.099 237.054 37.675C237.198 38.251 237.27 38.857 237.27 39.493ZM234.795 39.493C234.795 38.779 234.699 38.14 234.507 37.576C234.315 37.006 234.042 36.523 233.688 36.127C233.334 35.731 232.902 35.428 232.392 35.218C231.888 35.008 231.318 34.903 230.682 34.903C230.046 34.903 229.473 35.008 228.963 35.218C228.459 35.428 228.027 35.731 227.667 36.127C227.313 36.523 227.04 37.006 226.848 37.576C226.656 38.14 226.56 38.779 226.56 39.493C226.56 40.207 226.656 40.849 226.848 41.419C227.04 41.983 227.313 42.463 227.667 42.859C228.027 43.249 228.459 43.549 228.963 43.759C229.473 43.969 230.046 44.074 230.682 44.074C231.318 44.074 231.888 43.969 232.392 43.759C232.902 43.549 233.334 43.249 233.688 42.859C234.042 42.463 234.315 41.983 234.507 41.419C234.699 40.849 234.795 40.207 234.795 39.493ZM244.97 46.027C244.868 46.303 244.703 46.51 244.475 46.648C244.253 46.786 244.025 46.855 243.791 46.855H242.846L248.102 33.409C248.198 33.157 248.345 32.965 248.543 32.833C248.741 32.695 248.972 32.626 249.236 32.626H250.19L244.97 46.027ZM258.965 46H256.535V32.986H258.965V46ZM264.309 34.912V38.521H268.863V40.384H264.309V44.065H270.087V46H261.879V32.986H270.087V34.912H264.309ZM284.362 39.493C284.362 40.447 284.203 41.332 283.885 42.148C283.573 42.958 283.129 43.66 282.553 44.254C281.977 44.848 281.284 45.313 280.474 45.649C279.664 45.979 278.764 46.144 277.774 46.144C276.79 46.144 275.893 45.979 275.083 45.649C274.273 45.313 273.577 44.848 272.995 44.254C272.419 43.66 271.972 42.958 271.654 42.148C271.336 41.332 271.177 40.447 271.177 39.493C271.177 38.539 271.336 37.657 271.654 36.847C271.972 36.031 272.419 35.326 272.995 34.732C273.577 34.138 274.273 33.676 275.083 33.346C275.893 33.01 276.79 32.842 277.774 32.842C278.434 32.842 279.055 32.92 279.637 33.076C280.219 33.226 280.753 33.442 281.239 33.724C281.725 34 282.16 34.339 282.544 34.741C282.934 35.137 283.264 35.581 283.534 36.073C283.804 36.565 284.008 37.099 284.146 37.675C284.29 38.251 284.362 38.857 284.362 39.493ZM281.887 39.493C281.887 38.779 281.791 38.14 281.599 37.576C281.407 37.006 281.134 36.523 280.78 36.127C280.426 35.731 279.994 35.428 279.484 35.218C278.98 35.008 278.41 34.903 277.774 34.903C277.138 34.903 276.565 35.008 276.055 35.218C275.551 35.428 275.119 35.731 274.759 36.127C274.405 36.523 274.132 37.006 273.94 37.576C273.748 38.14 273.652 38.779 273.652 39.493C273.652 40.207 273.748 40.849 273.94 41.419C274.132 41.983 274.405 42.463 274.759 42.859C275.119 43.249 275.551 43.549 276.055 43.759C276.565 43.969 277.138 44.074 277.774 44.074C278.41 44.074 278.98 43.969 279.484 43.759C279.994 43.549 280.426 43.249 280.78 42.859C281.134 42.463 281.407 41.983 281.599 41.419C281.791 40.849 281.887 40.207 281.887 39.493Z" fill="#282D33"/>
<path d="M80.2821 -57.336C23.3968 -114.221 -68.8326 -114.221 -125.718 -57.336C-182.603 -0.450668 -125.718 148.664 -125.718 148.664H80.2821C80.2821 148.664 137.167 -0.450668 80.2821 -57.336Z" fill="#1F2B77"/>
<path d="M83.9303 68.0697C-12.9764 -28.8371 -267 68.0697 -267 68.0697V419H83.9303C83.9303 419 180.837 164.976 83.9303 68.0697Z" fill="#1D2454"/>
<g clip-path="url(#clip1)">
<path d="M83.2889 5.56301C85.6058 4.4146 87.4931 2.32914 88.4861 -0.157911C89.2678 -2.11655 89.479 -4.43451 88.5847 -6.32974C87.6903 -8.23202 85.4861 -9.49316 83.5917 -8.8027C81.3664 -7.99247 79.7748 -4.85724 77.5143 -5.5336C76.4931 -5.8436 75.8241 -6.87929 74.9016 -7.43588C73.965 -7.99952 72.7255 -8.01361 71.8171 -7.39361C70.9016 -6.78065 70.3875 -5.54065 70.634 -4.42746C69.0424 -4.92065 67.2255 -5.19542 65.81 -4.28656C64.3945 -3.37769 63.9297 -0.848368 65.3382 0.0745888C63.7889 1.57527 62.472 3.52687 62.2889 5.74619C62.1058 7.96551 63.3805 10.4032 65.4368 10.8612C66.1833 11.0232 67.0213 10.9528 67.6128 11.4601C68.9086 12.5732 67.641 14.9898 68.5213 16.4835C69.3805 17.9419 71.6199 17.4205 72.6974 16.1312C73.7748 14.8419 74.2255 13.0805 75.2748 11.7701C76.2959 10.4948 77.7748 9.75506 79.2044 9.05756C80.3734 8.48688 81.5424 7.91619 82.7114 7.34551" fill="#5C3146"/>
<path d="M95.7465 27.7915C93.0915 26.8121 90.1549 28.1508 89.1901 30.7858C89.1479 30.8985 89.1197 31.0112 89.0845 31.124H89.0634C88.7957 31.8496 88.7887 32.6669 88.9859 33.5406C89.0422 33.8083 89.1126 34.0619 89.2112 34.3156C91.6056 41.2342 105.317 51.4149 111.366 53.2608C111.373 53.2608 111.782 53.4722 111.993 53.5497C114.211 54.3669 116.662 53.2467 117.479 51.0485C118.239 48.9842 117.282 46.6944 115.324 45.7503C105.423 39.1699 98.2394 29.7149 98.2394 29.7149L98.2112 29.7219C97.6338 28.8694 96.7957 28.179 95.7465 27.7915Z" fill="#FFAF8F"/>
<path d="M115.74 31.4058C115.74 31.4128 115.74 31.4199 115.74 31.4269H115.733C113.24 39.4728 109.5 47.3497 109.472 47.406C108.521 49.6535 109.578 52.2533 111.824 53.1974C114.071 54.1485 116.669 53.0917 117.613 50.8442C117.627 50.816 117.634 50.7878 117.648 50.7526C120.19 45.2431 123.465 32.8712 123.465 32.8712L123.444 32.8642C123.845 30.7364 122.451 28.6792 120.317 28.2705C118.198 27.876 116.514 29.2992 115.74 31.4058Z" fill="#FFAF8F"/>
<path d="M124.69 29.6585C124.268 30.5885 123.387 32.9135 123.345 33.1953C123.028 35.2455 121.113 36.6546 119.063 36.3376C117.275 36.0628 115.979 34.5762 115.88 32.836L115.852 32.8219C115.852 32.8219 114.352 21.5351 116.986 26.8826C117.127 27.1785 117.549 27.1926 117.725 26.9178C119.31 24.5364 124.824 16.4694 120.423 26.2203C120.423 26.2203 121.634 24.4942 122.711 23.1414C124.366 21.0771 125.732 20.8023 122.035 27.101C122.035 27.101 128.669 17.7094 123.704 28.1578C123.704 28.1648 128.585 21.1405 124.69 29.6585Z" fill="#FFAF8F"/>
<path d="M115.155 50.7244C115.077 51.0485 114.887 51.274 114.584 51.4078C114.401 51.4924 114.563 51.7531 114.739 51.6756C115.106 51.5065 115.359 51.2035 115.451 50.809C115.5 50.6117 115.197 50.5342 115.155 50.7244Z" fill="#5C3146"/>
<path d="M70.3594 0.97644H70.3522V0.990731C70.3594 0.990731 70.3594 0.983586 70.3594 0.97644Z" fill="#FFBA9A"/>
<path d="M84.1621 3.66779C84.141 3.52688 84.1057 3.39302 84.0776 3.25916C83.5494 3.56211 82.8452 3.73825 82.0987 3.92143C79.1762 4.61893 76.0424 3.29438 72.7184 4.56961C72.7325 6.11257 72.7536 7.65553 72.7677 9.19144C72.7677 9.43098 72.6832 9.75508 72.4508 9.73394C72.3241 9.71985 72.2325 9.60008 72.1621 9.49439C72.0142 9.26894 71.8663 9.04348 71.7255 8.81098C72.0705 9.62121 72.479 11.1642 71.8804 11.3896C71.3522 11.5869 70.3945 9.98758 70.1621 8.9378C70.0142 8.89553 69.8593 8.85326 69.6973 8.83916C68.3241 8.72644 67.1198 9.74803 67.0072 11.1149C66.8945 12.4817 67.9156 13.6864 69.2818 13.7992C69.655 13.8274 70.0142 13.771 70.3452 13.6512V21.0701C70.31 21.3167 70.2888 21.5703 70.2888 21.824C70.2888 24.9733 72.8452 27.5308 75.9931 27.5308C79.141 27.5308 81.6973 24.9733 81.6973 21.824C81.6973 21.5844 81.6762 21.3519 81.648 21.1194V17.949C84.648 16.9485 85.1128 13.8626 84.7114 11.1219C84.3241 8.38121 84.1621 3.66779 84.1621 3.66779Z" fill="#FFAF8F"/>
<path d="M70.7327 12.0237C70.9017 10.826 69.7749 9.87484 68.62 10.3398C68.4369 10.4173 68.5144 10.7203 68.7045 10.6428C69.5989 10.2835 70.5637 10.9458 70.4228 11.9392C70.3946 12.1364 70.7045 12.221 70.7327 12.0237Z" fill="#5C3146"/>
<path d="M69.9157 10.6499C69.4932 10.826 69.1622 11.0938 68.9087 11.4742C68.796 11.6433 69.0707 11.8054 69.1833 11.6363C69.3876 11.3333 69.6622 11.1008 70.0002 10.9599C70.1833 10.8754 70.0988 10.5654 69.9157 10.6499Z" fill="#5C3146"/>
<path opacity="0.35" d="M81.6551 17.949C81.6551 17.949 80.2255 18.4562 78.2959 18.2942L81.6551 21.2533V17.949Z" fill="#FC5151"/>
<path d="M79.3522 7.52874C79.2254 8.01488 79.2465 8.47988 79.4719 8.93079C79.5846 9.15625 79.7325 9.36056 79.9085 9.54375C79.986 9.62829 80.2184 9.75511 80.2606 9.85375C80.4649 10.3681 80.0282 10.7133 79.5423 10.6217C79.3451 10.5794 79.2606 10.8894 79.4578 10.9247C79.986 11.0303 80.6832 10.7556 80.7113 10.1356C80.7254 9.79738 80.493 9.65648 80.2677 9.44511C79.7325 8.95193 79.4719 8.32488 79.662 7.60624C79.7113 7.41602 79.4085 7.33147 79.3522 7.52874Z" fill="#5C3146"/>
<path opacity="0.35" d="M81.465 10.5935C81.5988 11.0515 82.2537 11.2699 82.9368 11.0726C83.6199 10.8753 84.0636 10.3469 83.9298 9.88194C83.796 9.42398 83.141 9.20557 82.4579 9.40285C81.7748 9.60012 81.3312 10.1285 81.465 10.5935Z" fill="#FC5151"/>
<path opacity="0.35" d="M73.4367 9.96642C73.3311 10.4314 73.81 10.9387 74.5001 11.0866C75.1902 11.2416 75.8381 10.981 75.9367 10.516C76.0424 10.051 75.5635 9.54369 74.8733 9.39573C74.1832 9.24778 73.5424 9.50141 73.4367 9.96642Z" fill="#FC5151"/>
<path d="M81.1552 8.33902C81.1552 8.74765 81.3171 9.07879 81.5213 9.07879C81.7256 9.07879 81.8875 8.74765 81.8875 8.33902C81.8875 7.93038 81.7185 7.59924 81.5213 7.59924C81.3171 7.59924 81.1552 7.93038 81.1552 8.33902Z" fill="#5C3146"/>
<path d="M76.8523 8.33902C76.8523 8.74765 76.6903 9.07879 76.4861 9.07879C76.2818 9.07879 76.1199 8.74765 76.1199 8.33902C76.1199 7.93038 76.2818 7.59924 76.4861 7.59924C76.6903 7.59924 76.8523 7.93038 76.8523 8.33902Z" fill="#5C3146"/>
<path d="M75.1973 6.42965C75.5142 6.47193 75.817 6.2042 76.0987 6.08443C76.4085 5.95761 76.6973 5.92943 76.9649 5.70397C76.8733 5.75329 76.7888 5.80965 76.6973 5.85897C77.0212 5.7392 77.3874 5.55602 77.2606 5.14033C77.1409 4.75988 76.5987 4.59783 76.2466 4.63306C75.5916 4.69647 74.5212 5.2742 74.7325 6.07033C74.7888 6.30284 74.986 6.40852 75.1973 6.42965Z" fill="#5C3146"/>
<path d="M83.0422 6.59874C83.4225 6.04215 82.6901 5.37283 82.2535 5.14033C82.007 5.00647 81.7253 4.91488 81.4436 4.93602C81.162 4.95715 80.8028 5.04874 80.676 5.32352C80.3732 5.95056 81.2324 6.16193 81.6338 6.3592C82.0493 6.56352 82.6408 7.17647 83.0422 6.59874Z" fill="#5C3146"/>
<path d="M66.3522 31.751C67.1902 28.8553 65.5423 25.8257 62.6691 24.9944C62.5494 24.9591 62.4226 24.938 62.3029 24.9098L62.2959 24.8887C61.5071 24.6632 60.6409 24.7126 59.7184 24.9873C59.4438 25.0648 59.1691 25.1635 58.9085 25.2832C51.7325 28.3621 41.9438 43.7283 40.4438 50.3017C40.4438 50.3087 40.2536 50.7596 40.1832 50.9921C39.479 53.4158 40.8592 55.9451 43.2607 56.6356C45.5142 57.2908 47.8733 56.0931 48.7325 53.9372C54.986 42.911 64.493 34.548 64.493 34.548L64.486 34.5198C65.3522 33.8364 66.0212 32.8923 66.3522 31.751Z" fill="#FFAF8F"/>
<path d="M55.7959 44.3624C61.6198 38.5146 66.4367 36.0065 66.4367 36.0065L65.31 34.2169C66.2395 33.4842 66.9578 32.4626 67.317 31.2296C68.2184 28.1085 66.4438 24.8535 63.3522 23.9587C63.2184 23.9235 63.0916 23.8953 62.9578 23.8671L62.9508 23.846C62.0987 23.5994 61.1691 23.6557 60.1762 23.9587C59.8804 24.0432 59.5846 24.1489 59.3029 24.2757C55.7677 25.7905 51.648 30.0742 48.0635 34.9496C48.0635 34.9496 50.2325 39.7617 55.7959 44.3624Z" fill="#FF5E69"/>
<path d="M49.6268 32.9417C51.8029 36.4362 54.6902 39.6419 57.6479 42.4813C57.7958 42.6222 58.0141 42.3967 57.8663 42.2628C54.9226 39.4376 52.0493 36.2531 49.8944 32.7867C49.7958 32.6176 49.5212 32.7726 49.6268 32.9417Z" fill="white"/>
<path d="M98.3101 31.1874C98.3171 29.1301 97.2749 27.3124 95.6833 26.2344C92.2044 23.3317 86.2467 22.0283 81.7537 21.4646C81.7537 21.4646 80.0143 24.6069 76.0214 24.5998H76.0143V24.5928C75.9861 24.5928 75.965 24.5928 75.9368 24.5998C75.9087 24.5998 75.8875 24.5999 75.8594 24.5928V24.5998H75.8523C71.8523 24.5928 70.134 21.4435 70.134 21.4435C65.634 21.986 59.6692 23.2612 56.1833 26.1569C54.5918 27.2208 53.5425 29.0385 53.5425 31.0958C53.5425 31.899 53.7045 32.6669 53.9861 33.3715L59.6763 38.5217L59.3735 65.0831C59.3735 65.0831 64.134 66.8938 75.7608 66.9501C75.789 66.9501 75.8171 66.9501 75.8453 66.9501C75.8735 66.9501 75.9016 66.9501 75.9298 66.9501C87.5636 66.9431 92.3242 65.1535 92.3242 65.1535L92.2678 40.0646L97.8594 33.463C98.1481 32.7585 98.3101 31.9905 98.3101 31.1874Z" fill="#FF5E69"/>
<path d="M67.9507 22.2608C69.3169 25.9385 73.5704 27.7985 77.2958 27.1574C77.5 27.1222 77.4155 26.8051 77.2113 26.8403C73.676 27.4533 69.5634 25.6778 68.2676 22.1762C68.1972 21.979 67.8803 22.0635 67.9507 22.2608Z" fill="white"/>
<path d="M80.1057 26.2274C81.9296 25.4594 83.3169 24.0433 84.0423 22.2044C84.1198 22.0071 83.8029 21.9226 83.7254 22.1198C83.0493 23.8389 81.7254 25.1987 80.0212 25.9174C79.824 25.9878 79.9085 26.3119 80.1057 26.2274Z" fill="white"/>
<path d="M61.0636 44.919C61.0565 44.919 61.0495 44.926 61.0425 44.926V44.919C52.7608 47.0397 44.0706 47.8992 44.0706 47.8992L44.0777 47.9837C44.0213 47.9908 43.958 47.9908 43.9016 48.0049C41.4509 48.3783 39.7678 50.6681 40.141 53.1199C40.5143 55.5717 42.803 57.2556 45.2537 56.8822C45.2889 56.8751 45.3171 56.8681 45.3453 56.861C51.458 56.1354 63.8946 52.4013 63.8946 52.4013L63.8875 52.3801C65.9439 51.5981 66.9791 49.2942 66.1974 47.2369C65.4157 45.1726 63.2467 44.3624 61.0636 44.919Z" fill="#FFAF8F"/>
<path d="M95.9721 44.3624C90.1481 40.0576 85.3242 35.619 85.3242 35.619L86.4509 34.2099C85.5214 33.4772 84.8031 32.4556 84.4439 31.2226C83.5425 28.1015 85.3171 24.8465 88.4087 23.9517C88.5425 23.9165 88.6693 23.8883 88.8031 23.8601L88.8101 23.839C89.6622 23.5924 90.5918 23.6487 91.5847 23.9517C91.8805 24.0362 92.1763 24.1419 92.458 24.2687C95.9932 25.7835 100.113 30.0671 103.697 34.9426C103.704 34.9497 101.535 39.7617 95.9721 44.3624Z" fill="#FF5E69"/>
<path d="M101.866 32.7867C99.6831 36.2953 96.8662 39.5997 93.8874 42.4601C93.7395 42.601 93.9648 42.8194 94.1057 42.6785C97.0986 39.804 99.9367 36.4785 102.127 32.9417C102.239 32.7726 101.972 32.6176 101.866 32.7867Z" fill="white"/>
<path d="M74.7042 52.3097L69.1761 52.9156C68.2817 53.0143 67.4719 52.3661 67.3733 51.4713L66 38.9022C65.9014 38.0074 66.5493 37.1972 67.4437 37.0986L72.9719 36.4926C73.8662 36.394 74.6761 37.0422 74.7747 37.937L76.1479 50.5061C76.2465 51.4079 75.5986 52.2111 74.7042 52.3097Z" fill="#E0E8ED"/>
<path opacity="0.15" d="M74.8305 38.4503L66.0586 39.4117L67.3224 50.9541L76.0943 49.9927L74.8305 38.4503Z" fill="#C2B0CF"/>
<path d="M71.7325 41.819C71.6762 41.2906 71.1973 40.9031 70.6692 40.9595C70.141 41.0159 69.7537 41.4949 69.81 42.0233C69.8663 42.5518 70.3452 42.9393 70.8734 42.8829C71.4086 42.8265 71.7889 42.3474 71.7325 41.819Z" fill="#C2B0CF"/>
<path d="M67.9296 38.2329C67.9014 37.9652 67.662 37.7749 67.3944 37.8031C67.1268 37.8313 66.9366 38.0708 66.9648 38.3386C66.993 38.6063 67.2324 38.7965 67.5 38.7684C67.7676 38.7402 67.9648 38.5006 67.9296 38.2329Z" fill="#6575CF"/>
<path d="M68.6832 38.1554C68.6762 38.0638 68.5917 38.0004 68.5072 38.0145C68.4156 38.0215 68.3523 38.1061 68.3663 38.1906C68.3734 38.2822 68.4579 38.3456 68.5424 38.3315C68.6269 38.3174 68.6903 38.2399 68.6832 38.1554Z" fill="#6575CF"/>
<path d="M67.3663 51.1683L76.1269 50.2101" stroke="#C2B0CF" stroke-width="0.3481" stroke-miterlimit="10"/>
<path d="M66.0916 39.5152L74.8521 38.557" stroke="#C2B0CF" stroke-width="0.3481" stroke-miterlimit="10"/>
<path d="M66.5494 43.6649C65.6128 43.7705 63.2113 44.3483 61.2958 44.8978C59.1339 45.2078 57.6339 47.2158 57.9437 49.3787C58.2536 51.5135 60.2113 53.0071 62.3451 52.7394V52.7465C62.3451 52.7465 66.2254 52.4928 69.3381 51.7671C73.2888 50.8442 72.8311 49.6606 72.8311 49.6606C72.8311 49.6606 74.3381 49.0335 73.8663 48.0753C73.8663 48.0753 75.1057 47.3919 74.3522 46.6451C74.3522 46.6451 75.6339 44.771 73.0423 45.5178C70.7325 46.1801 67.8381 46.0251 67.2395 45.8771C66.9789 45.8067 66.7113 45.4967 66.6832 45.243L66.5494 43.6649Z" fill="#FFAF8F"/>
<path d="M74.3946 46.3774C73.0918 47.1594 71.4157 47.3708 69.9228 47.4694C69.7326 47.4835 69.7326 47.7724 69.9228 47.7583C71.465 47.6597 73.1904 47.4412 74.5354 46.631C74.7045 46.5324 74.5566 46.2787 74.3946 46.3774Z" fill="#5C3146"/>
<path d="M73.9438 47.8781C72.6691 48.4699 71.2748 48.6742 69.8804 48.7306C69.6903 48.7376 69.6903 49.0335 69.8804 49.0194C71.3241 48.956 72.7677 48.7376 74.0917 48.1247C74.2607 48.0542 74.1128 47.8006 73.9438 47.8781Z" fill="#5C3146"/>
<path d="M72.993 49.3576C71.993 49.8367 71.0001 49.9424 69.9085 50.0128C69.7254 50.0269 69.7184 50.3158 69.9085 50.3017C71.0564 50.2242 72.0916 50.1115 73.1409 49.6113C73.3099 49.5267 73.1621 49.2731 72.993 49.3576Z" fill="#5C3146"/>
<path d="M91.9576 35.7669C92.0421 38.0849 92.1267 40.3958 92.2112 42.7138C92.2182 42.911 92.5281 42.911 92.521 42.7138C92.4365 40.3958 92.352 38.0849 92.2675 35.7669C92.2605 35.5696 91.9506 35.5696 91.9576 35.7669Z" fill="white"/>
<path d="M59.141 35.626C59.2255 37.944 59.31 40.2549 59.3945 42.5728C59.4016 42.7701 59.7114 42.7701 59.7044 42.5728C59.6199 40.2549 59.5354 37.944 59.4508 35.626C59.4438 35.4217 59.1339 35.4217 59.141 35.626Z" fill="white"/>
<path d="M80.0001 11.8405C79.2748 11.918 78.8875 11.6926 78.3734 11.3614C77.81 10.9951 77.2959 10.8119 76.8593 11.0937C75.8663 11.7348 76.3522 13.0171 77.2325 13.5948C78.1762 14.2148 79.7466 14.1867 80.5987 13.4892C81.4508 12.7917 80.8734 11.756 80.0001 11.8405Z" fill="#F7F7F7"/>
<path d="M76.4227 11.6785C77.0424 12.3196 77.7537 12.6719 78.648 12.7565C78.7325 12.7635 78.7537 12.6226 78.6692 12.6015C77.9086 12.4183 77.141 12.059 76.5353 11.5658C76.4579 11.5094 76.3523 11.608 76.4227 11.6785Z" fill="#5C3146"/>
</g>
<path opacity="0.03" d="M416.5 63L438.584 50.25V24.75L416.5 12L394.416 24.75V50.25L416.5 63Z" fill="white"/>
<path opacity="0.3" d="M408.5 32L414.995 28.25V20.75L408.5 17L402.005 20.75V28.25L408.5 32Z" fill="white"/>
<path opacity="0.8" d="M367.5 50L372.263 47.25V41.75L367.5 39L362.737 41.75V47.25L367.5 50Z" fill="white"/>
<path d="M357.5 19L361.397 16.75V12.25L357.5 10L353.603 12.25V16.75L357.5 19Z" fill="white"/>
<path opacity="0.2" d="M498 40L487.608 34V22L498 16L508.392 22V34L498 40Z" fill="white"/>
<path opacity="0.03" d="M476.5 56L454.416 43.25V17.75L476.5 5L498.584 17.75V43.25L476.5 56Z" fill="white"/>
<path opacity="0.8" d="M545 41L538.938 37.5V30.5L545 27L551.062 30.5V37.5L545 41Z" fill="white"/>
<path opacity="0.1" d="M562.5 19L558.603 16.75V12.25L562.5 10L566.397 12.25V16.75L562.5 19Z" fill="white"/>
</g>
<defs>
<clipPath id="clip0">
<rect width="960" height="60" fill="white"/>
</clipPath>
<clipPath id="clip1">
<rect width="116" height="139" fill="white" transform="translate(40 -9)"/>
</clipPath>
</defs>
</svg>
