<svg width="320" height="60" viewBox="0 0 320 60" fill="none" xmlns="http://www.w3.org/2000/svg">
<g clip-path="url(#clip0)">
<rect width="160" height="60" fill="#1C2455"/>
<path d="M-155.311 -80.3107C-36.7598 -198.862 274 -80.3107 274 -80.3107V349H-155.311C-155.311 349 -273.862 38.2402 -155.311 -80.3107Z" fill="#F8F8F9"/>
<path d="M125.282 58C182.168 114.885 274.397 114.885 331.282 58C388.168 1.11465 331.282 -148 331.282 -148H125.282C125.282 -148 68.397 1.11465 125.282 58Z" fill="#1C2455"/>
<path d="M120.282 25.2824C177.168 -31.603 326.282 25.2824 326.282 25.2824V231.282H120.282C120.282 231.282 63.397 82.1677 120.282 25.2824Z" fill="#141A42"/>
<path d="M135.83 24.1758C136.149 24.9276 137.153 25.3919 138.024 25.1885C138.895 24.9851 139.514 24.1404 139.377 23.3444C140.659 23.4771 141.982 22.6722 142.309 21.5533C142.641 20.4389 141.937 19.152 140.752 18.7009C141.955 17.6219 142.548 15.9281 141.911 14.5174C141.274 13.1066 139.24 12.2487 137.727 12.9519C137.812 10.9927 135.937 9.13536 133.752 9.00711C131.563 8.87886 129.431 10.4974 129.228 12.4477C128.817 11.488 127.198 11.2935 126.34 11.9789C125.482 12.66 125.385 13.8938 125.876 14.8225C123.793 15.6274 123.099 18.3958 124.598 19.9171C123.537 20.4787 123.444 21.9204 124.12 22.8402C124.797 23.7601 127.313 24.3792 129.542 23.822C131.669 23.2913 132.456 22.3803 133.721 20.7573" fill="#FF5E69"/>
<path d="M121.366 31.4948C122.958 30.9243 124.709 31.7469 125.275 33.3257C125.297 33.392 125.315 33.4583 125.337 33.5291H125.35C125.505 33.9625 125.505 34.4534 125.381 34.9796C125.346 35.1388 125.301 35.2936 125.244 35.444C123.767 39.57 115.497 45.5756 111.867 46.6414C111.862 46.6414 111.619 46.7652 111.491 46.8094C110.16 47.2871 108.696 46.6016 108.223 45.2793C107.781 44.0366 108.369 42.679 109.545 42.1217C115.506 38.2389 119.862 32.6269 119.862 32.6269L119.875 32.6314C120.229 32.1272 120.738 31.7159 121.366 31.4948Z" fill="#FFAF8F"/>
<path d="M102.536 37.0006C102.54 37.0006 102.54 37.0051 102.545 37.0095L102.549 37.0051C106.777 39.7513 111.513 41.9404 111.548 41.9537C112.848 42.6259 113.357 44.2179 112.685 45.5181C112.013 46.8183 110.421 47.3268 109.12 46.6546C109.103 46.6458 109.09 46.6369 109.072 46.6281C105.791 45.0714 99.5464 40.6358 99.5464 40.6358L99.5553 40.627C98.5514 39.8044 98.4099 38.3229 99.2325 37.319C100.051 36.3196 101.373 36.3284 102.536 37.0006Z" fill="#FFAF8F"/>
<path d="M110.2 45.6552C110.359 45.7746 110.527 45.81 110.717 45.7569C110.832 45.7259 110.881 45.9028 110.766 45.9338C110.531 46.0001 110.302 45.9603 110.103 45.8144C110.01 45.7436 110.103 45.5844 110.2 45.6552Z" fill="#5C3146"/>
<path d="M136.825 15.8176H136.83V15.8264C136.83 15.822 136.825 15.822 136.825 15.8176Z" fill="#FFBA9A"/>
<path d="M128.255 17.4848C128.269 17.3964 128.286 17.3124 128.308 17.2283C128.636 17.4141 129.073 17.5291 129.533 17.6396C131.351 18.073 133.297 17.2505 135.357 18.0421C135.348 18.9973 135.335 19.9569 135.326 20.9122C135.326 21.0581 135.375 21.2615 135.525 21.2483C135.605 21.2394 135.662 21.1687 135.702 21.0979C135.795 20.9564 135.884 20.8149 135.976 20.6734C135.764 21.1731 135.508 22.1327 135.879 22.2743C136.206 22.3981 136.799 21.4075 136.945 20.753C137.038 20.7264 137.131 20.6999 137.232 20.6955C138.086 20.6247 138.833 21.2571 138.904 22.1062C138.975 22.9553 138.342 23.7027 137.489 23.7734C137.254 23.7911 137.033 23.7557 136.83 23.6806V28.2887C136.852 28.4434 136.865 28.5982 136.865 28.7574C136.865 30.7121 135.278 32.2997 133.323 32.2997C131.368 32.2997 129.781 30.7121 129.781 28.7574C129.781 28.6071 129.794 28.4611 129.812 28.3196V26.3517C127.95 25.7325 127.663 23.8177 127.906 22.115C128.154 20.4124 128.255 17.4848 128.255 17.4848Z" fill="#FFAF8F"/>
<path d="M136.595 22.6722C136.494 21.9293 137.192 21.3411 137.904 21.6285C138.019 21.6728 137.966 21.8629 137.851 21.8143C137.294 21.5887 136.697 22.0044 136.781 22.6191C136.799 22.7385 136.613 22.7916 136.595 22.6722Z" fill="#5C3146"/>
<path d="M137.104 21.8187C137.365 21.9293 137.569 22.0929 137.728 22.3273C137.798 22.429 137.63 22.5263 137.56 22.4246C137.431 22.2344 137.263 22.0929 137.051 22.0045C136.941 21.9602 136.989 21.7701 137.104 21.8187Z" fill="#5C3146"/>
<path opacity="0.35" d="M129.812 26.3516C129.812 26.3516 130.701 26.6656 131.899 26.5683L129.812 28.408V26.3516Z" fill="#FC5151"/>
<path d="M131.24 19.8862C131.32 20.1869 131.306 20.4743 131.169 20.7574C131.099 20.8989 131.006 21.0227 130.9 21.1377C130.851 21.1907 130.705 21.2659 130.683 21.3323C130.559 21.6551 130.829 21.8718 131.134 21.8099C131.253 21.7878 131.306 21.9735 131.187 21.9956C130.86 22.062 130.426 21.8895 130.409 21.5047C130.4 21.2969 130.546 21.2084 130.683 21.0802C131.015 20.775 131.178 20.3859 131.059 19.9392C131.023 19.8154 131.209 19.7623 131.24 19.8862Z" fill="#5C3146"/>
<path opacity="0.35" d="M129.931 21.7833C129.847 22.0708 129.44 22.199 129.016 22.0796C128.596 21.9558 128.317 21.6285 128.401 21.3411C128.485 21.0536 128.892 20.9254 129.317 21.0448C129.737 21.1686 130.011 21.4959 129.931 21.7833Z" fill="#FC5151"/>
<path opacity="0.35" d="M134.915 21.3986C134.977 21.6905 134.681 22.0001 134.252 22.0929C133.823 22.1858 133.425 22.0266 133.358 21.7391C133.296 21.4473 133.593 21.1377 134.022 21.0448C134.451 20.9475 134.853 21.1067 134.915 21.3986Z" fill="#FC5151"/>
<path d="M130.121 20.3859C130.121 20.6379 130.02 20.8458 129.892 20.8458C129.763 20.8458 129.662 20.6424 129.662 20.3859C129.662 20.1294 129.763 19.9259 129.892 19.9259C130.02 19.9259 130.121 20.1294 130.121 20.3859Z" fill="#5C3146"/>
<path d="M132.793 20.3859C132.793 20.6379 132.894 20.8458 133.023 20.8458C133.151 20.8458 133.253 20.6424 133.253 20.3859C133.253 20.1294 133.151 19.9259 133.023 19.9259C132.894 19.9259 132.793 20.1294 132.793 20.3859Z" fill="#5C3146"/>
<path d="M133.818 19.2051C133.62 19.2317 133.434 19.0636 133.261 18.9929C133.071 18.9132 132.885 18.8956 132.722 18.7585C132.775 18.7894 132.832 18.8204 132.885 18.8558C132.686 18.7806 132.456 18.6656 132.536 18.4091C132.607 18.1747 132.947 18.073 133.164 18.0951C133.571 18.1349 134.234 18.4931 134.106 18.9884C134.075 19.1211 133.951 19.1874 133.818 19.2051Z" fill="#FF5E69"/>
<path d="M128.95 19.3068C128.711 18.9619 129.166 18.5462 129.44 18.4002C129.595 18.3162 129.768 18.2587 129.94 18.272C130.117 18.2853 130.338 18.3428 130.418 18.5152C130.603 18.9044 130.068 19.0371 129.825 19.1609C129.564 19.2847 129.202 19.665 128.95 19.3068Z" fill="#FF5E69"/>
<path d="M131.285 22.6324C131.643 22.6014 131.926 22.4334 132.213 22.2079C132.47 22.0044 132.766 21.7126 133.093 21.9204C133.695 22.3007 133.27 23.2206 132.899 23.5523C132.395 24.0078 131.616 24.1095 131.055 23.7557C130.378 23.3311 130.467 22.5528 131.285 22.6324Z" fill="#5C3146"/>
<path d="M131.674 23.6982C131.824 23.2736 132.107 22.911 132.461 22.6943C132.744 22.5174 133.071 22.4422 133.394 22.4644C133.407 22.8668 133.142 23.3356 132.903 23.5523C132.554 23.8662 132.08 24.0033 131.634 23.9503C131.634 23.9458 131.629 23.937 131.629 23.9326C131.625 23.8486 131.647 23.7734 131.674 23.6982Z" fill="#FF5E69"/>
<path d="M135.092 84.5189C135.092 84.5189 134.668 63.2031 134.663 63.0439C134.615 60.5763 136.578 58.5331 139.046 58.4845C141.513 58.4358 143.556 60.3994 143.605 62.867C143.605 62.9643 143.684 83.8733 143.684 83.8733C143.707 84.0325 143.72 84.1917 143.724 84.3553C143.773 86.7389 141.876 88.7113 139.492 88.76C137.162 88.8086 135.229 86.9954 135.101 84.6825H135.092L135.088 84.5322C135.092 84.5233 135.092 84.5233 135.092 84.5189Z" fill="#3E488A"/>
<path d="M128.291 57.056H133.358H133.451H138.519H143.636V62.5398C143.636 64.2822 142.526 65.9583 140.894 66.5685L134.831 68.8416H133.451H133.358H131.979L125.916 66.5685C124.289 65.9538 123.174 64.2778 123.174 62.5398V57.056H128.291Z" fill="#3E488A"/>
<path d="M143.295 62.1594C141.473 61.8808 139.965 60.2976 139.572 58.5287C139.545 58.4093 139.731 58.3562 139.757 58.4756C140.142 60.1871 141.588 61.6995 143.348 61.9693C143.468 61.9914 143.414 62.1771 143.295 62.1594Z" fill="white"/>
<path d="M141.345 63.1058C139.7 62.1329 138.395 60.5276 138.02 58.6304C137.997 58.511 138.183 58.4579 138.205 58.5773C138.577 60.4259 139.841 61.987 141.442 62.9334C141.548 63.0041 141.451 63.1678 141.345 63.1058Z" fill="white"/>
<path d="M131.718 84.5189C131.718 84.5189 132.142 63.2031 132.147 63.0439C132.195 60.5763 130.232 58.5331 127.764 58.4845C125.297 58.4358 123.254 60.3994 123.205 62.867C123.205 62.9643 123.126 83.8733 123.126 83.8733C123.103 84.0325 123.09 84.1917 123.086 84.3553C123.037 86.7389 124.934 88.7113 127.318 88.76C129.648 88.8086 131.581 86.9954 131.709 84.6825H131.718L131.722 84.5322C131.718 84.5233 131.718 84.5233 131.718 84.5189Z" fill="#3E488A"/>
<path d="M123.462 61.9693C125.222 61.6995 126.668 60.1871 127.052 58.4756C127.079 58.3562 127.265 58.4049 127.238 58.5287C126.84 60.2976 125.337 61.8808 123.515 62.1594C123.391 62.1771 123.338 61.9914 123.462 61.9693Z" fill="white"/>
<path d="M125.367 62.9378C126.973 61.9914 128.237 60.4303 128.605 58.5818C128.631 58.4579 128.817 58.511 128.79 58.6348C128.41 60.5276 127.105 62.1374 125.465 63.1103C125.354 63.1678 125.257 63.0041 125.367 62.9378Z" fill="white"/>
<path d="M131.386 60.3507C131.386 59.9792 131.687 59.6785 132.058 59.6785C132.43 59.6785 132.73 59.9792 132.73 60.3507C132.73 60.7222 132.43 61.0229 132.058 61.0229C131.687 61.0229 131.386 60.7222 131.386 60.3507Z" fill="#FFD7A6"/>
<path d="M133.757 58.8118C133.717 61.4652 133.726 64.1186 133.681 66.772C133.681 66.8958 133.487 66.8958 133.487 66.772C133.527 64.1186 133.518 61.4652 133.562 58.8118C133.566 58.6879 133.761 58.6879 133.757 58.8118Z" fill="white"/>
<path d="M139.315 34.9177C138.793 33.1178 139.819 31.2427 141.601 30.7253C141.677 30.7032 141.752 30.6899 141.827 30.6723L141.831 30.659C142.322 30.5175 142.862 30.5484 143.432 30.7209C143.605 30.7695 143.773 30.8315 143.936 30.9066C148.394 32.8171 154.47 42.3517 155.403 46.4335C155.403 46.438 155.523 46.7166 155.567 46.8625C156 48.3661 155.147 49.936 153.656 50.365C152.254 50.7719 150.791 50.0289 150.26 48.6889C146.377 41.8431 140.474 36.6513 140.474 36.6513L140.478 36.6336C139.934 36.2135 139.519 35.6253 139.315 34.9177Z" fill="#FFAF8F"/>
<path d="M145.869 42.7453C142.76 38.9288 139.956 36.4655 139.956 36.4655L139.961 36.4478C139.386 35.9923 138.935 35.3599 138.714 34.5949C138.152 32.6579 139.253 30.6369 141.177 30.0841C141.256 30.062 141.34 30.0443 141.42 30.0266L141.424 30.0133C141.951 29.8585 142.534 29.8939 143.149 30.0796C143.335 30.1327 143.516 30.199 143.689 30.2786C145.882 31.2206 148.442 33.874 150.667 36.9033C150.671 36.9033 149.327 39.8884 145.869 42.7453Z" fill="#A6C0FF"/>
<path d="M149.699 35.6562C148.385 37.7657 146.678 39.7071 144.887 41.423C144.799 41.507 144.662 41.3743 144.75 41.2859C146.528 39.5789 148.226 37.6507 149.531 35.5589C149.597 35.4528 149.765 35.5501 149.699 35.6562Z" fill="white"/>
<path d="M119.468 34.5639C119.464 33.2858 120.114 32.1581 121.1 31.4904C123.258 29.686 126.96 28.8812 129.75 28.5318C129.75 28.5318 130.829 30.4821 133.31 30.4776H133.314V30.4732C133.332 30.4732 133.345 30.4732 133.363 30.4776C133.381 30.4776 133.394 30.4776 133.412 30.4732V30.4776H133.416C135.897 30.4732 136.967 28.5185 136.967 28.5185C139.762 28.8546 143.463 29.6462 145.63 31.4417C146.616 32.1051 147.271 33.2284 147.271 34.5064C147.271 35.0061 147.174 35.4838 146.992 35.9171L143.459 39.0438L143.645 57.7548C143.645 57.7548 140.691 58.8825 133.469 58.9134C133.451 58.9134 133.434 58.9134 133.416 58.9134C133.398 58.9134 133.381 58.9134 133.363 58.9134C126.142 58.909 123.183 57.799 123.183 57.799L123.307 39.088L119.751 35.9746C119.57 35.5412 119.468 35.0636 119.468 34.5639Z" fill="#A6C0FF"/>
<path d="M138.32 29.0271C137.471 31.3135 134.831 32.4633 132.518 32.0653C132.39 32.0432 132.443 31.8486 132.571 31.8707C134.769 32.251 137.316 31.1454 138.125 28.9741C138.17 28.8502 138.364 28.9033 138.32 29.0271Z" fill="white"/>
<path d="M130.776 31.4904C129.644 31.0172 128.782 30.1372 128.335 28.9918C128.286 28.8679 128.485 28.8149 128.529 28.9387C128.95 30.0089 129.772 30.8492 130.829 31.2958C130.948 31.3445 130.895 31.539 130.776 31.4904Z" fill="white"/>
<path d="M127.216 38.9067V51.223C127.216 51.7758 127.663 52.2224 128.216 52.2224H137.082C137.635 52.2224 138.081 51.7758 138.081 51.223V38.9067C138.081 38.3539 137.635 37.9072 137.082 37.9072H128.216C127.663 37.9072 127.216 38.3539 127.216 38.9067Z" fill="#F2F6FC"/>
<path d="M138.081 40.2433V49.884H127.216V40.2433H138.081Z" fill="#D6E5FC"/>
<path d="M131.873 42.564C131.873 42.0864 132.258 41.7017 132.735 41.7017C133.213 41.7017 133.598 42.0864 133.598 42.564C133.598 43.0416 133.213 43.4264 132.735 43.4264C132.258 43.4264 131.873 43.0416 131.873 42.564Z" fill="white"/>
<path d="M142.132 44.2622C142.136 44.2622 142.141 44.2666 142.145 44.2666V44.2622C147.403 45.0096 152.82 44.9521 152.82 44.9521V45.0051C152.856 45.0051 152.891 45.0007 152.931 45.0051C154.47 45.0715 155.664 46.3672 155.597 47.9062C155.531 49.4452 154.235 50.6392 152.696 50.5729C152.674 50.5729 152.657 50.5685 152.639 50.5685C148.814 50.5331 140.885 49.0693 140.885 49.0693L140.889 49.056C139.567 48.7111 138.771 47.3623 139.116 46.04C139.456 44.7133 140.748 44.0676 142.132 44.2622Z" fill="#FFAF8F"/>
<path d="M138.077 43.7226C138.665 43.727 140.186 43.9172 141.402 44.125C142.76 44.1693 143.821 45.3058 143.773 46.6635C143.728 48.0035 142.618 49.0516 141.283 49.0339V49.0383C141.283 49.0383 138.868 49.1444 136.901 48.9056C134.398 48.6049 134.601 47.8398 134.601 47.8398C134.601 47.8398 133.628 47.5568 133.858 46.9332C133.858 46.9332 133.044 46.5971 133.465 46.0842C133.465 46.0842 132.545 45.0139 134.194 45.297C135.667 45.549 137.705 45.2837 138.09 45.0361C138.232 44.9432 138.325 44.7574 138.099 44.6911L138.077 43.7226Z" fill="#FFAF8F"/>
<path d="M133.531 46.0002C134.384 46.3938 135.437 46.407 136.361 46.3628C136.485 46.3584 136.485 46.5485 136.361 46.5574C135.402 46.6016 134.323 46.5751 133.434 46.1682C133.323 46.1151 133.42 45.9515 133.531 46.0002Z" fill="#5C3146"/>
<path d="M133.889 46.889C134.725 47.1676 135.605 47.203 136.476 47.1455C136.6 47.1367 136.6 47.3313 136.476 47.3401C135.587 47.3976 134.69 47.3622 133.836 47.0748C133.721 47.035 133.774 46.8492 133.889 46.889Z" fill="#5C3146"/>
<path d="M134.575 47.7337C135.229 47.9637 135.861 47.9637 136.547 47.9327C136.671 47.9283 136.671 48.1185 136.547 48.1273C135.839 48.1583 135.198 48.1583 134.526 47.9239C134.407 47.8797 134.46 47.6939 134.575 47.7337Z" fill="#5C3146"/>
<path d="M120.269 42.4269C123.612 38.8182 126.57 36.5363 126.57 36.5363L126.566 36.5186C127.172 36.0985 127.658 35.497 127.928 34.7497C128.609 32.8525 127.641 30.7651 125.761 30.0885C125.682 30.062 125.602 30.0398 125.522 30.0133L125.518 30C125.001 29.8143 124.421 29.8099 123.793 29.9602C123.603 30 123.422 30.0531 123.241 30.1239C120.99 30.9199 118.27 33.4097 115.855 36.2931C115.851 36.2886 117.001 39.3533 120.269 42.4269Z" fill="#A6C0FF"/>
<path d="M117.072 35.015C118.239 37.1908 119.809 39.2207 121.476 41.0383C121.56 41.1312 121.423 41.2682 121.339 41.1754C119.663 39.3489 118.08 37.3014 116.903 35.1123C116.846 35.0018 117.01 34.9045 117.072 35.015Z" fill="white"/>
<path d="M154.572 47.716C154.594 47.9814 154.51 48.2158 154.333 48.4148C154.249 48.5076 154.116 48.3705 154.196 48.2777C154.342 48.114 154.395 47.9283 154.377 47.716C154.368 47.5922 154.563 47.5922 154.572 47.716Z" fill="#5C3146"/>
<path d="M123.338 37.9161C123.338 38.6679 123.338 39.4241 123.338 40.1759C123.338 40.2997 123.143 40.2997 123.143 40.1759C123.143 39.4241 123.143 38.6679 123.143 37.9161C123.148 37.7922 123.338 37.7922 123.338 37.9161Z" fill="white"/>
<path d="M143.671 37.8321C143.671 38.5839 143.671 39.3401 143.671 40.0919C143.671 40.2157 143.476 40.2157 143.476 40.0919C143.476 39.3401 143.476 38.5839 143.476 37.8321C143.476 37.7082 143.671 37.7082 143.671 37.8321Z" fill="white"/>
<path d="M102.116 36.952C102.116 36.952 104.229 31.1322 100.833 35.7447C100.833 35.7447 96.411 33.0603 97.9234 35.4794C97.9234 35.4794 96.3756 35.0637 97.2822 36.271C97.2822 36.271 95.9997 36.0454 96.7515 37.3279C96.7515 37.3279 93.8152 37.3544 99.5508 40.627C99.5508 40.6314 104.079 41.3346 102.116 36.952Z" fill="#FFAF8F"/>
<path d="M98.0163 35.3998C98.4143 35.7447 98.9715 36.1914 99.511 36.2754C99.5906 36.2887 99.7012 36.2975 99.7675 36.2047C100.055 35.7934 98.6752 35.0283 98.4851 34.9089C98.3878 34.8514 98.4762 34.6966 98.5735 34.7586C98.8742 34.9443 100.334 35.7359 99.909 36.3064C99.8427 36.3948 99.7365 36.4479 99.6304 36.4612C99.3695 36.4877 99.0776 36.3108 98.8609 36.1958C98.5116 36.0101 98.1932 35.7801 97.8969 35.5236C97.804 35.4484 97.9279 35.3246 98.0163 35.3998Z" fill="#5C3146"/>
<path d="M97.3219 36.1958C97.7862 36.4788 98.2638 36.7663 98.7679 36.9697C98.9227 37.0316 99.2853 37.2041 99.4534 37.0935C99.6524 36.9609 99.4666 36.5717 99.4136 36.3992C99.3782 36.2931 99.5462 36.2444 99.5816 36.3506C99.6612 36.5982 99.8469 37.0405 99.5639 37.2306C99.387 37.35 99.1217 37.2749 98.9404 37.2174C98.3345 37.0272 97.7685 36.6734 97.229 36.3462C97.1361 36.2887 97.2246 36.1383 97.3219 36.1958Z" fill="#5C3146"/>
<path d="M96.8842 37.2439C97.291 37.4119 97.7023 37.5756 98.1312 37.6905C98.3169 37.7392 98.6442 37.8542 98.8343 37.7701C99.1129 37.6463 98.6972 37.2748 98.5734 37.1643C98.4894 37.0891 98.6132 36.9653 98.6972 37.0405C98.8786 37.2041 99.3075 37.6242 99.0156 37.8763C98.8741 38.0001 98.6265 37.9647 98.4585 37.9426C97.8968 37.863 97.3529 37.633 96.8355 37.4164C96.7382 37.3721 96.7824 37.1997 96.8842 37.2439Z" fill="#5C3146"/>
<path d="M96.6409 38.1018C97.0434 38.2964 97.5254 38.4998 97.9853 38.4733C98.0958 38.4689 98.2727 38.4512 98.2948 38.3141C98.3214 38.1549 98.0693 37.9647 97.9676 37.8807C97.8836 37.8055 98.0074 37.6817 98.0914 37.7569C98.3125 37.9515 98.7017 38.3893 98.2683 38.5927C97.7553 38.8315 96.9991 38.4733 96.5481 38.2522C96.4508 38.2035 96.5392 38.0532 96.6409 38.1018Z" fill="#5C3146"/>
</g>
<g clip-path="url(#clip1)">
<rect width="160" height="60" transform="translate(160)" fill="#1F2B77"/>
<path d="M440.311 -87.3107C321.76 -205.862 11 -87.3107 11 -87.3107V342H440.311C440.311 342 558.862 31.2402 440.311 -87.3107Z" fill="#F8F8F9"/>
<path d="M197.282 51C140.397 107.885 48.1677 107.885 -8.71767 51C-65.603 -5.88535 -8.71767 -155 -8.71767 -155H197.282C197.282 -155 254.168 -5.88535 197.282 51Z" fill="#1F2B77"/>
<path d="M193.93 28.0697C97.0236 -68.8371 -157 28.0697 -157 28.0697V379H193.93C193.93 379 290.837 124.976 193.93 28.0697Z" fill="#1D2454"/>
<g clip-path="url(#clip2)">
<path d="M192.989 14.3245C194.487 13.5892 195.707 12.2539 196.349 10.6615C196.854 9.40738 196.991 7.92321 196.413 6.70972C195.834 5.49172 194.409 4.68423 193.184 5.12632C191.746 5.6451 190.717 7.65255 189.255 7.21948C188.595 7.02099 188.162 6.35785 187.566 6.00147C186.96 5.64058 186.159 5.63156 185.571 6.02854C184.98 6.42101 184.647 7.21497 184.807 7.92773C183.777 7.61195 182.603 7.43601 181.688 8.01795C180.772 8.59988 180.472 10.2194 181.383 10.8103C180.381 11.7712 179.529 13.0208 179.411 14.4418C179.293 15.8628 180.117 17.4236 181.446 17.7169C181.929 17.8206 182.471 17.7755 182.853 18.1003C183.691 18.8131 182.871 20.3604 183.441 21.3167C183.996 22.2506 185.444 21.9167 186.141 21.0912C186.837 20.2657 187.129 19.1379 187.807 18.2988C188.467 17.4823 189.423 17.0086 190.348 16.562C191.104 16.1966 191.859 15.8312 192.615 15.4658" fill="#5C3146"/>
<path d="M201.043 28.5571C199.326 27.93 197.428 28.7872 196.804 30.4743C196.777 30.5465 196.758 30.6187 196.736 30.6909H196.722C196.549 31.1555 196.544 31.6788 196.672 32.2382C196.708 32.4096 196.754 32.572 196.818 32.7344C198.366 37.1643 207.231 43.6829 211.142 44.8648C211.147 44.8648 211.411 45.0001 211.547 45.0498C212.981 45.5731 214.566 44.8558 215.094 43.4483C215.586 42.1266 214.967 40.6604 213.701 40.056C207.299 35.8426 202.655 29.7886 202.655 29.7886L202.637 29.7931C202.263 29.2473 201.721 28.8052 201.043 28.5571Z" fill="#FFAF8F"/>
<path d="M213.97 30.8713C213.97 30.8758 213.97 30.8803 213.97 30.8848H213.965C212.353 36.0366 209.936 41.08 209.917 41.1161C209.303 42.5551 209.986 44.2197 211.438 44.8242C212.891 45.4332 214.571 44.7566 215.181 43.3175C215.19 43.2995 215.194 43.2814 215.204 43.2589C216.847 39.7312 218.965 31.8096 218.965 31.8096L218.951 31.8051C219.21 30.4428 218.309 29.1255 216.929 28.8639C215.559 28.6112 214.471 29.5225 213.97 30.8713Z" fill="#FFAF8F"/>
<path d="M219.757 29.7525C219.483 30.348 218.914 31.8367 218.887 32.0171C218.682 33.3299 217.444 34.2321 216.119 34.0291C214.962 33.8531 214.124 32.9013 214.061 31.787L214.042 31.778C214.042 31.778 213.073 24.5512 214.775 27.9751C214.866 28.1646 215.14 28.1736 215.253 27.9977C216.278 26.4729 219.843 21.3077 216.997 27.5511C216.997 27.5511 217.781 26.4459 218.477 25.5797C219.547 24.258 220.43 24.082 218.04 28.115C218.04 28.115 222.329 22.1017 219.119 28.7917C219.119 28.7962 222.275 24.2986 219.757 29.7525Z" fill="#FFAF8F"/>
<path d="M213.592 43.2408C213.541 43.4483 213.419 43.5927 213.223 43.6784C213.104 43.7325 213.209 43.8994 213.323 43.8498C213.56 43.7415 213.724 43.5476 213.783 43.2949C213.815 43.1686 213.619 43.119 213.592 43.2408Z" fill="#5C3146"/>
<path d="M193.685 66.1618C190.967 65.7423 189.1 63.2206 189.524 60.5229C189.947 57.8298 192.492 55.9802 195.215 56.3998C195.32 56.4178 218.646 60.3515 218.823 60.3831C221.451 60.7891 223.249 63.2251 222.839 65.828C222.439 68.3723 220.08 70.1271 217.517 69.8249V69.8339C191.973 65.8957 191.973 65.8957 193.685 66.1618Z" fill="#6575CF"/>
<path d="M187.479 50.9007C182.471 51.2436 177.767 50.6977 177.767 50.6977C177.767 50.6977 177.785 55.5607 177.708 56.9005C177.608 58.5832 177.754 61.7455 177.754 61.7455C177.908 63.9694 179.297 66.0265 181.159 66.6806L187.588 66.9287L188.454 66.843L188.8 66.8205L190.434 66.7077L197.137 65.5303C198.894 64.6236 199.978 62.3951 199.823 60.1756C199.823 60.1756 199.559 57.69 199.176 55.3712C198.794 53.0525 198.457 49.3714 198.457 49.3714C198.457 49.3714 192.488 50.5534 187.479 50.9007Z" fill="#6575CF"/>
<path d="M181.209 52.7367C181.496 52.2225 181.697 51.6766 181.783 51.0947C181.806 50.9413 181.565 50.8736 181.542 51.027C181.46 51.5909 181.273 52.1142 180.995 52.6104C180.918 52.7548 181.132 52.8766 181.209 52.7367Z" fill="white"/>
<path d="M178.086 55.1096C179.038 54.9021 179.853 54.3833 180.513 53.6841C180.622 53.5668 180.445 53.3954 180.335 53.5081C179.702 54.1803 178.928 54.672 178.018 54.8705C177.863 54.9066 177.931 55.1457 178.086 55.1096Z" fill="white"/>
<path d="M177.94 56.9095C180.731 56.3546 182.63 53.7607 182.967 51.0631C182.985 50.9052 182.739 50.9097 182.717 51.0631C182.389 53.657 180.545 56.1426 177.872 56.6704C177.717 56.7065 177.785 56.9411 177.94 56.9095Z" fill="white"/>
<path d="M198.58 53.4044C196.731 53.26 195.051 51.9292 194.518 50.1699C194.473 50.0165 194.232 50.0842 194.277 50.2376C194.842 52.1097 196.617 53.4991 198.575 53.6525C198.739 53.666 198.739 53.4179 198.58 53.4044Z" fill="white"/>
<path d="M196.654 54.5773C194.905 53.7156 193.394 52.2992 192.87 50.3909C192.829 50.2376 192.588 50.3052 192.629 50.4586C193.171 52.4255 194.723 53.9051 196.526 54.7893C196.668 54.8615 196.795 54.6494 196.654 54.5773Z" fill="white"/>
<path d="M198.876 55.1637C198.434 55.1411 198.006 55.0599 197.583 54.9381C197.428 54.893 197.364 55.1321 197.514 55.1772C197.96 55.3081 198.411 55.3847 198.876 55.4118C199.035 55.4163 199.035 55.1727 198.876 55.1637Z" fill="white"/>
<path d="M182.316 67.0189C179.584 66.6716 177.654 64.1995 178.004 61.4928C178.355 58.7861 180.477 56.8734 183.204 57.2208C183.309 57.2343 206.357 60.541 206.539 60.5635C209.175 60.8974 211.037 63.2837 210.705 65.8957C210.377 68.449 208.064 70.267 205.496 70.0324V70.0414C179.848 66.7979 180.595 66.7979 182.316 67.0189Z" fill="#6575CF"/>
<path d="M186.109 57.708C190.425 58.1862 194.732 58.7681 199.026 59.4312C201.13 59.7561 203.233 60.1034 205.332 60.4598C206.22 60.6087 207.14 60.7485 207.959 61.1319C208.793 61.5244 209.462 62.2236 209.913 63.0176C210.914 64.795 210.304 66.8295 209.526 68.5663C209.462 68.7106 209.676 68.8369 209.74 68.6926C210.4 67.2175 210.978 65.5483 210.55 63.9288C210.14 62.3905 208.92 61.1455 207.404 60.6583C206.443 60.3515 205.423 60.2252 204.431 60.0583C203.265 59.8643 202.099 59.6703 200.934 59.4854C198.598 59.111 196.258 58.7591 193.913 58.4343C191.318 58.0734 188.718 57.7486 186.109 57.4599C185.954 57.4464 185.954 57.69 186.109 57.708Z" fill="white"/>
<path d="M198.753 56.9952C198.266 57.09 197.678 57.2794 197.346 57.6629C197.241 57.7802 197.419 57.9561 197.524 57.8388C197.833 57.487 198.375 57.3246 198.821 57.2343C198.976 57.1982 198.908 56.9637 198.753 56.9952Z" fill="white"/>
<path d="M185.093 57.5636C184.392 57.2659 183.664 57.1396 182.903 57.2027C182.744 57.2163 182.744 57.4644 182.903 57.4509C183.618 57.3922 184.31 57.496 184.97 57.7757C185.112 57.8388 185.239 57.6268 185.093 57.5636Z" fill="white"/>
<path d="M184.055 56.5577C184.287 56.5261 184.488 56.5938 184.647 56.7652C184.756 56.8825 184.929 56.7065 184.825 56.5892C184.624 56.3727 184.351 56.269 184.06 56.3096C183.9 56.3321 183.896 56.5802 184.055 56.5577Z" fill="white"/>
<path d="M197.187 56.5261C196.913 56.6389 196.727 56.8374 196.645 57.1216C196.604 57.2749 196.841 57.3381 196.886 57.1892C196.941 56.9952 197.059 56.8419 197.25 56.7652C197.401 56.702 197.337 56.4674 197.187 56.5261Z" fill="white"/>
<path d="M179.598 56.2374C179.434 58.1321 179.033 60.3921 180.413 61.9665C181.05 62.6928 181.883 62.8868 182.803 63.0672C185.735 63.6492 188.763 63.8206 191.736 64.0867C194.555 64.3394 197.505 64.4431 200.264 65.1378C201.07 65.3408 201.63 65.5664 201.63 66.4912C201.63 67.9122 200.957 69.3873 200.415 70.673C198.475 75.2563 195.916 79.5734 193.562 83.9492C193.485 84.0891 193.703 84.2154 193.776 84.0756C195.916 80.1012 198.179 76.1766 200.064 72.0714C200.738 70.6008 201.435 69.0715 201.762 67.4791C201.904 66.7799 202.072 65.7288 201.357 65.2732C200.665 64.8356 199.677 64.7454 198.894 64.6191C197.496 64.3935 196.08 64.2492 194.669 64.1093C191.363 63.7845 188.039 63.5725 184.747 63.1304C183.641 62.9815 182.361 62.8823 181.337 62.3996C180.467 61.9891 179.971 60.9786 179.789 60.0899C179.529 58.8268 179.743 57.505 179.853 56.2374C179.862 56.0795 179.611 56.0795 179.598 56.2374Z" fill="white"/>
<path d="M191.686 52.7503C191.814 54.5863 191.946 56.4223 192.073 58.2584C192.082 58.4162 192.333 58.4162 192.324 58.2584C192.196 56.4223 192.064 54.5863 191.937 52.7503C191.923 52.5924 191.677 52.5924 191.686 52.7503Z" fill="white"/>
<path d="M190.07 55.6103C190.47 55.6103 190.794 55.2892 190.794 54.8931C190.794 54.4969 190.47 54.1758 190.07 54.1758C189.67 54.1758 189.346 54.4969 189.346 54.8931C189.346 55.2892 189.67 55.6103 190.07 55.6103Z" fill="#FFD7A6"/>
<path d="M184.629 11.3878H184.624V11.3969C184.629 11.3969 184.629 11.3923 184.629 11.3878Z" fill="#FFBA9A"/>
<path d="M193.553 13.111C193.539 13.0208 193.517 12.9351 193.498 12.8493C193.157 13.0433 192.702 13.1561 192.219 13.2734C190.329 13.72 188.303 12.8719 186.154 13.6884C186.163 14.6764 186.177 15.6643 186.186 16.6477C186.186 16.8011 186.131 17.0086 185.981 16.9951C185.899 16.9861 185.84 16.9094 185.794 16.8417C185.699 16.6973 185.603 16.553 185.512 16.4041C185.735 16.9229 185.999 17.9108 185.612 18.0552C185.271 18.1815 184.652 17.1575 184.501 16.4853C184.406 16.4582 184.306 16.4312 184.201 16.4222C183.313 16.35 182.534 17.0041 182.462 17.8793C182.389 18.7544 183.049 19.5258 183.932 19.598C184.174 19.616 184.406 19.5799 184.62 19.5033V24.2535C184.597 24.4114 184.583 24.5738 184.583 24.7362C184.583 26.7526 186.236 28.3902 188.271 28.3902C190.307 28.3902 191.959 26.7526 191.959 24.7362C191.959 24.5828 191.946 24.4339 191.928 24.2851V22.255C193.867 21.6145 194.168 19.6386 193.908 17.8838C193.658 16.1289 193.553 13.111 193.553 13.111Z" fill="#FFAF8F"/>
<path d="M184.87 18.4612C184.98 17.6943 184.251 17.0853 183.504 17.3831C183.386 17.4327 183.436 17.6267 183.559 17.577C184.137 17.347 184.761 17.771 184.67 18.4071C184.652 18.5334 184.852 18.5875 184.87 18.4612Z" fill="#5C3146"/>
<path d="M184.342 17.5816C184.069 17.6943 183.855 17.8658 183.691 18.1094C183.618 18.2176 183.796 18.3214 183.869 18.2131C184.001 18.0191 184.178 17.8703 184.397 17.78C184.515 17.7259 184.461 17.5274 184.342 17.5816Z" fill="#5C3146"/>
<path opacity="0.35" d="M191.932 22.2551C191.932 22.2551 191.008 22.5799 189.76 22.4761L191.932 24.3708V22.2551Z" fill="#FC5151"/>
<path d="M190.443 15.5831C190.361 15.8944 190.375 16.1921 190.521 16.4808C190.594 16.6252 190.689 16.756 190.803 16.8733C190.853 16.9274 191.003 17.0086 191.031 17.0718C191.163 17.4011 190.88 17.6221 190.566 17.5635C190.439 17.5364 190.384 17.7349 190.512 17.7575C190.853 17.8251 191.304 17.6492 191.322 17.2522C191.331 17.0357 191.181 16.9455 191.035 16.8101C190.689 16.4944 190.521 16.0929 190.644 15.6327C190.675 15.5109 190.48 15.4568 190.443 15.5831Z" fill="#5C3146"/>
<path opacity="0.35" d="M191.809 17.5455C191.896 17.8387 192.319 17.9785 192.761 17.8522C193.203 17.7259 193.489 17.3876 193.403 17.0898C193.316 16.7966 192.893 16.6568 192.451 16.7831C192.01 16.9094 191.723 17.2477 191.809 17.5455Z" fill="#FC5151"/>
<path opacity="0.35" d="M186.619 17.1439C186.55 17.4417 186.86 17.7665 187.306 17.8612C187.752 17.9605 188.171 17.7935 188.235 17.4958C188.303 17.1981 187.994 16.8733 187.547 16.7785C187.101 16.6838 186.687 16.8462 186.619 17.1439Z" fill="#FC5151"/>
<path d="M191.609 16.1019C191.609 16.3636 191.714 16.5756 191.846 16.5756C191.978 16.5756 192.082 16.3636 192.082 16.1019C192.082 15.8403 191.973 15.6282 191.846 15.6282C191.714 15.6282 191.609 15.8403 191.609 16.1019Z" fill="#5C3146"/>
<path d="M188.827 16.1019C188.827 16.3636 188.722 16.5756 188.59 16.5756C188.458 16.5756 188.353 16.3636 188.353 16.1019C188.353 15.8403 188.458 15.6282 188.59 15.6282C188.722 15.6282 188.827 15.8403 188.827 16.1019Z" fill="#5C3146"/>
<path d="M187.757 14.8794C187.962 14.9064 188.158 14.735 188.34 14.6583C188.54 14.5771 188.727 14.5591 188.9 14.4147C188.841 14.4463 188.786 14.4824 188.727 14.514C188.936 14.4373 189.173 14.32 189.091 14.0538C189.014 13.8102 188.663 13.7065 188.435 13.729C188.012 13.7696 187.32 14.1396 187.456 14.6493C187.493 14.7982 187.62 14.8658 187.757 14.8794Z" fill="#5C3146"/>
<path d="M192.829 14.9877C193.075 14.6313 192.601 14.2027 192.319 14.0539C192.16 13.9681 191.978 13.9095 191.795 13.923C191.613 13.9366 191.381 13.9952 191.299 14.1711C191.103 14.5726 191.659 14.708 191.918 14.8343C192.187 14.9651 192.569 15.3576 192.829 14.9877Z" fill="#5C3146"/>
<path d="M182.038 31.0923C182.58 29.2383 181.514 27.2985 179.657 26.7662C179.579 26.7436 179.497 26.7301 179.42 26.712L179.415 26.6985C178.906 26.5541 178.345 26.5857 177.749 26.7617C177.571 26.8113 177.394 26.8744 177.225 26.9511C172.586 28.9225 166.257 38.7613 165.287 42.9701C165.287 42.9747 165.164 43.2634 165.118 43.4122C164.663 44.9641 165.556 46.5836 167.108 47.0256C168.565 47.4452 170.091 46.6783 170.646 45.2979C174.689 38.238 180.836 32.8833 180.836 32.8833L180.832 32.8652C181.392 32.4276 181.824 31.8231 182.038 31.0923Z" fill="#FFAF8F"/>
<path d="M175.213 39.1673C178.978 35.423 182.093 33.8171 182.093 33.8171L181.364 32.6712C181.965 32.2021 182.43 31.548 182.662 30.7585C183.245 28.7601 182.097 26.676 180.098 26.103C180.012 26.0805 179.93 26.0624 179.843 26.0444L179.839 26.0309C179.288 25.873 178.687 25.9091 178.045 26.103C177.854 26.1572 177.663 26.2248 177.48 26.306C175.195 27.2759 172.531 30.0187 170.214 33.1404C170.214 33.1404 171.616 36.2215 175.213 39.1673Z" fill="#FF5E69"/>
<path d="M171.224 31.8547C172.631 34.0923 174.498 36.1448 176.41 37.9628C176.506 38.053 176.647 37.9087 176.552 37.823C174.648 36.014 172.791 33.975 171.397 31.7555C171.334 31.6472 171.156 31.7465 171.224 31.8547Z" fill="white"/>
<path d="M202.7 30.7315C202.705 29.4142 202.031 28.2504 201.002 27.5601C198.753 25.7016 194.901 24.867 191.996 24.5061C191.996 24.5061 190.871 26.5181 188.29 26.5136H188.285V26.5091C188.267 26.5091 188.253 26.5091 188.235 26.5136C188.217 26.5136 188.203 26.5136 188.185 26.5091V26.5136H188.18C185.594 26.5091 184.483 24.4926 184.483 24.4926C181.574 24.8399 177.717 25.6565 175.463 27.5105C174.434 28.1917 173.756 29.3556 173.756 30.6728C173.756 31.1871 173.861 31.6788 174.043 32.1299L177.722 35.4276L177.526 52.4345C177.526 52.4345 180.604 53.5939 188.121 53.6299C188.139 53.6299 188.158 53.6299 188.176 53.6299C188.194 53.6299 188.212 53.6299 188.23 53.6299C195.752 53.6254 198.83 52.4796 198.83 52.4796L198.794 36.4155L202.409 32.1886C202.596 31.7375 202.7 31.2457 202.7 30.7315Z" fill="#FF5E69"/>
<path d="M183.072 25.0159C183.955 27.3707 186.705 28.5616 189.114 28.1511C189.246 28.1285 189.191 27.9255 189.059 27.9481C186.773 28.3406 184.114 27.2038 183.277 24.9617C183.231 24.8354 183.026 24.8896 183.072 25.0159Z" fill="white"/>
<path d="M190.93 27.5556C192.11 27.0639 193.007 26.1572 193.476 24.9798C193.526 24.8535 193.321 24.7993 193.271 24.9256C192.834 26.0264 191.978 26.897 190.876 27.3571C190.748 27.4023 190.803 27.6098 190.93 27.5556Z" fill="white"/>
<path d="M178.619 39.5236C178.614 39.5236 178.61 39.5281 178.605 39.5281V39.5236C173.251 40.8815 167.632 41.4318 167.632 41.4318L167.636 41.486C167.6 41.4905 167.559 41.4905 167.523 41.4995C165.938 41.7386 164.85 43.2047 165.091 44.7746C165.333 46.3445 166.812 47.4226 168.397 47.1835C168.42 47.179 168.438 47.1745 168.456 47.17C172.408 46.7054 180.449 44.3145 180.449 44.3145L180.445 44.3009C181.774 43.8002 182.443 42.325 181.938 41.0078C181.433 39.686 180.03 39.1673 178.619 39.5236Z" fill="#FFAF8F"/>
<path d="M201.189 39.1673C197.423 36.411 194.304 33.569 194.304 33.569L195.033 32.6667C194.432 32.1976 193.967 31.5435 193.735 30.754C193.152 28.7556 194.3 26.6715 196.299 26.0985C196.385 26.076 196.467 26.0579 196.554 26.0399L196.558 26.0264C197.109 25.8685 197.71 25.9046 198.352 26.0985C198.543 26.1527 198.735 26.2203 198.917 26.3015C201.203 27.2714 203.866 30.0142 206.184 33.1359C206.188 33.1404 204.786 36.2215 201.189 39.1673Z" fill="#FF5E69"/>
<path d="M205 31.7555C203.588 34.002 201.767 36.1178 199.841 37.9493C199.745 38.0395 199.891 38.1793 199.982 38.0891C201.917 36.2486 203.752 34.1193 205.168 31.8547C205.241 31.7465 205.068 31.6472 205 31.7555Z" fill="white"/>
<path d="M187.438 44.2558L183.864 44.6438C183.286 44.707 182.762 44.2919 182.698 43.719L181.81 35.6712C181.747 35.0983 182.166 34.5795 182.744 34.5163L186.318 34.1284C186.896 34.0652 187.42 34.4802 187.484 35.0531L188.371 43.101C188.435 43.6784 188.016 44.1927 187.438 44.2558Z" fill="#E0E8ED"/>
<path opacity="0.15" d="M187.52 35.3818L181.848 35.9974L182.665 43.3878L188.337 42.7723L187.52 35.3818Z" fill="#C2B0CF"/>
<path d="M185.517 37.5388C185.48 37.2004 185.171 36.9523 184.829 36.9884C184.488 37.0245 184.237 37.3313 184.274 37.6696C184.31 38.0079 184.62 38.256 184.961 38.22C185.307 38.1839 185.553 37.8771 185.517 37.5388Z" fill="#C2B0CF"/>
<path d="M183.058 35.2426C183.04 35.0712 182.885 34.9494 182.712 34.9674C182.539 34.9855 182.416 35.1388 182.434 35.3103C182.452 35.4817 182.607 35.6035 182.78 35.5854C182.953 35.5674 183.081 35.414 183.058 35.2426Z" fill="#6575CF"/>
<path d="M183.545 35.193C183.541 35.1343 183.486 35.0937 183.431 35.1028C183.372 35.1073 183.331 35.1614 183.34 35.2155C183.345 35.2742 183.399 35.3148 183.454 35.3058C183.509 35.2967 183.55 35.2471 183.545 35.193Z" fill="#6575CF"/>
<path d="M182.694 43.525L188.358 42.9115" stroke="#C2B0CF" stroke-width="0.3481" stroke-miterlimit="10"/>
<path d="M181.87 36.0637L187.534 35.4501" stroke="#C2B0CF" stroke-width="0.3481" stroke-miterlimit="10"/>
<path d="M182.166 38.7207C181.56 38.7883 180.007 39.1582 178.769 39.5101C177.371 39.7086 176.401 40.9943 176.602 42.3792C176.802 43.7461 178.068 44.7024 179.447 44.531V44.5355C179.447 44.5355 181.956 44.3731 183.969 43.9085C186.523 43.3175 186.227 42.5596 186.227 42.5596C186.227 42.5596 187.201 42.1581 186.896 41.5446C186.896 41.5446 187.698 41.107 187.211 40.6289C187.211 40.6289 188.039 39.4289 186.364 39.9071C184.87 40.3311 182.999 40.2319 182.612 40.1372C182.443 40.092 182.27 39.8936 182.252 39.7311L182.166 38.7207Z" fill="#FFAF8F"/>
<path d="M187.238 40.4574C186.396 40.9582 185.312 41.0935 184.347 41.1567C184.224 41.1657 184.224 41.3506 184.347 41.3416C185.344 41.2785 186.459 41.1386 187.329 40.6198C187.438 40.5567 187.343 40.3943 187.238 40.4574Z" fill="#5C3146"/>
<path d="M186.946 41.4183C186.122 41.7973 185.221 41.9281 184.319 41.9642C184.196 41.9687 184.196 42.1581 184.319 42.1491C185.253 42.1085 186.186 41.9687 187.042 41.5762C187.151 41.5311 187.056 41.3687 186.946 41.4183Z" fill="#5C3146"/>
<path d="M186.332 42.3656C185.685 42.6724 185.043 42.7401 184.337 42.7852C184.219 42.7942 184.215 42.9792 184.337 42.9701C185.08 42.9205 185.749 42.8483 186.427 42.528C186.537 42.4739 186.441 42.3115 186.332 42.3656Z" fill="#5C3146"/>
<path d="M198.593 33.6637C198.648 35.1479 198.703 36.6275 198.757 38.1117C198.762 38.238 198.962 38.238 198.958 38.1117C198.903 36.6275 198.848 35.1479 198.794 33.6637C198.789 33.5374 198.589 33.5374 198.593 33.6637Z" fill="white"/>
<path d="M177.376 33.5735C177.43 35.0576 177.485 36.5373 177.54 38.0214C177.544 38.1478 177.744 38.1478 177.74 38.0214C177.685 36.5373 177.631 35.0576 177.576 33.5735C177.571 33.4427 177.371 33.4427 177.376 33.5735Z" fill="white"/>
<path d="M190.862 18.3439C190.393 18.3935 190.143 18.2492 189.81 18.0372C189.446 17.8026 189.114 17.6853 188.831 17.8657C188.189 18.2763 188.504 19.0973 189.073 19.4672C189.683 19.8642 190.698 19.8461 191.249 19.3995C191.8 18.9529 191.427 18.2898 190.862 18.3439Z" fill="#F7F7F7"/>
<path d="M188.549 18.2402C188.95 18.6507 189.41 18.8762 189.988 18.9304C190.043 18.9349 190.056 18.8447 190.002 18.8311C189.51 18.7138 189.014 18.4838 188.622 18.168C188.572 18.1319 188.504 18.1951 188.549 18.2402Z" fill="#5C3146"/>
</g>
</g>
<defs>
<clipPath id="clip0">
<rect width="160" height="60" fill="white"/>
</clipPath>
<clipPath id="clip1">
<rect width="160" height="60" fill="white" transform="translate(160)"/>
</clipPath>
<clipPath id="clip2">
<rect width="75" height="89" fill="white" transform="translate(165 5)"/>
</clipPath>
</defs>
</svg>
