<svg width="28" height="27" viewBox="0 0 28 27" fill="none" xmlns="http://www.w3.org/2000/svg">
<path d="M0 0V22H13.0625L12.375 25.4688L12.0625 26.9375L13.5312 26.625L17.0625 25.9375L17.375 25.875L27.125 16.125C28.2852 14.9648 28.2852 13.0352 27.125 11.875C26.543 11.293 25.7695 11 25 11C24.6562 11 24.3281 11.0703 24 11.1875V0H0ZM2 2H22V4H2V2ZM2 6H22V12.75L14.75 20H2V6ZM5 9V11H7V9H5ZM9 9V11H19V9H9ZM5 13V15H7V13H5ZM9 13V15H15V13H9ZM25 13C25.2539 13 25.5195 13.082 25.7188 13.2812C26.1172 13.6797 26.1172 14.2891 25.7188 14.6875L16.375 24.0312L14.5938 24.4062L14.9688 22.625L24.3125 13.2812C24.5117 13.082 24.7461 13 25 13Z" fill="url(#paint0_linear)"/>
<defs>
<linearGradient id="paint0_linear" x1="0" y1="13.4688" x2="28.4032" y2="13.4688" gradientUnits="userSpaceOnUse">
<stop stop-color="#1DDADA"/>
<stop offset="1" stop-color="#2383DB"/>
</linearGradient>
</defs>
</svg>
