<svg width="43" height="43" viewBox="0 0 39 39" fill="none" xmlns="http://www.w3.org/2000/svg">
<path d="M38.9947 19.9535C38.9982 19.8029 39 19.6515 39 19.5C39 8.73054 30.2695 0 19.5 0C8.73054 0 0 8.73054 0 19.5C0 19.6515 0.00177144 19.8029 0.00531432 19.9535H38.9947Z" fill="#E4E5E9"/>
<path d="M0.00531432 19.9535H38.9947C38.7538 30.5135 30.118 39 19.5 39C8.882 39 0.24623 30.5135 0.00531432 19.9535Z" fill="#E4E5E9"/>
<g filter="url(#filter0_i)">
<circle cx="19.5" cy="19.5" r="16.5" fill="url(#paint0_linear)"/>
</g>
<path d="M24.5 14C25.3281 14 26 14.6719 26 15.5V25H21V24H25V17H14V24H18V25H13V15.5C13 14.6719 13.6719 14 14.5 14H24.5ZM24.5 15H24V16H25V15.5C25 15.2266 24.7773 15 24.5 15ZM23 15H22V16H23V15ZM22 15H14.5C14.2227 15 14 15.2266 14 15.5V16H22V15ZM19.5 19.5L22 22H20V26H19V22H17L19.5 19.5Z" fill="white"/>
<defs>
<filter id="filter0_i" x="3" y="3" width="33" height="34" filterUnits="userSpaceOnUse" color-interpolation-filters="sRGB">
<feFlood flood-opacity="0" result="BackgroundImageFix"/>
<feBlend mode="normal" in="SourceGraphic" in2="BackgroundImageFix" result="shape"/>
<feColorMatrix in="SourceAlpha" type="matrix" values="0 0 0 0 0 0 0 0 0 0 0 0 0 0 0 0 0 0 127 0" result="hardAlpha"/>
<feOffset dy="1"/>
<feGaussianBlur stdDeviation="0.5"/>
<feComposite in2="hardAlpha" operator="arithmetic" k2="-1" k3="1"/>
<feColorMatrix type="matrix" values="0 0 0 0 0.121569 0 0 0 0 0.145098 0 0 0 0 0.176471 0 0 0 0.2 0"/>
<feBlend mode="normal" in2="shape" result="effect1_innerShadow"/>
</filter>
<linearGradient id="paint0_linear" x1="3" y1="19.5" x2="36.481" y2="19.5" gradientUnits="userSpaceOnUse">
<stop stop-color="#86D672"/>
<stop offset="1" stop-color="#1ACA6B"/>
</linearGradient>
</defs>
</svg>
