<svg width="156" height="159" viewBox="0 0 156 159" fill="none" xmlns="http://www.w3.org/2000/svg">
<g filter="url(#filter0_ddi)">
<path d="M139 79C139 112.69 111.69 140 78 140C44.3109 140 17 112.69 17 79C17 45.3109 44.3109 18 78 18C111.69 18 139 45.3109 139 79Z" fill="#C0392B"/>
<path d="M139 76C139 109.69 111.69 137 78 137C44.3109 137 17 109.69 17 76C17 42.3109 44.3109 15 78 15C111.69 15 139 42.3109 139 76Z" fill="url(#paint0_linear)"/>
<path d="M47 58.6264L69.1434 80.808L47 102.374L55.8569 111L77.9991 89.4344L100.144 111L109 102.374L86.8547 80.808L109 58.6264L100.144 50L77.9991 71.5656L55.8569 50L47 58.6264Z" fill="#C0392B"/>
<path d="M47 53.6264L69.1434 75.808L47 97.3736L55.8569 106L77.9991 84.4344L100.144 106L109 97.3736L86.8547 75.808L109 53.6264L100.144 45L77.9991 66.5656L55.8569 45L47 53.6264Z" fill="#ECF0F1"/>
</g>
<defs>
<filter id="filter0_ddi" x="0" y="0" width="156" height="159" filterUnits="userSpaceOnUse" color-interpolation-filters="sRGB">
<feFlood flood-opacity="0" result="BackgroundImageFix"/>
<feColorMatrix in="SourceAlpha" type="matrix" values="0 0 0 0 0 0 0 0 0 0 0 0 0 0 0 0 0 0 127 0"/>
<feOffset dy="2"/>
<feGaussianBlur stdDeviation="1"/>
<feColorMatrix type="matrix" values="0 0 0 0 0 0 0 0 0 0 0 0 0 0 0 0 0 0 0.1 0"/>
<feBlend mode="normal" in2="BackgroundImageFix" result="effect1_dropShadow"/>
<feColorMatrix in="SourceAlpha" type="matrix" values="0 0 0 0 0 0 0 0 0 0 0 0 0 0 0 0 0 0 127 0"/>
<feOffset dy="2"/>
<feGaussianBlur stdDeviation="8.5"/>
<feColorMatrix type="matrix" values="0 0 0 0 1 0 0 0 0 0 0 0 0 0 0 0 0 0 0.25 0"/>
<feBlend mode="normal" in2="effect1_dropShadow" result="effect2_dropShadow"/>
<feBlend mode="normal" in="SourceGraphic" in2="effect2_dropShadow" result="shape"/>
<feColorMatrix in="SourceAlpha" type="matrix" values="0 0 0 0 0 0 0 0 0 0 0 0 0 0 0 0 0 0 127 0" result="hardAlpha"/>
<feOffset dy="-3"/>
<feComposite in2="hardAlpha" operator="arithmetic" k2="-1" k3="1"/>
<feColorMatrix type="matrix" values="0 0 0 0 0.227074 0 0 0 0 0.227074 0 0 0 0 0.227074 0 0 0 0.18 0"/>
<feBlend mode="normal" in2="shape" result="effect3_innerShadow"/>
</filter>
<linearGradient id="paint0_linear" x1="78" y1="15" x2="78" y2="137" gradientUnits="userSpaceOnUse">
<stop stop-color="#FF6D5E"/>
<stop offset="1" stop-color="#E74C3C"/>
</linearGradient>
</defs>
</svg>
