<svg width="16" height="12" viewBox="0 0 15 12" fill="none" xmlns="http://www.w3.org/2000/svg">
<path d="M2.67578 0.0234375L1.96875 0.726562L3.9375 2.69531C1.17188 3.87109 0.054688 6.15625 -0.007812 6.28906L-0.101562 6.5L-0.007812 6.71094C0.0742193 6.88672 2.05859 11 7.44531 11C9.03906 11 10.3281 10.6367 11.3633 10.125L13.2188 11.9805L13.9258 11.2695L11.5313 8.875L11.3477 8.69531C11.3516 8.69531 11.3516 8.69531 11.3516 8.69141L10.6211 7.96094C10.6172 7.96094 10.6172 7.96094 10.6172 7.96094L8.92188 6.26953C8.92188 6.26953 8.92578 6.26562 8.92188 6.26562L7.68359 5.02344H7.67969L5.98438 3.32812H5.98828L4.98438 2.32812C4.98438 2.32812 4.98047 2.32422 4.98047 2.32812L2.67578 0.0234375ZM7.44531 2C6.99219 2 6.57031 2.03906 6.16406 2.09375L7.10938 3.03125C7.22266 3.02344 7.33203 3 7.44531 3C9.37891 3 10.9492 4.57031 10.9492 6.5C10.9492 6.61719 10.9258 6.72656 10.9141 6.84375L11.7695 7.69531C11.8789 7.31641 11.9492 6.91797 11.9492 6.5C11.9492 5.50391 11.6133 4.58594 11.0586 3.83984C12.7227 4.70312 13.5898 5.98828 13.8828 6.5C13.6797 6.84766 13.1875 7.57422 12.3516 8.27734L13.0742 9C14.3164 7.92578 14.8633 6.80469 14.9063 6.71094L15 6.5L14.9023 6.28906C14.8203 6.11328 12.8359 2 7.44531 2ZM3.82422 3.85937C3.28125 4.60156 2.94531 5.51172 2.94531 6.5C2.94531 7.5 3.28516 8.41406 3.83984 9.16016C2.17578 8.30078 1.30859 7.01172 1.01563 6.5C1.30469 6.00391 2.17578 4.72266 3.82422 3.85937ZM5.13281 3.89062L6.54688 5.30469C6.18359 5.58203 5.94531 6.01172 5.94531 6.5C5.94531 7.32812 6.62109 8 7.44531 8C7.9375 8 8.36719 7.76172 8.64063 7.39844L10.0586 8.81641C9.41797 9.53906 8.48828 10 7.44531 10C5.51563 10 3.94531 8.42969 3.94531 6.5C3.94531 5.46094 4.40625 4.53125 5.13281 3.89062Z" fill="#81879C"/>
</svg>
