<svg width="68" height="68" viewBox="0 0 68 68" fill="none" xmlns="http://www.w3.org/2000/svg">
<path d="M32.1807 32.9146C41.1587 32.9146 48.4629 25.6103 48.4629 16.6323C48.4629 7.6543 41.1587 0.350098 32.1807 0.350098C23.2026 0.350098 15.8984 7.6543 15.8984 16.6323C15.8984 25.6103 23.2026 32.9146 32.1807 32.9146ZM32.1807 2.52106C39.9614 2.52106 46.2919 8.85159 46.2919 16.6323C46.2919 24.4131 39.9614 30.7436 32.1807 30.7436C24.3999 30.7436 18.0694 24.4131 18.0694 16.6323C18.0694 8.85159 24.3999 2.52106 32.1807 2.52106Z" fill="url(#paint0_linear)"/>
<path d="M28.921 9.03418V11.2051H26.75V22.06H28.921V24.2309H31.0919V22.06H33.2629V24.2309H35.4339V21.8602C36.6941 21.4108 37.6048 20.2168 37.6048 18.8035C37.6048 17.9699 37.29 17.2089 36.7733 16.6326C37.29 16.0562 37.6048 15.2952 37.6048 14.4616C37.6048 13.0483 36.6941 11.8543 35.4339 11.4049V9.03418H33.2629V11.2051H31.0919V9.03418H28.921ZM34.3484 19.889H28.921V17.718H34.3484C34.9476 17.718 35.4339 18.2043 35.4339 18.8035C35.4339 19.4027 34.9476 19.889 34.3484 19.889ZM34.3484 13.3761C34.9476 13.3761 35.4339 13.8624 35.4339 14.4616C35.4339 15.0608 34.9476 15.5471 34.3484 15.5471H28.921V13.3761H34.3484Z" fill="url(#paint1_linear)"/>
<path d="M24.6149 22.8118C23.193 21.0751 22.4092 18.8791 22.4092 16.6322C22.4092 11.2449 26.7913 6.86286 32.1786 6.86286C34.4255 6.86286 36.6215 7.64658 38.3582 9.06856L39.7346 7.38932C37.6092 5.65037 34.9259 4.69189 32.1786 4.69189C25.5951 4.69189 20.2383 10.0487 20.2383 16.6322C20.2383 19.3795 21.1968 22.0629 22.9357 24.1882L24.6149 22.8118Z" fill="url(#paint2_linear)"/>
<path d="M32.1771 26.4015C29.9302 26.4015 27.7343 25.6178 25.9975 24.1958L24.6211 25.8751C26.7465 27.614 29.4298 28.5725 32.1771 28.5725C38.7606 28.5725 44.1174 23.2157 44.1174 16.6322C44.1174 13.8849 43.159 11.2015 41.42 9.07617L39.7408 10.4526C41.1628 12.1893 41.9465 14.3853 41.9465 16.6322C41.9465 22.0195 37.5644 26.4015 32.1771 26.4015Z" fill="url(#paint3_linear)"/>
<path d="M62.5709 6.86279H48.4596V9.03376H62.5709C64.3663 9.03376 65.8273 10.4948 65.8273 12.2902V62.2224C65.8273 64.0177 64.3663 65.4788 62.5709 65.4788H43.0322V35.0853H40.8613V65.4788H35.4338V35.0853H33.2629V65.4788H32.1774C30.382 65.4788 28.921 64.0177 28.921 62.2224V35.0853H26.75V62.2224C26.75 65.215 29.1847 67.6498 32.1774 67.6498H62.5709C65.5635 67.6498 67.9983 65.215 67.9983 62.2224V12.2902C67.9983 9.29753 65.5635 6.86279 62.5709 6.86279Z" fill="url(#paint4_linear)"/>
<path d="M57.1457 63.3082C60.7376 63.3082 63.6586 60.3872 63.6586 56.7953C63.6586 55.6089 63.334 54.4984 62.7772 53.5389C63.334 52.5793 63.6586 51.4689 63.6586 50.2824C63.6586 46.6906 60.7376 43.7695 57.1457 43.7695C53.5538 43.7695 50.6328 46.6906 50.6328 50.2824C50.6328 51.4689 50.9574 52.5793 51.5142 53.5389C50.9574 54.4984 50.6328 55.6089 50.6328 56.7953C50.6328 60.3872 53.5538 63.3082 57.1457 63.3082ZM57.1457 45.9405C59.5403 45.9405 61.4876 47.8878 61.4876 50.2824C61.4876 50.7904 61.3834 51.2702 61.2228 51.7239C60.1058 50.8241 58.6882 50.2824 57.1457 50.2824C55.6032 50.2824 54.1856 50.8241 53.0686 51.7239C52.908 51.2702 52.8038 50.7904 52.8038 50.2824C52.8038 47.8878 54.7511 45.9405 57.1457 45.9405ZM59.9875 53.5389C59.2244 54.2064 58.2377 54.6243 57.1457 54.6243C56.0537 54.6243 55.067 54.2064 54.3039 53.5389C55.067 52.8713 56.0537 52.4534 57.1457 52.4534C58.2377 52.4534 59.2244 52.8713 59.9875 53.5389ZM53.0686 55.3538C54.1856 56.2537 55.6032 56.7953 57.1457 56.7953C58.6882 56.7953 60.1058 56.2537 61.2228 55.3538C61.3834 55.8075 61.4876 56.2873 61.4876 56.7953C61.4876 59.1899 59.5403 61.1372 57.1457 61.1372C54.7511 61.1372 52.8038 59.1899 52.8038 56.7953C52.8038 56.2873 52.908 55.8075 53.0686 55.3538Z" fill="url(#paint5_linear)"/>
<path d="M13.7257 4.69189H11.5547V6.86286H13.7257V4.69189Z" fill="url(#paint6_linear)"/>
<path d="M21.3243 53.1764L5.7422 39.4277H13.7259V9.03418H11.555V37.2567H0L21.3243 56.0724L25.2993 52.5652L23.8621 50.937L21.3243 53.1764Z" fill="url(#paint7_linear)"/>
<path d="M13.7257 0.350098H11.5547V2.52106H13.7257V0.350098Z" fill="url(#paint8_linear)"/>
<defs>
<linearGradient id="paint0_linear" x1="15.8984" y1="16.6323" x2="48.9376" y2="16.6323" gradientUnits="userSpaceOnUse">
<stop stop-color="#1DDADA"/>
<stop offset="1" stop-color="#2383DB"/>
</linearGradient>
<linearGradient id="paint1_linear" x1="26.75" y1="16.6326" x2="37.7631" y2="16.6326" gradientUnits="userSpaceOnUse">
<stop stop-color="#1DDADA"/>
<stop offset="1" stop-color="#2383DB"/>
</linearGradient>
<linearGradient id="paint2_linear" x1="20.2383" y1="14.4401" x2="40.0188" y2="14.4401" gradientUnits="userSpaceOnUse">
<stop stop-color="#1DDADA"/>
<stop offset="1" stop-color="#2383DB"/>
</linearGradient>
<linearGradient id="paint3_linear" x1="24.6211" y1="18.8243" x2="44.4016" y2="18.8243" gradientUnits="userSpaceOnUse">
<stop stop-color="#1DDADA"/>
<stop offset="1" stop-color="#2383DB"/>
</linearGradient>
<linearGradient id="paint4_linear" x1="26.75" y1="37.2563" x2="68.5996" y2="37.2563" gradientUnits="userSpaceOnUse">
<stop stop-color="#1DDADA"/>
<stop offset="1" stop-color="#2383DB"/>
</linearGradient>
<linearGradient id="paint5_linear" x1="50.6328" y1="53.5389" x2="63.8485" y2="53.5389" gradientUnits="userSpaceOnUse">
<stop stop-color="#1DDADA"/>
<stop offset="1" stop-color="#2383DB"/>
</linearGradient>
<linearGradient id="paint6_linear" x1="11.5547" y1="5.77738" x2="13.7573" y2="5.77738" gradientUnits="userSpaceOnUse">
<stop stop-color="#1DDADA"/>
<stop offset="1" stop-color="#2383DB"/>
</linearGradient>
<linearGradient id="paint7_linear" x1="0" y1="32.5533" x2="25.6681" y2="32.5533" gradientUnits="userSpaceOnUse">
<stop stop-color="#1DDADA"/>
<stop offset="1" stop-color="#2383DB"/>
</linearGradient>
<linearGradient id="paint8_linear" x1="11.5547" y1="1.43558" x2="13.7573" y2="1.43558" gradientUnits="userSpaceOnUse">
<stop stop-color="#1DDADA"/>
<stop offset="1" stop-color="#2383DB"/>
</linearGradient>
</defs>
</svg>
