<svg width="68" height="68" viewBox="0 0 68 68" fill="none" xmlns="http://www.w3.org/2000/svg">
<path d="M57.0323 13.1613C56.1877 13.1613 55.3619 13.2852 54.5525 13.4728C53.1332 5.75148 46.3047 0 38.3871 0C32.1465 0 26.5123 3.59193 23.743 8.95955C22.1757 8.13258 20.4406 7.67742 18.6452 7.67742C12.9441 7.67742 8.24994 12.0503 7.72897 17.6164C3.38245 18.1352 0 21.839 0 26.3226C0 31.1604 3.93632 35.0968 8.77419 35.0968H15.3548V32.9032H8.77419C5.14497 32.9032 2.19355 29.9518 2.19355 26.3226C2.19355 23.0432 4.60645 20.3254 7.74871 19.8297C7.83974 20.6742 8.01961 21.5044 8.30368 22.3062L10.3722 21.5735C10.0388 20.6347 9.87097 19.6498 9.87097 18.6452C9.87097 13.8073 13.8073 9.87097 18.6452 9.87097C20.1434 9.87097 21.5878 10.268 22.8831 10.9864C22.6594 11.6181 22.4597 12.2608 22.315 12.9277L24.4581 13.3949C25.874 6.90419 31.733 2.19355 38.3871 2.19355C45.3527 2.19355 51.351 7.32535 52.4543 14.1681C51.9312 14.4094 51.4223 14.6847 50.9375 15.0094L52.1571 16.8322C53.6016 15.8659 55.2873 15.3548 57.0323 15.3548C61.8701 15.3548 65.8064 19.2912 65.8064 24.129C65.8064 28.9669 61.8701 32.9032 57.0323 32.9032H52.6452V35.0968H57.0323C63.0799 35.0968 68 30.1766 68 24.129C68 18.0814 63.0799 13.1613 57.0323 13.1613Z" fill="url(#paint0_linear)"/>
<path d="M35.098 61.6212V50.4517H32.9045V61.6212C31.6311 62.0753 30.7109 63.2817 30.7109 64.7097C30.7109 66.5238 32.1872 68 34.0013 68C35.8153 68 37.2916 66.5238 37.2916 64.7097C37.2916 63.2817 36.3714 62.0753 35.098 61.6212ZM34.0013 65.8065C33.3969 65.8065 32.9045 65.3151 32.9045 64.7097C32.9045 64.1043 33.3969 63.6129 34.0013 63.6129C34.6056 63.6129 35.098 64.1043 35.098 64.7097C35.098 65.3151 34.6056 65.8065 34.0013 65.8065Z" fill="url(#paint1_linear)"/>
<path d="M46.0614 61.6208V52.2795L42.5517 47.5996L40.7969 48.9157L43.8678 53.01V61.6208C42.5945 62.0748 41.6743 63.2813 41.6743 64.7093C41.6743 66.5233 43.1506 67.9996 44.9646 67.9996C46.7787 67.9996 48.2549 66.5233 48.2549 64.7093C48.2549 63.2813 47.3347 62.0748 46.0614 61.6208ZM44.9646 65.8061C44.3603 65.8061 43.8678 65.3147 43.8678 64.7093C43.8678 64.1039 44.3603 63.6125 44.9646 63.6125C45.5689 63.6125 46.0614 64.1039 46.0614 64.7093C46.0614 65.3147 45.5689 65.8061 44.9646 65.8061Z" fill="url(#paint2_linear)"/>
<path d="M57.0312 61.6208V48.85L48.971 41.9414L47.543 43.6063L54.8376 49.859V61.6208C53.5643 62.0749 52.6441 63.2813 52.6441 64.7093C52.6441 66.5234 54.1203 67.9996 55.9344 67.9996C57.7485 67.9996 59.2247 66.5234 59.2247 64.7093C59.2247 63.2813 58.3045 62.0749 57.0312 61.6208ZM55.9344 65.8061C55.3301 65.8061 54.8376 65.3147 54.8376 64.7093C54.8376 64.1039 55.3301 63.6125 55.9344 63.6125C56.5387 63.6125 57.0312 64.1039 57.0312 64.7093C57.0312 65.3147 56.5387 65.8061 55.9344 65.8061Z" fill="url(#paint3_linear)"/>
<path d="M13.1605 61.6208V49.859L20.4552 43.6063L19.0272 41.9414L10.967 48.85V61.6208C9.69363 62.0749 8.77344 63.2813 8.77344 64.7093C8.77344 66.5234 10.2497 67.9996 12.0638 67.9996C13.8778 67.9996 15.3541 66.5234 15.3541 64.7093C15.3541 63.2813 14.4339 62.0749 13.1605 61.6208ZM12.0638 65.8061C11.4594 65.8061 10.967 65.3147 10.967 64.7093C10.967 64.1039 11.4594 63.6125 12.0638 63.6125C12.6681 63.6125 13.1605 64.1039 13.1605 64.7093C13.1605 65.3147 12.6681 65.8061 12.0638 65.8061Z" fill="url(#paint4_linear)"/>
<path d="M27.2003 48.9157L25.4454 47.5996L21.9357 52.2795V61.6208C20.6624 62.0748 19.7422 63.2813 19.7422 64.7093C19.7422 66.5233 21.2184 67.9996 23.0325 67.9996C24.8466 67.9996 26.3228 66.5233 26.3228 64.7093C26.3228 63.2813 25.4026 62.0748 24.1293 61.6208V53.01L27.2003 48.9157ZM23.0325 65.8061C22.4282 65.8061 21.9357 65.3147 21.9357 64.7093C21.9357 64.1039 22.4282 63.6125 23.0325 63.6125C23.6368 63.6125 24.1293 64.1039 24.1293 64.7093C24.1293 65.3147 23.6368 65.8061 23.0325 65.8061Z" fill="url(#paint5_linear)"/>
<path d="M33.9985 48.2582C43.0699 48.2582 50.4501 40.878 50.4501 31.8066C50.4501 22.7352 43.0699 15.355 33.9985 15.355C24.9271 15.355 17.5469 22.7352 17.5469 31.8066C17.5469 40.878 24.9271 48.2582 33.9985 48.2582ZM33.9985 17.5485C41.8602 17.5485 48.2566 23.9449 48.2566 31.8066C48.2566 39.6683 41.8602 46.0647 33.9985 46.0647C26.1368 46.0647 19.7404 39.6683 19.7404 31.8066C19.7404 23.9449 26.1368 17.5485 33.9985 17.5485Z" fill="url(#paint6_linear)"/>
<path d="M30.7092 24.1289V26.3225H28.5156V37.2902H30.7092V39.4837H32.9027V37.2902H35.0963V39.4837H37.2898V37.0884C38.5632 36.6343 39.4834 35.4279 39.4834 33.9999C39.4834 33.1576 39.1653 32.3887 38.6432 31.8063C39.1653 31.2239 39.4834 30.4551 39.4834 29.6128C39.4834 28.1848 38.5632 26.9783 37.2898 26.5243V24.1289H35.0963V26.3225H32.9027V24.1289H30.7092ZM36.193 35.0966H30.7092V32.9031H36.193C36.7974 32.9031 37.2898 33.3945 37.2898 33.9999C37.2898 34.6053 36.7974 35.0966 36.193 35.0966ZM36.193 28.516C36.7974 28.516 37.2898 29.0074 37.2898 29.6128C37.2898 30.2182 36.7974 30.7096 36.193 30.7096H30.7092V28.516H36.193Z" fill="url(#paint7_linear)"/>
<path d="M26.3558 38.0501C24.919 36.2953 24.1271 34.0765 24.1271 31.8062C24.1271 26.3629 28.5559 21.9352 33.9981 21.9352C36.2684 21.9352 38.4872 22.7271 40.2431 24.1639L41.6328 22.4672C39.4853 20.7102 36.774 19.7417 33.9981 19.7417C27.3462 19.7417 21.9336 25.1543 21.9336 31.8062C21.9336 34.5821 22.9009 37.2934 24.658 39.4409L26.3558 38.0501Z" fill="url(#paint8_linear)"/>
<path d="M33.9979 41.6775C31.7276 41.6775 29.5088 40.8856 27.7529 39.4488L26.3633 41.1455C28.5108 42.9026 31.222 43.871 33.9979 43.871C40.6499 43.871 46.0624 38.4584 46.0624 31.8065C46.0624 29.0306 45.0951 26.3194 43.338 24.1719L41.6402 25.5626C43.077 27.3174 43.8689 29.5362 43.8689 31.8065C43.8689 37.2498 39.4401 41.6775 33.9979 41.6775Z" fill="url(#paint9_linear)"/>
<defs>
<linearGradient id="paint0_linear" x1="0" y1="17.5484" x2="68.9913" y2="17.5484" gradientUnits="userSpaceOnUse">
<stop stop-color="#1DDADA"/>
<stop offset="1" stop-color="#2383DB"/>
</linearGradient>
<linearGradient id="paint1_linear" x1="30.7109" y1="59.2259" x2="37.3875" y2="59.2259" gradientUnits="userSpaceOnUse">
<stop stop-color="#1DDADA"/>
<stop offset="1" stop-color="#2383DB"/>
</linearGradient>
<linearGradient id="paint2_linear" x1="40.7969" y1="57.7996" x2="48.3637" y2="57.7996" gradientUnits="userSpaceOnUse">
<stop stop-color="#1DDADA"/>
<stop offset="1" stop-color="#2383DB"/>
</linearGradient>
<linearGradient id="paint3_linear" x1="47.543" y1="54.9705" x2="59.395" y2="54.9705" gradientUnits="userSpaceOnUse">
<stop stop-color="#1DDADA"/>
<stop offset="1" stop-color="#2383DB"/>
</linearGradient>
<linearGradient id="paint4_linear" x1="8.77344" y1="54.9705" x2="20.6255" y2="54.9705" gradientUnits="userSpaceOnUse">
<stop stop-color="#1DDADA"/>
<stop offset="1" stop-color="#2383DB"/>
</linearGradient>
<linearGradient id="paint5_linear" x1="19.7422" y1="57.7996" x2="27.309" y2="57.7996" gradientUnits="userSpaceOnUse">
<stop stop-color="#1DDADA"/>
<stop offset="1" stop-color="#2383DB"/>
</linearGradient>
<linearGradient id="paint6_linear" x1="17.5469" y1="31.8066" x2="50.9297" y2="31.8066" gradientUnits="userSpaceOnUse">
<stop stop-color="#1DDADA"/>
<stop offset="1" stop-color="#2383DB"/>
</linearGradient>
<linearGradient id="paint7_linear" x1="28.5156" y1="31.8063" x2="39.6432" y2="31.8063" gradientUnits="userSpaceOnUse">
<stop stop-color="#1DDADA"/>
<stop offset="1" stop-color="#2383DB"/>
</linearGradient>
<linearGradient id="paint8_linear" x1="21.9336" y1="29.5913" x2="41.9199" y2="29.5913" gradientUnits="userSpaceOnUse">
<stop stop-color="#1DDADA"/>
<stop offset="1" stop-color="#2383DB"/>
</linearGradient>
<linearGradient id="paint9_linear" x1="26.3633" y1="34.0215" x2="46.3496" y2="34.0215" gradientUnits="userSpaceOnUse">
<stop stop-color="#1DDADA"/>
<stop offset="1" stop-color="#2383DB"/>
</linearGradient>
</defs>
</svg>
