<svg width="141" height="140" viewBox="0 0 141 140" fill="none" xmlns="http://www.w3.org/2000/svg">
<path d="M63.2258 133.226C63.2258 134.47 62.2142 135.484 60.9677 135.484H6.77419C5.52774 135.484 4.51613 134.47 4.51613 133.226V83.5483C4.51613 82.3041 5.52774 81.2902 6.77419 81.2902H60.9677C62.2142 81.2902 63.2258 82.3041 63.2258 83.5483V88.0644H67.7419V83.5483C67.7419 80.6083 65.8474 78.1244 63.2258 77.1896V56.4515C63.2258 40.2657 50.0568 27.0967 33.871 27.0967C17.6852 27.0967 4.51613 40.2657 4.51613 56.4515V77.1896C1.89452 78.1244 0 80.6083 0 83.5483V133.226C0 136.961 3.03935 140 6.77419 140H60.9677C64.7026 140 67.7419 136.961 67.7419 133.226V124.193H63.2258V133.226ZM49.6774 76.7741H18.0645V56.4515C18.0645 47.7354 25.1571 40.6451 33.871 40.6451C42.5848 40.6451 49.6774 47.7354 49.6774 56.4515V76.7741ZM9.03226 56.4515C9.03226 42.7564 20.1758 31.6128 33.871 31.6128C47.5661 31.6128 58.7097 42.7564 58.7097 56.4515V76.7741H54.1935V56.4515C54.1935 45.247 45.0777 36.1289 33.871 36.1289C22.6642 36.1289 13.5484 45.247 13.5484 56.4515V76.7741H9.03226V56.4515Z" fill="url(#paint0_linear)"/>
<path d="M106.13 72.2583C92.2704 72.2583 80.3456 80.6335 75.1069 92.5809H67.7433C65.2527 92.5809 63.2272 94.6064 63.2272 97.097H45.1627C45.1627 90.8715 40.0978 85.8067 33.8724 85.8067C27.6469 85.8067 22.582 90.8715 22.582 97.097C22.582 100.626 24.2846 103.964 27.0982 106.082V130.968H40.6465V115.162H63.2272C63.2272 117.652 65.2527 119.678 67.7433 119.678H75.1069C80.3456 131.625 92.2704 140 106.13 140C124.807 140 140.001 124.806 140.001 106.129C140.001 87.4528 124.807 72.2583 106.13 72.2583ZM33.8724 90.3228C37.6072 90.3228 40.6465 93.3622 40.6465 97.097H27.0982C27.0982 93.3622 30.1375 90.3228 33.8724 90.3228ZM36.1304 126.452H31.6143V115.162H36.1304V126.452ZM63.2272 110.645H31.6143V103.578L30.492 102.925C29.8756 102.566 29.3585 102.112 28.8956 101.613H63.2272V110.645ZM73.5194 115.162H67.7433V97.097H73.5194C72.7201 99.9783 72.2594 102.997 72.2594 106.129C72.2594 109.261 72.7201 112.28 73.5194 115.162ZM106.13 135.484C89.9446 135.484 76.7756 122.315 76.7756 106.129C76.7756 89.9435 89.9446 76.7744 106.13 76.7744C122.316 76.7744 135.485 89.9435 135.485 106.129C135.485 122.315 122.316 135.484 106.13 135.484Z" fill="url(#paint1_linear)"/>
<path d="M130.966 13.1329V53.471L120.098 68.688L123.772 71.3119L135.482 54.9161V13.1329C138.103 12.1981 139.998 9.71419 139.998 6.77419C139.998 3.03935 136.959 0 133.224 0C129.489 0 126.45 3.03935 126.45 6.77419C126.45 9.71419 128.344 12.1981 130.966 13.1329ZM133.224 4.51613C134.47 4.51613 135.482 5.53 135.482 6.77419C135.482 8.01838 134.47 9.03226 133.224 9.03226C131.977 9.03226 130.966 8.01838 130.966 6.77419C130.966 5.53 131.977 4.51613 133.224 4.51613Z" fill="url(#paint2_linear)"/>
<path d="M103.872 24.4234V67.7421H108.388V24.4234C111.009 23.4886 112.904 21.0047 112.904 18.0647C112.904 14.3299 109.865 11.2905 106.13 11.2905C102.395 11.2905 99.3555 14.3299 99.3555 18.0647C99.3555 21.0047 101.25 23.4886 103.872 24.4234ZM106.13 15.8067C107.376 15.8067 108.388 16.8205 108.388 18.0647C108.388 19.3089 107.376 20.3228 106.13 20.3228C104.883 20.3228 103.872 19.3089 103.872 18.0647C103.872 16.8205 104.883 15.8067 106.13 15.8067Z" fill="url(#paint3_linear)"/>
<path d="M76.7739 13.1329V54.9161L88.4865 71.3119L92.1604 68.688L81.2901 53.471V13.1329C83.9117 12.1981 85.8062 9.71419 85.8062 6.77419C85.8062 3.03935 82.7669 0 79.032 0C75.2972 0 72.2578 3.03935 72.2578 6.77419C72.2578 9.71419 74.1523 12.1981 76.7739 13.1329ZM79.032 4.51613C80.2785 4.51613 81.2901 5.53 81.2901 6.77419C81.2901 8.01838 80.2785 9.03226 79.032 9.03226C77.7856 9.03226 76.7739 8.01838 76.7739 6.77419C76.7739 5.53 77.7856 4.51613 79.032 4.51613Z" fill="url(#paint4_linear)"/>
<path d="M121.934 38.3872H117.418V56.4517H121.934V38.3872Z" fill="url(#paint5_linear)"/>
<path d="M121.934 29.355H117.418V33.8711H121.934V29.355Z" fill="url(#paint6_linear)"/>
<path d="M94.8404 38.3872H90.3242V56.4517H94.8404V38.3872Z" fill="url(#paint7_linear)"/>
<path d="M94.8404 29.355H90.3242V33.8711H94.8404V29.355Z" fill="url(#paint8_linear)"/>
<path d="M112.904 95.2544V90.3228H108.388V94.8389H103.872V90.3228H99.356V94.8389H94.8398V117.42H99.356V121.936H103.872V117.42H108.388V121.936H112.904V117.004C115.526 116.069 117.42 113.585 117.42 110.645C117.42 108.911 116.766 107.328 115.691 106.129C116.766 104.93 117.42 103.347 117.42 101.613C117.42 98.6731 115.526 96.1892 112.904 95.2544ZM110.646 112.903H99.356V108.387H110.646C111.893 108.387 112.904 109.401 112.904 110.645C112.904 111.89 111.893 112.903 110.646 112.903ZM110.646 103.871H99.356V99.355H110.646C111.893 99.355 112.904 100.369 112.904 101.613C112.904 102.857 111.893 103.871 110.646 103.871Z" fill="url(#paint9_linear)"/>
<path d="M106.128 85.8067C110.802 85.8067 115.37 87.437 118.983 90.3951L121.846 86.8996C117.425 83.2821 111.843 81.2905 106.128 81.2905C92.4326 81.2905 81.2891 92.4341 81.2891 106.129C81.2891 111.844 83.2829 117.426 86.9004 121.848L90.3936 118.987C87.4355 115.372 85.8052 110.803 85.8052 106.129C85.8052 94.9247 94.921 85.8067 106.128 85.8067Z" fill="url(#paint10_linear)"/>
<path d="M121.863 93.2716C124.821 96.8868 126.451 101.455 126.451 106.129C126.451 117.334 117.335 126.452 106.129 126.452C101.454 126.452 96.8863 124.821 93.2734 121.863L90.4102 125.359C94.8314 128.976 100.413 130.968 106.129 130.968C119.824 130.968 130.967 119.824 130.967 106.129C130.967 100.414 128.973 94.8319 125.356 90.4106L121.863 93.2716Z" fill="url(#paint11_linear)"/>
<defs>
<linearGradient id="paint0_linear" x1="0" y1="83.5483" x2="68.7294" y2="83.5483" gradientUnits="userSpaceOnUse">
<stop stop-color="#1DDADA"/>
<stop offset="1" stop-color="#2383DB"/>
</linearGradient>
<linearGradient id="paint1_linear" x1="22.582" y1="106.129" x2="141.713" y2="106.129" gradientUnits="userSpaceOnUse">
<stop stop-color="#1DDADA"/>
<stop offset="1" stop-color="#2383DB"/>
</linearGradient>
<linearGradient id="paint2_linear" x1="120.098" y1="35.656" x2="140.288" y2="35.656" gradientUnits="userSpaceOnUse">
<stop stop-color="#1DDADA"/>
<stop offset="1" stop-color="#2383DB"/>
</linearGradient>
<linearGradient id="paint3_linear" x1="99.3555" y1="39.5163" x2="113.101" y2="39.5163" gradientUnits="userSpaceOnUse">
<stop stop-color="#1DDADA"/>
<stop offset="1" stop-color="#2383DB"/>
</linearGradient>
<linearGradient id="paint4_linear" x1="72.2578" y1="35.656" x2="92.4505" y2="35.656" gradientUnits="userSpaceOnUse">
<stop stop-color="#1DDADA"/>
<stop offset="1" stop-color="#2383DB"/>
</linearGradient>
<linearGradient id="paint5_linear" x1="117.418" y1="47.4195" x2="122" y2="47.4195" gradientUnits="userSpaceOnUse">
<stop stop-color="#1DDADA"/>
<stop offset="1" stop-color="#2383DB"/>
</linearGradient>
<linearGradient id="paint6_linear" x1="117.418" y1="31.613" x2="122" y2="31.613" gradientUnits="userSpaceOnUse">
<stop stop-color="#1DDADA"/>
<stop offset="1" stop-color="#2383DB"/>
</linearGradient>
<linearGradient id="paint7_linear" x1="90.3242" y1="47.4195" x2="94.9062" y2="47.4195" gradientUnits="userSpaceOnUse">
<stop stop-color="#1DDADA"/>
<stop offset="1" stop-color="#2383DB"/>
</linearGradient>
<linearGradient id="paint8_linear" x1="90.3242" y1="31.613" x2="94.9062" y2="31.613" gradientUnits="userSpaceOnUse">
<stop stop-color="#1DDADA"/>
<stop offset="1" stop-color="#2383DB"/>
</linearGradient>
<linearGradient id="paint9_linear" x1="94.8398" y1="106.129" x2="117.75" y2="106.129" gradientUnits="userSpaceOnUse">
<stop stop-color="#1DDADA"/>
<stop offset="1" stop-color="#2383DB"/>
</linearGradient>
<linearGradient id="paint10_linear" x1="81.2891" y1="101.569" x2="122.437" y2="101.569" gradientUnits="userSpaceOnUse">
<stop stop-color="#1DDADA"/>
<stop offset="1" stop-color="#2383DB"/>
</linearGradient>
<linearGradient id="paint11_linear" x1="90.4102" y1="110.689" x2="131.558" y2="110.689" gradientUnits="userSpaceOnUse">
<stop stop-color="#1DDADA"/>
<stop offset="1" stop-color="#2383DB"/>
</linearGradient>
</defs>
</svg>
