<svg width="68" height="68" viewBox="0 0 68 68" fill="none" xmlns="http://www.w3.org/2000/svg">
<path d="M0 17.5483V50.4516H68V17.5483H0ZM65.8064 48.258H2.19355V19.7419H65.8064V48.258Z" fill="url(#paint0_linear)"/>
<path d="M32.9045 6.37884V15.3548H35.098V6.37884C36.3714 5.92477 37.2916 4.71832 37.2916 3.29032C37.2916 1.47626 35.8153 0 34.0013 0C32.1872 0 30.7109 1.47626 30.7109 3.29032C30.7109 4.71832 31.6311 5.92477 32.9045 6.37884ZM34.0013 2.19355C34.6056 2.19355 35.098 2.6849 35.098 3.29032C35.098 3.89574 34.6056 4.3871 34.0013 4.3871C33.3969 4.3871 32.9045 3.89574 32.9045 3.29032C32.9045 2.6849 33.3969 2.19355 34.0013 2.19355Z" fill="url(#paint1_linear)"/>
<path d="M21.9357 6.37884V11.6455L26.3228 13.8391V15.3548H28.5164V12.4835L24.1293 10.2899V6.37884C25.4026 5.92477 26.3228 4.71832 26.3228 3.29032C26.3228 1.47626 24.8466 0 23.0325 0C21.2184 0 19.7422 1.47626 19.7422 3.29032C19.7422 4.71832 20.6624 5.92477 21.9357 6.37884ZM23.0325 2.19355C23.6368 2.19355 24.1293 2.6849 24.1293 3.29032C24.1293 3.89574 23.6368 4.3871 23.0325 4.3871C22.4282 4.3871 21.9357 3.89574 21.9357 3.29032C21.9357 2.6849 22.4282 2.19355 23.0325 2.19355Z" fill="url(#paint2_linear)"/>
<path d="M10.967 6.37884V11.6455L15.3541 13.8391V15.3548H17.5476V12.4835L13.1605 10.2899V6.37884C14.4339 5.92477 15.3541 4.71832 15.3541 3.29032C15.3541 1.47626 13.8778 0 12.0638 0C10.2497 0 8.77344 1.47626 8.77344 3.29032C8.77344 4.71832 9.69363 5.92477 10.967 6.37884ZM12.0638 2.19355C12.6681 2.19355 13.1605 2.6849 13.1605 3.29032C13.1605 3.89574 12.6681 4.3871 12.0638 4.3871C11.4594 4.3871 10.967 3.89574 10.967 3.29032C10.967 2.6849 11.4594 2.19355 12.0638 2.19355Z" fill="url(#paint3_linear)"/>
<path d="M41.6779 13.8391L46.065 11.6455V6.37884C47.3384 5.92477 48.2586 4.71832 48.2586 3.29032C48.2586 1.47626 46.7823 0 44.9682 0C43.1542 0 41.6779 1.47626 41.6779 3.29032C41.6779 4.71832 42.5981 5.92477 43.8715 6.37884V10.2899L39.4844 12.4835V15.3548H41.6779V13.8391ZM44.9682 2.19355C45.5726 2.19355 46.065 2.6849 46.065 3.29032C46.065 3.89574 45.5726 4.3871 44.9682 4.3871C44.3639 4.3871 43.8715 3.89574 43.8715 3.29032C43.8715 2.6849 44.3639 2.19355 44.9682 2.19355Z" fill="url(#paint4_linear)"/>
<path d="M52.6467 13.8391L57.0338 11.6455V6.37884C58.3071 5.92477 59.2273 4.71832 59.2273 3.29032C59.2273 1.47626 57.7511 0 55.937 0C54.1229 0 52.6467 1.47626 52.6467 3.29032C52.6467 4.71832 53.5669 5.92477 54.8402 6.37884V10.2899L50.4531 12.4835V15.3548H52.6467V13.8391ZM55.937 2.19355C56.5413 2.19355 57.0338 2.6849 57.0338 3.29032C57.0338 3.89574 56.5413 4.3871 55.937 4.3871C55.3327 4.3871 54.8402 3.89574 54.8402 3.29032C54.8402 2.6849 55.3327 2.19355 55.937 2.19355Z" fill="url(#paint5_linear)"/>
<path d="M35.098 61.621V52.645H32.9045V61.621C31.6311 62.0751 30.7109 63.2815 30.7109 64.7095C30.7109 66.5236 32.1872 67.9999 34.0013 67.9999C35.8153 67.9999 37.2916 66.5236 37.2916 64.7095C37.2916 63.2815 36.3714 62.0751 35.098 61.621ZM34.0013 65.8063C33.3969 65.8063 32.9045 65.315 32.9045 64.7095C32.9045 64.1041 33.3969 63.6128 34.0013 63.6128C34.6056 63.6128 35.098 64.1041 35.098 64.7095C35.098 65.315 34.6056 65.8063 34.0013 65.8063Z" fill="url(#paint6_linear)"/>
<path d="M46.065 61.621V56.3543L41.6779 54.1608V52.645H39.4844V55.5164L43.8715 57.7099V61.621C42.5981 62.0751 41.6779 63.2815 41.6779 64.7095C41.6779 66.5236 43.1542 67.9999 44.9682 67.9999C46.7823 67.9999 48.2586 66.5236 48.2586 64.7095C48.2586 63.2815 47.3384 62.0751 46.065 61.621ZM44.9682 65.8063C44.3639 65.8063 43.8715 65.315 43.8715 64.7095C43.8715 64.1041 44.3639 63.6128 44.9682 63.6128C45.5726 63.6128 46.065 64.1041 46.065 64.7095C46.065 65.315 45.5726 65.8063 44.9682 65.8063Z" fill="url(#paint7_linear)"/>
<path d="M57.0338 61.621V56.3543L52.6467 54.1608V52.645H50.4531V55.5164L54.8402 57.7099V61.621C53.5669 62.0751 52.6467 63.2815 52.6467 64.7095C52.6467 66.5236 54.1229 67.9999 55.937 67.9999C57.7511 67.9999 59.2273 66.5236 59.2273 64.7095C59.2273 63.2815 58.3071 62.0751 57.0338 61.621ZM55.937 65.8063C55.3327 65.8063 54.8402 65.315 54.8402 64.7095C54.8402 64.1041 55.3327 63.6128 55.937 63.6128C56.5413 63.6128 57.0338 64.1041 57.0338 64.7095C57.0338 65.315 56.5413 65.8063 55.937 65.8063Z" fill="url(#paint8_linear)"/>
<path d="M26.3228 54.1608L21.9357 56.3543V61.621C20.6624 62.0751 19.7422 63.2815 19.7422 64.7095C19.7422 66.5236 21.2184 67.9999 23.0325 67.9999C24.8466 67.9999 26.3228 66.5236 26.3228 64.7095C26.3228 63.2815 25.4026 62.0751 24.1293 61.621V57.7099L28.5164 55.5164V52.645H26.3228V54.1608ZM23.0325 65.8063C22.4282 65.8063 21.9357 65.315 21.9357 64.7095C21.9357 64.1041 22.4282 63.6128 23.0325 63.6128C23.6368 63.6128 24.1293 64.1041 24.1293 64.7095C24.1293 65.315 23.6368 65.8063 23.0325 65.8063Z" fill="url(#paint9_linear)"/>
<path d="M15.3541 54.1608L10.967 56.3543V61.621C9.69363 62.0751 8.77344 63.2815 8.77344 64.7095C8.77344 66.5236 10.2497 67.9999 12.0638 67.9999C13.8778 67.9999 15.3541 66.5236 15.3541 64.7095C15.3541 63.2815 14.4339 62.0751 13.1605 61.621V57.7099L17.5476 55.5164V52.645H15.3541V54.1608ZM12.0638 65.8063C11.4594 65.8063 10.967 65.315 10.967 64.7095C10.967 64.1041 11.4594 63.6128 12.0638 63.6128C12.6681 63.6128 13.1605 64.1041 13.1605 64.7095C13.1605 65.315 12.6681 65.8063 12.0638 65.8063Z" fill="url(#paint10_linear)"/>
<path d="M61.4192 27.4194H63.6128V21.9355H58.1289V24.1291H61.4192V27.4194Z" fill="url(#paint11_linear)"/>
<path d="M61.4192 43.8709H58.1289V46.0644H63.6128V40.5806H61.4192V43.8709Z" fill="url(#paint12_linear)"/>
<path d="M6.58027 24.1291H9.87059V21.9355H4.38672V27.4194H6.58027V24.1291Z" fill="url(#paint13_linear)"/>
<path d="M9.87059 43.8709H6.58027V40.5806H4.38672V46.0644H9.87059V43.8709Z" fill="url(#paint14_linear)"/>
<path d="M30.7092 26.3228V28.5163H28.5156V39.484H30.7092V41.6776H32.9027V39.484H35.0963V41.6776H37.2898V39.2822C38.5632 38.8282 39.4834 37.6217 39.4834 36.1937C39.4834 35.3514 39.1653 34.5826 38.6432 34.0002C39.1653 33.4178 39.4834 32.6489 39.4834 31.8066C39.4834 30.3786 38.5632 29.1722 37.2898 28.7181V26.3228H35.0963V28.5163H32.9027V26.3228H30.7092ZM36.193 37.2905H30.7092V35.0969H36.193C36.7974 35.0969 37.2898 35.5883 37.2898 36.1937C37.2898 36.7991 36.7974 37.2905 36.193 37.2905ZM36.193 30.7099C36.7974 30.7099 37.2898 31.2012 37.2898 31.8066C37.2898 32.412 36.7974 32.9034 36.193 32.9034H30.7092V30.7099H36.193Z" fill="url(#paint15_linear)"/>
<path d="M26.3558 40.244C24.919 38.4892 24.1271 36.2704 24.1271 34.0001C24.1271 28.5568 28.5559 24.1291 33.9981 24.1291C36.2684 24.1291 38.4872 24.921 40.2431 26.3577L41.6328 24.661C39.4853 22.904 36.774 21.9355 33.9981 21.9355C27.3462 21.9355 21.9336 27.3481 21.9336 34.0001C21.9336 36.776 22.9009 39.4872 24.658 41.6347L26.3558 40.244Z" fill="url(#paint16_linear)"/>
<path d="M33.9979 43.8709C31.7276 43.8709 29.5088 43.079 27.7529 41.6422L26.3633 43.3389C28.5108 45.096 31.222 46.0644 33.9979 46.0644C40.6499 46.0644 46.0624 40.6518 46.0624 33.9999C46.0624 31.2239 45.0951 28.5127 43.338 26.3652L41.6402 27.7559C43.077 29.5108 43.8689 31.7296 43.8689 33.9999C43.8689 39.4432 39.4401 43.8709 33.9979 43.8709Z" fill="url(#paint17_linear)"/>
<path d="M50.4514 32.9033H48.2578V35.0969H50.4514V32.9033Z" fill="url(#paint18_linear)"/>
<path d="M54.8381 32.9033H52.6445V35.0969H54.8381V32.9033Z" fill="url(#paint19_linear)"/>
<path d="M59.2248 32.9033H57.0312V35.0969H59.2248V32.9033Z" fill="url(#paint20_linear)"/>
<path d="M10.967 32.9033H8.77344V35.0969H10.967V32.9033Z" fill="url(#paint21_linear)"/>
<path d="M15.3537 32.9033H13.1602V35.0969H15.3537V32.9033Z" fill="url(#paint22_linear)"/>
<path d="M19.7404 32.9033H17.5469V35.0969H19.7404V32.9033Z" fill="url(#paint23_linear)"/>
<defs>
<linearGradient id="paint0_linear" x1="0" y1="34" x2="68.9913" y2="34" gradientUnits="userSpaceOnUse">
<stop stop-color="#1DDADA"/>
<stop offset="1" stop-color="#2383DB"/>
</linearGradient>
<linearGradient id="paint1_linear" x1="30.7109" y1="7.67742" x2="37.3875" y2="7.67742" gradientUnits="userSpaceOnUse">
<stop stop-color="#1DDADA"/>
<stop offset="1" stop-color="#2383DB"/>
</linearGradient>
<linearGradient id="paint2_linear" x1="19.7422" y1="7.67742" x2="28.6443" y2="7.67742" gradientUnits="userSpaceOnUse">
<stop stop-color="#1DDADA"/>
<stop offset="1" stop-color="#2383DB"/>
</linearGradient>
<linearGradient id="paint3_linear" x1="8.77344" y1="7.67742" x2="17.6755" y2="7.67742" gradientUnits="userSpaceOnUse">
<stop stop-color="#1DDADA"/>
<stop offset="1" stop-color="#2383DB"/>
</linearGradient>
<linearGradient id="paint4_linear" x1="39.4844" y1="7.67742" x2="48.3865" y2="7.67742" gradientUnits="userSpaceOnUse">
<stop stop-color="#1DDADA"/>
<stop offset="1" stop-color="#2383DB"/>
</linearGradient>
<linearGradient id="paint5_linear" x1="50.4531" y1="7.67742" x2="59.3552" y2="7.67742" gradientUnits="userSpaceOnUse">
<stop stop-color="#1DDADA"/>
<stop offset="1" stop-color="#2383DB"/>
</linearGradient>
<linearGradient id="paint6_linear" x1="30.7109" y1="60.3224" x2="37.3875" y2="60.3224" gradientUnits="userSpaceOnUse">
<stop stop-color="#1DDADA"/>
<stop offset="1" stop-color="#2383DB"/>
</linearGradient>
<linearGradient id="paint7_linear" x1="39.4844" y1="60.3224" x2="48.3865" y2="60.3224" gradientUnits="userSpaceOnUse">
<stop stop-color="#1DDADA"/>
<stop offset="1" stop-color="#2383DB"/>
</linearGradient>
<linearGradient id="paint8_linear" x1="50.4531" y1="60.3224" x2="59.3552" y2="60.3224" gradientUnits="userSpaceOnUse">
<stop stop-color="#1DDADA"/>
<stop offset="1" stop-color="#2383DB"/>
</linearGradient>
<linearGradient id="paint9_linear" x1="19.7422" y1="60.3224" x2="28.6443" y2="60.3224" gradientUnits="userSpaceOnUse">
<stop stop-color="#1DDADA"/>
<stop offset="1" stop-color="#2383DB"/>
</linearGradient>
<linearGradient id="paint10_linear" x1="8.77344" y1="60.3224" x2="17.6755" y2="60.3224" gradientUnits="userSpaceOnUse">
<stop stop-color="#1DDADA"/>
<stop offset="1" stop-color="#2383DB"/>
</linearGradient>
<linearGradient id="paint11_linear" x1="58.1289" y1="24.6775" x2="63.6927" y2="24.6775" gradientUnits="userSpaceOnUse">
<stop stop-color="#1DDADA"/>
<stop offset="1" stop-color="#2383DB"/>
</linearGradient>
<linearGradient id="paint12_linear" x1="58.1289" y1="43.3225" x2="63.6927" y2="43.3225" gradientUnits="userSpaceOnUse">
<stop stop-color="#1DDADA"/>
<stop offset="1" stop-color="#2383DB"/>
</linearGradient>
<linearGradient id="paint13_linear" x1="4.38672" y1="24.6775" x2="9.95053" y2="24.6775" gradientUnits="userSpaceOnUse">
<stop stop-color="#1DDADA"/>
<stop offset="1" stop-color="#2383DB"/>
</linearGradient>
<linearGradient id="paint14_linear" x1="4.38672" y1="43.3225" x2="9.95053" y2="43.3225" gradientUnits="userSpaceOnUse">
<stop stop-color="#1DDADA"/>
<stop offset="1" stop-color="#2383DB"/>
</linearGradient>
<linearGradient id="paint15_linear" x1="28.5156" y1="34.0002" x2="39.6432" y2="34.0002" gradientUnits="userSpaceOnUse">
<stop stop-color="#1DDADA"/>
<stop offset="1" stop-color="#2383DB"/>
</linearGradient>
<linearGradient id="paint16_linear" x1="21.9336" y1="31.7851" x2="41.9199" y2="31.7851" gradientUnits="userSpaceOnUse">
<stop stop-color="#1DDADA"/>
<stop offset="1" stop-color="#2383DB"/>
</linearGradient>
<linearGradient id="paint17_linear" x1="26.3633" y1="36.2148" x2="46.3496" y2="36.2148" gradientUnits="userSpaceOnUse">
<stop stop-color="#1DDADA"/>
<stop offset="1" stop-color="#2383DB"/>
</linearGradient>
<linearGradient id="paint18_linear" x1="48.2578" y1="34.0001" x2="50.4833" y2="34.0001" gradientUnits="userSpaceOnUse">
<stop stop-color="#1DDADA"/>
<stop offset="1" stop-color="#2383DB"/>
</linearGradient>
<linearGradient id="paint19_linear" x1="52.6445" y1="34.0001" x2="54.8701" y2="34.0001" gradientUnits="userSpaceOnUse">
<stop stop-color="#1DDADA"/>
<stop offset="1" stop-color="#2383DB"/>
</linearGradient>
<linearGradient id="paint20_linear" x1="57.0312" y1="34.0001" x2="59.2568" y2="34.0001" gradientUnits="userSpaceOnUse">
<stop stop-color="#1DDADA"/>
<stop offset="1" stop-color="#2383DB"/>
</linearGradient>
<linearGradient id="paint21_linear" x1="8.77344" y1="34.0001" x2="10.999" y2="34.0001" gradientUnits="userSpaceOnUse">
<stop stop-color="#1DDADA"/>
<stop offset="1" stop-color="#2383DB"/>
</linearGradient>
<linearGradient id="paint22_linear" x1="13.1602" y1="34.0001" x2="15.3857" y2="34.0001" gradientUnits="userSpaceOnUse">
<stop stop-color="#1DDADA"/>
<stop offset="1" stop-color="#2383DB"/>
</linearGradient>
<linearGradient id="paint23_linear" x1="17.5469" y1="34.0001" x2="19.7724" y2="34.0001" gradientUnits="userSpaceOnUse">
<stop stop-color="#1DDADA"/>
<stop offset="1" stop-color="#2383DB"/>
</linearGradient>
</defs>
</svg>
