<svg width="97" height="97" viewBox="0 0 97 97" fill="none" xmlns="http://www.w3.org/2000/svg">
<g clip-path="url(#clip0)">
<path d="M75.1225 84.8504C73.9319 80.8859 70.6637 77.9634 66.5912 77.2218L56.3249 75.3569V74.5449C58.1444 73.4888 59.7277 72.0761 60.9887 70.4036H64.1474C66.7352 70.4036 68.841 68.2978 68.841 65.7101V42.4348C68.841 38.0682 65.9811 34.2602 61.8335 33.0211L61.0513 32.2388C57.4122 28.6013 52.5763 26.5972 47.4275 26.5972C36.8044 26.5972 28.1636 35.2396 28.1636 45.8611V57.8875C28.1636 60.9039 30.3085 63.4274 33.1528 64.0157C34.0305 68.5121 36.8404 72.317 40.6797 74.5449V75.3569L30.4133 77.2233C26.3393 77.9649 23.0726 80.8874 21.882 84.8519L18.2383 97.0004H78.7663L75.1225 84.8504ZM65.712 65.7101C65.712 66.5721 65.0111 67.2746 64.1474 67.2746H62.8317C63.2854 66.2404 63.6296 65.15 63.8518 64.0157C64.5214 63.8765 65.1378 63.6105 65.712 63.2757V65.7101ZM64.1474 60.5816V55.1934C65.0783 55.7363 65.712 56.7344 65.712 57.8875C65.712 59.0405 65.0783 60.0387 64.1474 60.5816ZM32.8571 60.58C31.9262 60.0387 31.2926 59.0405 31.2926 57.8875C31.2926 56.7344 31.9262 55.7363 32.8571 55.1934V60.58ZM32.8571 50.0649V51.8516C32.3002 51.9971 31.7776 52.2161 31.2926 52.4993V45.8611C31.2926 36.9637 38.5316 29.7262 47.4275 29.7262C51.7393 29.7262 55.7914 31.4049 58.8375 34.4526L60.2174 35.8325L60.6398 35.9373C63.6265 36.6852 65.712 39.3558 65.712 42.4348V52.4993C65.227 52.2161 64.7044 51.9955 64.1474 51.8516V50.0649H59.1848C54.945 50.0649 50.8944 48.0404 48.3505 44.6501L47.1083 42.9886L43.998 46.0989C41.4401 48.6568 38.0388 50.0649 34.4216 50.0649H32.8571ZM35.9862 61.0165V53.122C39.8489 52.7637 43.4348 51.0881 46.2103 48.3095L46.8189 47.7009C49.9588 51.1632 54.4772 53.1924 59.1848 53.1924H61.0184V61.015C61.0184 63.296 60.3957 65.43 59.3256 67.273H48.5023V70.4021H56.7535C54.5476 72.3436 51.6642 73.5311 48.5023 73.5311C41.6012 73.5326 35.9862 67.9176 35.9862 61.0165ZM43.9417 75.9796C45.3858 76.4207 46.9159 76.6617 48.5023 76.6617C50.0887 76.6617 51.6188 76.4207 53.0629 75.9796L48.5023 79.3996L43.9417 75.9796ZM46.1211 81.5242L42.9295 84.7174L40.8565 78.5047L41.8531 78.3232L46.1211 81.5242ZM55.1515 78.3232L56.1481 78.5047L54.0751 84.7174L50.8835 81.5242L55.1515 78.3232ZM22.4437 93.8714L24.8812 85.75C25.7308 82.9182 28.065 80.8296 30.975 80.3007L37.7494 79.0695L41.5621 90.5092L48.5023 83.5675L55.4456 90.5092L59.2583 79.0695L66.0327 80.3007C68.9411 80.8296 71.277 82.9182 72.1265 85.7484L74.5609 93.8714H22.4437Z" fill="white"/>
<path d="M75.1225 84.8504C73.9319 80.8859 70.6637 77.9634 66.5912 77.2218L56.3249 75.3569V74.5449C58.1444 73.4888 59.7277 72.0761 60.9887 70.4036H64.1474C66.7352 70.4036 68.841 68.2978 68.841 65.7101V42.4348C68.841 38.0682 65.9811 34.2602 61.8335 33.0211L61.0513 32.2388C57.4122 28.6013 52.5763 26.5972 47.4275 26.5972C36.8044 26.5972 28.1636 35.2396 28.1636 45.8611V57.8875C28.1636 60.9039 30.3085 63.4274 33.1528 64.0157C34.0305 68.5121 36.8404 72.317 40.6797 74.5449V75.3569L30.4133 77.2233C26.3393 77.9649 23.0726 80.8874 21.882 84.8519L18.2383 97.0004H78.7663L75.1225 84.8504ZM65.712 65.7101C65.712 66.5721 65.0111 67.2746 64.1474 67.2746H62.8317C63.2854 66.2404 63.6296 65.15 63.8518 64.0157C64.5214 63.8765 65.1378 63.6105 65.712 63.2757V65.7101ZM64.1474 60.5816V55.1934C65.0783 55.7363 65.712 56.7344 65.712 57.8875C65.712 59.0405 65.0783 60.0387 64.1474 60.5816ZM32.8571 60.58C31.9262 60.0387 31.2926 59.0405 31.2926 57.8875C31.2926 56.7344 31.9262 55.7363 32.8571 55.1934V60.58ZM32.8571 50.0649V51.8516C32.3002 51.9971 31.7776 52.2161 31.2926 52.4993V45.8611C31.2926 36.9637 38.5316 29.7262 47.4275 29.7262C51.7393 29.7262 55.7914 31.4049 58.8375 34.4526L60.2174 35.8325L60.6398 35.9373C63.6265 36.6852 65.712 39.3558 65.712 42.4348V52.4993C65.227 52.2161 64.7044 51.9955 64.1474 51.8516V50.0649H59.1848C54.945 50.0649 50.8944 48.0404 48.3505 44.6501L47.1083 42.9886L43.998 46.0989C41.4401 48.6568 38.0388 50.0649 34.4216 50.0649H32.8571ZM35.9862 61.0165V53.122C39.8489 52.7637 43.4348 51.0881 46.2103 48.3095L46.8189 47.7009C49.9588 51.1632 54.4772 53.1924 59.1848 53.1924H61.0184V61.015C61.0184 63.296 60.3957 65.43 59.3256 67.273H48.5023V70.4021H56.7535C54.5476 72.3436 51.6642 73.5311 48.5023 73.5311C41.6012 73.5326 35.9862 67.9176 35.9862 61.0165ZM43.9417 75.9796C45.3858 76.4207 46.9159 76.6617 48.5023 76.6617C50.0887 76.6617 51.6188 76.4207 53.0629 75.9796L48.5023 79.3996L43.9417 75.9796ZM46.1211 81.5242L42.9295 84.7174L40.8565 78.5047L41.8531 78.3232L46.1211 81.5242ZM55.1515 78.3232L56.1481 78.5047L54.0751 84.7174L50.8835 81.5242L55.1515 78.3232ZM22.4437 93.8714L24.8812 85.75C25.7308 82.9182 28.065 80.8296 30.975 80.3007L37.7494 79.0695L41.5621 90.5092L48.5023 83.5675L55.4456 90.5092L59.2583 79.0695L66.0327 80.3007C68.9411 80.8296 71.277 82.9182 72.1265 85.7484L74.5609 93.8714H22.4437Z" fill="url(#paint0_linear)"/>
<path d="M32.8548 0H4.69355C2.10584 0 0 2.10584 0 4.69355V23.4677C0 26.0555 2.10584 28.1613 4.69355 28.1613H11.9951L27.1146 39.5025L25.4954 28.1613H32.8548C35.4425 28.1613 37.5484 26.0555 37.5484 23.4677V4.69355C37.5484 2.10584 35.4425 0 32.8548 0ZM34.4193 23.4677C34.4193 24.3298 33.7184 25.0323 32.8548 25.0323H21.886L22.9499 32.4653L13.0371 25.0323H4.69355C3.82994 25.0323 3.12903 24.3298 3.12903 23.4677V4.69355C3.12903 3.8315 3.82994 3.12903 4.69355 3.12903H32.8548C33.7184 3.12903 34.4193 3.8315 34.4193 4.69355V23.4677Z" fill="white"/>
<path d="M32.8548 0H4.69355C2.10584 0 0 2.10584 0 4.69355V23.4677C0 26.0555 2.10584 28.1613 4.69355 28.1613H11.9951L27.1146 39.5025L25.4954 28.1613H32.8548C35.4425 28.1613 37.5484 26.0555 37.5484 23.4677V4.69355C37.5484 2.10584 35.4425 0 32.8548 0ZM34.4193 23.4677C34.4193 24.3298 33.7184 25.0323 32.8548 25.0323H21.886L22.9499 32.4653L13.0371 25.0323H4.69355C3.82994 25.0323 3.12903 24.3298 3.12903 23.4677V4.69355C3.12903 3.8315 3.82994 3.12903 4.69355 3.12903H32.8548C33.7184 3.12903 34.4193 3.8315 34.4193 4.69355V23.4677Z" fill="url(#paint1_linear)"/>
<path d="M31.2901 6.25781H6.25781V9.38684H31.2901V6.25781Z" fill="white"/>
<path d="M31.2901 6.25781H6.25781V9.38684H31.2901V6.25781Z" fill="url(#paint2_linear)"/>
<path d="M25.032 18.7744H6.25781V21.9034H25.032V18.7744Z" fill="white"/>
<path d="M25.032 18.7744H6.25781V21.9034H25.032V18.7744Z" fill="url(#paint3_linear)"/>
<path d="M31.2901 12.5161H6.25781V15.6451H31.2901V12.5161Z" fill="white"/>
<path d="M31.2901 12.5161H6.25781V15.6451H31.2901V12.5161Z" fill="url(#paint4_linear)"/>
<path d="M31.2931 18.7739H28.1641V21.903H31.2931V18.7739Z" fill="white"/>
<path d="M31.2931 18.7739H28.1641V21.903H31.2931V18.7739Z" fill="url(#paint5_linear)"/>
</g>
<defs>
<linearGradient id="paint0_linear" x1="48.5023" y1="26.5972" x2="48.5023" y2="97.0004" gradientUnits="userSpaceOnUse">
<stop stop-color="white"/>
<stop offset="1" stop-color="#B4B4B4"/>
</linearGradient>
<linearGradient id="paint1_linear" x1="18.7742" y1="0" x2="18.7742" y2="39.5025" gradientUnits="userSpaceOnUse">
<stop stop-color="white"/>
<stop offset="1" stop-color="#B4B4B4"/>
</linearGradient>
<linearGradient id="paint2_linear" x1="18.7739" y1="6.25781" x2="18.7739" y2="9.38684" gradientUnits="userSpaceOnUse">
<stop stop-color="white"/>
<stop offset="1" stop-color="#B4B4B4"/>
</linearGradient>
<linearGradient id="paint3_linear" x1="15.6449" y1="18.7744" x2="15.6449" y2="21.9034" gradientUnits="userSpaceOnUse">
<stop stop-color="white"/>
<stop offset="1" stop-color="#B4B4B4"/>
</linearGradient>
<linearGradient id="paint4_linear" x1="18.7739" y1="12.5161" x2="18.7739" y2="15.6451" gradientUnits="userSpaceOnUse">
<stop stop-color="white"/>
<stop offset="1" stop-color="#B4B4B4"/>
</linearGradient>
<linearGradient id="paint5_linear" x1="29.7286" y1="18.7739" x2="29.7286" y2="21.903" gradientUnits="userSpaceOnUse">
<stop stop-color="white"/>
<stop offset="1" stop-color="#B4B4B4"/>
</linearGradient>
<clipPath id="clip0">
<rect width="97" height="97" fill="white"/>
</clipPath>
</defs>
</svg>
