<svg width="68" height="68" viewBox="0 0 68 68" fill="none" xmlns="http://www.w3.org/2000/svg">
<path d="M47.1605 26.3228C41.5933 26.3228 36.5405 28.5306 32.7983 32.1006C35.5742 29.1536 37.2896 25.1975 37.2896 20.8389C37.2896 16.8927 35.8594 13.0705 33.2622 10.0752L31.605 11.5131C33.8567 14.1091 35.096 17.4214 35.096 20.8389C35.096 28.7006 28.6996 35.097 20.838 35.097C17.4204 35.097 14.1082 33.8576 11.5121 31.606L10.0742 33.2632C13.0695 35.8604 16.8918 37.2906 20.838 37.2906C25.1965 37.2906 29.1526 35.5752 32.0996 32.7993C28.5296 36.5415 26.3218 41.5943 26.3218 47.1615C26.3218 58.6524 35.6696 68.0002 47.1605 68.0002C58.6514 68.0002 67.9992 58.6524 67.9992 47.1615C67.9992 35.6706 58.6514 26.3228 47.1605 26.3228ZM47.1605 65.8067C36.8794 65.8067 28.5154 57.4427 28.5154 47.1615C28.5154 36.8804 36.8794 28.5164 47.1605 28.5164C57.4417 28.5164 65.8057 36.8804 65.8057 47.1615C65.8057 57.4427 57.4417 65.8067 47.1605 65.8067Z" fill="url(#paint0_linear)"/>
<path d="M55.9365 20.8389L67.6358 12.0647L55.9365 3.29053V7.67762H44.9688V9.87117H58.13V7.67762L63.9791 12.0647L58.13 16.4518V14.2583H44.9688V16.4518H55.9365V20.8389Z" fill="url(#paint1_linear)"/>
<path d="M12.0626 47.1611L0.363281 55.9353L12.0626 64.7095V60.3224H23.0303V58.1289H9.86902V60.3224L4.01993 55.9353L9.86902 51.5482V53.7418H23.0303V51.5482H12.0626V47.1611Z" fill="url(#paint2_linear)"/>
<path d="M54.8392 42.7741C54.8392 40.1265 52.9517 37.911 50.4521 37.401V35.0967H48.2586V37.2902H43.8715V35.0967H41.6779V37.2902H39.4844V57.0322H41.6779V59.2257H43.8715V57.0322H48.2586V59.2257H50.4521V56.9214C52.9517 56.4114 54.8392 54.197 54.8392 51.5483C54.8392 49.7562 53.975 48.1626 52.6424 47.1612C53.975 46.1598 54.8392 44.5662 54.8392 42.7741ZM52.6457 51.5483C52.6457 53.3624 51.1694 54.8386 49.3553 54.8386H41.6779V48.258H49.3553C51.1694 48.258 52.6457 49.7342 52.6457 51.5483ZM49.3553 46.0644H41.6779V39.4838H49.3553C51.1694 39.4838 52.6457 40.96 52.6457 42.7741C52.6457 44.5882 51.1694 46.0644 49.3553 46.0644Z" fill="url(#paint3_linear)"/>
<path d="M47.1626 32.903C50.5812 32.903 53.8924 34.1424 56.4884 36.3951L57.9263 34.7379C54.931 32.1397 51.1087 30.7095 47.1626 30.7095C38.0911 30.7095 30.7109 38.0897 30.7109 47.1611C30.7109 51.1084 32.1411 54.9295 34.7383 57.9237L36.3955 56.4859C34.1438 53.892 32.9045 50.5797 32.9045 47.1611C32.9045 39.2994 39.3009 32.903 47.1626 32.903Z" fill="url(#paint4_linear)"/>
<path d="M59.5864 36.3984L57.9292 37.8363C60.1809 40.4302 61.4202 43.7424 61.4202 47.1611C61.4202 55.0228 55.0239 61.4191 47.1622 61.4191C43.7435 61.4191 40.4324 60.1787 37.8363 57.927L36.3984 59.5853C39.3937 62.1825 43.216 63.6127 47.1622 63.6127C56.2336 63.6127 63.6138 56.2325 63.6138 47.1611C63.6138 43.2138 62.1836 39.3926 59.5864 36.3984Z" fill="url(#paint5_linear)"/>
<path d="M28.515 17.5486V16.4518C28.515 13.428 26.0549 10.968 23.0311 10.968H21.9344V8.77441H19.7408V10.968H18.644C15.6202 10.968 13.1602 13.428 13.1602 16.4518C13.1602 19.4756 15.6202 21.9357 18.644 21.9357H23.0311C24.8452 21.9357 26.3214 23.412 26.3214 25.226C26.3214 27.0401 24.8452 28.5163 23.0311 28.5163H18.644C16.83 28.5163 15.3537 27.0401 15.3537 25.226V24.1293H13.1602V25.226C13.1602 28.2498 15.6202 30.7099 18.644 30.7099H19.7408V32.9034H21.9344V30.7099H23.0311C26.0549 30.7099 28.515 28.2498 28.515 25.226C28.515 22.2022 26.0549 19.7422 23.0311 19.7422H18.644C16.83 19.7422 15.3537 18.2659 15.3537 16.4518C15.3537 14.6378 16.83 13.1615 18.644 13.1615H23.0311C24.8452 13.1615 26.3214 14.6378 26.3214 16.4518V17.5486H28.515Z" fill="url(#paint6_linear)"/>
<path d="M31.6021 8.41456C28.6068 5.8174 24.7845 4.38721 20.8383 4.38721C11.7669 4.38721 4.38672 11.7674 4.38672 20.8388C4.38672 24.785 5.81691 28.6073 8.41407 31.6026L10.0713 30.1647C7.81962 27.5686 6.58027 24.2564 6.58027 20.8388C6.58027 12.9771 12.9767 6.58076 20.8383 6.58076C24.2559 6.58076 27.5681 7.82011 30.1642 10.0718L31.6021 8.41456Z" fill="url(#paint7_linear)"/>
<path d="M20.8387 39.4839C10.5575 39.4839 2.19355 31.1199 2.19355 20.8387C2.19355 10.5575 10.5575 2.19355 20.8387 2.19355C31.1199 2.19355 39.4839 10.5575 39.4839 20.8387C39.4839 22.1987 39.3204 23.6015 38.998 25.0097L41.1356 25.4989C41.4954 23.9305 41.6774 22.3632 41.6774 20.8387C41.6774 9.34781 32.3296 0 20.8387 0C9.34781 0 0 9.34781 0 20.8387C0 32.3296 9.34781 41.6774 20.8387 41.6774C22.3588 41.6774 23.9261 41.4954 25.4989 41.1367L25.0108 38.9991C23.5993 39.3204 22.1954 39.4839 20.8387 39.4839Z" fill="url(#paint8_linear)"/>
<path d="M53.7404 18.645H51.5469V20.8386H53.7404V18.645Z" fill="url(#paint9_linear)"/>
<path d="M49.3537 18.645H47.1602V20.8386H49.3537V18.645Z" fill="url(#paint10_linear)"/>
<path d="M20.8381 47.1611H18.6445V49.3547H20.8381V47.1611Z" fill="url(#paint11_linear)"/>
<path d="M16.4514 47.1611H14.2578V49.3547H16.4514V47.1611Z" fill="url(#paint12_linear)"/>
<defs>
<linearGradient id="paint0_linear" x1="10.0742" y1="39.0377" x2="68.8436" y2="39.0377" gradientUnits="userSpaceOnUse">
<stop stop-color="#1DDADA"/>
<stop offset="1" stop-color="#2383DB"/>
</linearGradient>
<linearGradient id="paint1_linear" x1="44.9687" y1="12.0647" x2="67.9662" y2="12.0647" gradientUnits="userSpaceOnUse">
<stop stop-color="#1DDADA"/>
<stop offset="1" stop-color="#2383DB"/>
</linearGradient>
<linearGradient id="paint2_linear" x1="0.363281" y1="55.9353" x2="23.3607" y2="55.9353" gradientUnits="userSpaceOnUse">
<stop stop-color="#1DDADA"/>
<stop offset="1" stop-color="#2383DB"/>
</linearGradient>
<linearGradient id="paint3_linear" x1="39.4844" y1="47.1612" x2="55.063" y2="47.1612" gradientUnits="userSpaceOnUse">
<stop stop-color="#1DDADA"/>
<stop offset="1" stop-color="#2383DB"/>
</linearGradient>
<linearGradient id="paint4_linear" x1="30.7109" y1="44.3166" x2="58.323" y2="44.3166" gradientUnits="userSpaceOnUse">
<stop stop-color="#1DDADA"/>
<stop offset="1" stop-color="#2383DB"/>
</linearGradient>
<linearGradient id="paint5_linear" x1="36.3984" y1="50.0056" x2="64.0105" y2="50.0056" gradientUnits="userSpaceOnUse">
<stop stop-color="#1DDADA"/>
<stop offset="1" stop-color="#2383DB"/>
</linearGradient>
<linearGradient id="paint6_linear" x1="13.1602" y1="20.8389" x2="28.7388" y2="20.8389" gradientUnits="userSpaceOnUse">
<stop stop-color="#1DDADA"/>
<stop offset="1" stop-color="#2383DB"/>
</linearGradient>
<linearGradient id="paint7_linear" x1="4.38672" y1="17.9949" x2="31.9988" y2="17.9949" gradientUnits="userSpaceOnUse">
<stop stop-color="#1DDADA"/>
<stop offset="1" stop-color="#2383DB"/>
</linearGradient>
<linearGradient id="paint8_linear" x1="0" y1="20.8387" x2="42.285" y2="20.8387" gradientUnits="userSpaceOnUse">
<stop stop-color="#1DDADA"/>
<stop offset="1" stop-color="#2383DB"/>
</linearGradient>
<linearGradient id="paint9_linear" x1="51.5469" y1="19.7418" x2="53.7724" y2="19.7418" gradientUnits="userSpaceOnUse">
<stop stop-color="#1DDADA"/>
<stop offset="1" stop-color="#2383DB"/>
</linearGradient>
<linearGradient id="paint10_linear" x1="47.1602" y1="19.7418" x2="49.3857" y2="19.7418" gradientUnits="userSpaceOnUse">
<stop stop-color="#1DDADA"/>
<stop offset="1" stop-color="#2383DB"/>
</linearGradient>
<linearGradient id="paint11_linear" x1="18.6445" y1="48.2579" x2="20.8701" y2="48.2579" gradientUnits="userSpaceOnUse">
<stop stop-color="#1DDADA"/>
<stop offset="1" stop-color="#2383DB"/>
</linearGradient>
<linearGradient id="paint12_linear" x1="14.2578" y1="48.2579" x2="16.4833" y2="48.2579" gradientUnits="userSpaceOnUse">
<stop stop-color="#1DDADA"/>
<stop offset="1" stop-color="#2383DB"/>
</linearGradient>
</defs>
</svg>
