<svg width="140" height="140" viewBox="0 0 140 140" fill="none" xmlns="http://www.w3.org/2000/svg">
<path d="M99.3548 117.419V121.936H135.484V128.71C135.484 132.445 132.445 135.484 128.71 135.484H11.2903C7.55548 135.484 4.51613 132.445 4.51613 128.71V121.936H40.6452V117.419H0V128.71C0 134.935 5.06484 140 11.2903 140H128.71C134.935 140 140 134.935 140 128.71V117.419H99.3548Z" fill="url(#paint0_linear)"/>
<path d="M51.9344 130.968H88.0634C91.7982 130.968 94.8376 127.928 94.8376 124.194V117.419H45.1602V124.194C45.1602 127.928 48.1995 130.968 51.9344 130.968ZM49.6763 121.936H90.3215V124.194C90.3215 125.438 89.3098 126.452 88.0634 126.452H51.9344C50.6879 126.452 49.6763 125.438 49.6763 124.194V121.936Z" fill="url(#paint1_linear)"/>
<path d="M18.063 126.452H13.5469V130.968H18.063V126.452Z" fill="url(#paint2_linear)"/>
<path d="M27.0982 126.452H22.582V130.968H27.0982V126.452Z" fill="url(#paint3_linear)"/>
<path d="M36.1294 126.452H31.6133V130.968H36.1294V126.452Z" fill="url(#paint4_linear)"/>
<path d="M97.0977 27.0967H124.194C127.929 27.0967 130.969 30.1361 130.969 33.8709V112.903H135.485V33.8709C135.485 27.6454 130.42 22.5806 124.194 22.5806H97.0977V27.0967Z" fill="url(#paint5_linear)"/>
<path d="M9.03175 33.8709C9.03175 30.1361 12.0711 27.0967 15.8059 27.0967H42.9027V22.5806H15.8059C9.58046 22.5806 4.51562 27.6454 4.51562 33.8709V112.903H9.03175V33.8709Z" fill="url(#paint6_linear)"/>
<path d="M126.452 112.903V36.1289C126.452 33.6383 124.426 31.6128 121.936 31.6128H103.871V36.1289H121.936V112.903H126.452Z" fill="url(#paint7_linear)"/>
<path d="M36.1275 31.6128H18.063C15.5724 31.6128 13.5469 33.6383 13.5469 36.1289V112.903H18.063V36.1289H36.1275V31.6128Z" fill="url(#paint8_linear)"/>
<path d="M103.872 0H99.3555V4.51613H103.872V0Z" fill="url(#paint9_linear)"/>
<path d="M103.872 9.03223H99.3555V13.5484H103.872V9.03223Z" fill="url(#paint10_linear)"/>
<path d="M108.387 4.51611H103.871V9.03224H108.387V4.51611Z" fill="url(#paint11_linear)"/>
<path d="M99.356 4.51611H94.8398V9.03224H99.356V4.51611Z" fill="url(#paint12_linear)"/>
<path d="M47.4185 4.51611H42.9023V9.03224H47.4185V4.51611Z" fill="url(#paint13_linear)"/>
<path d="M47.4185 13.5483H42.9023V18.0645H47.4185V13.5483Z" fill="url(#paint14_linear)"/>
<path d="M51.9341 9.03223H47.418V13.5484H51.9341V9.03223Z" fill="url(#paint15_linear)"/>
<path d="M42.9028 9.03223H38.3867V13.5484H42.9028V9.03223Z" fill="url(#paint16_linear)"/>
<path d="M36.1294 51.9354C36.1294 54.2048 36.3755 56.4719 36.8362 58.7096H31.6133V63.2257H58.7101H74.5165H108.387V58.7096H103.165C103.625 56.4719 103.871 54.2048 103.871 51.9354C103.871 33.259 88.6768 18.0645 70.0004 18.0645C51.3239 18.0645 36.1294 33.259 36.1294 51.9354ZM74.5165 58.7096H63.2262V54.1935H74.5165C75.763 54.1935 76.7746 55.2074 76.7746 56.4515C76.7746 57.6957 75.763 58.7096 74.5165 58.7096ZM74.5165 49.6774H63.2262V45.1612H74.5165C75.763 45.1612 76.7746 46.1751 76.7746 47.4193C76.7746 48.6635 75.763 49.6774 74.5165 49.6774ZM70.0004 22.5806C86.1862 22.5806 99.3552 35.7496 99.3552 51.9354C99.3552 54.207 99.073 56.4764 98.54 58.7096H93.85C94.4891 56.4967 94.8391 54.2341 94.8391 51.9354C94.8391 46.2203 92.8452 40.6383 89.2278 36.217L85.7346 39.078C88.6926 42.6932 90.323 47.2612 90.323 51.9354C90.323 54.2409 89.9007 56.5103 89.1126 58.7096H80.8752C81.1281 58.0006 81.2907 57.2464 81.2907 56.4515C81.2907 54.7174 80.6359 53.1345 79.561 51.9354C80.6359 50.7364 81.2907 49.1535 81.2907 47.4193C81.2907 44.4793 79.3962 41.9954 76.7746 41.0606V36.129H72.2584V40.6451H67.7423V36.129H63.2262V40.6451H58.7101V58.7096H50.8588C50.0888 56.5396 49.6778 54.2703 49.6778 51.9354C49.6778 40.7309 58.7936 31.6128 70.0004 31.6128C74.6746 31.6128 79.2426 33.2432 82.8555 36.2012L85.7188 32.7057C81.2975 29.0883 75.7155 27.0967 70.0004 27.0967C56.3052 27.0967 45.1617 38.2403 45.1617 51.9354C45.1617 54.2522 45.5026 56.517 46.1259 58.7096H41.4584C40.9278 56.4764 40.6455 54.207 40.6455 51.9354C40.6455 35.7496 53.8146 22.5806 70.0004 22.5806Z" fill="url(#paint17_linear)"/>
<path d="M56.3512 88.0647H51.9367V112.903H56.4528V92.5808H65.5867L45.1625 66.3218L24.7383 92.5808H33.8722V112.903H38.3883V88.0647H33.9738L45.1625 73.6786L56.3512 88.0647Z" fill="url(#paint18_linear)"/>
<path d="M115.262 88.0643H106.129V67.7417H101.612V92.5804H106.027L94.8382 106.967L83.6495 92.5804H88.0641V67.7417H83.5479V88.0643H74.4141L94.8382 114.323L115.262 88.0643Z" fill="url(#paint19_linear)"/>
<defs>
<linearGradient id="paint0_linear" x1="0" y1="128.71" x2="142.041" y2="128.71" gradientUnits="userSpaceOnUse">
<stop stop-color="#1DDADA"/>
<stop offset="1" stop-color="#2383DB"/>
</linearGradient>
<linearGradient id="paint1_linear" x1="45.1602" y1="124.194" x2="95.5617" y2="124.194" gradientUnits="userSpaceOnUse">
<stop stop-color="#1DDADA"/>
<stop offset="1" stop-color="#2383DB"/>
</linearGradient>
<linearGradient id="paint2_linear" x1="13.5469" y1="128.71" x2="18.1288" y2="128.71" gradientUnits="userSpaceOnUse">
<stop stop-color="#1DDADA"/>
<stop offset="1" stop-color="#2383DB"/>
</linearGradient>
<linearGradient id="paint3_linear" x1="22.582" y1="128.71" x2="27.164" y2="128.71" gradientUnits="userSpaceOnUse">
<stop stop-color="#1DDADA"/>
<stop offset="1" stop-color="#2383DB"/>
</linearGradient>
<linearGradient id="paint4_linear" x1="31.6133" y1="128.71" x2="36.1952" y2="128.71" gradientUnits="userSpaceOnUse">
<stop stop-color="#1DDADA"/>
<stop offset="1" stop-color="#2383DB"/>
</linearGradient>
<linearGradient id="paint5_linear" x1="97.0977" y1="67.7419" x2="136.044" y2="67.7419" gradientUnits="userSpaceOnUse">
<stop stop-color="#1DDADA"/>
<stop offset="1" stop-color="#2383DB"/>
</linearGradient>
<linearGradient id="paint6_linear" x1="4.51562" y1="67.7419" x2="43.4623" y2="67.7419" gradientUnits="userSpaceOnUse">
<stop stop-color="#1DDADA"/>
<stop offset="1" stop-color="#2383DB"/>
</linearGradient>
<linearGradient id="paint7_linear" x1="103.871" y1="72.258" x2="126.781" y2="72.258" gradientUnits="userSpaceOnUse">
<stop stop-color="#1DDADA"/>
<stop offset="1" stop-color="#2383DB"/>
</linearGradient>
<linearGradient id="paint8_linear" x1="13.5469" y1="72.258" x2="36.4567" y2="72.258" gradientUnits="userSpaceOnUse">
<stop stop-color="#1DDADA"/>
<stop offset="1" stop-color="#2383DB"/>
</linearGradient>
<linearGradient id="paint9_linear" x1="99.3555" y1="2.25807" x2="103.937" y2="2.25807" gradientUnits="userSpaceOnUse">
<stop stop-color="#1DDADA"/>
<stop offset="1" stop-color="#2383DB"/>
</linearGradient>
<linearGradient id="paint10_linear" x1="99.3555" y1="11.2903" x2="103.937" y2="11.2903" gradientUnits="userSpaceOnUse">
<stop stop-color="#1DDADA"/>
<stop offset="1" stop-color="#2383DB"/>
</linearGradient>
<linearGradient id="paint11_linear" x1="103.871" y1="6.77418" x2="108.453" y2="6.77418" gradientUnits="userSpaceOnUse">
<stop stop-color="#1DDADA"/>
<stop offset="1" stop-color="#2383DB"/>
</linearGradient>
<linearGradient id="paint12_linear" x1="94.8398" y1="6.77418" x2="99.4218" y2="6.77418" gradientUnits="userSpaceOnUse">
<stop stop-color="#1DDADA"/>
<stop offset="1" stop-color="#2383DB"/>
</linearGradient>
<linearGradient id="paint13_linear" x1="42.9023" y1="6.77418" x2="47.4843" y2="6.77418" gradientUnits="userSpaceOnUse">
<stop stop-color="#1DDADA"/>
<stop offset="1" stop-color="#2383DB"/>
</linearGradient>
<linearGradient id="paint14_linear" x1="42.9023" y1="15.8064" x2="47.4843" y2="15.8064" gradientUnits="userSpaceOnUse">
<stop stop-color="#1DDADA"/>
<stop offset="1" stop-color="#2383DB"/>
</linearGradient>
<linearGradient id="paint15_linear" x1="47.418" y1="11.2903" x2="51.9999" y2="11.2903" gradientUnits="userSpaceOnUse">
<stop stop-color="#1DDADA"/>
<stop offset="1" stop-color="#2383DB"/>
</linearGradient>
<linearGradient id="paint16_linear" x1="38.3867" y1="11.2903" x2="42.9687" y2="11.2903" gradientUnits="userSpaceOnUse">
<stop stop-color="#1DDADA"/>
<stop offset="1" stop-color="#2383DB"/>
</linearGradient>
<linearGradient id="paint17_linear" x1="31.6133" y1="40.6451" x2="109.507" y2="40.6451" gradientUnits="userSpaceOnUse">
<stop stop-color="#1DDADA"/>
<stop offset="1" stop-color="#2383DB"/>
</linearGradient>
<linearGradient id="paint18_linear" x1="24.7383" y1="89.6126" x2="66.1821" y2="89.6126" gradientUnits="userSpaceOnUse">
<stop stop-color="#1DDADA"/>
<stop offset="1" stop-color="#2383DB"/>
</linearGradient>
<linearGradient id="paint19_linear" x1="74.4141" y1="91.0325" x2="115.858" y2="91.0325" gradientUnits="userSpaceOnUse">
<stop stop-color="#1DDADA"/>
<stop offset="1" stop-color="#2383DB"/>
</linearGradient>
</defs>
</svg>
