<svg width="141" height="140" viewBox="0 0 141 140" fill="none" xmlns="http://www.w3.org/2000/svg">
<path d="M0 115.161C0 121.387 5.06484 126.452 11.2903 126.452H45.1613V135.484H36.129V140H103.871V135.484H94.8387V126.452H128.71C134.935 126.452 140 121.387 140 115.161V108.387H0V115.161ZM90.3226 135.484H49.6774V126.452H90.3226V135.484ZM4.51613 112.903H135.484V115.161C135.484 118.896 132.445 121.936 128.71 121.936H11.2903C7.55548 121.936 4.51613 118.896 4.51613 115.161V112.903Z" fill="url(#paint0_linear)"/>
<path d="M128.711 20.3228H124.195V24.8389H128.711C132.446 24.8389 135.486 27.8782 135.486 31.6131V103.871H140.002V31.6131C140.002 25.3876 134.937 20.3228 128.711 20.3228Z" fill="url(#paint1_linear)"/>
<path d="M4.51613 31.6131C4.51613 27.8782 7.55548 24.8389 11.2903 24.8389H51.9355V20.3228H11.2903C5.06484 20.3228 0 25.3876 0 31.6131V103.871H4.51613V31.6131Z" fill="url(#paint2_linear)"/>
<path d="M81.2896 18.0645V22.5806H76.7734V45.1612H81.2896V49.6773H85.8057V45.1612H90.3218V49.6773H94.8379V44.7457C97.4596 43.8109 99.3541 41.327 99.3541 38.387C99.3541 36.6528 98.6992 35.0699 97.6244 33.8709C98.6992 32.6719 99.3541 31.089 99.3541 29.3548C99.3541 26.4148 97.4596 23.9309 94.8379 22.9961V18.0645H90.3218V22.5806H85.8057V18.0645H81.2896ZM92.5799 40.6451H81.2896V36.129H92.5799C93.8241 36.129 94.8379 37.1428 94.8379 38.387C94.8379 39.6312 93.8241 40.6451 92.5799 40.6451ZM92.5799 27.0967C93.8241 27.0967 94.8379 28.1106 94.8379 29.3548C94.8379 30.599 93.8241 31.6128 92.5799 31.6128H81.2896V27.0967H92.5799Z" fill="url(#paint3_linear)"/>
<path d="M72.3311 46.7284C69.373 43.1132 67.7427 38.5451 67.7427 33.8709C67.7427 22.6664 76.8608 13.5484 88.0653 13.5484C92.7395 13.5484 97.3075 15.1787 100.923 18.1367L103.784 14.6413C99.3624 11.0238 93.7804 9.03223 88.0653 9.03223C74.3701 9.03223 63.2266 20.1758 63.2266 33.8709C63.2266 39.5861 65.2182 45.168 68.8356 49.5893L72.3311 46.7284Z" fill="url(#paint4_linear)"/>
<path d="M88.066 54.1938C83.3918 54.1938 78.8238 52.5635 75.2086 49.6054L72.3477 53.1009C76.7689 56.7183 82.3509 58.7099 88.066 58.7099C101.761 58.7099 112.905 47.5664 112.905 33.8712C112.905 28.1561 110.913 22.5741 107.296 18.1528L103.8 21.0138C106.758 24.629 108.389 29.197 108.389 33.8712C108.389 45.0757 99.2706 54.1938 88.066 54.1938Z" fill="url(#paint5_linear)"/>
<path d="M45.1593 55.5168V60.9677H39.7083L31.6109 69.0652V74.5161H26.1599L18.0625 82.6135V103.871H39.3199L77.2509 65.94C80.6515 67.0916 84.278 67.7419 88.0625 67.7419C106.739 67.7419 121.933 52.5474 121.933 33.871C121.933 15.1945 106.739 0 88.0625 0C69.386 0 54.1915 15.1945 54.1915 33.871C54.1915 37.6555 54.8419 41.2819 55.9935 44.6826L45.1593 55.5168ZM88.0625 4.51613C104.248 4.51613 117.417 17.6852 117.417 33.871C117.417 50.0568 104.248 63.2258 88.0625 63.2258C71.8767 63.2258 58.7077 50.0568 58.7077 33.871C58.7077 17.6852 71.8767 4.51613 88.0625 4.51613ZM62.6028 56.1377L59.3693 59.3713L62.5622 62.5642L65.7957 59.3306C67.9048 61.1777 70.2373 62.7629 72.7573 64.0477L37.4502 99.3548H22.5786V84.4832L28.0296 79.0323H36.127V70.9348L41.578 65.4839H49.6754V57.3865L57.8857 49.1761C59.1683 51.6961 60.7557 54.0287 62.6028 56.1377Z" fill="url(#paint6_linear)"/>
<path d="M30.9538 94.1761L58.0508 67.0791L54.8574 63.8857L27.7604 90.9827L30.9538 94.1761Z" fill="url(#paint7_linear)"/>
<path d="M99.356 72.2578H94.8398V76.7739H99.356V72.2578Z" fill="url(#paint8_linear)"/>
<path d="M90.3208 72.2578H85.8047V76.7739H90.3208V72.2578Z" fill="url(#paint9_linear)"/>
<path d="M81.2896 72.2578H76.7734V76.7739H81.2896V72.2578Z" fill="url(#paint10_linear)"/>
<defs>
<linearGradient id="paint0_linear" x1="0" y1="124.194" x2="142.041" y2="124.194" gradientUnits="userSpaceOnUse">
<stop stop-color="#1DDADA"/>
<stop offset="1" stop-color="#2383DB"/>
</linearGradient>
<linearGradient id="paint1_linear" x1="124.195" y1="62.097" x2="140.232" y2="62.097" gradientUnits="userSpaceOnUse">
<stop stop-color="#1DDADA"/>
<stop offset="1" stop-color="#2383DB"/>
</linearGradient>
<linearGradient id="paint2_linear" x1="0" y1="62.097" x2="52.6926" y2="62.097" gradientUnits="userSpaceOnUse">
<stop stop-color="#1DDADA"/>
<stop offset="1" stop-color="#2383DB"/>
</linearGradient>
<linearGradient id="paint3_linear" x1="76.7734" y1="33.8709" x2="99.6832" y2="33.8709" gradientUnits="userSpaceOnUse">
<stop stop-color="#1DDADA"/>
<stop offset="1" stop-color="#2383DB"/>
</linearGradient>
<linearGradient id="paint4_linear" x1="63.2266" y1="29.3108" x2="104.375" y2="29.3108" gradientUnits="userSpaceOnUse">
<stop stop-color="#1DDADA"/>
<stop offset="1" stop-color="#2383DB"/>
</linearGradient>
<linearGradient id="paint5_linear" x1="72.3477" y1="38.4314" x2="113.496" y2="38.4314" gradientUnits="userSpaceOnUse">
<stop stop-color="#1DDADA"/>
<stop offset="1" stop-color="#2383DB"/>
</linearGradient>
<linearGradient id="paint6_linear" x1="18.0625" y1="51.9355" x2="123.448" y2="51.9355" gradientUnits="userSpaceOnUse">
<stop stop-color="#1DDADA"/>
<stop offset="1" stop-color="#2383DB"/>
</linearGradient>
<linearGradient id="paint7_linear" x1="56.4541" y1="65.4824" x2="28.9621" y2="92.9744" gradientUnits="userSpaceOnUse">
<stop stop-color="#1DDADA"/>
<stop offset="1" stop-color="#2383DB"/>
</linearGradient>
<linearGradient id="paint8_linear" x1="94.8398" y1="74.5159" x2="99.4218" y2="74.5159" gradientUnits="userSpaceOnUse">
<stop stop-color="#1DDADA"/>
<stop offset="1" stop-color="#2383DB"/>
</linearGradient>
<linearGradient id="paint9_linear" x1="85.8047" y1="74.5159" x2="90.3866" y2="74.5159" gradientUnits="userSpaceOnUse">
<stop stop-color="#1DDADA"/>
<stop offset="1" stop-color="#2383DB"/>
</linearGradient>
<linearGradient id="paint10_linear" x1="76.7734" y1="74.5159" x2="81.3554" y2="74.5159" gradientUnits="userSpaceOnUse">
<stop stop-color="#1DDADA"/>
<stop offset="1" stop-color="#2383DB"/>
</linearGradient>
</defs>
</svg>
