<svg width="69" height="68" viewBox="0 0 69 68" fill="none" xmlns="http://www.w3.org/2000/svg">
<path d="M37.2903 32.9032H22.8765C22.3863 31.0168 20.6841 29.6129 18.6452 29.6129V0H13.1613C10.1375 0 7.67742 2.46006 7.67742 5.48387V17.3477C6.61903 17.9564 5.72626 18.8349 5.13948 19.9108L2.278 25.1589C0.787484 27.8899 0 30.9773 0 34.0877V48.6672C0 51.4376 0.493548 54.1587 1.46639 56.7537L3.29032 61.6179V68H5.48387V61.2208L3.52065 55.9848C2.63994 53.6355 2.19355 51.1744 2.19355 48.6683V34.0877C2.19355 31.3436 2.8889 28.6192 4.20284 26.2096L7.06432 20.9615C7.23213 20.6566 7.4449 20.3814 7.67742 20.1247V29.6129C7.67742 31.4127 8.56142 32.9997 9.90497 34H9.87097V36.5697C9.87097 38.0339 10.4424 39.4115 11.4777 40.4468L13.6669 42.636C13.4651 43.0001 13.2315 43.3467 12.9354 43.6439C12.081 44.4972 10.9458 44.9677 9.73826 44.9677H7.67742V47.1613H9.73826C11.5326 47.1613 13.2183 46.4626 14.4851 45.1948C15.753 43.9258 16.4516 42.2401 16.4516 40.4479V34C16.4516 32.7903 17.4354 31.8065 18.6452 31.8065C19.8549 31.8065 20.8387 32.7903 20.8387 34V48.8218C20.8387 51.8105 19.9207 54.6753 18.1834 57.109L15.3548 61.0684V68H17.5484V61.7703L19.9679 58.3835C21.9728 55.5757 23.0323 52.269 23.0323 48.8218V35.0968H37.2903V32.9032ZM14.2581 40.1266L13.0286 38.8971C12.4155 38.284 12.0645 37.4362 12.0645 36.5697V34.986C12.4188 35.0584 12.7862 35.0968 13.1613 35.0968H14.2581V40.1266ZM16.4516 30.2227C15.4546 30.8051 14.711 31.7593 14.4138 32.9032H13.1613C11.3472 32.9032 9.87097 31.427 9.87097 29.6129V5.48387C9.87097 3.66981 11.3472 2.19355 13.1613 2.19355H16.4516V30.2227Z" fill="url(#paint0_linear)"/>
<path d="M62.5173 0H20.8398V2.19355H59.2269V31.8064H61.4205V2.19355H62.5173C64.3313 2.19355 65.8076 3.66981 65.8076 5.48387V29.6129C65.8076 31.427 64.3313 32.9032 62.5173 32.9032V35.0968C65.5411 35.0968 68.0011 32.6367 68.0011 29.6129V5.48387C68.0011 2.46006 65.5411 0 62.5173 0Z" fill="url(#paint1_linear)"/>
<path d="M14.26 13.1611H12.0664V21.9353H14.26V13.1611Z" fill="url(#paint2_linear)"/>
<path d="M63.5989 37.2903C62.8015 37.3001 62.0623 37.5392 61.4185 37.9209V37.2903C61.4185 34.8708 59.4509 32.9032 57.0314 32.9032C56.1222 32.9032 55.2765 33.1818 54.5757 33.6567C53.9758 31.9468 52.3635 30.7096 50.4507 30.7096C49.6479 30.7096 48.9054 30.9421 48.2572 31.3194V21.9354C48.2572 19.516 46.2896 17.5483 43.8701 17.5483C41.4506 17.5483 39.483 19.516 39.483 21.9354V37.2903H39.4095C35.8209 37.2903 32.9023 40.2088 32.9023 43.7963V55.5987C32.9023 58.2299 33.9289 60.7053 35.7923 62.5687L39.483 66.2616V68H41.6765V65.3523L37.3432 61.0179C35.8943 59.569 35.0959 57.6442 35.0959 55.5987V43.7963C35.0959 41.4185 37.0306 39.4838 39.4095 39.4838H39.483V48.258H41.6765V21.9354C41.6765 20.7257 42.6603 19.7419 43.8701 19.7419C45.0798 19.7419 46.0636 20.7257 46.0636 21.9354V35.0967V48.258H48.2572V35.0967C48.2572 33.887 49.241 32.9032 50.4507 32.9032C51.6605 32.9032 52.6443 33.887 52.6443 35.0967V37.2903V48.258H54.8378V37.2903C54.8378 36.0805 55.8216 35.0967 57.0314 35.0967C58.2411 35.0967 59.2249 36.0805 59.2249 37.2903V41.7158V48.258H61.4185V41.7158C61.4185 40.4994 62.4078 39.4981 63.6252 39.4838C64.1966 39.497 64.7527 39.6977 65.1651 40.1057C65.5785 40.5137 65.8056 41.0588 65.8056 41.639V55.5921C65.8056 57.6431 65.006 59.5701 63.5561 61.0201L59.2249 65.3512V68H61.4185C61.4185 68 61.4185 66.8999 61.4185 66.2605L65.1069 62.572C66.9714 60.7075 67.9991 58.2299 67.9991 55.5921V41.639C67.9991 40.4676 67.5407 39.3698 66.7071 38.5461C65.8747 37.7224 64.7614 37.2782 63.5989 37.2903Z" fill="url(#paint3_linear)"/>
<path d="M36.1922 12.2664V9.87109H33.9986V12.0646H31.8051V9.87109H29.6115V12.0646H27.418V23.0324H29.6115V25.2259H31.8051V23.0324H33.9986V25.2259H36.1922V22.8306C37.4655 22.3765 38.3857 21.1701 38.3857 19.7421C38.3857 18.8997 38.0676 18.1309 37.5456 17.5485C38.0676 16.9661 38.3857 16.1973 38.3857 15.355C38.3857 13.927 37.4655 12.7205 36.1922 12.2664ZM35.0954 20.8388H29.6115V18.6453H35.0954C35.7008 18.6453 36.1922 19.1377 36.1922 19.7421C36.1922 20.3464 35.7008 20.8388 35.0954 20.8388ZM35.0954 16.4517H29.6115V14.2582H35.0954C35.7008 14.2582 36.1922 14.7506 36.1922 15.355C36.1922 15.9593 35.7008 16.4517 35.0954 16.4517Z" fill="url(#paint4_linear)"/>
<path d="M42.5768 15.5731L44.7276 15.1366C43.5913 9.54305 38.6196 5.48389 32.9044 5.48389C26.2524 5.48389 20.8398 10.8965 20.8398 17.5484C20.8398 24.2003 26.2524 29.6129 32.9044 29.6129C34.5813 29.6129 36.2056 29.2751 37.7302 28.6083L36.8527 26.5979C35.6057 27.143 34.2775 27.4194 32.9044 27.4194C27.4611 27.4194 23.0334 22.9906 23.0334 17.5484C23.0334 12.1062 27.4611 7.67744 32.9044 7.67744C37.581 7.67744 41.6489 10.9985 42.5768 15.5731Z" fill="url(#paint5_linear)"/>
<path d="M53.7434 12.0645C55.5575 12.0645 57.0338 10.5883 57.0338 8.77421C57.0338 6.96014 55.5575 5.48389 53.7434 5.48389C51.9294 5.48389 50.4531 6.96014 50.4531 8.77421C50.4531 10.5883 51.9294 12.0645 53.7434 12.0645ZM53.7434 7.67744C54.3489 7.67744 54.8402 8.16989 54.8402 8.77421C54.8402 9.37853 54.3489 9.87098 53.7434 9.87098C53.138 9.87098 52.6467 9.37853 52.6467 8.77421C52.6467 8.16989 53.138 7.67744 53.7434 7.67744Z" fill="url(#paint6_linear)"/>
<path d="M53.7434 20.8389C55.5575 20.8389 57.0338 19.3627 57.0338 17.5486C57.0338 15.7346 55.5575 14.2583 53.7434 14.2583C51.9294 14.2583 50.4531 15.7346 50.4531 17.5486C50.4531 19.3627 51.9294 20.8389 53.7434 20.8389ZM53.7434 16.4518C54.3489 16.4518 54.8402 16.9443 54.8402 17.5486C54.8402 18.1529 54.3489 18.6454 53.7434 18.6454C53.138 18.6454 52.6467 18.1529 52.6467 17.5486C52.6467 16.9443 53.138 16.4518 53.7434 16.4518Z" fill="url(#paint7_linear)"/>
<path d="M53.7434 29.6129C55.5575 29.6129 57.0338 28.1366 57.0338 26.3225C57.0338 24.5085 55.5575 23.0322 53.7434 23.0322C51.9294 23.0322 50.4531 24.5085 50.4531 26.3225C50.4531 28.1366 51.9294 29.6129 53.7434 29.6129ZM53.7434 25.2258C54.3489 25.2258 54.8402 25.7182 54.8402 26.3225C54.8402 26.9269 54.3489 27.4193 53.7434 27.4193C53.138 27.4193 52.6467 26.9269 52.6467 26.3225C52.6467 25.7182 53.138 25.2258 53.7434 25.2258Z" fill="url(#paint8_linear)"/>
<defs>
<linearGradient id="paint0_linear" x1="0" y1="34" x2="37.8339" y2="34" gradientUnits="userSpaceOnUse">
<stop stop-color="#1DDADA"/>
<stop offset="1" stop-color="#2383DB"/>
</linearGradient>
<linearGradient id="paint1_linear" x1="20.8398" y1="17.5484" x2="68.6886" y2="17.5484" gradientUnits="userSpaceOnUse">
<stop stop-color="#1DDADA"/>
<stop offset="1" stop-color="#2383DB"/>
</linearGradient>
<linearGradient id="paint2_linear" x1="12.0664" y1="17.5482" x2="14.2919" y2="17.5482" gradientUnits="userSpaceOnUse">
<stop stop-color="#1DDADA"/>
<stop offset="1" stop-color="#2383DB"/>
</linearGradient>
<linearGradient id="paint3_linear" x1="32.9023" y1="42.7742" x2="68.5107" y2="42.7742" gradientUnits="userSpaceOnUse">
<stop stop-color="#1DDADA"/>
<stop offset="1" stop-color="#2383DB"/>
</linearGradient>
<linearGradient id="paint4_linear" x1="27.418" y1="17.5485" x2="38.5456" y2="17.5485" gradientUnits="userSpaceOnUse">
<stop stop-color="#1DDADA"/>
<stop offset="1" stop-color="#2383DB"/>
</linearGradient>
<linearGradient id="paint5_linear" x1="20.8398" y1="17.5484" x2="45.0758" y2="17.5484" gradientUnits="userSpaceOnUse">
<stop stop-color="#1DDADA"/>
<stop offset="1" stop-color="#2383DB"/>
</linearGradient>
<linearGradient id="paint6_linear" x1="50.4531" y1="8.77421" x2="57.1297" y2="8.77421" gradientUnits="userSpaceOnUse">
<stop stop-color="#1DDADA"/>
<stop offset="1" stop-color="#2383DB"/>
</linearGradient>
<linearGradient id="paint7_linear" x1="50.4531" y1="17.5486" x2="57.1297" y2="17.5486" gradientUnits="userSpaceOnUse">
<stop stop-color="#1DDADA"/>
<stop offset="1" stop-color="#2383DB"/>
</linearGradient>
<linearGradient id="paint8_linear" x1="50.4531" y1="26.3225" x2="57.1297" y2="26.3225" gradientUnits="userSpaceOnUse">
<stop stop-color="#1DDADA"/>
<stop offset="1" stop-color="#2383DB"/>
</linearGradient>
</defs>
</svg>
