<svg width="24" height="26" viewBox="0 0 24 26" fill="none" xmlns="http://www.w3.org/2000/svg">
<path d="M12 0C7.59375 0 4 3.59375 4 8V10H3C1.35156 10 0 11.3516 0 13V23C0 24.6484 1.35156 26 3 26H21C22.6484 26 24 24.6484 24 23V13C24 11.3516 22.6484 10 21 10H20V8C20 3.59375 16.4062 0 12 0ZM12 2C15.3281 2 18 4.67188 18 8V10H6V8C6 4.67188 8.67188 2 12 2ZM3 12H21C21.5625 12 22 12.4375 22 13V23C22 23.5625 21.5625 24 21 24H3C2.4375 24 2 23.5625 2 23V13C2 12.4375 2.4375 12 3 12Z" fill="url(#paint0_linear)"/>
<defs>
<linearGradient id="paint0_linear" x1="0" y1="13" x2="24.3499" y2="13" gradientUnits="userSpaceOnUse">
<stop stop-color="#1DDADA"/>
<stop offset="1" stop-color="#2383DB"/>
</linearGradient>
</defs>
</svg>
