<svg width="139" height="156" viewBox="0 0 139 156" fill="none" xmlns="http://www.w3.org/2000/svg">
<g filter="url(#filter0_ddi)">
<path d="M24.6364 62H114.364C118.564 62 122 65.4614 122 69.6924V129.308C122 133.538 118.564 137 114.364 137H24.6364C20.4365 137 17 133.539 17 129.308V69.6924C17 65.4617 20.4365 62 24.6364 62Z" fill="#ECC45C"/>
<path d="M24.6364 58H114.364C118.564 58 122 61.5998 122 66V70C122 74.3999 118.564 78 114.364 78H24.6364C20.4365 78 17 74.4002 17 70V66C17 61.6001 20.4365 58 24.6364 58Z" fill="#F8D578"/>
<path d="M35.6931 65C30.8637 65 27 66.7099 27 68.8C27 70.8901 30.8637 72.6001 35.6931 72.6001C40.5226 72.6001 44.3863 70.8901 44.3863 68.8C44.3865 66.7099 40.5228 65 35.6931 65ZM103.307 65C98.4774 65 94.6137 66.7099 94.6137 68.8C94.6137 70.8901 98.4774 72.6001 103.307 72.6001C108.136 72.6001 112 70.8901 112 68.8C112 66.7099 108.136 65 103.307 65ZM69.5001 93.5C77.5171 93.5 83.9888 99.8651 83.9888 107.75C83.9888 115.635 77.5171 122 69.5001 122C61.4831 122 55.0115 115.635 55.0115 107.75C55.0115 99.8651 61.4829 93.5 69.5001 93.5Z" fill="#D4B053"/>
<path d="M69.5 97C75.3228 97 80 101.677 80 107.5C80 113.323 75.3228 118 69.5 118C63.6772 118 59 113.323 59 107.5C58.9998 101.677 63.6772 97 69.5 97Z" fill="#E4E7E7"/>
<path d="M70 103C71.0999 103 72 103.81 72 104.8V110.2C72 111.19 71.0999 112 70 112C68.9001 112 68 111.19 68 110.2V104.8C68 103.81 68.8998 103 70 103Z" fill="#324D5B"/>
<path d="M70.0002 15C47.9048 15 30 32.8275 30 54.8274V66.2069C30 68.2932 32.9523 70 36.6666 70C40.3809 70 43.3333 68.2932 43.3333 66.2069V54.8274C43.3333 40.1292 55.2381 28.2757 70 28.2757C84.7619 28.2757 96.6667 40.1292 96.6667 54.8274V66.2069C96.6667 68.2932 99.6191 70 103.333 70C107.048 70 110 68.2932 110 66.2069V54.8274C110 32.8275 92.0955 15 70.0002 15Z" fill="#E4E7E7"/>
<path d="M69.5 23C51.5295 23 37 37.2881 37 54.9601V70C40.25 69.7179 42.7353 68.214 42.7353 66.24V54.9598C42.7353 40.3899 54.6839 28.6398 69.5 28.6398C84.3161 28.6398 96.2647 40.3899 96.2647 54.9598V66.24C96.2647 68.12 98.75 69.7179 102 70V54.9601C102 37.2879 87.4705 23 69.5 23Z" fill="#CDCFCF"/>
</g>
<defs>
<filter id="filter0_ddi" x="0" y="0" width="139" height="156" filterUnits="userSpaceOnUse" color-interpolation-filters="sRGB">
<feFlood flood-opacity="0" result="BackgroundImageFix"/>
<feColorMatrix in="SourceAlpha" type="matrix" values="0 0 0 0 0 0 0 0 0 0 0 0 0 0 0 0 0 0 127 0"/>
<feOffset dy="2"/>
<feGaussianBlur stdDeviation="1"/>
<feColorMatrix type="matrix" values="0 0 0 0 0 0 0 0 0 0 0 0 0 0 0 0 0 0 0.1 0"/>
<feBlend mode="normal" in2="BackgroundImageFix" result="effect1_dropShadow"/>
<feColorMatrix in="SourceAlpha" type="matrix" values="0 0 0 0 0 0 0 0 0 0 0 0 0 0 0 0 0 0 127 0"/>
<feOffset dy="2"/>
<feGaussianBlur stdDeviation="8.5"/>
<feColorMatrix type="matrix" values="0 0 0 0 0.858824 0 0 0 0 0.562353 0 0 0 0 0.117647 0 0 0 0.15 0"/>
<feBlend mode="normal" in2="effect1_dropShadow" result="effect2_dropShadow"/>
<feBlend mode="normal" in="SourceGraphic" in2="effect2_dropShadow" result="shape"/>
<feColorMatrix in="SourceAlpha" type="matrix" values="0 0 0 0 0 0 0 0 0 0 0 0 0 0 0 0 0 0 127 0" result="hardAlpha"/>
<feOffset dy="-3"/>
<feComposite in2="hardAlpha" operator="arithmetic" k2="-1" k3="1"/>
<feColorMatrix type="matrix" values="0 0 0 0 0.227074 0 0 0 0 0.227074 0 0 0 0 0.227074 0 0 0 0.18 0"/>
<feBlend mode="normal" in2="shape" result="effect3_innerShadow"/>
</filter>
</defs>
</svg>
