<svg width="24" height="26" viewBox="0 0 24 26" fill="none" xmlns="http://www.w3.org/2000/svg">
<path d="M12 0C8.59375 0 5.67969 2.13281 4.53125 5.14063C4.49219 5.23438 4.45313 5.32813 4.42188 5.4375L6.32031 6.0625C6.34375 6 6.36719 5.9375 6.39063 5.86719V5.85938C7.25781 3.60938 9.42969 2 12 2C15.3281 2 18 4.67188 18 8V10H3C1.35156 10 0 11.3516 0 13V23C0 24.6484 1.35156 26 3 26H21C22.6484 26 24 24.6484 24 23V13C24 11.3516 22.6484 10 21 10H20V8C20 3.59375 16.4062 0 12 0ZM3 12H21C21.5625 12 22 12.4375 22 13V23C22 23.5625 21.5625 24 21 24H3C2.4375 24 2 23.5625 2 23V13C2 12.4375 2.4375 12 3 12Z" fill="#282D33"/>
</svg>
