<svg width="139" height="172" viewBox="0 0 139 172" fill="none" xmlns="http://www.w3.org/2000/svg">
<g filter="url(#filter0_ddi)">
<path d="M24.6364 78H114.364C118.564 78 122 81.4614 122 85.6924V145.308C122 149.538 118.564 153 114.364 153H24.6364C20.4365 153 17 149.539 17 145.308V85.6924C17 81.4617 20.4365 78 24.6364 78Z" fill="#ECC45C"/>
<path d="M24.6364 74H114.364C118.564 74 122 77.5998 122 82V86C122 90.3999 118.564 94 114.364 94H24.6364C20.4365 94 17 90.4002 17 86V82C17 77.6001 20.4365 74 24.6364 74Z" fill="#F8D578"/>
<path d="M35.5909 80C30.8182 80 27 81.7099 27 83.8C27 85.8901 30.8182 87.6001 35.5909 87.6001C40.3635 87.6001 44.1817 85.8901 44.1817 83.8C44.182 81.7099 40.3638 80 35.5909 80ZM102.409 80C97.6365 80 93.8183 81.7099 93.8183 83.8C93.8183 85.8901 97.6365 87.6001 102.409 87.6001C107.182 87.6001 111 85.8901 111 83.8C111 81.7099 107.182 80 102.409 80ZM69.0001 108.5C76.9228 108.5 83.3183 114.865 83.3183 122.75C83.3183 130.635 76.9228 137 69.0001 137C61.0775 137 54.6819 130.635 54.6819 122.75C54.6819 114.865 61.0772 108.5 69.0001 108.5Z" fill="#D4B053"/>
<path d="M69.5 112C75.3228 112 80 116.9 80 123C80 129.1 75.3228 134 69.5 134C63.6772 134 59 129.1 59 123C58.9998 116.9 63.6772 112 69.5 112Z" fill="#E4E7E7"/>
<path d="M73.5 123.5C73.5 124.6 72.6899 125.5 71.7 125.5L66.3 125.5C65.3101 125.5 64.5 124.6 64.5 123.5C64.5 122.4 65.3101 121.5 66.3 121.5L71.7 121.5C72.6899 121.5 73.5 122.4 73.5 123.5Z" fill="#324D5B"/>
<path d="M69.0002 15C46.9048 15 29 32.9265 29 55.0485V85.1858C29 87.2837 31.9523 89 35.6666 89C39.3809 89 42.3332 87.2837 42.3332 85.1858V55.0485C42.3332 40.2687 54.2381 28.3494 69 28.3494C83.7619 28.3494 95.6667 40.2687 95.6667 55.0485V66.4911C95.6667 68.589 98.6191 70.3053 102.333 70.3053C106.048 70.3053 109 68.589 109 66.4911V55.0485C109 32.9265 91.0954 15 69.0002 15Z" fill="#E4E7E7"/>
<path d="M69.5 23C51.5295 23 37 37.399 37 55.2081V89C40.25 88.7157 42.7353 87.2002 42.7353 85.2108V55.2078C42.7353 40.5248 54.6839 28.6836 69.5 28.6836C84.3161 28.6836 96.2647 40.5248 96.2647 55.2078V66.5755C96.2647 68.4701 98.75 70.0804 102 70.3647V55.2081C102 37.3987 87.4705 23 69.5 23Z" fill="#CDCFCF"/>
</g>
<defs>
<filter id="filter0_ddi" x="0" y="0" width="139" height="172" filterUnits="userSpaceOnUse" color-interpolation-filters="sRGB">
<feFlood flood-opacity="0" result="BackgroundImageFix"/>
<feColorMatrix in="SourceAlpha" type="matrix" values="0 0 0 0 0 0 0 0 0 0 0 0 0 0 0 0 0 0 127 0"/>
<feOffset dy="2"/>
<feGaussianBlur stdDeviation="1"/>
<feColorMatrix type="matrix" values="0 0 0 0 0 0 0 0 0 0 0 0 0 0 0 0 0 0 0.1 0"/>
<feBlend mode="normal" in2="BackgroundImageFix" result="effect1_dropShadow"/>
<feColorMatrix in="SourceAlpha" type="matrix" values="0 0 0 0 0 0 0 0 0 0 0 0 0 0 0 0 0 0 127 0"/>
<feOffset dy="2"/>
<feGaussianBlur stdDeviation="8.5"/>
<feColorMatrix type="matrix" values="0 0 0 0 0.858824 0 0 0 0 0.562353 0 0 0 0 0.117647 0 0 0 0.15 0"/>
<feBlend mode="normal" in2="effect1_dropShadow" result="effect2_dropShadow"/>
<feBlend mode="normal" in="SourceGraphic" in2="effect2_dropShadow" result="shape"/>
<feColorMatrix in="SourceAlpha" type="matrix" values="0 0 0 0 0 0 0 0 0 0 0 0 0 0 0 0 0 0 127 0" result="hardAlpha"/>
<feOffset dy="-3"/>
<feComposite in2="hardAlpha" operator="arithmetic" k2="-1" k3="1"/>
<feColorMatrix type="matrix" values="0 0 0 0 0.227074 0 0 0 0 0.227074 0 0 0 0 0.227074 0 0 0 0.18 0"/>
<feBlend mode="normal" in2="shape" result="effect3_innerShadow"/>
</filter>
</defs>
</svg>
