<svg width="110" height="48" viewBox="0 0 110 48" fill="none" xmlns="http://www.w3.org/2000/svg">
<path d="M59.6123 12.6172C59.534 12.6172 52.288 12.6172 51.9746 12.6172C51.583 12.6172 51.2305 12.9676 51.2305 13.357V33.0215C51.2305 33.4498 51.583 33.7613 51.9746 33.7613H56.7531C57.1448 33.7613 57.4973 33.4109 57.4973 33.0215V29.0107C58.6723 29.0107 59.5731 29.0107 59.6123 29.0107C66.8191 29.0107 69.4042 24.8831 69.4042 20.5998C69.4042 16.0828 65.9575 12.6172 59.6123 12.6172ZM59.2206 23.8318C59.0248 23.8318 58.3198 23.8318 57.4973 23.8318V17.8351C58.2415 17.8351 58.8681 17.8351 59.1423 17.8351C62.354 17.8351 62.9416 19.7431 62.9416 20.6777C62.9416 21.6122 62.5107 23.8318 59.2206 23.8318Z" fill="white"/>
<path d="M59.6123 12.6172C59.534 12.6172 52.288 12.6172 51.9746 12.6172C51.583 12.6172 51.2305 12.9676 51.2305 13.357V33.0215C51.2305 33.4498 51.583 33.7613 51.9746 33.7613H56.7531C57.1448 33.7613 57.4973 33.4109 57.4973 33.0215V29.0107C58.6723 29.0107 59.5731 29.0107 59.6123 29.0107C66.8191 29.0107 69.4042 24.8831 69.4042 20.5998C69.4042 16.0828 65.9575 12.6172 59.6123 12.6172ZM59.2206 23.8318C59.0248 23.8318 58.3198 23.8318 57.4973 23.8318V17.8351C58.2415 17.8351 58.8681 17.8351 59.1423 17.8351C62.354 17.8351 62.9416 19.7431 62.9416 20.6777C62.9416 21.6122 62.5107 23.8318 59.2206 23.8318Z" fill="url(#paint0_linear)"/>
<path d="M84.093 13.357C83.858 12.8508 83.6621 12.6172 83.1138 12.6172H77.9828C77.4345 12.6172 77.2387 12.8508 77.0428 13.357C76.8078 13.8633 70.1102 32.0091 69.836 32.71C69.5618 33.372 69.8752 33.7613 70.3843 33.7613C70.776 33.7613 75.3195 33.7613 75.3195 33.7613C76.2203 33.7613 76.377 33.4498 76.6903 32.671C76.7687 32.5153 76.9645 31.9312 77.2778 30.9577H83.858C84.1713 31.9312 84.3672 32.5153 84.4455 32.671C84.798 33.4498 84.9155 33.7613 85.8163 33.7613C85.8163 33.7613 90.3598 33.7613 90.7906 33.7613C91.2998 33.7613 91.574 33.372 91.339 32.71C91.0256 32.0869 84.328 13.9022 84.093 13.357ZM78.9229 25.7787C79.4712 24.1433 80.0196 22.4299 80.5287 20.7555C81.0771 22.4299 81.6254 24.1433 82.1346 25.7787H78.9229Z" fill="white"/>
<path d="M84.093 13.357C83.858 12.8508 83.6621 12.6172 83.1138 12.6172H77.9828C77.4345 12.6172 77.2387 12.8508 77.0428 13.357C76.8078 13.8633 70.1102 32.0091 69.836 32.71C69.5618 33.372 69.8752 33.7613 70.3843 33.7613C70.776 33.7613 75.3195 33.7613 75.3195 33.7613C76.2203 33.7613 76.377 33.4498 76.6903 32.671C76.7687 32.5153 76.9645 31.9312 77.2778 30.9577H83.858C84.1713 31.9312 84.3672 32.5153 84.4455 32.671C84.798 33.4498 84.9155 33.7613 85.8163 33.7613C85.8163 33.7613 90.3598 33.7613 90.7906 33.7613C91.2998 33.7613 91.574 33.372 91.339 32.71C91.0256 32.0869 84.328 13.9022 84.093 13.357ZM78.9229 25.7787C79.4712 24.1433 80.0196 22.4299 80.5287 20.7555C81.0771 22.4299 81.6254 24.1433 82.1346 25.7787H78.9229Z" fill="url(#paint1_linear)"/>
<path d="M109.317 12.6172C108.925 12.6172 104.382 12.6172 104.382 12.6172C103.481 12.6172 103.363 12.9287 103.011 13.7075C102.815 14.1748 99.7992 20.9502 99.7992 20.9502C99.7992 20.9502 96.7834 14.2137 96.5875 13.7075C96.2742 12.9287 96.1175 12.6172 95.2558 12.6172C95.2558 12.6172 90.6732 12.6172 90.2815 12.6172C89.7724 12.6172 89.3807 12.9287 89.694 13.5907C90.0465 14.2916 96.6658 26.8301 96.6658 26.8301V33.0215C96.6658 33.4498 97.0184 33.7613 97.41 33.7613H102.188C102.619 33.7613 102.933 33.4109 102.933 33.0215V26.8301C102.933 26.8301 109.552 14.2526 109.865 13.6296C110.218 12.9676 109.826 12.6172 109.317 12.6172Z" fill="white"/>
<path d="M109.317 12.6172C108.925 12.6172 104.382 12.6172 104.382 12.6172C103.481 12.6172 103.363 12.9287 103.011 13.7075C102.815 14.1748 99.7992 20.9502 99.7992 20.9502C99.7992 20.9502 96.7834 14.2137 96.5875 13.7075C96.2742 12.9287 96.1175 12.6172 95.2558 12.6172C95.2558 12.6172 90.6732 12.6172 90.2815 12.6172C89.7724 12.6172 89.3807 12.9287 89.694 13.5907C90.0465 14.2916 96.6658 26.8301 96.6658 26.8301V33.0215C96.6658 33.4498 97.0184 33.7613 97.41 33.7613H102.188C102.619 33.7613 102.933 33.4109 102.933 33.0215V26.8301C102.933 26.8301 109.552 14.2526 109.865 13.6296C110.218 12.9676 109.826 12.6172 109.317 12.6172Z" fill="url(#paint2_linear)"/>
<path d="M24.1677 1.55758L24.3635 0L21.1518 0.973488L17 2.18061L21.1518 4.67274L23.5801 6.15244L23.776 4.6338C33.4504 5.49047 41.0489 13.5899 41.0489 23.4027C41.0489 29.2046 38.3071 34.7341 33.6854 38.2776C33.372 38.4722 32.667 38.9395 31.8053 39.4457V43.0671C32.7845 42.5998 34.6645 41.4317 34.6645 41.4317L35.1737 41.0812C40.8139 36.9536 44.1823 30.3339 44.1823 23.4027C44.1823 12.0323 35.3696 2.60895 24.1677 1.55758Z" fill="white"/>
<path d="M24.1677 1.55758L24.3635 0L21.1518 0.973488L17 2.18061L21.1518 4.67274L23.5801 6.15244L23.776 4.6338C33.4504 5.49047 41.0489 13.5899 41.0489 23.4027C41.0489 29.2046 38.3071 34.7341 33.6854 38.2776C33.372 38.4722 32.667 38.9395 31.8053 39.4457V43.0671C32.7845 42.5998 34.6645 41.4317 34.6645 41.4317L35.1737 41.0812C40.8139 36.9536 44.1823 30.3339 44.1823 23.4027C44.1823 12.0323 35.3696 2.60895 24.1677 1.55758Z" fill="url(#paint3_linear)"/>
<path d="M25.3022 42.0168C25.3022 42.0168 25.263 42.0168 25.2239 42.0168L22.3255 40.7318V42.2894C22.2471 42.2894 22.1688 42.2894 22.0905 42.2894H22.0513C15.5103 42.2894 9.71354 38.9795 6.30597 33.9563C5.95346 33.4501 5.64012 32.9439 5.36595 32.3987C4.77844 31.3474 4.30843 30.1792 3.91675 29.011C3.40757 27.2587 3.09423 25.3896 3.09423 23.4426C3.09423 21.4957 3.40757 19.6266 3.95592 17.8353C4.30843 16.6672 4.8176 15.5379 5.40512 14.4476C5.67929 13.9025 6.0318 13.3962 6.34514 12.89C8.38185 9.89168 11.2411 7.51637 14.6095 6.07561V2.80469C8.14684 5.14106 3.0159 10.359 0.979188 16.9397C0.352508 18.9646 0 21.1452 0 23.4426C0 25.7401 0.352508 27.9207 0.979188 29.9845C3.79925 38.9016 12.1811 45.4045 22.0513 45.4045H22.0905C22.1688 45.4045 22.2471 45.4045 22.3255 45.4045V47.001L25.263 45.716L29.3756 43.9248L25.3022 42.0168Z" fill="white"/>
<path d="M25.3022 42.0168C25.3022 42.0168 25.263 42.0168 25.2239 42.0168L22.3255 40.7318V42.2894C22.2471 42.2894 22.1688 42.2894 22.0905 42.2894H22.0513C15.5103 42.2894 9.71354 38.9795 6.30597 33.9563C5.95346 33.4501 5.64012 32.9439 5.36595 32.3987C4.77844 31.3474 4.30843 30.1792 3.91675 29.011C3.40757 27.2587 3.09423 25.3896 3.09423 23.4426C3.09423 21.4957 3.40757 19.6266 3.95592 17.8353C4.30843 16.6672 4.8176 15.5379 5.40512 14.4476C5.67929 13.9025 6.0318 13.3962 6.34514 12.89C8.38185 9.89168 11.2411 7.51637 14.6095 6.07561V2.80469C8.14684 5.14106 3.0159 10.359 0.979188 16.9397C0.352508 18.9646 0 21.1452 0 23.4426C0 25.7401 0.352508 27.9207 0.979188 29.9845C3.79925 38.9016 12.1811 45.4045 22.0513 45.4045H22.0905C22.1688 45.4045 22.2471 45.4045 22.3255 45.4045V47.001L25.263 45.716L29.3756 43.9248L25.3022 42.0168Z" fill="url(#paint4_linear)"/>
<path d="M31.1768 29.3613C31.1768 28.933 30.8243 28.6215 30.4326 28.6215H22.1683C22.1683 28.6215 29.6884 17.5626 30.2368 16.5891C30.5893 15.9661 30.7851 15.6546 30.7851 15.1873V13.3961C30.7851 12.9678 30.4326 12.6562 30.0409 12.6562H14.7656C14.3348 12.6562 14.0214 13.0067 14.0214 13.3961V17.0954C14.0214 17.5237 14.3739 17.8352 14.7656 17.8352H22.2074C22.2074 17.8352 13.9431 29.9065 13.7864 30.179C13.4731 30.5684 13.3164 31.0357 13.3164 31.464V33.0216C13.3164 33.45 13.6689 33.7615 14.0606 33.7615H30.3934C30.8243 33.7615 31.1376 33.411 31.1376 33.0216V29.3613H31.1768Z" fill="white"/>
<path d="M31.1768 29.3613C31.1768 28.933 30.8243 28.6215 30.4326 28.6215H22.1683C22.1683 28.6215 29.6884 17.5626 30.2368 16.5891C30.5893 15.9661 30.7851 15.6546 30.7851 15.1873V13.3961C30.7851 12.9678 30.4326 12.6562 30.0409 12.6562H14.7656C14.3348 12.6562 14.0214 13.0067 14.0214 13.3961V17.0954C14.0214 17.5237 14.3739 17.8352 14.7656 17.8352H22.2074C22.2074 17.8352 13.9431 29.9065 13.7864 30.179C13.4731 30.5684 13.3164 31.0357 13.3164 31.464V33.0216C13.3164 33.45 13.6689 33.7615 14.0606 33.7615H30.3934C30.8243 33.7615 31.1376 33.411 31.1376 33.0216V29.3613H31.1768Z" fill="url(#paint5_linear)"/>
<defs>
<linearGradient id="paint0_linear" x1="60.3173" y1="12.6172" x2="60.3173" y2="33.7613" gradientUnits="userSpaceOnUse">
<stop stop-color="white"/>
<stop offset="1" stop-color="#B4B4B4"/>
</linearGradient>
<linearGradient id="paint1_linear" x1="80.5792" y1="12.6172" x2="80.5792" y2="33.7613" gradientUnits="userSpaceOnUse">
<stop stop-color="white"/>
<stop offset="1" stop-color="#B4B4B4"/>
</linearGradient>
<linearGradient id="paint2_linear" x1="99.7912" y1="12.6172" x2="99.7912" y2="33.7613" gradientUnits="userSpaceOnUse">
<stop stop-color="white"/>
<stop offset="1" stop-color="#B4B4B4"/>
</linearGradient>
<linearGradient id="paint3_linear" x1="30.5911" y1="0" x2="30.5911" y2="43.0671" gradientUnits="userSpaceOnUse">
<stop stop-color="white"/>
<stop offset="1" stop-color="#B4B4B4"/>
</linearGradient>
<linearGradient id="paint4_linear" x1="14.6878" y1="2.80469" x2="14.6878" y2="47.001" gradientUnits="userSpaceOnUse">
<stop stop-color="white"/>
<stop offset="1" stop-color="#B4B4B4"/>
</linearGradient>
<linearGradient id="paint5_linear" x1="22.2466" y1="12.6562" x2="22.2466" y2="33.7615" gradientUnits="userSpaceOnUse">
<stop stop-color="white"/>
<stop offset="1" stop-color="#B4B4B4"/>
</linearGradient>
</defs>
</svg>
