<svg width="26" height="26" viewBox="0 0 26 26" fill="none" xmlns="http://www.w3.org/2000/svg">
<path d="M12 0V5.5625L10.2188 3.78125L8.78125 5.21875L12.2812 8.71875L13 9.40625L13.7188 8.71875L17.2188 5.21875L15.7812 3.78125L14 5.5625V0H12ZM5.21875 8.78125L3.78125 10.2188L5.5625 12H0V14H5.5625L3.78125 15.7812L5.21875 17.2188L8.71875 13.7188L9.40625 13L8.71875 12.2812L5.21875 8.78125ZM20.7812 8.78125L17.2812 12.2812L16.5938 13L17.2812 13.7188L20.7812 17.2188L22.2188 15.7812L20.4375 14H26V12H20.4375L22.2188 10.2188L20.7812 8.78125ZM13 11C11.8945 11 11 11.8945 11 13C11 14.1055 11.8945 15 13 15C14.1055 15 15 14.1055 15 13C15 11.8945 14.1055 11 13 11ZM13 16.5938L12.2812 17.2812L8.78125 20.7812L10.2188 22.2188L12 20.4375V26H14V20.4375L15.7812 22.2188L17.2188 20.7812L13.7188 17.2812L13 16.5938Z" fill="url(#paint0_linear)"/>
<defs>
<linearGradient id="paint0_linear" x1="0" y1="13" x2="26.379" y2="13" gradientUnits="userSpaceOnUse">
<stop stop-color="#1DDADA"/>
<stop offset="1" stop-color="#2383DB"/>
</linearGradient>
</defs>
</svg>
