<svg width="26" height="24" viewBox="0 0 26 24" fill="none" xmlns="http://www.w3.org/2000/svg">
<path d="M0 0V18H5V23.0938L6.625 21.7812L11.3438 18H26V0H0ZM2 2H24V16H10.6562L10.375 16.2188L7 18.9062V16H2V2ZM13 4C10.8008 4 10 5.80078 10 7H12C12 6.5 12.1992 6 13 6C13.8008 6 14 6.5 14 7C14 7.5 13.4883 7.80469 13.1875 7.90625H13C12.3984 8.10547 12 8.70703 12 9.40625V11H14V9.6875C15 9.28906 16 8.30078 16 7C16 5.80078 15.1992 4 13 4ZM12 12V14H14V12H12Z" fill="white"/>
<path d="M0 0V18H5V23.0938L6.625 21.7812L11.3438 18H26V0H0ZM2 2H24V16H10.6562L10.375 16.2188L7 18.9062V16H2V2ZM13 4C10.8008 4 10 5.80078 10 7H12C12 6.5 12.1992 6 13 6C13.8008 6 14 6.5 14 7C14 7.5 13.4883 7.80469 13.1875 7.90625H13C12.3984 8.10547 12 8.70703 12 9.40625V11H14V9.6875C15 9.28906 16 8.30078 16 7C16 5.80078 15.1992 4 13 4ZM12 12V14H14V12H12Z" fill="url(#paint0_linear)"/>
<defs>
<linearGradient id="paint0_linear" x1="13" y1="0" x2="13" y2="23.0938" gradientUnits="userSpaceOnUse">
<stop stop-color="white"/>
<stop offset="1" stop-color="#B4B4B4"/>
</linearGradient>
</defs>
</svg>
