<svg width="50" height="50" viewBox="0 0 50 50" fill="none" xmlns="http://www.w3.org/2000/svg">
<g opacity="0.1">
<circle cx="25" cy="25" r="25" fill="white"/>
<circle cx="25" cy="25" r="25" fill="url(#paint0_linear)"/>
</g>
<path d="M24.9989 18.0001C24.7391 18.0043 24.4911 18.1093 24.3075 18.2931L14.3075 28.2931C14.2115 28.3852 14.1349 28.4956 14.0821 28.6177C14.0293 28.7399 14.0014 28.8713 14.0001 29.0043C13.9987 29.1374 14.0239 29.2693 14.0742 29.3925C14.1245 29.5157 14.1988 29.6276 14.2929 29.7217C14.387 29.8158 14.4989 29.8901 14.6221 29.9404C14.7453 29.9907 14.8772 30.0159 15.0103 30.0146C15.1433 30.0132 15.2747 29.9853 15.3969 29.9325C15.519 29.8797 15.6294 29.8031 15.7215 29.7071L25.0145 20.4142L34.3075 29.7071C34.3996 29.8031 34.51 29.8797 34.6321 29.9325C34.7542 29.9853 34.8857 30.0132 35.0187 30.0146C35.1517 30.0159 35.2837 29.9907 35.4069 29.9404C35.5301 29.8901 35.642 29.8158 35.7361 29.7217C35.8301 29.6276 35.9045 29.5157 35.9548 29.3925C36.0051 29.2693 36.0303 29.1374 36.0289 29.0043C36.0276 28.8713 35.9997 28.7399 35.9469 28.6177C35.8941 28.4956 35.8175 28.3852 35.7215 28.2931L25.7215 18.2931C25.6268 18.1983 25.5141 18.1236 25.3899 18.0733C25.2658 18.0229 25.1328 17.9981 24.9989 18.0001Z" fill="#E4E5E9"/>
<defs>
<linearGradient id="paint0_linear" x1="25" y1="0" x2="25" y2="50" gradientUnits="userSpaceOnUse">
<stop stop-color="white"/>
<stop offset="1" stop-color="#B4B4B4"/>
</linearGradient>
</defs>
</svg>
