<svg width="25" height="28" viewBox="0 0 25 28" fill="none" xmlns="http://www.w3.org/2000/svg">
<path d="M19 0L15.8438 1.9375L10.8125 12.2188L7.9375 13.4688C7.95703 13.3164 8 13.1602 8 13C8 10.8008 6.19922 9 4 9C1.80078 9 0 10.8008 0 13C0 15.1992 1.80078 17 4 17C4.50391 17 4.99219 16.8906 5.4375 16.7188V16.75L9.46875 14.9688L7.25 19.5L7.28125 19.5312C7.10156 19.9844 7 20.4844 7 21C7 22.8984 8.33984 24.4727 10.125 24.875C10.1953 25.1992 10.3008 25.5781 10.5 25.9688C11 26.9492 12.1914 28 14 28V26C12.8711 26 12.5469 25.5508 12.2812 25.0312C12.2422 24.957 12.2148 24.8867 12.1875 24.8125C13.8164 24.3047 15 22.7852 15 21C15 18.8008 13.1992 17 11 17C10.8828 17 10.7695 17.0195 10.6562 17.0312L12.2812 13.75L12.3125 13.7188L13.625 10.9688L19 0ZM25 6L15.0625 10.3438L13.7188 13.0938L22.875 9.0625L25 6ZM4 11C5.11719 11 6 11.8828 6 13C6 14.1172 5.11719 15 4 15C2.88281 15 2 14.1172 2 13C2 11.8828 2.88281 11 4 11ZM11 19C12.1172 19 13 19.8828 13 21C13 22.1172 12.1172 23 11 23C9.88281 23 9 22.1172 9 21C9 20.8594 9.00391 20.7266 9.03125 20.5938C9.21484 19.6758 10.0234 19 11 19Z" fill="url(#paint0_linear)"/>
<defs>
<linearGradient id="paint0_linear" x1="0" y1="14" x2="25.3644" y2="14" gradientUnits="userSpaceOnUse">
<stop stop-color="#1DDADA"/>
<stop offset="1" stop-color="#2383DB"/>
</linearGradient>
</defs>
</svg>
