<svg width="31" height="31" viewBox="0 0 31 31" fill="none" xmlns="http://www.w3.org/2000/svg">
<g filter="url(#filter0_di)">
<path d="M28.352 13.8244C28.352 21.1015 22.4531 27.0004 15.176 27.0004C7.89916 27.0004 2 21.1015 2 13.8244C2 6.5476 7.89916 0.648438 15.176 0.648438C22.4531 0.648438 28.352 6.5476 28.352 13.8244Z" fill="#C0392B"/>
<path d="M28.352 13.176C28.352 20.4531 22.4531 26.352 15.176 26.352C7.89916 26.352 2 20.4531 2 13.176C2 5.89916 7.89916 0 15.176 0C22.4531 0 28.352 5.89916 28.352 13.176Z" fill="url(#paint0_linear)"/>
<path d="M8.47998 9.42287L13.263 14.2141L8.47998 18.8723L10.3931 20.7356L15.1758 16.0774L19.9592 20.7356L21.872 18.8723L17.0886 14.2141L21.872 9.42287L19.9592 7.55957L15.1758 12.2177L10.3931 7.55957L8.47998 9.42287Z" fill="#C0392B"/>
<path d="M8.47998 8.34377L13.263 13.135L8.47998 17.7932L10.3931 19.6565L15.1758 14.9983L19.9592 19.6565L21.872 17.7932L17.0886 13.135L21.872 8.34377L19.9592 6.48047L15.1758 11.1386L10.3931 6.48047L8.47998 8.34377Z" fill="#ECF0F1"/>
</g>
<defs>
<filter id="filter0_di" x="0" y="0" width="30.352" height="31.0004" filterUnits="userSpaceOnUse" color-interpolation-filters="sRGB">
<feFlood flood-opacity="0" result="BackgroundImageFix"/>
<feColorMatrix in="SourceAlpha" type="matrix" values="0 0 0 0 0 0 0 0 0 0 0 0 0 0 0 0 0 0 127 0"/>
<feOffset dy="2"/>
<feGaussianBlur stdDeviation="1"/>
<feColorMatrix type="matrix" values="0 0 0 0 0 0 0 0 0 0 0 0 0 0 0 0 0 0 0.1 0"/>
<feBlend mode="normal" in2="BackgroundImageFix" result="effect1_dropShadow"/>
<feBlend mode="normal" in="SourceGraphic" in2="effect1_dropShadow" result="shape"/>
<feColorMatrix in="SourceAlpha" type="matrix" values="0 0 0 0 0 0 0 0 0 0 0 0 0 0 0 0 0 0 127 0" result="hardAlpha"/>
<feOffset dy="-3"/>
<feComposite in2="hardAlpha" operator="arithmetic" k2="-1" k3="1"/>
<feColorMatrix type="matrix" values="0 0 0 0 0.227074 0 0 0 0 0.227074 0 0 0 0 0.227074 0 0 0 0.18 0"/>
<feBlend mode="normal" in2="shape" result="effect2_innerShadow"/>
</filter>
<linearGradient id="paint0_linear" x1="15.176" y1="0" x2="15.176" y2="26.352" gradientUnits="userSpaceOnUse">
<stop stop-color="#FF6D5E"/>
<stop offset="1" stop-color="#E74C3C"/>
</linearGradient>
</defs>
</svg>
