<svg width="29" height="29" viewBox="0 0 29 29" fill="none" xmlns="http://www.w3.org/2000/svg">
<g filter="url(#filter0_d)">
<path d="M14.5 27C21.9558 27 28 20.9558 28 13.5C28 6.04416 21.9558 0 14.5 0C7.04416 0 1 6.04416 1 13.5C1 20.9558 7.04416 27 14.5 27Z" fill="url(#paint0_linear)"/>
<path d="M25.7984 6.21484L13.8594 18.4044L13.8805 19.7148H14.4289L27.3594 9.43903C26.9796 8.29499 26.4523 7.19251 25.7984 6.21484Z" fill="#107CB3"/>
<path d="M27.7612 5.57368L25.3852 3.23493C25.0698 2.92169 24.5441 2.92169 24.2077 3.23493L14.0519 13.6548L9.65733 9.35323C9.34191 9.03999 8.81626 9.03999 8.47986 9.35323L6.37719 11.4205C6.06177 11.7338 6.06177 12.2558 6.37719 12.569L13.4001 19.4808C13.5893 19.6687 13.8416 19.7313 14.094 19.7104C14.3463 19.7313 14.5986 19.6687 14.7878 19.4808L27.7612 6.74302C28.0766 6.40889 28.0766 5.88686 27.7612 5.57368Z" fill="#F2F1EF"/>
<path d="M14.7751 19.4808L27.761 6.65804C28.0767 6.34271 28.0767 5.8172 27.761 5.50187L27.3821 5.14453L14.0595 18.2196L6.69313 11.0514L6.37741 11.3668C6.0617 11.6821 6.0617 12.2076 6.37741 12.5229L13.4071 19.4809C13.5965 19.6701 13.8491 19.7331 14.1016 19.7121C14.3331 19.7331 14.5857 19.67 14.7751 19.4808Z" fill="#E6E5E3"/>
</g>
<defs>
<filter id="filter0_d" x="0" y="0" width="29" height="29" filterUnits="userSpaceOnUse" color-interpolation-filters="sRGB">
<feFlood flood-opacity="0" result="BackgroundImageFix"/>
<feColorMatrix in="SourceAlpha" type="matrix" values="0 0 0 0 0 0 0 0 0 0 0 0 0 0 0 0 0 0 127 0"/>
<feOffset dy="1"/>
<feGaussianBlur stdDeviation="0.5"/>
<feColorMatrix type="matrix" values="0 0 0 0 0 0 0 0 0 0 0 0 0 0 0 0 0 0 0.1 0"/>
<feBlend mode="normal" in2="BackgroundImageFix" result="effect1_dropShadow"/>
<feBlend mode="normal" in="SourceGraphic" in2="effect1_dropShadow" result="shape"/>
</filter>
<linearGradient id="paint0_linear" x1="1" y1="13.5" x2="28.3936" y2="13.5" gradientUnits="userSpaceOnUse">
<stop stop-color="#1DDADA"/>
<stop offset="1" stop-color="#2383DB"/>
</linearGradient>
</defs>
</svg>
