<svg width="26" height="26" viewBox="0 0 26 26" fill="none" xmlns="http://www.w3.org/2000/svg">
<path d="M13 1.1365e-06C20.168 5.09852e-07 26 5.83203 26 13C26 20.168 20.168 26 13 26C5.83203 26 1.76314e-06 20.168 1.1365e-06 13C5.09852e-07 5.83203 5.83203 1.76314e-06 13 1.1365e-06ZM13 2C6.91406 2 2 6.91407 2 13C2 19.0859 6.91406 24 13 24C19.0859 24 24 19.0859 24 13C24 6.91406 19.0859 2 13 2ZM13 20L19.4063 13.5938L18 12.1563L14 16.1563L14 5.875L12 5.875L12 16.1563L8 12.1563L6.59375 13.5938L13 20Z" fill="url(#paint0_linear)"/>
<defs>
<linearGradient id="paint0_linear" x1="26" y1="13" x2="-0.379008" y2="13" gradientUnits="userSpaceOnUse">
<stop stop-color="#1DDADA"/>
<stop offset="1" stop-color="#2383DB"/>
</linearGradient>
</defs>
</svg>
