<svg width="13" height="15" viewBox="0 0 13 15" fill="none" xmlns="http://www.w3.org/2000/svg">
<path d="M2 0C0.902344 0 0 0.902344 0 2C0 2.61328 0.289063 3.15625 0.726563 3.52344C0.265625 4.41797 0 5.42969 0 6.5C0 8.39844 0.824219 10.1016 2.125 11.293C2.09766 11.3242 2.07812 11.3555 2.05859 11.3906L1.05859 13.2656C0.96875 13.4258 0.96875 13.6211 1.06641 13.7734C1.16016 13.9297 1.33203 14.0234 1.51562 14.0156C1.69922 14.0039 1.85938 13.8984 1.94141 13.7344L2.91406 11.9141C3.94141 12.5977 5.17578 13 6.5 13C7.82422 13 9.05859 12.5977 10.0898 11.9141L11.0586 13.7344C11.1406 13.8984 11.3008 14.0039 11.4844 14.0156C11.668 14.0234 11.8398 13.9297 11.9336 13.7734C12.0312 13.6211 12.0312 13.4258 11.9414 13.2656L10.9414 11.3906C10.9219 11.3555 10.9023 11.3242 10.875 11.293C12.1758 10.1016 13 8.39844 13 6.5C13 5.42969 12.7344 4.41797 12.2734 3.52344C12.7109 3.15625 13 2.61328 13 2C13 0.902344 12.0977 0 11 0C10.3867 0 9.84375 0.289063 9.47656 0.726563C8.58203 0.265625 7.57422 0 6.5 0C5.42578 0 4.41797 0.265625 3.52344 0.726563C3.15625 0.289063 2.61328 0 2 0ZM2 1C2.26172 1 2.49219 1.10156 2.66797 1.26172C2.12891 1.65625 1.65625 2.13281 1.25781 2.67188C1.09766 2.49609 1 2.26172 1 2C1 1.44141 1.44141 1 2 1ZM6.5 1C9.54297 1 12 3.45703 12 6.5C12 9.54297 9.54297 12 6.5 12C3.45703 12 1 9.54297 1 6.5C1 3.45703 3.45703 1 6.5 1ZM11 1C11.5586 1 12 1.44141 12 2C12 2.26172 11.9023 2.49609 11.7383 2.67188C11.3438 2.13281 10.8711 1.65625 10.332 1.26172C10.5078 1.10156 10.7383 1 11 1ZM9.26562 4.52734L6.15625 7.73047L4.23047 5.77344L3.51953 6.47656L6.16406 9.16016L9.98438 5.22266L9.26562 4.52734Z" fill="#F2994A"/>
</svg>
