<svg width="26" height="26" viewBox="0 0 26 26" fill="none" xmlns="http://www.w3.org/2000/svg">
<path d="M13 0C5.83203 0 0 5.83203 0 13C0 20.168 5.83203 26 13 26C20.168 26 26 20.168 26 13C26 5.83203 20.168 0 13 0ZM13 2C19.0859 2 24 6.91406 24 13C24 19.0859 19.0859 24 13 24C6.91406 24 2 19.0859 2 13C2 6.91406 6.91406 2 13 2ZM13 5.875L6.59375 12.2812L8 13.7188L12 9.71875V20H14V9.71875L18 13.7188L19.4062 12.2812L13 5.875Z" fill="url(#paint0_linear)"/>
<defs>
<linearGradient id="paint0_linear" x1="0" y1="13" x2="26.379" y2="13" gradientUnits="userSpaceOnUse">
<stop stop-color="#1DDADA"/>
<stop offset="1" stop-color="#2383DB"/>
</linearGradient>
</defs>
</svg>
