<svg width="57" height="57" viewBox="0 0 57 57" fill="none" xmlns="http://www.w3.org/2000/svg">
<g filter="url(#filter0_d)">
<path d="M51.2973 32.1851C48.1583 44.7744 35.4051 52.4354 22.8129 49.2967C10.2265 46.158 2.56386 33.4063 5.70367 20.8178C8.84127 8.22696 21.5937 0.564528 34.1823 3.70323C46.7738 6.84193 54.4357 19.595 51.2966 32.1851H51.2973Z" fill="white"/>
</g>
<path d="M38.9427 23.658C39.3997 20.6109 37.07 18.9729 33.8844 17.8801L34.9177 13.7525L32.394 13.1264L31.388 17.1452C30.7254 16.9806 30.0442 16.8253 29.3672 16.6715L30.3805 12.6262L27.8589 12L26.8248 16.1262C26.2758 16.0017 25.7368 15.8786 25.2137 15.7491L25.2166 15.7362L21.7371 14.871L21.0659 17.5545C21.0659 17.5545 22.9379 17.9818 22.8983 18.0082C23.9202 18.2623 24.1056 18.9357 24.074 19.4695L22.8969 24.1718C22.9673 24.1897 23.0586 24.2154 23.1592 24.2555L22.8933 24.1897L21.2427 30.7768C21.1176 31.086 20.8007 31.5497 20.0864 31.3736C20.1116 31.4101 18.2525 30.9178 18.2525 30.9178L17 33.7945L20.284 34.6096C20.8949 34.762 21.4935 34.9216 22.082 35.0719L21.0379 39.2475L23.558 39.8736L24.5928 35.7431C25.2805 35.9292 25.9488 36.1009 26.6027 36.2627L25.5723 40.3738L28.0953 41L29.1394 36.833C33.4417 37.6438 36.6776 37.3168 38.0379 33.4425C39.1353 30.3224 37.984 28.5227 35.7204 27.3484C37.3689 26.9684 38.6107 25.8885 38.942 23.658H38.9427ZM33.1773 31.7078C32.3969 34.8279 27.1223 33.1419 25.4113 32.7183L26.7968 27.1873C28.5071 27.6124 33.9907 28.454 33.178 31.7078H33.1773ZM33.957 23.6129C33.2456 26.451 28.8549 25.009 27.4299 24.6555L28.686 19.6391C30.111 19.9926 34.6986 20.6524 33.957 23.6129Z" fill="#F7931A"/>
<defs>
<filter id="filter0_d" x="0" y="0" width="57" height="57" filterUnits="userSpaceOnUse" color-interpolation-filters="sRGB">
<feFlood flood-opacity="0" result="BackgroundImageFix"/>
<feColorMatrix in="SourceAlpha" type="matrix" values="0 0 0 0 0 0 0 0 0 0 0 0 0 0 0 0 0 0 127 0"/>
<feOffset dy="2"/>
<feGaussianBlur stdDeviation="2.5"/>
<feColorMatrix type="matrix" values="0 0 0 0 0 0 0 0 0 0 0 0 0 0 0 0 0 0 0.1 0"/>
<feBlend mode="normal" in2="BackgroundImageFix" result="effect1_dropShadow"/>
<feBlend mode="normal" in="SourceGraphic" in2="effect1_dropShadow" result="shape"/>
</filter>
</defs>
</svg>
