<svg width="57" height="57" viewBox="0 0 57 57" fill="none" xmlns="http://www.w3.org/2000/svg">
<g filter="url(#filter0_bd)">
<path d="M52 26.4999C52 39.4786 41.4788 50 28.5001 50C15.5213 50 5 39.4786 5 26.4999C5 13.5212 15.5213 3 28.5001 3C41.4787 3 52 13.5212 52 26.4999Z" fill="white"/>
</g>
<path d="M42.25 33.159C42.25 34.6582 41.056 35.875 39.5833 35.875H16.6667C15.194 35.875 14 34.6582 14 33.159L14 17.966C14 16.4654 15.194 15.25 16.6667 15.25H39.5833C41.056 15.25 42.25 16.4654 42.25 17.966V33.159Z" fill="#EB5757"/>
<rect opacity="0.4" x="14" y="30" width="28" height="3" fill="url(#paint0_linear)"/>
<path d="M20.4476 29.36H22.8286V31.1H20.4476V33H18.0476V31.1H17V29.36H18.0476V28.06H17V26.04H18.0476V19H22.3143C23.8508 19 25.0127 19.3733 25.8 20.12C26.6 20.8533 27 21.94 27 23.38C27 24.9133 26.5873 26.08 25.7619 26.88C24.9492 27.6667 23.7683 28.06 22.219 28.06H20.4476V29.36ZM20.4476 26.02H22.4286C23.1524 26.02 23.7048 25.8067 24.0857 25.38C24.4667 24.94 24.6571 24.3067 24.6571 23.48C24.6571 22.68 24.454 22.0733 24.0476 21.66C23.654 21.2467 23.0698 21.04 22.2952 21.04H20.4476V26.02Z" fill="white"/>
<rect x="31" y="18" width="8" height="8" fill="white" fill-opacity="0.15"/>
<defs>
<filter id="filter0_bd" x="-11" y="-13" width="79" height="79" filterUnits="userSpaceOnUse" color-interpolation-filters="sRGB">
<feFlood flood-opacity="0" result="BackgroundImageFix"/>
<feGaussianBlur in="BackgroundImage" stdDeviation="8"/>
<feComposite in2="SourceAlpha" operator="in" result="effect1_backgroundBlur"/>
<feColorMatrix in="SourceAlpha" type="matrix" values="0 0 0 0 0 0 0 0 0 0 0 0 0 0 0 0 0 0 127 0"/>
<feOffset dy="2"/>
<feGaussianBlur stdDeviation="2.5"/>
<feColorMatrix type="matrix" values="0 0 0 0 0 0 0 0 0 0 0 0 0 0 0 0 0 0 0.1 0"/>
<feBlend mode="normal" in2="effect1_backgroundBlur" result="effect2_dropShadow"/>
<feBlend mode="normal" in="SourceGraphic" in2="effect2_dropShadow" result="shape"/>
</filter>
<linearGradient id="paint0_linear" x1="42" y1="31" x2="14" y2="31" gradientUnits="userSpaceOnUse">
<stop stop-color="#282D33"/>
<stop offset="1" stop-color="#282D33" stop-opacity="0"/>
</linearGradient>
</defs>
</svg>
