<svg width="57" height="57" viewBox="0 0 57 57" fill="none" xmlns="http://www.w3.org/2000/svg">
<g filter="url(#filter0_d)">
<path d="M51.2973 32.1851C48.1583 44.7744 35.4051 52.4354 22.8129 49.2967C10.2265 46.158 2.56386 33.4063 5.70367 20.8178C8.84127 8.22696 21.5937 0.564528 34.1823 3.70323C46.7738 6.84193 54.4357 19.595 51.2966 32.1851H51.2973Z" fill="white"/>
</g>
<path d="M28.5 44C38.165 44 46 36.165 46 26.5C46 16.835 38.165 9 28.5 9C18.835 9 11 16.835 11 26.5C11 36.165 18.835 44 28.5 44Z" fill="#2573C2"/>
<path d="M39.9203 21.8936C39.8968 21.5014 39.7817 21.1202 39.5843 20.7806C39.4093 20.4306 39.0978 20.1576 38.7338 20.0176C38.3626 19.8326 37.9513 19.7424 37.5368 19.7551H22.0036L20.8906 23.0905H34.9642L32.7417 29.9085H18.6716L17.5586 33.2439H33.1652C33.6302 33.2304 34.09 33.1418 34.5267 32.9814C34.9642 32.7329 35.4647 32.4809 35.8882 32.1309C36.3017 31.805 36.6753 31.4314 37.0012 31.0179C37.2707 30.6128 37.5004 30.1827 37.6873 29.7335L39.7488 23.2515C39.9363 22.8251 39.9959 22.3533 39.9203 21.8936Z" fill="white"/>
<path d="M26.4379 24.9521H18.1569L17.0439 28.0358H25.4089L26.4379 24.9521Z" fill="white"/>
<defs>
<filter id="filter0_d" x="0" y="0" width="57" height="57" filterUnits="userSpaceOnUse" color-interpolation-filters="sRGB">
<feFlood flood-opacity="0" result="BackgroundImageFix"/>
<feColorMatrix in="SourceAlpha" type="matrix" values="0 0 0 0 0 0 0 0 0 0 0 0 0 0 0 0 0 0 127 0"/>
<feOffset dy="2"/>
<feGaussianBlur stdDeviation="2.5"/>
<feColorMatrix type="matrix" values="0 0 0 0 0 0 0 0 0 0 0 0 0 0 0 0 0 0 0.1 0"/>
<feBlend mode="normal" in2="BackgroundImageFix" result="effect1_dropShadow"/>
<feBlend mode="normal" in="SourceGraphic" in2="effect1_dropShadow" result="shape"/>
</filter>
</defs>
</svg>
