<svg width="57" height="57" viewBox="0 0 57 57" fill="none" xmlns="http://www.w3.org/2000/svg">
<g filter="url(#filter0_d)">
<path d="M52 26.4999C52 39.4786 41.4788 50 28.5001 50C15.5213 50 5 39.4786 5 26.4999C5 13.5212 15.5213 3 28.5001 3C41.4787 3 52 13.5212 52 26.4999Z" fill="white"/>
</g>
<path d="M30.7934 36.0333C33.7049 36.0333 35.8295 34.9704 37.1672 32.8444L40 35.3722C39.2393 36.85 38.059 37.9907 36.459 38.7944C34.859 39.5981 32.9705 40 30.7934 40C27.777 40 25.2328 39.1833 23.1607 37.55C21.0885 35.9167 19.6721 33.6481 18.9115 30.7444H16V27.6722H18.4393C18.3869 26.9463 18.3607 26.3889 18.3607 26C18.3607 25.3259 18.3738 24.8333 18.4 24.5222H16V21.4111H18.8721C19.6066 18.4556 21.023 16.1481 23.1213 14.4889C25.2197 12.8296 27.8033 12 30.8721 12C32.9967 12 34.859 12.4019 36.459 13.2056C38.059 14.0093 39.2393 15.137 40 16.5889L37.1672 19.1167C35.777 17.0167 33.7049 15.9667 30.9508 15.9667C29.1672 15.9667 27.6852 16.4333 26.5049 17.3667C25.3246 18.3 24.4721 19.6481 23.9475 21.4111H33.6656V24.5222H23.3967C23.3705 24.8333 23.3574 25.3259 23.3574 26C23.3574 26.3889 23.3836 26.9463 23.4361 27.6722H33.6656V30.7444H23.9869C24.5115 32.4556 25.3508 33.7648 26.5049 34.6722C27.659 35.5796 29.0885 36.0333 30.7934 36.0333Z" fill="#2F80ED"/>
<defs>
<filter id="filter0_d" x="0" y="0" width="57" height="57" filterUnits="userSpaceOnUse" color-interpolation-filters="sRGB">
<feFlood flood-opacity="0" result="BackgroundImageFix"/>
<feColorMatrix in="SourceAlpha" type="matrix" values="0 0 0 0 0 0 0 0 0 0 0 0 0 0 0 0 0 0 127 0"/>
<feOffset dy="2"/>
<feGaussianBlur stdDeviation="2.5"/>
<feColorMatrix type="matrix" values="0 0 0 0 0 0 0 0 0 0 0 0 0 0 0 0 0 0 0.1 0"/>
<feBlend mode="normal" in2="BackgroundImageFix" result="effect1_dropShadow"/>
<feBlend mode="normal" in="SourceGraphic" in2="effect1_dropShadow" result="shape"/>
</filter>
</defs>
</svg>
