<svg width="57" height="57" viewBox="0 0 57 57" fill="none" xmlns="http://www.w3.org/2000/svg">
<g filter="url(#filter0_bd)">
<path d="M52 26.4999C52 39.4786 41.4788 50 28.5001 50C15.5213 50 5 39.4786 5 26.4999C5 13.5212 15.5213 3 28.5001 3C41.4787 3 52 13.5212 52 26.4999Z" fill="white"/>
</g>
<path d="M41.6157 41.1683C41.4855 40.8122 41.2497 40.5693 41.0789 40.2536C40.6642 39.7113 40.1763 39.2418 39.6884 38.7723C39.5176 38.7157 39.4444 38.5538 39.2818 38.489C39.1761 38.3514 39.0053 38.2786 38.867 38.1733C38.5906 37.9629 38.2897 37.7848 37.9806 37.6067C37.3951 37.2344 36.6714 36.9996 35.9558 36.7568C35.1832 36.5706 34.37 36.433 33.5243 36.3197C32.6867 36.1983 31.8491 36.0849 31.2148 35.753C30.8489 35.6478 30.5805 35.4455 30.2634 35.2836C29.9706 35.0893 29.6535 34.9274 29.4095 34.6846C29.1086 34.5065 28.9216 34.207 28.6858 33.9641C28.6045 33.8023 28.4662 33.7051 28.4012 33.527C28.3198 33.4947 28.2954 33.3975 28.2466 33.3409C28.1897 33.2761 28.1897 33.1466 28.0921 33.1223C28.0433 33.4542 28.0596 33.8508 28.0921 34.1908C28.1328 34.3365 28.1491 34.5146 28.1897 34.6603C28.2141 34.7898 28.3361 35.0003 28.2873 35.0974C25.7501 34.9679 23.896 34.1665 22.2859 33.1142C21.4889 32.5881 20.8059 31.9486 20.1716 31.2606C19.8951 30.8801 19.5942 30.5159 19.3502 30.0949C19.0981 29.6821 18.8867 29.2126 18.659 28.7755C18.2849 27.8285 17.9353 26.8571 17.8052 25.6672C17.6344 24.5582 17.675 23.1417 17.9271 22.1137C18.0166 21.5471 18.2036 21.0695 18.3663 20.5757C18.472 20.3491 18.5858 20.1224 18.6834 19.8877C18.8217 19.6934 18.8948 19.4263 19.0656 19.2563C19.5291 18.3902 20.2204 17.7426 20.9278 17.1193C21.6922 16.5608 22.5624 16.1075 23.6114 15.8323C24.6198 15.6056 25.9941 15.5652 27.0838 15.7999C29.2957 16.2532 30.9627 17.2408 32.3614 18.5035C33.7764 19.742 34.8661 21.3123 35.6142 23.2226C36.3868 25.0358 36.6551 27.8608 35.9639 29.9169C35.6793 29.755 35.3947 29.6012 35.1101 29.4474C34.7685 29.3502 34.4351 29.2369 34.0366 29.1964C33.5568 29.1883 33.0852 29.1964 32.7762 29.3502C33.4023 29.2855 33.9065 29.4555 34.2969 29.6012C34.5245 29.6902 34.6547 29.7469 34.8336 29.8521C35.1832 30.0545 35.4923 30.2406 35.7525 30.5159C36.4925 31.1634 37.0211 32.0214 37.2732 33.1547C37.2732 33.1871 37.3138 33.179 37.3057 33.1223C37.3382 33.1142 37.3545 33.0899 37.3707 33.0576C37.4114 33.009 37.4602 32.9604 37.5009 32.9038C37.5822 32.8066 37.6635 32.7095 37.7204 32.5881C37.8912 32.3857 38.0294 32.1591 38.1596 31.9243C38.4604 31.4872 38.6881 30.9853 38.9484 30.5078C39.3956 29.4878 39.7616 28.387 39.9893 27.1404C40.4446 24.3721 39.8998 21.7494 38.9484 19.8148C37.9725 17.864 36.6063 16.3018 34.8417 15.1281C33.0608 13.9624 30.979 13.1044 28.1165 13.0235C28.1003 12.9668 28.0759 13.0316 28.0189 13.0235C26.5064 12.9749 25.2866 13.1854 24.0749 13.493C23.5138 13.6791 22.9283 13.841 22.4323 14.092C21.863 14.2781 21.4076 14.5857 20.8872 14.8124C20.7001 14.9905 20.4155 15.0795 20.2204 15.2495C19.9683 15.3709 19.7812 15.5652 19.5291 15.6866C19.1225 16.0428 18.6915 16.3584 18.2931 16.7227C17.9027 17.0789 17.5612 17.4836 17.1871 17.8559C17.1302 17.9855 17.0326 18.0745 16.935 18.1716C16.87 18.293 16.7887 18.3983 16.6829 18.4873C16.6423 18.633 16.5122 18.6897 16.4634 18.8354C16.3577 18.9163 16.3333 19.0782 16.2113 19.1511C16.1056 19.4101 15.9185 19.5963 15.7965 19.8391C15.6502 20.0739 15.5363 20.3329 15.3899 20.5595C15.1623 21.0857 14.9183 21.5956 14.7313 22.1623C14.5361 22.7127 14.3734 23.2955 14.2596 23.9269C14.1376 24.5178 14.0238 25.2868 14.04 25.91C13.9587 26.1367 14.0238 26.5576 14.04 26.8247C14.04 26.8733 14.0075 26.8895 14.0075 26.9219C14.0075 27.2214 14.0888 27.5856 14.1051 27.7718C14.1701 28.4598 14.2921 29.0993 14.4873 29.6578C14.6093 30.2811 14.8695 30.7668 15.0565 31.3253C15.3412 31.7948 15.5363 32.3533 15.8779 32.7742C16.13 33.268 16.4878 33.6566 16.8293 34.0613C17.1953 34.4498 17.5612 34.8465 18.0003 35.1621C18.8054 35.8583 19.7487 36.4168 20.7815 36.8944C22.7087 37.8253 25.5875 38.4324 28.1735 38.2786C28.8321 38.1895 29.499 38.1086 30.1007 37.9629C30.6537 37.7605 31.2961 37.6391 31.963 37.5581C33.4837 37.461 34.801 37.5986 35.972 37.9386C37.1593 38.2543 38.184 38.7319 39.0703 39.3551C39.542 39.6304 39.9323 39.9865 40.3308 40.3265C40.7374 40.6746 41.0627 41.1036 41.4368 41.4921C41.4855 41.6378 41.5831 41.743 41.6563 41.8726C41.7539 41.9778 41.7051 42.2206 41.9409 42.1882C42.0873 42.0425 41.9165 41.8321 41.9084 41.654C41.762 41.5002 41.7295 41.2978 41.6157 41.1683Z" fill="#FCB316"/>
<path d="M35.7121 32.5553C35.6796 32.5553 35.6715 32.5796 35.6471 32.5877C35.5902 32.7091 35.6146 32.9034 35.6471 33.0248C35.8179 33.3729 35.8748 33.8262 36.2488 33.9719C36.4278 33.9152 36.4115 33.6562 36.4034 33.4053C36.322 33.0977 36.2082 32.8225 36.0212 32.6201C35.891 32.5715 35.8016 32.4906 35.7121 32.5553ZM33.5002 33.4377C33.5002 33.4215 33.4758 33.4053 33.4677 33.4377C33.1587 33.3972 33.053 33.5672 32.8985 33.6886C32.6301 34.3928 33.0611 35.0809 33.8174 35.0728C34.1183 34.9999 34.3053 34.8056 34.3541 34.4738C34.3134 33.8829 34.0613 33.5024 33.5002 33.4377Z" fill="#FCB316"/>
<defs>
<filter id="filter0_bd" x="-11" y="-13" width="79" height="79" filterUnits="userSpaceOnUse" color-interpolation-filters="sRGB">
<feFlood flood-opacity="0" result="BackgroundImageFix"/>
<feGaussianBlur in="BackgroundImage" stdDeviation="8"/>
<feComposite in2="SourceAlpha" operator="in" result="effect1_backgroundBlur"/>
<feColorMatrix in="SourceAlpha" type="matrix" values="0 0 0 0 0 0 0 0 0 0 0 0 0 0 0 0 0 0 127 0"/>
<feOffset dy="2"/>
<feGaussianBlur stdDeviation="2.5"/>
<feColorMatrix type="matrix" values="0 0 0 0 0 0 0 0 0 0 0 0 0 0 0 0 0 0 0.1 0"/>
<feBlend mode="normal" in2="effect1_backgroundBlur" result="effect2_dropShadow"/>
<feBlend mode="normal" in="SourceGraphic" in2="effect2_dropShadow" result="shape"/>
</filter>
</defs>
</svg>
