<svg width="57" height="57" viewBox="0 0 57 57" fill="none" xmlns="http://www.w3.org/2000/svg">
<g filter="url(#filter0_bd)">
<path d="M52 26.4999C52 39.4786 41.4788 50 28.5001 50C15.5213 50 5 39.4786 5 26.4999C5 13.5212 15.5213 3 28.5001 3C41.4787 3 52 13.5212 52 26.4999Z" fill="white"/>
</g>
<path d="M25.5382 31.8072H22.5166L24.405 20.2015H27.4269L25.5382 31.8072ZM19.9747 20.2015L17.094 28.184L16.7532 26.4651L16.7535 26.4657L15.7368 21.2465C15.7368 21.2465 15.6138 20.2015 14.3035 20.2015H9.54123L9.48535 20.398C9.48535 20.398 10.9416 20.701 12.646 21.7246L15.2711 31.8075H18.4193L23.2266 20.2015H19.9747ZM43.7408 31.8072H46.5152L44.0962 20.2012H41.6673C40.5457 20.2012 40.2725 21.0661 40.2725 21.0661L35.7661 31.8072H38.9159L39.5457 30.0833H43.3869L43.7408 31.8072ZM40.4159 27.7019L42.0035 23.3587L42.8967 27.7019H40.4159ZM36.0023 22.9924L36.4335 20.5002C36.4335 20.5002 35.103 19.9941 33.7159 19.9941C32.2164 19.9941 28.6556 20.6495 28.6556 23.8362C28.6556 26.8345 32.8349 26.8717 32.8349 28.4466C32.8349 30.0215 29.0862 29.7393 27.8491 28.7462L27.3999 31.3521C27.3999 31.3521 28.7491 32.0074 30.8104 32.0074C32.8724 32.0074 35.9831 30.9398 35.9831 28.034C35.9831 25.0165 31.7663 24.7356 31.7663 23.4236C31.7666 22.1114 34.7093 22.2799 36.0023 22.9924Z" fill="#2566AF"/>
<path d="M16.7535 26.4653L15.7368 21.2461C15.7368 21.2461 15.6138 20.2012 14.3035 20.2012H9.54123L9.48535 20.3977C9.48535 20.3977 11.7743 20.872 13.9697 22.6493C16.069 24.3481 16.7535 26.4653 16.7535 26.4653Z" fill="#E6A540"/>
<defs>
<filter id="filter0_bd" x="-11" y="-13" width="79" height="79" filterUnits="userSpaceOnUse" color-interpolation-filters="sRGB">
<feFlood flood-opacity="0" result="BackgroundImageFix"/>
<feGaussianBlur in="BackgroundImage" stdDeviation="8"/>
<feComposite in2="SourceAlpha" operator="in" result="effect1_backgroundBlur"/>
<feColorMatrix in="SourceAlpha" type="matrix" values="0 0 0 0 0 0 0 0 0 0 0 0 0 0 0 0 0 0 127 0"/>
<feOffset dy="2"/>
<feGaussianBlur stdDeviation="2.5"/>
<feColorMatrix type="matrix" values="0 0 0 0 0 0 0 0 0 0 0 0 0 0 0 0 0 0 0.1 0"/>
<feBlend mode="normal" in2="effect1_backgroundBlur" result="effect2_dropShadow"/>
<feBlend mode="normal" in="SourceGraphic" in2="effect2_dropShadow" result="shape"/>
</filter>
</defs>
</svg>
