<svg width="57" height="57" viewBox="0 0 57 57" fill="none" xmlns="http://www.w3.org/2000/svg">
<g filter="url(#filter0_d)">
<path d="M51.2973 32.1851C48.1583 44.7744 35.4051 52.4354 22.8129 49.2967C10.2265 46.158 2.56386 33.4063 5.70367 20.8178C8.84127 8.22696 21.5937 0.564528 34.1823 3.70323C46.7738 6.84193 54.4357 19.595 51.2966 32.1851H51.2973Z" fill="white"/>
</g>
<path d="M40.7902 15.9629L21.0944 25.4163C21.0616 25.4326 21.0251 25.4397 20.9886 25.4367C20.9522 25.4337 20.9173 25.4207 20.8876 25.3993C20.858 25.3779 20.8348 25.3488 20.8206 25.3151C20.8063 25.2814 20.8015 25.2445 20.8068 25.2083C20.9824 24.1264 21.379 23.0922 21.9719 22.1703C22.5648 21.2484 23.3413 20.4585 24.2528 19.8499C25.1644 19.2413 26.1916 18.8269 27.2703 18.6327C28.3491 18.4385 29.4562 18.4685 30.5229 18.721C30.9519 18.8137 31.3998 18.7568 31.7921 18.5599L34.4659 17.2763C34.5293 17.2461 34.5835 17.1993 34.6227 17.141C34.6619 17.0827 34.6847 17.0149 34.6887 16.9447C34.6927 16.8745 34.6778 16.8046 34.6455 16.7422C34.6132 16.6797 34.5647 16.6271 34.5052 16.5899C32.7598 15.5614 30.7735 15.013 28.7477 15.0002C26.7219 14.9875 24.7288 15.5109 22.9706 16.5174C21.2125 17.5238 19.7519 18.9775 18.7371 20.7308C17.7223 22.4842 17.1895 24.4748 17.1926 26.5006C17.1926 26.6712 17.2031 26.8428 17.2118 27.0135H17.206C17.2105 27.0909 17.1919 27.1679 17.1524 27.2346C17.113 27.3014 17.0545 27.3549 16.9846 27.3883L16.5532 27.5954C16.3875 27.6749 16.2476 27.7996 16.1498 27.9551C16.0519 28.1107 16 28.2907 16 28.4745V31.1348C16 31.2007 16.0167 31.2656 16.0486 31.3234C16.0805 31.3811 16.1265 31.4299 16.1823 31.465C16.2381 31.5001 16.302 31.5206 16.3678 31.5243C16.4337 31.5281 16.4994 31.5151 16.5589 31.4866L40.7959 19.8522C40.9616 19.7727 41.1015 19.648 41.1993 19.4925C41.2972 19.3369 41.3491 19.1569 41.3491 18.9731V16.3147C41.3491 16.2488 41.3324 16.1839 41.3005 16.1261C41.2686 16.0684 41.2226 16.0197 41.1668 15.9845C41.1109 15.9494 41.0471 15.929 40.9813 15.9252C40.9154 15.9214 40.8497 15.9344 40.7902 15.9629Z" fill="#282D33"/>
<path d="M16.5589 37.0377L36.2547 27.5842C36.2875 27.5679 36.324 27.5609 36.3605 27.5639C36.3969 27.5669 36.4318 27.5798 36.4615 27.6013C36.4911 27.6227 36.5143 27.6518 36.5285 27.6855C36.5428 27.7192 36.5476 27.7561 36.5423 27.7923C36.3667 28.8742 35.97 29.9083 35.3772 30.8302C34.7843 31.7521 34.0078 32.542 33.0963 33.1507C32.1847 33.7593 31.1575 34.1737 30.0788 34.3679C29 34.5621 27.8928 34.532 26.8262 34.2796C26.3972 34.1869 25.9493 34.2437 25.557 34.4406L22.8832 35.7243C22.8198 35.7545 22.7656 35.8012 22.7264 35.8596C22.6872 35.9179 22.6644 35.9857 22.6604 36.0559C22.6564 36.126 22.6713 36.196 22.7036 36.2584C22.7359 36.3208 22.7843 36.3734 22.8439 36.4107C24.5893 37.4392 26.5756 37.9876 28.6014 38.0003C30.6272 38.0131 32.6203 37.4896 34.3784 36.4832C36.1366 35.4767 37.5972 34.0231 38.612 32.2697C39.6267 30.5164 40.1596 28.5258 40.1565 26.5C40.1565 26.3293 40.146 26.1577 40.1373 25.9871H40.1431C40.1386 25.9097 40.1572 25.8327 40.1967 25.7659C40.2361 25.6992 40.2946 25.6457 40.3645 25.6123L40.7959 25.4052C40.9616 25.3257 41.1015 25.201 41.1993 25.0454C41.2972 24.8899 41.3491 24.7099 41.3491 24.5261V21.8658C41.3491 21.7998 41.3324 21.7349 41.3005 21.6772C41.2686 21.6194 41.2226 21.5707 41.1668 21.5356C41.1109 21.5004 41.0471 21.48 40.9813 21.4762C40.9154 21.4724 40.8497 21.4854 40.7902 21.514L16.5532 33.1483C16.3875 33.2279 16.2476 33.3526 16.1498 33.5081C16.0519 33.6636 16 33.8437 16 34.0274V36.6868C16.0002 36.7527 16.017 36.8174 16.0489 36.8751C16.0809 36.9327 16.1269 36.9813 16.1827 37.0163C16.2385 37.0513 16.3023 37.0717 16.3681 37.0754C16.4338 37.0791 16.4995 37.0661 16.5589 37.0377Z" fill="#282D33"/>
<defs>
<filter id="filter0_d" x="0" y="0" width="57" height="57" filterUnits="userSpaceOnUse" color-interpolation-filters="sRGB">
<feFlood flood-opacity="0" result="BackgroundImageFix"/>
<feColorMatrix in="SourceAlpha" type="matrix" values="0 0 0 0 0 0 0 0 0 0 0 0 0 0 0 0 0 0 127 0"/>
<feOffset dy="2"/>
<feGaussianBlur stdDeviation="2.5"/>
<feColorMatrix type="matrix" values="0 0 0 0 0 0 0 0 0 0 0 0 0 0 0 0 0 0 0.1 0"/>
<feBlend mode="normal" in2="BackgroundImageFix" result="effect1_dropShadow"/>
<feBlend mode="normal" in="SourceGraphic" in2="effect1_dropShadow" result="shape"/>
</filter>
</defs>
</svg>
