<svg width="57" height="57" viewBox="0 0 57 57" fill="none" xmlns="http://www.w3.org/2000/svg">
<g filter="url(#filter0_d)">
<path d="M51.2973 32.1851C48.1583 44.7744 35.4051 52.4354 22.8129 49.2967C10.2265 46.158 2.56386 33.4063 5.70367 20.8178C8.84127 8.22696 21.5937 0.564528 34.1823 3.70323C46.7738 6.84193 54.4357 19.595 51.2966 32.1851H51.2973Z" fill="white"/>
</g>
<g clip-path="url(#clip0)">
<path d="M28.499 9C18.8355 9 10.999 16.8365 10.999 26.5C10.996 28.3783 11.2974 30.2447 11.8915 32.0265H17.124V17.302L28.499 28.677L39.874 17.302V32.0265H45.1065C45.6987 30.2442 46.0001 28.3781 45.999 26.5C45.999 16.8365 38.1625 9 28.499 9Z" fill="#FA6800"/>
<path d="M25.8859 31.2946L20.9194 26.3281V35.5926H13.5449C16.6179 40.6326 22.1654 43.9996 28.5004 43.9996C34.8354 43.9996 40.3829 40.6326 43.4524 35.5926H36.0779V26.3281L31.1149 31.2946L28.5004 33.9091L25.8859 31.2946Z" fill="#4C4C4C"/>
</g>
<defs>
<filter id="filter0_d" x="0" y="0" width="57" height="57" filterUnits="userSpaceOnUse" color-interpolation-filters="sRGB">
<feFlood flood-opacity="0" result="BackgroundImageFix"/>
<feColorMatrix in="SourceAlpha" type="matrix" values="0 0 0 0 0 0 0 0 0 0 0 0 0 0 0 0 0 0 127 0"/>
<feOffset dy="2"/>
<feGaussianBlur stdDeviation="2.5"/>
<feColorMatrix type="matrix" values="0 0 0 0 0 0 0 0 0 0 0 0 0 0 0 0 0 0 0.1 0"/>
<feBlend mode="normal" in2="BackgroundImageFix" result="effect1_dropShadow"/>
<feBlend mode="normal" in="SourceGraphic" in2="effect1_dropShadow" result="shape"/>
</filter>
<clipPath id="clip0">
<rect width="35" height="35" fill="white" transform="translate(11 9)"/>
</clipPath>
</defs>
</svg>
