<svg width="57" height="57" viewBox="0 0 57 57" fill="none" xmlns="http://www.w3.org/2000/svg">
<g filter="url(#filter0_d)">
<path d="M52 26.4999C52 39.4786 41.4788 50 28.5001 50C15.5213 50 5 39.4786 5 26.4999C5 13.5212 15.5213 3 28.5001 3C41.4787 3 52 13.5212 52 26.4999Z" fill="white"/>
</g>
<path d="M30.5092 11.8609C28.5203 13.0961 27.3426 15.3267 27.3426 17.6788C27.3426 18.914 27.8118 20.1588 28.3992 21.2694C28.8684 22.2614 29.0985 23.9928 27.4608 24.86C26.2923 25.5992 24.7635 25.1064 24.0642 23.868C23.3648 22.876 22.5445 21.884 21.4879 21.1446C19.499 19.9094 17.1528 19.9094 15.1637 21.1446C13.1746 22.3798 12 24.616 12 26.9688C12 29.3216 13.1686 31.5513 15.1632 32.7899C17.1522 34.0251 19.4984 34.0251 21.4875 32.7899C22.544 32.1691 23.3642 31.1835 23.9457 30.0665C24.4149 29.1993 25.7046 28.0825 27.3423 29.0745C28.5109 29.8137 28.8621 31.4299 28.2807 32.6651C27.6935 33.7819 27.3423 35.0205 27.3423 36.2557C27.3423 38.611 28.5109 40.8382 30.5089 42.0736C32.4978 43.3088 34.8441 43.3088 36.8331 42.0736C38.8222 40.8384 40 38.6078 40 36.2557C40 33.9035 38.8284 31.6731 36.8334 30.4345C35.7768 29.8137 34.6052 29.5673 33.3186 29.5673C32.262 29.5673 30.8603 28.8281 30.8603 26.9688C30.8603 25.4808 31.9169 24.3702 33.3186 24.3702C34.4872 24.3702 35.7768 24.1238 36.8334 23.503C38.8223 22.2678 40 20.0372 40 17.6852C40 15.3332 38.8284 13.1027 36.8334 11.8673C35.8951 11.2465 34.7263 11.0001 33.6702 11.0001C32.6197 10.9937 31.442 11.2465 30.5097 11.8609" fill="url(#paint0_linear)"/>
<defs>
<filter id="filter0_d" x="0" y="0" width="57" height="57" filterUnits="userSpaceOnUse" color-interpolation-filters="sRGB">
<feFlood flood-opacity="0" result="BackgroundImageFix"/>
<feColorMatrix in="SourceAlpha" type="matrix" values="0 0 0 0 0 0 0 0 0 0 0 0 0 0 0 0 0 0 127 0"/>
<feOffset dy="2"/>
<feGaussianBlur stdDeviation="2.5"/>
<feColorMatrix type="matrix" values="0 0 0 0 0 0 0 0 0 0 0 0 0 0 0 0 0 0 0.1 0"/>
<feBlend mode="normal" in2="BackgroundImageFix" result="effect1_dropShadow"/>
<feBlend mode="normal" in="SourceGraphic" in2="effect1_dropShadow" result="shape"/>
</filter>
<linearGradient id="paint0_linear" x1="12" y1="11" x2="40" y2="11" gradientUnits="userSpaceOnUse">
<stop stop-color="#11AAE2"/>
<stop offset="0.59" stop-color="#0880B7"/>
<stop offset="1" stop-color="#016197"/>
</linearGradient>
</defs>
</svg>
